<svg width="60" height="59" viewBox="0 0 60 59" fill="none" xmlns="http://www.w3.org/2000/svg">
<path d="M47.701 38.2009L48.1769 25.3735C48.2645 22.7807 46.9138 20.2936 44.7491 18.8397L33.9026 12.0167C31.6886 10.6498 28.8726 10.5508 26.571 11.7767L15.2486 17.7811C12.947 19.007 11.4817 21.395 11.3941 23.9878L10.9181 36.8152C10.8305 39.4079 12.1813 41.895 14.346 43.3489L25.1925 50.172C27.4064 51.5389 30.2225 51.6379 32.5241 50.412L43.8465 44.4076C46.1481 43.1817 47.6134 40.7937 47.701 38.2009Z" fill="#F56E16"/>
<path d="M28.6137 52.4513C28.4774 52.4891 28.3033 52.3907 28.2163 52.3415L10.989 41.5655C10.6409 41.3686 10.4782 41.0468 10.5388 40.7364L11.2662 20.3541C11.2397 19.9945 11.5237 19.6955 11.7584 19.4836L29.7508 10.0135C30.0726 9.85083 30.4322 9.82442 30.7804 10.0213L48.0946 20.8465C48.4428 21.0434 48.6055 21.3652 48.5449 21.6756L47.8175 42.0579C47.8439 42.4175 47.56 42.7165 47.3253 42.9284L29.3329 52.3985C29.1095 52.3871 28.837 52.4627 28.6137 52.4513ZM30.3715 10.1348C30.2845 10.0855 30.1482 10.1234 30.012 10.1612L12.0195 19.6313C11.834 19.7562 11.7356 19.9302 11.7242 20.1536L10.9968 40.5359C10.9854 40.7592 11.1103 40.9447 11.2844 41.0432L28.5116 51.8192C28.6857 51.9176 28.909 51.929 29.0945 51.8042L47.087 42.3341C47.2724 42.2092 47.3709 42.0351 47.3823 41.8118L48.1097 21.4294C48.1211 21.2061 47.9962 21.0206 47.8221 20.9222L30.5078 10.097C30.5456 10.2332 30.4586 10.184 30.3715 10.1348Z" fill="black"/>
<path d="M47.8685 34.045L48.3444 21.2175C48.432 18.6248 47.0813 16.1377 44.9166 14.6838L34.0701 7.86076C31.8561 6.49388 29.04 6.39485 26.7385 7.62071L15.4161 13.6251C13.1145 14.851 11.6492 17.2391 11.5615 19.8318L11.0856 32.6593C10.998 35.252 12.3487 37.7391 14.5135 39.193L25.36 46.016C27.5739 47.3829 30.39 47.4819 32.6916 46.2561L44.014 40.2516C46.2663 39.1128 47.7317 36.7248 47.8685 34.045Z" fill="#FFD100"/>
<path d="M28.8682 48.3446C28.7319 48.3824 28.5578 48.2839 28.4708 48.2347L11.2435 37.4587C10.8954 37.2618 10.7327 36.9401 10.7933 36.6297L11.5207 16.2473C11.4942 15.8877 11.7782 15.5888 12.0129 15.3769L30.0053 5.90677C30.3271 5.74408 30.6867 5.71767 31.0349 5.91456L48.2621 16.6906C48.6103 16.8875 48.773 17.2092 48.7123 17.5196L47.985 37.902C48.0114 38.2615 47.7275 38.5605 47.4927 38.7724L29.5003 48.2425C29.2278 48.3182 29.0045 48.3068 28.8682 48.3446ZM30.4898 6.06586C30.4027 6.01663 30.2665 6.05445 30.1302 6.09227L12.1378 15.5624C11.9523 15.6872 11.8538 15.8613 11.8424 16.0846L11.1151 36.467C11.1037 36.6903 11.2285 36.8758 11.4026 36.9743L28.6299 47.7503C28.804 47.8487 29.0273 47.8601 29.2128 47.7353L47.2052 38.2652C47.3907 38.1403 47.4891 37.9662 47.5005 37.7429L48.2657 17.4968C48.2771 17.2735 48.1523 17.088 47.9782 16.9895L30.7509 6.21353C30.7131 6.07726 30.6261 6.02804 30.4898 6.06586Z" fill="black"/>
<path d="M16.4266 31.5439L16.7657 21.3962C16.8455 19.833 17.7201 18.4895 19.0072 17.8387L28.028 13.0602C29.3643 12.3224 31.0146 12.4514 32.3202 13.1898L40.9528 18.6459C42.2092 19.4713 43.0341 20.8568 42.9543 22.42L42.6152 32.5677C42.5354 34.1309 41.6607 35.4744 40.3737 36.1252L31.3528 40.9037C30.0166 41.6415 28.3663 41.5125 27.0606 40.7741L18.4281 35.318C17.1716 34.4926 16.3468 33.1071 16.4266 31.5439Z" fill="#F5931A"/>
<path d="M29.0512 42.1296C28.9642 42.0803 28.8279 42.1182 28.7409 42.0689L16.4638 34.3221C16.2897 34.2236 16.0778 33.9889 16.1385 33.6785L16.7434 19.2008C16.7548 18.9775 16.9025 18.7164 17.088 18.5915L29.97 11.8607C30.1555 11.7358 30.4659 11.7964 30.6399 11.8949L42.917 19.6418C43.0911 19.7402 43.303 19.9749 43.2424 20.2853L42.7245 34.8122C42.713 35.0356 42.5654 35.2967 42.3799 35.4216L29.4979 42.1524C29.3616 42.1902 29.2253 42.228 29.0512 42.1296ZM16.5359 33.7884C16.4866 33.8754 16.5737 33.9247 16.6607 33.9739L28.9378 41.7208C29.0248 41.77 29.1119 41.8192 29.1611 41.7322L42.0431 35.0013C42.0923 34.9143 42.2286 34.8765 42.1908 34.7402L42.845 20.1755C42.8942 20.0884 42.8071 20.0392 42.7201 19.99L30.443 12.2431C30.356 12.1938 30.269 12.1446 30.2197 12.2317L17.3377 18.9625C17.2885 19.0495 17.1522 19.0874 17.1901 19.2236L16.5359 33.7884Z" fill="black"/>
<path d="M36.567 30.8706C36.7992 24.5686 26.636 26.2886 26.7956 23.1622C26.8526 22.0456 27.7915 21.1979 30.1609 21.2741C31.1905 21.2819 32.3827 21.6115 33.4765 22.1151C34.3091 22.4711 35.3122 22.1193 35.6682 21.2867C36.0242 20.4541 35.6724 19.4509 34.8397 19.095C33.833 18.6405 32.6408 18.311 31.4372 18.2047L31.4942 17.0882C31.4906 16.2819 30.8548 15.5778 30.0486 15.5814C29.2424 15.585 28.5382 16.2207 28.5418 17.027L28.4356 18.2306C24.8283 18.7181 22.977 20.773 22.9386 23.2787C22.7442 29.717 32.8696 27.8607 32.7478 31.1234C32.74 32.153 31.7141 32.9514 29.3446 32.8752C27.8685 32.8446 26.4151 32.3673 25.1472 31.7652C24.3638 31.3222 23.3607 31.674 22.9177 32.4574C22.4747 33.2408 22.8265 34.2439 23.6099 34.687C24.7907 35.2398 26.2441 35.7171 27.8451 35.9332L27.7881 37.0498C27.7917 37.856 28.4274 38.5601 29.2336 38.5565C30.0399 38.5529 30.744 37.9172 30.7404 37.1109L30.7974 35.9944C34.4917 35.5561 36.5286 33.3763 36.567 30.8706Z" fill="black"/>
<path d="M30.1705 12.3187C30.0834 12.2694 29.9964 12.2202 29.9585 12.084L30.1794 6.0052C30.1416 5.86892 30.2778 5.83111 30.4141 5.79329C30.5504 5.75547 30.5882 5.89173 30.626 6.028L30.4052 12.1068C30.443 12.243 30.3938 12.3301 30.1705 12.3187C30.2575 12.3679 30.2575 12.3679 30.1705 12.3187Z" fill="black"/>
<path d="M17.0537 19.2614L11.8046 15.9484C11.7175 15.8992 11.6797 15.7629 11.7289 15.6758C11.7782 15.5888 11.9144 15.551 12.0015 15.6002L17.1636 18.864C17.2506 18.9133 17.2885 19.0495 17.2392 19.1366C17.19 19.2236 17.1408 19.3107 17.0537 19.2614Z" fill="black"/>
<path d="M11.1793 36.9629C11.0922 36.9136 11.0922 36.9136 11.0052 36.8644C10.9674 36.7281 11.0166 36.6411 11.0658 36.554L16.4488 33.7391C16.585 33.7013 16.6721 33.7505 16.7591 33.7998C16.797 33.936 16.7477 34.0231 16.6985 34.1101L11.1793 36.9629Z" fill="black"/>
<path d="M28.8796 48.1213C28.7925 48.072 28.7055 48.0228 28.6676 47.8865L28.8885 41.8078C28.8507 41.6715 28.987 41.6337 29.1232 41.5959C29.2595 41.5581 29.2973 41.6943 29.3351 41.8306L29.1143 47.9093C29.1521 48.0456 28.9666 48.1705 28.8796 48.1213Z" fill="black"/>
<path d="M47.3793 38.3636L42.1301 35.0506C42.0431 35.0013 42.0053 34.8651 42.0545 34.778C42.1037 34.691 42.24 34.6531 42.327 34.7024L47.4892 37.9662C47.5762 38.0154 47.614 38.1517 47.5648 38.2387C47.6026 38.375 47.5156 38.3258 47.3793 38.3636Z" fill="black"/>
<path d="M42.7957 20.2625C42.7087 20.2133 42.7087 20.2133 42.6216 20.164C42.5838 20.0278 42.633 19.9407 42.6823 19.8537L48.0652 17.0387C48.2015 17.0009 48.2885 17.0502 48.3756 17.0994C48.4134 17.2357 48.3642 17.3227 48.315 17.4097L42.7957 20.2625C42.932 20.2247 42.932 20.2247 42.7957 20.2625Z" fill="black"/>
</svg>
