<?xml version="1.0" encoding="utf-8"?>
<!-- Generator: Adobe Illustrator 24.0.2, SVG Export Plug-In . SVG Version: 6.00 Build 0)  -->
<svg version="1.1" id="Capa_1" xmlns="http://www.w3.org/2000/svg" xmlns:xlink="http://www.w3.org/1999/xlink" x="0px" y="0px"
	 viewBox="0 0 296.19 180.3" style="enable-background:new 0 0 296.19 180.3;" xml:space="preserve">
<style type="text/css">
	.st0{fill:#DBAF2E;}
	.st1{fill:#D96E25;}
	.st2{fill:#E1B340;}
	.st3{fill:#DF932D;}
	.st4{fill:#F9D100;}
	.st5{fill:none;}
	.st6{fill:#5677FF;}
	.st7{fill:#92A8FF;}
	.st8{fill:#C45841;}
	.st9{fill:#F48067;}
	.st10{fill-rule:evenodd;clip-rule:evenodd;fill:#D96E25;}
	.st11{fill-rule:evenodd;clip-rule:evenodd;fill:#F9D100;}
	.st12{fill-rule:evenodd;clip-rule:evenodd;fill:#DF932D;}
</style>
<g>
	<g>
		<g>
			<g>
				<path class="st0" d="M227.65,128.99c0.44-0.74,0.85-1.37,1.07-2.04c0.32-0.65,0.52-1.23,0.74-1.9c0.41-1.15,0.62-2.33,0.71-3.43
					c0.19-2.2-0.17-4.19-0.87-5.94c-0.69-1.85-1.72-3.45-3.17-5.03c-0.68-0.73-1.56-1.5-2.48-2.07c-0.46-0.28-1-0.68-1.57-0.89
					c-0.56-0.3-1.21-0.62-1.88-0.84c-0.32,0.65-0.64,1.31-0.84,1.88s-0.41,1.15-0.51,1.74c-0.31,1.16-0.5,2.25-0.48,3.27
					c-0.17,2.1,0.09,4.08,0.68,5.91c0.59,1.83,1.49,3.62,2.84,5.18c0.67,0.83,1.45,1.58,2.44,2.26c0.44,0.38,1,0.68,1.55,0.99
					C226.31,128.55,226.98,128.77,227.65,128.99z"/>
				<path d="M227.66,129.5c0,0-0.1-0.02-0.2-0.04c-0.77-0.24-1.42-0.56-1.98-0.86c-0.65-0.32-1.19-0.72-1.65-1
					c-0.9-0.67-1.78-1.43-2.54-2.28c-1.35-1.56-2.25-3.35-2.9-5.39c-0.57-1.93-0.81-4-0.64-6.11c0.09-1.1,0.29-2.18,0.5-3.36
					c0.09-0.49,0.31-1.16,0.53-1.84c0.2-0.57,0.52-1.23,0.86-1.98c0.13-0.18,0.37-0.34,0.54-0.21c0.77,0.24,1.33,0.54,1.98,0.86
					c0.56,0.3,1.11,0.6,1.55,0.99c1,0.68,1.89,1.35,2.56,2.18c1.46,1.48,2.58,3.2,3.25,5.15c0.75,2.06,1.01,4.04,0.84,6.14
					c-0.11,1.2-0.32,2.38-0.73,3.53c-0.19,0.47-0.41,1.15-0.74,1.9c-0.32,0.65-0.64,1.31-1.17,2.03
					C227.97,129.46,227.86,129.54,227.66,129.5z M220.4,107.49c-0.28,0.46-0.49,1.03-0.66,1.41c-0.22,0.67-0.42,1.24-0.51,1.74
					c-0.29,1.07-0.48,2.15-0.56,3.15c-0.15,2,0.12,3.88,0.69,5.81c0.57,1.93,1.49,3.62,2.66,5.04c0.67,0.83,1.45,1.58,2.36,2.15
					c0.36,0.27,0.9,0.67,1.55,0.99c0.46,0.28,1.03,0.49,1.51,0.67c0.3-0.56,0.6-1.11,0.89-1.57c0.32-0.65,0.54-1.33,0.73-1.8
					c0.31-1.16,0.6-2.23,0.6-3.35c0.15-2-0.12-3.88-0.79-5.83c-0.69-1.85-1.72-3.45-3.01-4.8c-0.68-0.73-1.58-1.4-2.48-2.07
					c-0.46-0.28-0.91-0.57-1.47-0.87C221.45,107.88,220.97,107.7,220.4,107.49z"/>
			</g>
			<g>
				<path class="st0" d="M215.21,143.54c0.61-0.6,1.03-1.24,1.45-1.87c0.42-0.64,0.72-1.19,1.02-1.75c0.6-1.11,1.01-2.26,1.3-3.32
					c0.58-2.13,0.64-4.15,0.28-6.15c-0.37-1.89-1.06-3.74-2.28-5.48c-0.57-0.81-1.33-1.66-2.19-2.52c-0.44-0.38-0.88-0.77-1.42-1.17
					c-0.54-0.4-1.09-0.7-1.73-1.12c-0.52,0.62-0.82,1.17-1.22,1.71c-0.3,0.56-0.6,1.11-0.91,1.67c-0.51,1.13-0.89,2.18-1.09,3.26
					c-0.47,2.05-0.62,4.05-0.36,6.03c0.26,1.98,0.85,3.81,1.85,5.61c0.55,0.91,1.21,1.74,1.98,2.59c0.44,0.38,0.86,0.86,1.4,1.26
					C213.92,142.8,214.56,143.22,215.21,143.54z"/>
				<path d="M215.22,144.05c-0.1-0.02-0.2-0.04-0.2-0.04c-0.75-0.34-1.29-0.74-1.83-1.14c-0.64-0.42-1.06-0.9-1.4-1.26
					c-0.86-0.86-1.53-1.69-2.06-2.7c-1.02-1.7-1.69-3.65-1.91-5.82c-0.24-2.07-0.07-4.18,0.4-6.23c0.29-1.07,0.7-2.21,1.19-3.24
					c0.32-0.65,0.6-1.11,0.92-1.77c0.3-0.56,0.72-1.19,1.24-1.81c0.13-0.18,0.35-0.24,0.63-0.09c0.65,0.32,1.29,0.74,1.83,1.14
					c0.54,0.4,1.08,0.8,1.42,1.17c0.88,0.77,1.63,1.71,2.19,2.52c1.21,1.74,2,3.61,2.34,5.7c0.32,2.19,0.27,4.21-0.32,6.34
					c-0.31,1.16-0.72,2.31-1.32,3.42c-0.3,0.56-0.62,1.21-1.14,1.83c-0.42,0.64-0.93,1.26-1.55,1.86
					C215.44,143.99,215.34,143.97,215.22,144.05z M211.92,120.91c-0.38,0.44-0.67,0.9-0.95,1.35c-0.3,0.56-0.59,1.01-0.91,1.67
					c-0.49,1.03-0.88,2.08-1.07,3.16c-0.45,1.95-0.6,3.96-0.33,5.83c0.24,2.07,0.85,3.81,1.78,5.4c0.55,0.91,1.21,1.74,1.9,2.47
					c0.34,0.37,0.78,0.75,1.32,1.15c0.46,0.28,0.9,0.67,1.35,0.95c0.5-0.52,0.88-0.96,1.18-1.52c0.42-0.64,0.72-1.19,1.02-1.75
					c0.59-1.01,0.99-2.16,1.28-3.22c0.55-1.93,0.6-3.96,0.25-5.95c-0.37-1.89-1.08-3.65-2.21-5.27c-0.57-0.81-1.23-1.64-2.11-2.41
					c-0.44-0.38-0.88-0.77-1.32-1.15C212.83,121.48,212.38,121.2,211.92,120.91z"/>
			</g>
			<g>
				<path class="st0" d="M199.07,154.89c0.7-0.49,1.31-1.09,1.81-1.61c0.5-0.52,1-1.04,1.4-1.58c0.8-1.08,1.39-2.09,1.88-3.12
					c0.98-2.06,1.34-4.13,1.38-6.05s-0.42-3.93-1.3-5.82c-0.43-0.99-0.98-1.9-1.75-2.75c-0.32-0.46-0.75-0.95-1.19-1.33
					c-0.42-0.48-0.96-0.88-1.58-1.4c-0.6,0.5-1.1,1.02-1.5,1.56c-0.4,0.54-0.8,1.08-1.18,1.52c-0.68,1-1.27,2.01-1.66,3.06
					c-0.86,1.98-1.31,3.93-1.46,5.94s0.12,3.88,0.89,5.85c0.33,0.97,0.87,1.98,1.51,2.91c0.32,0.46,0.75,0.95,1.17,1.43
					C197.92,153.97,198.44,154.47,199.07,154.89z"/>
				<path d="M199.08,155.4c-0.1-0.02-0.2-0.04-0.3-0.05c-0.62-0.52-1.16-0.92-1.66-1.51c-0.52-0.5-0.83-1.06-1.17-1.43
					c-0.65-0.93-1.18-1.94-1.59-3.03c-0.69-1.85-1.04-3.84-0.86-6.04c0.07-2.12,0.62-4.05,1.5-6.13c0.49-1.03,1.07-2.04,1.76-3.04
					c0.4-0.54,0.7-1.09,1.2-1.61c0.4-0.54,0.9-1.06,1.51-1.66c0.13-0.18,0.43-0.13,0.61,0.01c0.64,0.42,1.16,0.92,1.58,1.4
					c0.52,0.5,0.84,0.96,1.27,1.44c0.75,0.95,1.3,1.86,1.83,2.86c0.88,1.88,1.34,3.89,1.27,6.01c0.01,2.24-0.46,4.29-1.42,6.25
					c-0.51,1.13-1.19,2.12-1.99,3.2c-0.38,0.44-0.8,1.08-1.4,1.58c-0.5,0.52-1.11,1.12-1.81,1.61
					C199.3,155.34,199.18,155.42,199.08,155.4z M199.82,131.86c-0.48,0.42-0.86,0.86-1.13,1.22c-0.4,0.54-0.8,1.08-1.18,1.52
					c-0.68,1-1.16,1.93-1.64,2.96c-0.84,1.88-1.27,3.73-1.43,5.74c-0.05,2.02,0.12,3.88,0.81,5.73c0.33,0.97,0.88,1.88,1.43,2.79
					c0.34,0.37,0.65,0.93,1.07,1.41c0.34,0.37,0.78,0.75,1.22,1.13c0.58-0.4,1.06-0.83,1.46-1.37c0.52-0.62,1.02-1.14,1.4-1.58
					c0.78-0.98,1.37-1.99,1.86-3.02c0.84-1.88,1.29-3.83,1.35-5.85c0.04-1.92-0.44-3.84-1.24-5.6c-0.45-0.89-1-1.8-1.65-2.73
					c-0.32-0.46-0.76-0.85-1.19-1.33C200.7,132.63,200.26,132.25,199.82,131.86z"/>
			</g>
			<g>
				<path class="st0" d="M230.94,127.65c0.52-0.62,1.03-1.24,1.63-1.74c0.5-0.52,1.08-0.93,1.58-1.45c1.06-0.83,2.1-1.56,3.23-2.17
					c2.15-1.24,4.23-2.09,6.47-2.71c2.23-0.52,4.42-0.84,6.73-0.73c1.1,0.09,2.3,0.21,3.56,0.53c0.57,0.2,1.16,0.31,1.82,0.63
					c0.57,0.2,1.23,0.52,1.86,0.94c-0.45,0.83-0.97,1.45-1.49,2.07c-0.52,0.62-1.02,1.14-1.63,1.74c-1.1,1.02-2.17,1.95-3.32,2.66
					c-2.19,1.44-4.5,2.45-6.82,2.95s-4.59,0.71-6.86,0.3c-1.08-0.19-2.25-0.5-3.39-0.91c-0.57-0.2-1.13-0.51-1.68-0.81
					C232.01,128.45,231.47,128.05,230.94,127.65z"/>
				<path d="M240.45,131.27c-1.02,0.02-1.92-0.04-2.91-0.21c-1.18-0.21-2.35-0.52-3.47-1.02c-0.47-0.19-1.13-0.51-1.77-0.92
					c-0.56-0.3-1.19-0.72-1.71-1.22c-0.18-0.13-0.23-0.45-0.09-0.63c0.53-0.72,1.13-1.22,1.63-1.74c0.6-0.5,1.1-1.02,1.58-1.45
					c1.06-0.83,2.1-1.56,3.25-2.27c2.05-1.26,4.23-2.09,6.57-2.69c2.34-0.6,4.63-0.9,6.83-0.72c1.22,0.01,2.4,0.22,3.56,0.53
					c0.57,0.2,1.16,0.31,1.82,0.63c0.67,0.22,1.33,0.54,1.96,0.96c0.1,0.02,0.18,0.13,0.24,0.35c-0.02,0.1,0.06,0.21-0.07,0.39
					c-0.55,0.82-0.99,1.55-1.6,2.15c-0.53,0.72-1.13,1.22-1.63,1.74c-1.1,1.02-2.17,1.95-3.32,2.66c-2.19,1.44-4.5,2.45-6.94,3.03
					C243.23,131.05,241.76,131.3,240.45,131.27z M231.56,127.56c0.44,0.38,0.8,0.65,1.27,0.84c0.56,0.3,1.11,0.6,1.59,0.79
					c1.05,0.39,2.1,0.78,3.29,0.89c2.07,0.37,4.32,0.26,6.66-0.34c2.34-0.6,4.54-1.53,6.61-2.89c1.14-0.71,2.22-1.64,3.2-2.58
					c0.48-0.42,1-1.04,1.51-1.66c0.4-0.54,0.8-1.08,1.2-1.61c-0.46-0.28-0.93-0.47-1.41-0.66c-0.67-0.22-1.24-0.42-1.72-0.61
					c-1.07-0.29-2.25-0.5-3.46-0.51c-2.12-0.07-4.29,0.15-6.54,0.77c-2.24,0.62-4.32,1.47-6.36,2.63c-1.03,0.63-2.17,1.34-3.13,2.19
					c-0.48,0.42-1.06,0.83-1.56,1.35C232.44,126.6,232.06,127.04,231.56,127.56z"/>
			</g>
			<g>
				<path class="st0" d="M218.72,142.64c0.71-0.58,1.31-1.09,1.89-1.49c0.58-0.4,1.26-0.79,1.84-1.2c1.24-0.69,2.46-1.29,3.55-1.7
					c2.39-0.89,4.62-1.41,6.91-1.72c2.27-0.21,4.51-0.21,6.75,0.29c1.08,0.19,2.23,0.6,3.36,1.11c0.56,0.3,1.13,0.51,1.67,0.91
					c0.56,0.3,1.09,0.7,1.61,1.2c-0.63,0.7-1.25,1.3-1.96,1.89c-0.6,0.5-1.29,0.99-1.89,1.49c-1.28,0.89-2.52,1.58-3.74,2.18
					c-2.43,1.09-4.87,1.67-7.24,1.86c-2.37,0.19-4.67-0.02-6.88-0.72c-1.05-0.39-2.18-0.89-3.19-1.48c-0.56-0.3-1-0.68-1.53-1.09
					C219.65,143.72,219.22,143.24,218.72,142.64z"/>
				<path d="M230.47,147.98c-2.04,0.04-4.03-0.21-5.75-0.82c-1.15-0.41-2.28-0.91-3.29-1.5c-0.64-0.42-1.08-0.8-1.52-1.18
					c-0.54-0.4-1.06-0.9-1.46-1.48c-0.16-0.23-0.11-0.53,0.02-0.71c0.71-0.58,1.31-1.09,2.01-1.57c0.7-0.49,1.28-0.89,1.84-1.2
					c1.24-0.69,2.46-1.29,3.67-1.79c2.3-0.91,4.62-1.41,7.01-1.7c2.49-0.27,4.7-0.18,6.95,0.32c1.18,0.21,2.33,0.62,3.46,1.12
					c0.65,0.32,1.21,0.62,1.77,0.92c0.56,0.3,1.17,0.82,1.7,1.32c0.18,0.13,0.23,0.45-0.01,0.61c-0.63,0.7-1.26,1.4-1.96,1.89
					c-0.71,0.58-1.41,1.07-1.89,1.49c-1.28,0.89-2.52,1.58-3.84,2.16c-2.43,1.09-4.89,1.77-7.45,1.93
					C231.29,147.92,230.88,147.95,230.47,147.98z M219.43,142.67c0.34,0.37,0.68,0.73,1.04,1c0.44,0.38,0.9,0.67,1.44,1.07
					c0.91,0.57,2.04,1.07,3.09,1.46c2.02,0.66,4.31,0.87,6.67,0.78c2.37-0.19,4.81-0.77,7.14-1.88c1.22-0.6,2.46-1.29,3.72-2.08
					c0.46-0.32,1.16-0.81,1.87-1.39c0.48-0.42,1.08-0.93,1.58-1.45c-0.44-0.38-0.8-0.65-1.27-0.84c-0.56-0.3-1.01-0.59-1.67-0.91
					c-1.03-0.49-2.19-0.8-3.26-1.09c-2.05-0.47-4.27-0.56-6.66-0.27s-4.61,0.8-6.79,1.64c-1.21,0.5-2.41,0.99-3.55,1.7
					c-0.56,0.31-1.24,0.69-1.84,1.2C220.39,141.82,219.91,142.24,219.43,142.67z"/>
			</g>
			<g>
				<path class="st0" d="M202.79,154.54c0.79-0.47,1.47-0.86,2.25-1.23c0.68-0.39,1.42-0.56,2.08-0.85c1.3-0.48,2.59-0.86,3.86-1.14
					c2.54-0.56,4.91-0.75,7.11-0.56c2.32,0.11,4.47,0.59,6.66,1.39c1.05,0.39,2.06,0.98,3.06,1.66c0.54,0.4,1,0.68,1.52,1.18
					c0.44,0.38,0.96,0.88,1.37,1.46c-0.71,0.58-1.53,1.15-2.2,1.54c-0.7,0.49-1.47,0.86-2.13,1.14c-1.44,0.66-2.74,1.14-4.13,1.5
					c-2.67,0.74-5.14,0.91-7.54,0.69s-4.53-0.81-6.57-1.88c-1.03-0.49-1.93-1.16-2.89-2.04c-0.44-0.38-0.86-0.86-1.28-1.35
					C203.49,155.78,203.08,155.2,202.79,154.54z"/>
				<path d="M216.7,161.99c-0.71-0.02-1.41-0.05-2.12-0.07c-2.5-0.24-4.82-0.86-6.77-1.91c-1.01-0.59-2.01-1.27-2.99-2.05
					c-0.34-0.37-0.86-0.86-1.38-1.36c-0.42-0.48-0.83-1.06-1.21-1.74c-0.16-0.23-0.01-0.51,0.2-0.57c0.79-0.47,1.47-0.86,2.25-1.23
					c0.78-0.37,1.44-0.66,2.08-0.85c1.3-0.48,2.59-0.86,3.96-1.12c2.44-0.58,4.81-0.77,7.32-0.63c2.51,0.14,4.66,0.63,6.76,1.4
					c1.15,0.41,2.16,0.99,3.15,1.68c0.46,0.28,1,0.68,1.52,1.18c0.54,0.4,0.94,0.98,1.45,1.58c0.16,0.23,0.11,0.53-0.12,0.69
					c-0.81,0.57-1.53,1.15-2.32,1.62c-0.79,0.47-1.59,0.94-2.13,1.14c-1.34,0.68-2.74,1.14-4.14,1.6
					C220.42,161.63,218.55,161.91,216.7,161.99z M203.37,154.74c0.23,0.45,0.57,0.81,0.91,1.18c0.42,0.48,0.94,0.98,1.28,1.35
					c0.78,0.75,1.78,1.43,2.71,1.9c1.86,0.94,3.98,1.62,6.39,1.75c2.4,0.22,4.88-0.05,7.34-0.73c1.38-0.36,2.69-0.84,4.03-1.52
					c0.56-0.31,1.34-0.68,2.13-1.14c0.56-0.31,1.16-0.81,1.84-1.2c-0.34-0.37-0.68-0.73-1.02-1.1c-0.52-0.5-0.98-0.78-1.42-1.17
					c-0.9-0.67-1.93-1.16-2.98-1.54c-2-0.76-4.05-1.23-6.46-1.35c-2.42-0.12-4.69,0.08-7.01,0.58c-1.27,0.28-2.56,0.66-3.86,1.14
					c-0.54,0.21-1.3,0.48-1.98,0.87C204.61,154.05,203.95,154.33,203.37,154.74z"/>
			</g>
			<g>
				<g>
					<path class="st0" d="M171.47,167.35c-0.41,0.03-0.87-0.26-0.88-0.77c-0.11-0.53,0.18-0.98,0.7-1.09
						c27.47-5.98,51.04-23.73,63.17-47.37c0.28-0.46,0.83-0.67,1.29-0.38c0.46,0.28,0.67,0.83,0.38,1.29
						c-3.86,7.44-11.02,18.56-23.38,28.65c-11.88,9.67-25.66,16.36-40.99,19.73C171.56,167.37,171.47,167.35,171.47,167.35z"/>
					<path d="M171.38,167.84c-0.71-0.02-1.24-0.42-1.44-1.07c-0.17-0.74,0.26-1.48,1.1-1.63c27.27-6.02,50.81-23.57,62.82-47.13
						c0.32-0.65,1.19-1.01,1.93-0.57c0.65,0.32,1.01,1.19,0.57,1.93c-3.88,7.54-11.04,18.66-23.51,28.83
						c-11.89,9.77-25.78,16.44-41.2,19.79C171.59,167.78,171.49,167.76,171.38,167.84z M235.18,118.04
						c-0.2-0.04-0.33,0.14-0.45,0.23c-12.16,23.84-35.95,41.65-63.52,47.61c-0.21,0.06-0.46,0.32-0.4,0.54
						c0.06,0.21,0.32,0.46,0.54,0.4c15.33-3.37,29.09-9.96,40.85-19.55c12.36-10.09,19.5-21.11,23.26-28.57
						c0.13-0.18-0.01-0.51-0.19-0.64C235.38,118.08,235.28,118.06,235.18,118.04z"/>
				</g>
			</g>
			<g>
				<path class="st0" d="M235.19,118.55c-0.29-0.66-0.58-1.32-0.79-1.87c-0.19-0.64-0.3-1.17-0.39-1.8c-0.2-1.15-0.3-2.29-0.31-3.41
					c0.07-2.12,0.44-4.19,1.18-6.09c0.65-1.92,1.68-3.76,3.02-5.56c0.67-0.9,1.43-1.78,2.4-2.62c0.48-0.42,0.96-0.84,1.54-1.25
					s1.16-0.81,1.84-1.2c0.4,0.58,0.81,1.16,1.02,1.7c0.31,0.56,0.51,1.11,0.7,1.75c0.42,1.09,0.62,2.24,0.64,3.26
					c0.12,2.16-0.14,4.24-0.92,6.34c-0.66,2.02-1.84,4.04-3.37,5.8c-0.77,0.88-1.75,1.82-2.81,2.65c-0.58,0.4-1.06,0.83-1.74,1.21
					C236.65,117.8,235.97,118.18,235.19,118.55z"/>
				<path d="M235.22,118.96c-0.2-0.04-0.39-0.07-0.46-0.28c-0.29-0.66-0.58-1.32-0.77-1.96c-0.19-0.64-0.38-1.29-0.49-1.81
					c-0.2-1.15-0.3-2.29-0.29-3.51c0.07-2.12,0.44-4.19,1.22-6.28c0.78-2.1,1.82-3.94,3.15-5.74c0.67-0.9,1.55-1.86,2.41-2.72
					c0.48-0.42,0.96-0.84,1.54-1.25c0.58-0.4,1.16-0.81,1.86-1.3c0.23-0.16,0.51-0.01,0.59,0.11c0.4,0.58,0.79,1.26,1.1,1.82
					c0.29,0.66,0.58,1.32,0.7,1.75c0.4,1.19,0.62,2.24,0.7,3.48c0.12,2.16-0.16,4.34-0.86,6.55c-0.8,2.19-1.97,4.22-3.5,5.98
					c-0.78,0.98-1.76,1.92-2.82,2.75c-0.7,0.49-1.18,0.91-1.74,1.21c-0.58,0.4-1.36,0.77-2.13,1.14
					C235.32,118.98,235.32,118.98,235.22,118.96z M243.5,95.25c-0.56,0.31-1.03,0.63-1.39,0.97c-0.58,0.4-1.06,0.83-1.44,1.27
					c-0.85,0.76-1.61,1.64-2.28,2.54c-1.32,1.7-2.24,3.46-3,5.46c-0.76,2-1.11,3.97-1.17,5.99c0,1.12,0.03,2.14,0.23,3.29
					c0.11,0.53,0.2,1.15,0.41,1.7c0.13,0.43,0.33,0.97,0.56,1.42c0.56-0.31,1.11-0.51,1.57-0.84c0.56-0.31,1.04-0.73,1.74-1.21
					c0.95-0.75,1.91-1.59,2.69-2.57c1.42-1.68,2.57-3.61,3.25-5.72c0.66-2.02,1.03-4.08,0.89-6.14c-0.12-1.04-0.32-2.19-0.66-3.16
					c-0.13-0.43-0.32-1.07-0.62-1.63C244.05,96.16,243.83,95.71,243.5,95.25z"/>
			</g>
		</g>
		<g>
			<g>
				<path class="st0" d="M74.15,131.46c-0.49-0.7-0.87-1.37-1.18-1.94c-0.29-0.66-0.6-1.22-0.79-1.87c-0.4-1.19-0.7-2.36-0.82-3.4
					c-0.22-2.17,0.03-4.16,0.66-5.98c0.63-1.82,1.55-3.58,3.03-5.05c0.65-0.8,1.48-1.46,2.42-2.21c0.46-0.32,0.93-0.65,1.49-0.95
					s1.12-0.61,1.88-0.88c0.39,0.68,0.69,1.24,0.88,1.88c0.21,0.54,0.4,1.19,0.61,1.73c0.3,1.17,0.52,2.23,0.64,3.26
					c0.24,2.07-0.01,4.06-0.44,5.91c-0.53,1.84-1.35,3.62-2.67,5.31c-0.65,0.8-1.4,1.58-2.34,2.33c-0.46,0.32-0.95,0.75-1.51,1.05
					C75.57,130.9,74.89,131.28,74.15,131.46z"/>
				<path d="M74.16,131.97c-0.1-0.02-0.3-0.05-0.38-0.17c-0.49-0.7-0.87-1.37-1.16-2.03c-0.39-0.68-0.58-1.32-0.79-1.87
					c-0.4-1.19-0.7-2.36-0.8-3.49c-0.24-2.07,0.03-4.16,0.69-6.17c0.65-1.92,1.68-3.76,3.07-5.24c0.75-0.78,1.6-1.54,2.54-2.29
					c0.46-0.32,1.03-0.63,1.61-1.03c0.56-0.31,1.12-0.61,1.88-0.88c0.21-0.06,0.51-0.01,0.57,0.2c0.39,0.68,0.68,1.34,0.98,1.9
					c0.29,0.66,0.48,1.3,0.61,1.73c0.3,1.17,0.52,2.23,0.62,3.36c0.24,2.07,0.07,4.18-0.48,6.11c-0.58,2.13-1.51,3.9-2.71,5.51
					c-0.67,0.9-1.51,1.66-2.46,2.41c-0.37,0.34-0.95,0.75-1.61,1.03c-0.56,0.31-1.24,0.69-2,0.96
					C74.26,131.98,74.26,131.98,74.16,131.97z M80.74,109.78c-0.54,0.21-0.99,0.43-1.44,0.66c-0.56,0.31-1.03,0.63-1.49,0.95
					c-0.93,0.65-1.66,1.33-2.41,2.11c-1.28,1.5-2.29,3.15-2.91,4.97c-0.65,1.92-0.88,3.8-0.62,5.78c0.1,1.14,0.32,2.19,0.74,3.28
					c0.23,0.45,0.42,1.09,0.7,1.75c0.21,0.54,0.53,1.01,0.94,1.59c0.54-0.21,1.09-0.42,1.55-0.74c0.56-0.31,1.14-0.71,1.49-0.95
					c0.83-0.67,1.58-1.45,2.23-2.24c1.18-1.52,1.99-3.2,2.54-5.13c0.55-1.93,0.67-3.74,0.42-5.82c-0.12-1.04-0.34-2.09-0.66-3.16
					c-0.11-0.53-0.32-1.07-0.61-1.73C81.19,110.67,80.97,110.22,80.74,109.78z"/>
			</g>
			<g>
				<path class="st0" d="M87.06,145.64c-0.6-0.61-1.1-1.21-1.51-1.79s-0.81-1.16-1.12-1.72c-0.61-1.12-1.13-2.23-1.44-3.3
					c-0.63-2.14-0.68-4.18-0.44-6.07c0.25-1.99,0.98-3.79,2.1-5.52c0.57-0.91,1.22-1.71,2.08-2.58c0.38-0.44,0.86-0.86,1.33-1.19
					c0.48-0.42,1.06-0.83,1.72-1.12c0.5,0.6,0.91,1.18,1.21,1.74c0.31,0.56,0.61,1.12,0.92,1.69c0.51,1.11,0.95,2.1,1.26,3.17
					c0.55,2.03,0.79,4.1,0.56,5.99c-0.14,1.91-0.68,3.84-1.72,5.69c-0.47,0.93-1.14,1.83-1.9,2.71c-0.38,0.44-0.86,0.86-1.35,1.28
					C88.32,144.84,87.74,145.25,87.06,145.64z"/>
				<path d="M87.09,146.05c-0.1-0.02-0.3-0.05-0.38-0.17c-0.6-0.61-1.1-1.21-1.61-1.81c-0.5-0.6-0.79-1.26-1.12-1.72
					c-0.61-1.12-1.13-2.23-1.43-3.4c-0.65-2.05-0.78-4.2-0.51-6.29c0.27-2.09,1.01-3.98,2.13-5.71c0.57-0.91,1.33-1.79,2.1-2.67
					c0.37-0.34,0.86-0.86,1.44-1.27c0.48-0.42,1.06-0.83,1.74-1.21c0.21-0.06,0.41-0.03,0.59,0.11c0.5,0.6,0.91,1.18,1.31,1.76
					c0.31,0.56,0.63,1.03,0.92,1.69c0.51,1.11,0.93,2.2,1.25,3.27c0.55,2.03,0.79,4.1,0.62,6.2c-0.19,2.2-0.74,4.14-1.76,5.88
					c-0.59,1.01-1.25,1.91-2.02,2.79c-0.37,0.34-0.86,0.86-1.35,1.28c-0.48,0.42-1.16,0.81-1.84,1.2
					C87.19,146.07,87.19,146.07,87.09,146.05z M89.69,122.85c-0.46,0.32-0.91,0.55-1.28,0.89c-0.48,0.42-0.96,0.84-1.33,1.19
					c-0.75,0.78-1.5,1.56-1.97,2.49c-1.1,1.63-1.73,3.45-1.96,5.34c-0.25,1.99-0.09,3.94,0.48,5.87c0.32,1.07,0.73,2.16,1.36,3.19
					c0.32,0.46,0.63,1.03,1.12,1.72c0.32,0.46,0.75,0.95,1.27,1.44c0.56-0.31,0.93-0.65,1.39-0.97c0.58-0.4,0.96-0.84,1.33-1.19
					c0.75-0.78,1.32-1.7,1.89-2.61c0.91-1.67,1.42-3.4,1.59-5.51c0.14-1.91-0.02-3.86-0.58-5.89c-0.32-1.07-0.65-2.05-1.18-3.05
					c-0.31-0.56-0.61-1.12-0.94-1.59C90.34,123.77,90.02,123.31,89.69,122.85z"/>
			</g>
			<g>
				<path class="st0" d="M103.52,156.49c-0.72-0.53-1.34-1.05-1.86-1.55c-0.52-0.5-1.04-1-1.45-1.58c-0.83-1.06-1.46-2.09-1.99-3.1
					c-1.06-2.02-1.52-4.03-1.56-6.07c-0.06-1.94,0.29-3.91,1.03-5.81c0.37-0.95,0.94-1.86,1.63-2.86c0.38-0.44,0.68-1,1.17-1.42
					c0.38-0.44,0.88-0.96,1.46-1.37c0.62,0.52,1.14,1.02,1.56,1.5s0.84,0.96,1.25,1.54c0.73,1.04,1.28,1.95,1.81,2.96
					c0.96,2,1.44,3.91,1.6,5.87s0.01,3.96-0.64,5.88c-0.37,0.95-0.76,2-1.45,2.99c-0.28,0.46-0.68,1-1.07,1.44
					C104.61,155.46,104.12,155.98,103.52,156.49z"/>
				<path d="M103.55,156.9c-0.1-0.02-0.2-0.04-0.3-0.05c-0.72-0.53-1.34-1.05-1.96-1.57c-0.6-0.61-1.12-1.11-1.45-1.58
					c-0.83-1.06-1.56-2.1-2.09-3.11c-0.96-2-1.52-4.03-1.64-6.18c-0.03-2.14,0.32-4.11,1.07-6.01c0.39-1.05,0.96-1.96,1.64-2.96
					c0.38-0.44,0.78-0.98,1.17-1.42c0.5-0.52,0.98-0.94,1.58-1.45c0.13-0.18,0.43-0.13,0.61,0.01c0.62,0.52,1.14,1.02,1.54,1.6
					c0.42,0.48,0.83,1.06,1.25,1.54c0.73,1.04,1.36,2.07,1.79,3.06c0.96,2,1.54,3.93,1.66,6.08c0.22,2.17-0.03,4.16-0.67,6.08
					c-0.39,1.05-0.88,2.08-1.46,3.09c-0.28,0.46-0.68,1-1.18,1.52c-0.4,0.54-1,1.04-1.6,1.54
					C103.74,156.93,103.65,156.91,103.55,156.9z M102.03,133.47c-0.46,0.32-0.85,0.76-1.11,1.12c-0.48,0.42-0.78,0.98-1.17,1.42
					c-0.67,0.9-1.14,1.83-1.61,2.76c-0.73,1.8-1.16,3.65-1,5.61c0.04,2.04,0.61,3.97,1.5,5.85c0.53,1.01,1.16,2.03,1.91,2.98
					c0.32,0.46,0.84,0.96,1.37,1.46c0.44,0.38,0.96,0.88,1.5,1.28c0.48-0.42,0.85-0.76,1.23-1.2c0.5-0.52,0.78-0.98,1.07-1.44
					c0.57-0.91,1.04-1.85,1.41-2.8c0.63-1.82,0.84-3.61,0.6-5.68c-0.16-1.96-0.73-3.89-1.61-5.77c-0.43-0.99-1.08-1.92-1.73-2.85
					c-0.32-0.46-0.75-0.95-1.17-1.43C102.9,134.23,102.56,133.87,102.03,133.47z"/>
			</g>
			<g>
				<path class="st0" d="M70.82,130.15c-0.6-0.61-1.1-1.21-1.63-1.71c-0.52-0.5-1.06-0.9-1.7-1.32c-1.08-0.8-2.17-1.5-3.28-2.11
					c-2.12-1.19-4.32-1.99-6.57-2.49c-2.25-0.5-4.45-0.69-6.72-0.48c-1.14,0.1-2.29,0.3-3.46,0.6c-0.64,0.19-1.19,0.4-1.83,0.59
					c-0.56,0.31-1.22,0.6-1.8,1c0.47,0.79,1.07,1.41,1.57,2.01c0.5,0.6,1.12,1.11,1.64,1.61c1.14,1.02,2.22,1.82,3.41,2.54
					c2.29,1.42,4.58,2.24,6.92,2.75c2.25,0.5,4.58,0.51,6.89,0.11c1.15-0.2,2.23-0.52,3.33-1.03c0.56-0.31,1.11-0.51,1.69-0.92
					C69.74,131.08,70.32,130.68,70.82,130.15z"/>
				<path d="M61.47,134.18c-1.33,0.07-2.73-0.08-4.19-0.44c-2.44-0.54-4.82-1.47-7.02-2.77c-1.19-0.72-2.35-1.64-3.41-2.54
					c-0.52-0.5-1.04-1-1.72-1.73c-0.6-0.61-1.09-1.31-1.65-2.12c-0.08-0.12-0.06-0.21-0.05-0.31c0.02-0.1,0.13-0.18,0.15-0.28
					c0.68-0.39,1.26-0.79,1.9-0.98c0.66-0.29,1.3-0.48,1.85-0.69c1.17-0.3,2.34-0.6,3.58-0.68c2.27-0.21,4.47-0.02,6.92,0.52
					c2.35,0.52,4.54,1.32,6.66,2.51c1.11,0.6,2.21,1.31,3.28,2.11c0.54,0.4,1.06,0.9,1.68,1.42c0.52,0.5,1.12,1.11,1.72,1.73
					c0.16,0.23,0.13,0.43-0.02,0.71c-0.6,0.5-1.08,0.93-1.66,1.33c-0.58,0.4-1.24,0.69-1.69,0.92c-1.11,0.51-2.3,0.91-3.45,1.11
					C63.43,134.02,62.4,134.14,61.47,134.18z M44.61,124.48c0.4,0.58,0.83,1.06,1.25,1.54c0.6,0.61,1.1,1.21,1.64,1.61
					c1.06,0.9,2.12,1.8,3.31,2.52c2.11,1.29,4.38,2.2,6.73,2.72c2.35,0.52,4.58,0.51,6.69,0.07c1.15-0.2,2.23-0.52,3.23-1.05
					c0.45-0.23,1.01-0.53,1.57-0.84c0.45-0.23,0.81-0.57,1.18-0.91c-0.42-0.48-0.86-0.86-1.3-1.25c-0.52-0.5-1.16-0.92-1.6-1.3
					c-0.98-0.78-2.07-1.49-3.18-2.09c-2.04-1.07-4.14-1.85-6.37-2.45c-2.25-0.5-4.45-0.69-6.62-0.47c-1.14,0.1-2.29,0.3-3.36,0.62
					c-0.53,0.11-1.07,0.32-1.73,0.61C45.51,124.03,44.96,124.23,44.61,124.48z"/>
			</g>
			<g>
				<path class="st0" d="M83.55,144.81c-0.72-0.53-1.34-1.05-1.97-1.47c-0.64-0.42-1.29-0.74-1.93-1.16
					c-1.21-0.62-2.44-1.14-3.68-1.57c-2.39-0.83-4.64-1.33-6.96-1.44c-2.3-0.21-4.57,0-6.8,0.52c-1.17,0.3-2.24,0.62-3.37,1.23
					c-0.56,0.31-1.12,0.61-1.69,0.92c-0.56,0.31-1.06,0.83-1.66,1.33c0.68,0.73,1.3,1.25,2.02,1.78c0.62,0.52,1.26,0.93,1.99,1.37
					c1.27,0.84,2.58,1.47,3.81,2c2.55,1.06,5,1.6,7.31,1.71s4.61-0.2,6.77-0.93c1.09-0.42,2.1-0.95,3.12-1.58
					c0.46-0.32,1.04-0.73,1.43-1.17C82.65,145.87,83.06,145.33,83.55,144.81z"/>
				<path d="M71.98,150.47c-0.41,0.03-0.81-0.04-1.22-0.01c-2.51-0.14-5.06-0.7-7.51-1.74c-1.33-0.54-2.62-1.28-3.91-2.02
					c-0.54-0.4-1.27-0.84-1.97-1.47c-0.72-0.53-1.32-1.15-2-1.88c-0.16-0.23-0.23-0.45,0.02-0.71c0.5-0.52,1.1-1.02,1.66-1.33
					c0.56-0.31,1.03-0.63,1.69-0.92c1.11-0.51,2.2-0.93,3.47-1.21c2.13-0.54,4.4-0.74,6.89-0.5c2.51,0.14,4.76,0.64,7.15,1.47
					c1.24,0.42,2.47,0.95,3.66,1.67c0.65,0.32,1.29,0.74,1.93,1.16c0.64,0.42,1.27,0.84,1.97,1.47c0.18,0.13,0.23,0.45,0.09,0.63
					c-0.42,0.64-0.92,1.16-1.5,1.56c-0.38,0.44-0.95,0.75-1.53,1.15c-1.03,0.63-2.05,1.26-3.24,1.66
					C75.9,150.15,74.02,150.43,71.98,150.47z M56.33,143.12c0.52,0.5,1.04,1,1.58,1.4c0.72,0.53,1.44,1.07,1.89,1.35
					c1.17,0.82,2.48,1.46,3.71,1.98c2.37,0.93,4.7,1.55,7.22,1.69c2.42,0.12,4.61-0.2,6.67-0.95c1.09-0.42,2.1-0.95,3.01-1.5
					c0.58-0.4,1.04-0.73,1.41-1.07c0.37-0.34,0.73-0.68,1.02-1.14c-0.54-0.4-1.08-0.8-1.53-1.09c-0.64-0.42-1.29-0.74-1.83-1.14
					c-1.21-0.62-2.34-1.13-3.58-1.55c-2.19-0.8-4.44-1.3-6.86-1.42s-4.57,0-6.6,0.55c-1.17,0.3-2.24,0.62-3.25,1.15
					c-0.56,0.31-1.12,0.61-1.59,0.94C57.16,142.45,56.7,142.78,56.33,143.12z"/>
			</g>
			<g>
				<path class="st0" d="M99.9,156.25c-0.74-0.44-1.49-0.77-2.24-1.11s-1.42-0.56-2.1-0.78c-1.34-0.44-2.7-0.79-3.89-1
					c-2.56-0.46-4.88-0.56-7.15-0.36c-2.27,0.21-4.5,0.72-6.58,1.57c-1.09,0.42-2.12,1.05-3.04,1.69c-0.46,0.32-0.95,0.75-1.43,1.17
					c-0.48,0.42-0.88,0.96-1.3,1.6c0.82,0.55,1.53,1.09,2.27,1.52c0.74,0.44,1.49,0.77,2.14,1.09c1.41,0.66,2.85,1.12,4.13,1.34
					c2.62,0.67,5.15,0.71,7.52,0.53c2.39-0.29,4.53-0.92,6.57-2.08c1.01-0.53,1.95-1.28,2.8-2.04c0.38-0.44,0.86-0.86,1.26-1.4
					C99.18,157.44,99.58,156.9,99.9,156.25z"/>
				<path d="M86.22,164.07c-1.84,0.08-3.73-0.16-5.58-0.59c-1.36-0.34-2.8-0.8-4.21-1.46c-0.56-0.3-1.41-0.66-2.24-1.11
					c-0.74-0.44-1.57-0.89-2.37-1.54c-0.18-0.13-0.23-0.45-0.09-0.63c0.42-0.64,0.92-1.16,1.42-1.68c0.5-0.52,0.98-0.94,1.44-1.27
					c0.95-0.75,2.07-1.36,3.16-1.77c1.98-0.87,4.22-1.48,6.69-1.65s4.88-0.05,7.25,0.37c1.38,0.25,2.64,0.57,3.98,1.01
					c0.57,0.2,1.34,0.44,2.1,0.78c0.75,0.34,1.51,0.67,2.24,1.11c0.18,0.13,0.34,0.37,0.19,0.64c-0.32,0.65-0.74,1.29-1.14,1.83
					c-0.4,0.54-0.9,1.06-1.26,1.4c-0.86,0.86-1.81,1.61-2.92,2.12c-1.92,1.08-4.18,1.8-6.68,2.16
					C87.55,164.01,86.95,164,86.22,164.07z M72.71,158.93c0.64,0.42,1.27,0.84,1.83,1.14c0.83,0.45,1.59,0.79,2.14,1.09
					c1.33,0.54,2.65,1.08,4.03,1.33c2.44,0.54,4.94,0.78,7.33,0.49c2.39-0.29,4.53-0.92,6.35-2.02c1.01-0.53,1.84-1.2,2.7-2.06
					c0.37-0.34,0.75-0.78,1.15-1.32c0.27-0.36,0.55-0.82,0.84-1.27c-0.65-0.32-1.21-0.62-1.78-0.82c-0.75-0.34-1.42-0.56-2.1-0.78
					c-1.24-0.42-2.51-0.75-3.89-1c-2.36-0.42-4.68-0.53-7.05-0.34c-2.37,0.19-4.5,0.72-6.38,1.61c-0.99,0.43-2.02,1.06-2.95,1.71
					c-0.46,0.32-0.95,0.75-1.43,1.17C73.46,158.15,73.1,158.49,72.71,158.93z"/>
			</g>
			<g>
				<g>
					<path class="st0" d="M131.64,167.99c0.41-0.03,0.88-0.35,0.95-0.75c0.09-0.49-0.24-0.96-0.73-1.04
						c-27.63-5.12-51.83-22.12-64.66-45.32c-0.23-0.45-0.8-0.65-1.26-0.33c-0.45,0.23-0.65,0.8-0.33,1.26
						c4.08,7.33,11.59,18.21,24.29,27.88c12.16,9.27,26.19,15.52,41.63,18.37C131.44,167.95,131.54,167.97,131.64,167.99z"/>
					<path d="M131.65,168.5c-0.1-0.02-0.2-0.04-0.3-0.05c-15.54-2.86-29.66-9.13-41.82-18.41c-12.78-9.79-20.39-20.69-24.46-28.12
						c-0.39-0.68-0.13-1.55,0.55-1.93c0.68-0.39,1.55-0.13,1.93,0.55c12.85,23.11,36.87,39.97,64.29,45.15
						c0.79,0.14,1.27,0.84,1.13,1.62C132.86,168,132.28,168.4,131.65,168.5z M66.31,120.72c-0.1-0.02-0.1-0.02-0.21,0.06
						c-0.23,0.16-0.28,0.46-0.22,0.67c4.08,7.33,11.51,18.09,24.21,27.77c12.07,9.26,26.01,15.39,41.45,18.24
						c0.3,0.05,0.53-0.11,0.58-0.4c0.05-0.3-0.11-0.53-0.4-0.58c-27.73-5.13-52.03-22.15-65.02-45.59
						C66.58,120.87,66.4,120.74,66.31,120.72z"/>
				</g>
			</g>
			<g>
				<path class="st0" d="M66.32,121.23c0.32-0.65,0.54-1.33,0.65-1.92c0.2-0.57,0.31-1.16,0.41-1.75c0.21-1.18,0.21-2.3,0.18-3.32
					c-0.12-2.16-0.58-4.17-1.35-6.13s-1.77-3.77-3.2-5.44c-0.76-0.85-1.53-1.69-2.49-2.58c-0.44-0.38-0.98-0.78-1.52-1.18
					c-0.54-0.4-1.17-0.82-1.83-1.14c-0.42,0.64-0.72,1.19-0.92,1.77c-0.3,0.56-0.41,1.15-0.61,1.72c-0.31,1.16-0.5,2.25-0.5,3.36
					c-0.09,2.22,0.35,4.33,1.12,6.29c0.77,1.96,1.93,4,3.56,5.71c0.86,0.86,1.72,1.73,2.8,2.53c0.54,0.4,1.08,0.8,1.73,1.12
					C64.81,120.55,65.47,120.87,66.32,121.23z"/>
				<path d="M66.33,121.74c-0.1-0.02-0.1-0.02-0.2-0.04c-0.75-0.34-1.51-0.67-2.16-0.99c-0.56-0.3-1.09-0.7-1.83-1.14
					c-1.08-0.8-2.04-1.68-2.88-2.65c-1.63-1.71-2.79-3.75-3.62-5.93c-0.83-2.18-1.15-4.37-1.08-6.49c0-1.12,0.21-2.3,0.51-3.46
					c0.19-0.47,0.31-1.16,0.63-1.82c0.2-0.57,0.62-1.21,1.04-1.85c0.13-0.18,0.35-0.24,0.64-0.19c0.74,0.44,1.39,0.75,1.93,1.16
					c0.64,0.42,1.08,0.8,1.61,1.2c0.98,0.78,1.82,1.75,2.49,2.58c1.43,1.68,2.53,3.5,3.28,5.56c0.85,2.08,1.29,4.19,1.43,6.25
					c0.1,1.14-0.01,2.33-0.2,3.42c-0.11,0.59-0.21,1.18-0.43,1.85s-0.44,1.34-0.76,2C66.66,121.59,66.44,121.66,66.33,121.74z
					 M57.19,98.28c-0.28,0.46-0.47,0.93-0.74,1.29c-0.32,0.65-0.42,1.24-0.61,1.72c-0.29,1.07-0.48,2.15-0.48,3.27
					c-0.05,2.02,0.28,4.11,1.05,6.08c0.85,2.08,1.95,3.9,3.47,5.59c0.86,0.86,1.72,1.73,2.8,2.53c0.64,0.42,1.17,0.82,1.73,1.12
					c0.46,0.28,1.01,0.59,1.59,0.79c0.19-0.47,0.37-0.95,0.46-1.44c0.2-0.57,0.31-1.16,0.41-1.75c0.19-1.08,0.19-2.2,0.17-3.22
					c-0.06-1.94-0.52-3.95-1.28-5.92c-0.77-1.96-1.79-3.67-3.12-5.33c-0.67-0.83-1.53-1.69-2.41-2.46
					c-0.44-0.38-0.98-0.78-1.52-1.18C58.21,98.86,57.75,98.58,57.19,98.28z"/>
			</g>
		</g>
	</g>
	<g>
		<g>
			<g>
				<g>
					<ellipse class="st1" cx="151.03" cy="138.92" rx="40.9" ry="40.9"/>
				</g>
				<g>
					<path d="M151.7,180.29c-10.9,0.19-21.15-3.86-29.08-11.26c-7.99-7.62-12.66-17.89-12.94-28.91
						c-0.62-22.76,17.4-41.9,40.18-42.62c22.86-0.61,41.9,17.4,42.62,40.18c0.62,22.76-17.4,41.9-40.18,42.62
						C152.11,180.26,151.89,180.32,151.7,180.29z M150.39,98.5c-0.2-0.04-0.31,0.05-0.51,0.01c-22.25,0.61-39.9,19.31-39.28,41.56
						c0.31,10.82,4.82,20.87,12.65,28.25s18.09,11.34,28.91,11.03c22.25-0.61,39.9-19.31,39.28-41.56
						C190.82,115.64,172.5,98.16,150.39,98.5z"/>
				</g>
			</g>
		</g>
		<g>
			<g>
				<g>
					
						<ellipse transform="matrix(0.1115 -0.9938 0.9938 0.1115 2.5438 267.6616)" class="st2" cx="150.96" cy="132.41" rx="40.9" ry="40.9"/>
				</g>
				<g>
					<path d="M151.62,173.88c-10.9,0.19-21.15-3.86-29.08-11.26c-7.99-7.62-12.66-17.89-12.94-28.91
						c-0.62-22.76,17.4-41.9,40.18-42.62c0.2,0.04,0.41-0.03,0.51-0.01c22.61-0.35,41.37,17.51,42.01,40.18
						c0.62,22.76-17.4,41.9-40.18,42.62C151.93,173.83,151.83,173.81,151.62,173.88z M150.33,91.99c-0.2-0.04-0.31,0.05-0.51,0.01
						c-22.25,0.61-39.9,19.31-39.28,41.56c0.31,10.82,4.82,20.87,12.65,28.25c7.83,7.38,18.09,11.34,28.91,11.03
						c22.25-0.61,39.9-19.31,39.28-41.56C190.76,109.13,172.34,91.63,150.33,91.99z"/>
				</g>
			</g>
		</g>
		<g>
			<g>
				<g>
					<ellipse class="st3" cx="150.96" cy="132.43" rx="34.3" ry="34.3"/>
				</g>
				<g>
					<path d="M151.47,167.25c-18.94,0.29-34.76-14.71-35.33-33.81c-0.28-9.29,3.12-18.13,9.51-24.92
						c6.39-6.79,14.99-10.64,24.29-10.92s18.13,3.12,24.92,9.51c6.79,6.39,10.64,14.99,10.92,24.29
						c0.55,19.19-14.6,35.29-33.8,35.84C151.79,167.2,151.67,167.28,151.47,167.25z M150.38,98.6c-0.1-0.02-0.31,0.05-0.41,0.03
						c-9.08,0.21-17.47,4-23.63,10.63c-6.25,6.61-9.5,15.17-9.19,24.27c0.57,18.49,15.93,33.2,34.37,32.93
						c0.1,0.02,0.31-0.05,0.41-0.03c18.68-0.54,33.45-16.19,32.91-34.88c-0.21-9.08-4-17.47-10.63-23.63
						C167.71,101.68,159.24,98.44,150.38,98.6z"/>
				</g>
			</g>
		</g>
		<g>
			<g>
				<g>
					<g>
						<path class="st4" d="M136.3,150.94c-1.82-0.02-3.31-1.4-3.29-3.23c0.02-1.82,1.4-3.31,3.23-3.29l0.2,0.04
							c0.02-0.1,0.04-0.2-0.06-0.21c-0.02-4.47,1.85-8.71,5.3-11.55c-3.47-2.75-5.56-6.98-5.7-11.37c0.02-0.1,0.04-0.2,0.04-0.2
							l-0.2-0.04c-1.82-0.02-3.31-1.4-3.29-3.23s1.4-3.31,3.23-3.29l29.94-0.46c1.82,0.02,3.31,1.4,3.29,3.23s-1.4,3.31-3.23,3.29
							l-0.2-0.04c-0.02,0.1-0.04,0.2,0.06,0.21c0.02,4.47-1.85,8.71-5.3,11.55c3.47,2.75,5.56,6.98,5.7,11.37
							c-0.02,0.1-0.04,0.2-0.04,0.2l0.2,0.04c1.82,0.02,3.31,1.4,3.29,3.23c-0.02,1.82-1.4,3.31-3.23,3.29L136.3,150.94z
							 M159.35,144.07c0.02-0.1,0.04-0.2-0.06-0.21c-0.12-4.49-3.82-8.2-8.31-8.08c-4.49,0.12-8.2,3.82-8.08,8.31
							c-0.02,0.1-0.04,0.2-0.04,0.2L159.35,144.07z M142.56,120.87c-0.02,0.1-0.04,0.2,0.06,0.21c0.12,4.49,3.82,8.2,8.31,8.08
							c4.49-0.12,8.2-3.82,8.08-8.31c0.02-0.1,0.04-0.2,0.04-0.2L142.56,120.87z"/>
					</g>
				</g>
			</g>
			<g>
				<g>
					<path d="M165.64,114.41c1.53-0.03,2.83,1.21,2.86,2.74c0.03,1.53-1.21,2.83-2.74,2.86l-0.82,0.06
						c0.06,0.21,0.13,0.43,0.07,0.72c0.08,4.69-2.1,8.97-5.62,11.6c3.51,2.55,5.91,6.74,5.99,11.43c-0.04,0.2,0.01,0.51-0.12,0.69
						l0.82-0.06c1.53-0.03,2.83,1.21,2.86,2.74c0.03,1.53-1.21,2.83-2.74,2.86l-29.94,0.46c-1.53,0.03-2.83-1.21-2.86-2.74
						s1.21-2.83,2.74-2.86l0.82-0.06c-0.06-0.21-0.13-0.43-0.07-0.72c-0.08-4.69,2.1-8.97,5.62-11.6
						c-3.51-2.55-5.91-6.74-5.99-11.43c0.04-0.2-0.01-0.51,0.12-0.69l-0.82,0.06c-1.53,0.03-2.83-1.21-2.86-2.74
						c-0.03-1.53,1.21-2.83,2.74-2.86L165.64,114.41 M150.94,129.67c4.78-0.06,8.64-4.05,8.58-8.83c0.04-0.2-0.01-0.51,0.12-0.69
						l-17.53,0.34c0.06,0.21,0.13,0.43,0.07,0.72C142.17,125.88,146.16,129.74,150.94,129.67 M142.36,144.81l17.53-0.34
						c-0.06-0.21-0.13-0.43-0.07-0.72c-0.06-4.78-4.05-8.64-8.83-8.58c-4.78,0.06-8.64,4.05-8.58,8.83
						C142.45,144.31,142.42,144.51,142.36,144.81 M165.6,113.49l-29.94,0.46c-2.04,0.04-3.77,1.77-3.72,3.81
						c0.06,1.94,1.59,3.63,3.61,3.69c0.15,4.29,2.16,8.41,5.42,11.22c-3.16,2.89-5.11,7.01-5.07,11.39
						c-1.96,0.16-3.47,1.82-3.41,3.76c0.04,2.04,1.77,3.77,3.81,3.72l29.94-0.46c2.04-0.04,3.77-1.77,3.72-3.81
						c-0.06-1.94-1.59-3.63-3.61-3.69c-0.15-4.29-2.16-8.41-5.42-11.22c3.16-2.89,5.11-7.01,5.07-11.39
						c1.96-0.16,3.47-1.82,3.41-3.76C169.39,115.08,167.74,113.47,165.6,113.49L165.6,113.49z M142.98,121.35l15.49-0.29
						c-0.03,4.16-3.47,7.51-7.64,7.58C146.73,128.82,143.26,125.46,142.98,121.35L142.98,121.35z M143.34,143.86
						c0.03-4.16,3.47-7.51,7.64-7.58c4.18-0.07,7.66,3.19,7.83,7.38L143.34,143.86L143.34,143.86z"/>
				</g>
			</g>
		</g>
		<g>
			<g>
				<g>
					<line class="st5" x1="184.98" y1="124.45" x2="190.51" y2="122.49"/>
				</g>
				<g>
					<path d="M185.01,124.87c-0.2-0.04-0.38-0.17-0.46-0.28c-0.06-0.21,0.09-0.49,0.3-0.56l5.63-1.94c0.21-0.06,0.49,0.09,0.56,0.3
						s-0.09,0.49-0.3,0.56l-5.63,1.94L185.01,124.87z"/>
				</g>
			</g>
			<g>
				<g>
					<line class="st5" x1="117.15" y1="126.1" x2="111" y2="124.1"/>
				</g>
				<g>
					<path d="M117.18,126.51l-0.1-0.02l-6.06-1.89c-0.3-0.05-0.34-0.37-0.31-0.56c0.05-0.3,0.37-0.34,0.56-0.31l6.06,1.89
						c0.3,0.05,0.34,0.37,0.31,0.56C117.51,126.37,117.37,126.55,117.18,126.51z"/>
				</g>
			</g>
			<g>
				<g>
					<line class="st5" x1="132.82" y1="161.9" x2="129.15" y2="167.14"/>
				</g>
				<g>
					<path d="M129.16,167.65c-0.1-0.02-0.2-0.04-0.3-0.05c-0.18-0.13-0.23-0.45-0.09-0.63l3.67-5.24c0.13-0.18,0.45-0.23,0.63-0.09
						c0.18,0.13,0.23,0.45,0.09,0.63l-3.67,5.24C129.49,167.5,129.37,167.58,129.16,167.65z"/>
				</g>
			</g>
			<g>
				<g>
					<line class="st5" x1="169.09" y1="161.85" x2="172.85" y2="166.99"/>
				</g>
				<g>
					<path d="M172.88,167.4c-0.1-0.02-0.3-0.05-0.38-0.17l-3.76-5.14c-0.16-0.23-0.11-0.53,0.12-0.69c0.23-0.16,0.53-0.11,0.69,0.12
						l3.76,5.14c0.16,0.23,0.11,0.53-0.12,0.69C173.09,167.33,172.98,167.42,172.88,167.4z"/>
				</g>
			</g>
			<g>
				<g>
					<line class="st5" x1="149.8" y1="91.59" x2="149.96" y2="98.11"/>
				</g>
				<g>
					<path d="M149.97,98.62c-0.3-0.05-0.47-0.19-0.42-0.48l-0.16-6.53c-0.05-0.31,0.19-0.47,0.5-0.52c0.3,0.05,0.47,0.19,0.52,0.5
						l0.16,6.53C150.41,98.4,150.18,98.56,149.97,98.62L149.97,98.62z"/>
				</g>
			</g>
		</g>
	</g>
	<g>
		<ellipse class="st6" cx="105.71" cy="41.9" rx="36" ry="36"/>
		<path d="M115.33,76.92c-9.18,2.53-18.84,1.42-27.16-3.2c-8.52-4.66-14.65-12.46-17.36-21.77c-2.71-9.32-1.57-19.17,3.1-27.69
			C78.57,15.74,86.37,9.61,95.69,6.9C95.8,6.82,96,6.86,96.11,6.78c9.18-2.53,18.84-1.42,27.16,3.2
			c8.52,4.66,14.65,12.46,17.36,21.77c5.61,19.28-5.59,39.43-24.87,45.04C115.64,76.88,115.43,76.94,115.33,76.92z M96.27,7.62
			c-0.12,0.08-0.31,0.05-0.43,0.13c-9.1,2.65-16.68,8.71-21.31,17.03s-5.62,17.89-2.99,27.1c2.65,9.1,8.71,16.68,17.03,21.31
			c8.32,4.63,17.99,5.64,27.1,2.99c18.85-5.48,29.77-25.18,24.28-44.03c-2.65-9.1-8.71-16.68-17.03-21.31
			C114.7,6.22,105.24,5.15,96.27,7.62z"/>
	</g>
	<g>
		<g>
			<ellipse class="st7" cx="104.16" cy="36.46" rx="36" ry="36"/>
			<path d="M113.86,71.48c-19.11,5.23-39.08-5.83-44.61-25c-2.71-9.32-1.57-19.17,3.09-27.69C77.01,10.29,84.8,4.16,94.12,1.44
				c9.32-2.71,19.17-1.57,27.69,3.09S136.45,17,139.16,26.31s1.57,19.17-3.1,27.69c-4.66,8.52-12.46,14.65-21.77,17.36
				C114.17,71.44,113.96,71.5,113.86,71.48z M69.99,46.31c5.48,18.85,25.18,29.77,44.03,24.28c9.1-2.65,16.68-8.71,21.29-16.93
				c4.61-8.22,5.62-17.89,2.99-27.1c-2.65-9.1-8.71-16.68-16.93-21.29c-8.14-4.49-17.58-5.67-26.55-3.2
				C94.7,2.16,94.5,2.12,94.39,2.2c-9.1,2.65-16.68,8.71-21.29,16.93C68.45,27.55,67.36,37.11,69.99,46.31z"/>
		</g>
	</g>
	<g>
		<g>
			<ellipse class="st6" cx="104.16" cy="36.46" rx="30.2" ry="30.2"/>
			<path d="M112.31,65.93c-7.68,2.09-15.84,1.14-22.87-2.75c-7.13-3.91-12.37-10.43-14.63-18.24c-2.27-7.82-1.31-16.08,2.62-23.3
				C81.33,14.51,87.85,9.27,95.67,7c0.12-0.08,0.21-0.06,0.43-0.13c16.13-4.45,32.84,4.93,37.5,20.99
				c2.27,7.82,1.31,16.08-2.62,23.3c-3.93,7.22-10.43,12.37-18.24,14.63C112.52,65.86,112.43,65.84,112.31,65.93z M96.25,7.72
				c-0.12,0.08-0.21,0.06-0.43,0.13c-7.6,2.2-13.99,7.26-17.76,14.21c-3.87,6.93-4.7,15.01-2.51,22.71l0,0
				c2.2,7.6,7.26,13.99,14.21,17.76c6.93,3.87,15.01,4.7,22.71,2.51c7.6-2.2,13.99-7.26,17.76-14.21c3.87-6.93,4.7-15.01,2.51-22.71
				C128.31,12.5,111.95,3.4,96.25,7.72z"/>
		</g>
	</g>
	<g>
		<g>
			<line class="st5" x1="131.38" y1="22.09" x2="135.75" y2="19.21"/>
			<path d="M131.51,22.52c-0.21,0.06-0.3-0.05-0.47-0.19c-0.16-0.23-0.03-0.41,0.11-0.59l4.37-2.88c0.23-0.16,0.41-0.03,0.59,0.11
				c0.16,0.23,0.03,0.41-0.11,0.59l-4.37,2.88C131.52,22.42,131.51,22.52,131.51,22.52z"/>
		</g>
		<g>
			<line class="st5" x1="74.04" y1="38.4" x2="68.4" y2="38.11"/>
			<path d="M74.07,38.81l-0.1-0.02l-5.64-0.29c-0.2-0.04-0.38-0.17-0.34-0.37c0.04-0.2,0.17-0.38,0.37-0.34l5.64,0.29
				c0.2,0.04,0.38,0.17,0.34,0.37C74.41,38.57,74.28,38.75,74.07,38.81z"/>
		</g>
		<g>
			<line class="st5" x1="95.23" y1="65.43" x2="93.27" y2="70.77"/>
			<path d="M93.41,71.1c-0.1-0.02-0.2-0.04-0.2-0.04c-0.2-0.04-0.36-0.27-0.21-0.54l1.95-5.24c0.04-0.2,0.27-0.36,0.54-0.21
				c0.2,0.04,0.36,0.27,0.21,0.54l-1.95,5.24C93.63,71.03,93.51,71.11,93.41,71.1z"/>
		</g>
		<g>
			<line class="st5" x1="126.11" y1="57.41" x2="130.46" y2="60.93"/>
			<path d="M130.59,61.36c-0.12,0.08-0.21,0.06-0.39-0.07l-4.35-3.52c-0.18-0.13-0.24-0.35-0.11-0.53c0.13-0.18,0.35-0.24,0.53-0.11
				l4.35,3.52c0.18,0.13,0.24,0.35,0.11,0.53C130.71,61.28,130.59,61.36,130.59,61.36z"/>
		</g>
		<g>
			<line class="st5" x1="94.24" y1="1.87" x2="95.8" y2="7.43"/>
			<path d="M95.94,7.76c-0.21,0.06-0.39-0.07-0.46-0.28L93.83,1.9c-0.06-0.21,0.07-0.39,0.28-0.46s0.39,0.07,0.46,0.28l1.65,5.57
				C96.29,7.52,96.15,7.7,95.94,7.76L95.94,7.76z"/>
		</g>
	</g>
	<g>
		<g>
			<g>
				<g>
					
						<ellipse transform="matrix(0.9643 -0.265 0.265 0.9643 -5.8252 28.8704)" class="st7" cx="104.1" cy="36.03" rx="19.8" ry="20.2"/>
				</g>
			</g>
			<g>
				<path d="M98.86,17.02c10.36-2.83,21.02,3.43,23.94,13.91s-3.19,21.37-13.45,24.22C99,57.97,88.33,51.71,85.42,41.24
					C82.52,30.67,88.51,19.85,98.86,17.02 M98.61,16.16c-10.78,2.96-17.06,14.23-14.03,25.23c3.02,11,14.16,17.45,24.95,14.49
					c10.78-2.96,17.06-14.23,14.03-25.23C120.62,19.77,109.4,13.2,98.61,16.16L98.61,16.16z"/>
			</g>
		</g>
		<g>
			<g>
				<g>
					<path class="st6" d="M102.98,44.16c-0.64,0.19-1.23,0.09-1.79-0.22l-4.15-2.36c-1.09-0.7-1.56-2.1-0.93-3.31
						c0.3-0.56,0.78-0.98,1.43-1.17c0.64-0.19,1.23-0.09,1.79,0.22l2.03,1.17l5.53-9.99c0.3-0.56,0.78-0.98,1.43-1.17
						c0.64-0.19,1.23-0.09,1.79,0.22c1.09,0.7,1.56,2.1,0.93,3.31l-6.72,12.11C104.1,43.54,103.62,43.97,102.98,44.16z"/>
				</g>
			</g>
			<g>
				<path d="M108.53,27.77c0.53-0.11,1.04-0.12,1.49,0.16c0.91,0.57,1.31,1.76,0.73,2.77l-6.63,12.13
					c-0.28,0.46-0.75,0.78-1.18,0.91c-0.53,0.11-1.04,0.12-1.49-0.16l-4.15-2.36c-0.91-0.57-1.31-1.76-0.73-2.77
					c0.28-0.46,0.75-0.78,1.18-0.91c0.53-0.11,1.04-0.12,1.49,0.16l2.4,1.34l5.8-10.34C107.64,28.23,108.1,27.9,108.53,27.77
					 M108.37,26.93c-0.74,0.17-1.34,0.68-1.66,1.33l-5.37,9.61l-1.77-0.92c-0.64-0.42-1.44-0.46-2.09-0.27
					c-0.74,0.17-1.34,0.68-1.66,1.33c-0.75,1.39-0.25,3.1,1.04,3.84l4.15,2.36c0.64,0.42,1.44,0.46,2.09,0.27
					c0.74-0.17,1.34-0.68,1.66-1.33l6.72-12.11c0.75-1.39,0.25-3.1-1.04-3.84C109.81,26.88,109.12,26.76,108.37,26.93L108.37,26.93z
					"/>
			</g>
		</g>
	</g>
	<g>
		<ellipse class="st8" cx="273.33" cy="32.61" rx="22.6" ry="22.6"/>
		<path d="M275.37,55.41c-5.99,0.56-11.76-1.28-16.47-5.06c-4.69-3.88-7.69-9.29-8.23-15.38c-0.64-6.11,1.21-11.97,5.02-16.78
			c3.88-4.69,9.29-7.69,15.38-8.23c0.1,0.02,0.21-0.06,0.31-0.05c5.99-0.56,11.76,1.28,16.47,5.06c4.69,3.88,7.69,9.29,8.23,15.38
			c1.23,12.51-7.89,23.79-20.49,25C275.58,55.35,275.48,55.33,275.37,55.41z M271.4,10.32c-0.1-0.02-0.21,0.06-0.31,0.05
			c-5.89,0.58-11.28,3.48-15.05,8.09c-3.77,4.61-5.51,10.4-4.95,16.39c0.58,5.89,3.48,11.28,8.09,15.05s10.4,5.51,16.39,4.95
			c12.31-1.26,21.26-12.17,19.99-24.48c-0.58-5.89-3.48-11.28-8.09-15.05C282.96,11.56,277.28,9.84,271.4,10.32z"/>
	</g>
	<g>
		<g>
			<ellipse class="st9" cx="273.05" cy="29.1" rx="22.6" ry="22.6"/>
			<path d="M275,51.79c-12.37,1.05-23.46-8.03-24.69-20.54c-0.64-6.11,1.21-11.97,5.02-16.78c3.88-4.69,9.39-7.67,15.38-8.23
				c0.1,0.02,0.21-0.06,0.31-0.05c5.99-0.56,11.76,1.28,16.47,5.06c4.69,3.88,7.67,9.39,8.23,15.38c0.64,6.11-1.21,11.97-5.02,16.78
				c-3.88,4.69-9.39,7.67-15.38,8.23C275.19,51.83,275.1,51.81,275,51.79z M250.82,31.24c1.18,12.2,11.99,21.12,24.16,20.04
				c0.1,0.02,0.21-0.06,0.31-0.05c5.89-0.58,11.28-3.48,15.05-8.09c3.77-4.61,5.51-10.4,4.95-16.39
				c-0.58-5.89-3.48-11.28-8.09-15.05c-4.51-3.75-10.2-5.47-16.07-4.99c-0.1-0.02-0.21,0.06-0.31,0.05
				c-5.91,0.68-11.3,3.58-15.07,8.19S250.24,25.35,250.82,31.24z"/>
		</g>
	</g>
	<g>
		<g>
			<ellipse class="st8" cx="273.04" cy="29.11" rx="19" ry="19"/>
			<path d="M274.72,48.19c-5.05,0.42-9.87-1.04-13.86-4.29s-6.43-7.85-6.95-12.92c-0.52-5.07,0.98-10.08,4.23-14.08
				c3.25-3.99,7.85-6.43,12.92-6.95c0.1,0.02,0.2,0.04,0.21-0.06C281.69,9,291,16.65,292.08,27.1c0.52,5.07-0.98,10.08-4.23,14.08
				s-7.85,6.43-12.92,6.95C274.92,48.22,274.82,48.2,274.72,48.19z M271.48,10.44c-0.1-0.02-0.2-0.04-0.21,0.06
				c-4.97,0.54-9.45,2.89-12.59,6.8s-4.6,8.73-4.16,13.68l0,0c0.54,4.97,2.89,9.45,6.8,12.59c3.91,3.13,8.73,4.6,13.68,4.16
				c4.97-0.54,9.45-2.89,12.59-6.8c3.13-3.91,4.6-8.73,4.16-13.68C290.63,16.99,281.6,9.49,271.48,10.44z"/>
		</g>
	</g>
	<g>
		<g>
			<line class="st5" x1="291.43" y1="23.33" x2="294.51" y2="22.05"/>
			<path d="M291.5,23.54c-0.1-0.02-0.2-0.04-0.28-0.15c-0.08-0.12,0.05-0.3,0.15-0.28l2.97-1.3c0.12-0.08,0.3,0.05,0.28,0.15
				c0.08,0.12-0.05,0.3-0.15,0.28L291.5,23.54C291.6,23.56,291.5,23.54,291.5,23.54z"/>
		</g>
		<g>
			<line class="st5" x1="254.14" y1="26.85" x2="250.73" y2="26.04"/>
			<path d="M254.2,27.07L254.2,27.07l-3.51-0.83c-0.1-0.02-0.18-0.13-0.14-0.33c0.02-0.1,0.13-0.18,0.33-0.14l3.41,0.81
				c0.1,0.02,0.18,0.13,0.14,0.33C254.42,27,254.3,27.09,254.2,27.07z"/>
		</g>
		<g>
			<line class="st5" x1="264.24" y1="46.02" x2="262.38" y2="49.04"/>
			<path d="M262.45,49.25c0,0-0.1-0.02-0.2-0.04c-0.1-0.02-0.16-0.23-0.05-0.31l1.76-3.04c0.02-0.1,0.23-0.16,0.31-0.05
				c0.1,0.02,0.16,0.23,0.05,0.31l-1.76,3.04C262.56,49.17,262.55,49.27,262.45,49.25z"/>
		</g>
		<g>
			<line class="st5" x1="284.2" y1="44.59" x2="286.47" y2="47.23"/>
			<path d="M286.54,47.44c-0.1-0.02-0.2-0.04-0.2-0.04l-2.27-2.64c-0.08-0.12-0.06-0.21,0.07-0.39c0.12-0.08,0.21-0.06,0.39,0.07
				l2.27,2.64c0.08,0.12,0.06,0.21-0.07,0.39C286.63,47.46,286.54,47.44,286.54,47.44z"/>
		</g>
		<g>
			<line class="st5" x1="270.85" y1="6.57" x2="271.22" y2="10.19"/>
			<path d="M271.17,10.48c-0.1-0.02-0.3-0.05-0.26-0.25l-0.37-3.62c0.02-0.1,0.05-0.3,0.25-0.26l0,0c0.1,0.02,0.3,0.05,0.26,0.25
				l0.37,3.62C271.4,10.32,271.38,10.42,271.17,10.48L271.17,10.48z"/>
		</g>
	</g>
	<g>
		<g>
			<g>
				<g>
					
						<ellipse transform="matrix(0.9963 -0.0864 0.0864 0.9963 -1.4672 23.7072)" class="st9" cx="273.07" cy="28.8" rx="12.5" ry="12.7"/>
				</g>
			</g>
			<g>
				<path d="M271.94,16.41c6.7-0.54,12.61,4.48,13.23,11.29c0.62,6.81-4.41,12.83-11.13,13.46c-6.7,0.54-12.61-4.48-13.23-11.29
					C260.3,23.07,265.23,17.04,271.94,16.41 M271.93,15.9c-7.01,0.58-12.19,6.87-11.53,14s6.84,12.39,13.75,11.79
					c7.01-0.58,12.19-6.87,11.53-14C285.12,20.58,278.94,15.32,271.93,15.9L271.93,15.9z"/>
			</g>
		</g>
		<g>
			<g>
				<g>
					<path class="st8" d="M271.41,33.68c-0.41,0.03-0.79-0.14-1.05-0.39l-2.3-1.93c-0.62-0.52-0.74-1.55-0.22-2.17
						c0.27-0.36,0.6-0.5,1.01-0.53s0.79,0.14,1.05,0.39l1.16,0.92l4.55-5.59c0.27-0.36,0.6-0.5,1.01-0.53
						c0.41-0.03,0.79,0.14,1.05,0.39c0.62,0.52,0.74,1.55,0.22,2.17l-5.56,6.73C272.17,33.41,271.82,33.65,271.41,33.68z"/>
				</g>
			</g>
			<g>
				<path d="M276.76,24.17c0.31-0.05,0.69,0.12,0.97,0.27c0.52,0.5,0.6,1.22,0.19,1.76l-5.56,6.73c-0.25,0.26-0.48,0.42-0.89,0.45
					c-0.31,0.05-0.69-0.12-0.97-0.27l-2.3-1.93c-0.52-0.5-0.6-1.22-0.19-1.76c0.25-0.26,0.48-0.42,0.89-0.45
					c0.31-0.05,0.69,0.12,0.97,0.27l1.32,1.15l4.78-5.75C276.12,24.36,276.45,24.22,276.76,24.17 M276.75,23.66
					c-0.51,0.01-0.86,0.25-1.22,0.6l-4.4,5.31l-0.88-0.77c-0.36-0.27-0.83-0.45-1.24-0.42c-0.51,0.01-0.86,0.25-1.22,0.6
					c-0.63,0.7-0.53,1.84,0.17,2.47l2.3,1.93c0.36,0.27,0.83,0.45,1.24,0.42c0.51-0.01,0.86-0.25,1.22-0.6l5.56-6.73
					c0.63-0.7,0.53-1.84-0.17-2.47C277.63,23.82,277.16,23.63,276.75,23.66L276.75,23.66z"/>
			</g>
		</g>
	</g>
	<path class="st10" d="M175.41,65.77l0.37-32.34c0.03-1.31,0.83-2.39,2.12-2.77L208.66,21c1.19-0.4,2.63,0.06,3.36,1.11l18.77,26.39
		c0.73,1.04,0.78,2.47-0.02,3.55l-19.24,25.93c-0.8,1.08-2.09,1.46-3.33,1.03l-30.67-10.33C176.19,68.25,175.38,67.09,175.41,65.77z
		"/>
	<path d="M207.93,79.37l-30.67-10.33c-1.44-0.46-2.33-1.74-2.36-3.26l0.37-32.34c0.07-1.51,1-2.77,2.4-3.23l30.87-9.65
		c1.4-0.46,2.93,0.11,3.83,1.29l18.77,26.39c0.91,1.18,0.82,2.79-0.01,4.06l-19.42,25.8C210.87,79.39,209.37,79.83,207.93,79.37z
		 M175.8,65.84c0,1.12,0.63,2.14,1.8,2.45l30.67,10.33c1.05,0.39,2.24-0.01,2.9-0.91l19.24-25.93c0.67-0.9,0.68-2.11,0.03-3.04
		l-18.77-26.39c-0.65-0.93-1.79-1.33-2.88-0.92l-30.87,9.65c-1.07,0.32-1.76,1.31-1.75,2.43L175.8,65.84z"/>
	<path class="st11" d="M175.35,59.26l0.39-35.89c0.05-1.41,0.98-2.67,2.29-3.15l34.22-10.78c1.4-0.46,2.83,0.1,3.73,1.27
		l20.79,29.29c0.81,1.16,0.82,2.79-0.07,3.85l-21.37,28.8c-0.82,1.17-2.32,1.62-3.76,1.16l-34.02-11.43
		C176.29,61.97,175.4,60.69,175.35,59.26z"/>
	<path d="M211.47,74.32l-34.02-11.43c-1.54-0.48-2.59-1.98-2.51-3.59l0,0l0.39-35.89c-0.02-1.63,1.05-3.06,2.65-3.49l34.22-10.78
		c1.5-0.44,3.24,0.07,4.13,1.34l20.81,29.19c0.99,1.29,0.87,3.1-0.06,4.36l-21.37,28.8C214.73,74.29,213.01,74.79,211.47,74.32z
		 M175.76,59.23c-0.01,1.22,0.8,2.38,1.94,2.78l34.02,11.43c1.15,0.41,2.53,0.04,3.23-1.05l21.37-28.8c0.78-0.98,0.73-2.41,0-3.45
		l-20.81-29.19c-0.73-1.04-2.07-1.49-3.26-1.09l-34.02,10.81c-1.19,0.4-1.99,1.47-2,2.69L175.76,59.23z"/>
	<polygon class="st12" points="211.56,17.86 183.38,26.66 183.11,56.17 211.09,65.62 228.71,41.93 	"/>
	<path d="M210.92,65.99l-27.98-9.44c-0.2-0.04-0.26-0.25-0.34-0.37l0.27-29.51c0.04-0.2,0.17-0.38,0.27-0.36l28.18-8.8
		c0.21-0.06,0.41-0.03,0.47,0.19l17.27,23.99c0.08,0.12,0.14,0.33,0.01,0.51l-17.62,23.68C211.33,65.96,211.12,66.03,210.92,65.99z
		 M183.46,55.93l27.41,9.24l17.24-23.24l-16.73-23.59l-27.65,8.69L183.46,55.93z"/>
	<g>
		<polygon class="st11" points="211.48,17.74 213.62,34.27 228.53,41.8 213.52,49.09 210.89,65.58 199.43,53.49 182.91,56.14 
			190.9,41.51 183.28,26.65 199.63,29.55 		"/>
		<path d="M210.82,65.97c-0.1-0.02-0.1-0.02-0.18-0.13l-11.4-11.88l-16.21,2.6c-0.21,0.06-0.3-0.05-0.38-0.17s-0.14-0.33-0.03-0.41
			l7.85-14.45l-7.55-14.65c-0.08-0.12-0.05-0.31,0.07-0.39c0.12-0.08,0.23-0.16,0.43-0.13l16.23,2.99l11.62-11.65
			c0.12-0.08,0.23-0.16,0.43-0.13c0.2,0.04,0.28,0.15,0.24,0.35l2.17,16.33l14.72,7.49c0.2,0.04,0.26,0.25,0.24,0.35
			c-0.04,0.2-0.05,0.3-0.27,0.36l-14.87,7.11l-2.49,16.32c-0.04,0.2-0.15,0.28-0.27,0.36C210.92,65.99,210.92,65.99,210.82,65.97z
			 M184,27.18l7.25,14.09c0.08,0.12,0.05,0.31,0.03,0.41l-7.55,13.89l15.58-2.51c0.1,0.02,0.3,0.05,0.38,0.17l10.96,11.5l2.49-15.71
			c0.02-0.1,0.15-0.28,0.25-0.26l14.23-6.92l-14.16-7.19c-0.1-0.02-0.18-0.13-0.24-0.35l-2.1-15.61l-11.14,11.22
			c-0.12,0.08-0.23,0.16-0.33,0.14L184,27.18z"/>
	</g>
	<g>
		<path class="st12" d="M214.02,45.11c0,0-6.57,3.81-12.32,1.87c-5.75-1.94-8.76-8.97-8.76-8.97s6.57-3.81,12.32-1.87
			C211.01,38.08,214.02,45.11,214.02,45.11z"/>
		<path d="M201.56,47.26c-5.95-1.97-8.88-8.89-9.04-9.12c-0.06-0.21-0.03-0.41,0.19-0.47c0.23-0.16,6.78-3.87,12.73-1.9
			c5.95,1.97,8.88,8.89,9.04,9.12c0.06,0.21,0.03,0.41-0.19,0.47C214.04,45.62,207.48,49.33,201.56,47.26z M193.52,38.22
			c0.66,1.44,3.48,6.71,8.36,8.39c4.88,1.68,10.32-0.91,11.66-1.58c-0.66-1.44-3.48-6.71-8.36-8.39
			C200.39,34.97,194.87,37.44,193.52,38.22z"/>
	</g>
	<g>
		
			<ellipse transform="matrix(0.1751 -0.9846 0.9846 0.1751 126.993 234.5935)" class="st11" cx="203.49" cy="41.51" rx="5.1" ry="5.1"/>
		<path d="M201.74,46.79c-1.44-0.46-2.58-1.47-3.16-2.8c-1.33-2.78-0.23-6.13,2.55-7.47s6.13-0.23,7.47,2.55
			c0.68,1.34,0.71,2.87,0.27,4.21c-0.46,1.44-1.47,2.58-2.8,3.16C204.61,47.2,203.18,47.25,201.74,46.79z M204.99,37.11
			c-1.15-0.41-2.48-0.34-3.6,0.27c-2.33,1.11-3.25,3.99-2.14,6.32c0.51,1.11,1.47,1.99,2.72,2.41c1.15,0.41,2.48,0.34,3.6-0.27
			c1.11-0.51,1.99-1.47,2.41-2.72c0.41-1.15,0.34-2.48-0.27-3.6l0,0C207.11,38.3,206.15,37.41,204.99,37.11z"/>
	</g>
	<line class="st5" x1="228.71" y1="41.93" x2="237.44" y2="41.96"/>
	<path d="M228.54,42.31c-0.2-0.04-0.26-0.25-0.34-0.37c0.04-0.2,0.17-0.38,0.38-0.44l8.71,0.13c0.2,0.04,0.38,0.17,0.44,0.38
		c-0.04,0.2-0.17,0.38-0.38,0.44l-8.71-0.13C228.64,42.33,228.54,42.31,228.54,42.31z"/>
	<line class="st5" x1="211.56" y1="17.86" x2="214.34" y2="9.62"/>
	<path d="M211.39,18.24c-0.2-0.04-0.36-0.27-0.31-0.56l2.79-8.24c0.04-0.2,0.27-0.36,0.56-0.31c0.2,0.04,0.36,0.27,0.31,0.56
		l-2.79,8.24C211.9,18.23,211.68,18.29,211.39,18.24z"/>
	<line class="st5" x1="183.38" y1="26.66" x2="176.38" y2="21.46"/>
	<path d="M183.31,27.06l-0.1-0.02l-7-5.21c-0.18-0.13-0.23-0.45-0.09-0.63c0.13-0.18,0.45-0.23,0.63-0.09l7,5.21
		c0.18,0.13,0.23,0.45,0.09,0.63C183.61,27.11,183.41,27.07,183.31,27.06z"/>
	<line class="st5" x1="183.11" y1="56.17" x2="176.02" y2="61.21"/>
	<path d="M175.85,61.58c-0.1-0.02-0.18-0.13-0.18-0.13c-0.16-0.23-0.13-0.43,0.11-0.59l7.09-5.04c0.23-0.16,0.43-0.13,0.59,0.11
		c0.16,0.23,0.13,0.43-0.11,0.59l-7.09,5.04C176.15,61.64,175.93,61.7,175.85,61.58z"/>
	<line class="st5" x1="211.09" y1="65.62" x2="213.68" y2="73.9"/>
	<path d="M213.51,74.27c-0.1-0.02-0.18-0.13-0.26-0.25l-2.59-8.28c-0.06-0.21,0.09-0.49,0.3-0.56s0.49,0.09,0.56,0.3l2.59,8.28
		c0.06,0.21-0.09,0.49-0.3,0.56C213.71,74.31,213.61,74.29,213.51,74.27z"/>
	<g>
		<circle class="st4" cx="22.32" cy="36.82" r="22"/>
		<path d="M33.42,56.06c-10.64,6.13-24.31,2.48-30.44-8.16S0.49,23.6,11.13,17.46s24.31-2.48,30.44,8.16S44.06,49.93,33.42,56.06z
			 M11.44,18.03C1.13,24.01-2.45,37.29,3.54,47.6s19.27,13.89,29.57,7.9S47,36.23,41.01,25.93S21.75,12.04,11.44,18.03z"/>
	</g>
	<g>
		<circle class="st3" cx="22.32" cy="36.82" r="16.2"/>
		<path d="M30.55,51.08c-7.92,4.58-18.01,1.88-22.49-6.03s-1.88-18.01,6.03-22.49s18.01-1.88,22.49,6.03S38.37,46.48,30.55,51.08z
			 M14.31,23.01C6.73,27.35,4.08,37.13,8.52,44.73s14.13,10.23,21.72,5.79c7.58-4.34,10.23-14.13,5.79-21.72
			S21.89,18.66,14.31,23.01z"/>
	</g>
	<g>
		<path d="M30.91,35.91c-3.49-6.1-11.97,1.63-13.76-1.43c-0.63-1.03-0.19-2.37,2.08-3.69c1.03-0.63,2.21-1.03,3.56-1.19
			c0.94-0.14,1.7-1.02,1.49-2.07l0,0c-0.12-1.04-1.12-1.72-2.05-1.58c-1.25,0.18-2.54,0.56-3.76,1.16l-0.63-1.03
			c-0.47-0.79-1.44-1.07-2.23-0.6c-0.79,0.47-1.07,1.44-0.6,2.23l0.61,1.12c-3.09,2.5-3.63,5.55-2.24,8.03
			c3.58,6.12,11.95-1.53,13.74,1.53c0.63,1.03,0.09,2.35-2.18,3.68c-1.36,0.77-3.07,1.28-4.62,1.41c-1.04,0.12-1.8,1-1.68,2.04l0,0
			c0.12,1.04,1.02,1.7,1.94,1.67c1.45-0.15,3.15-0.56,4.7-1.3l0.63,1.03c0.47,0.79,1.44,1.07,2.23,0.6c0.79-0.47,1.07-1.44,0.6-2.23
			l-0.61-1.12C31.85,41.46,32.41,38.31,30.91,35.91z"/>
	</g>
	<g>
		<line class="st5" x1="26.43" y1="21.1" x2="27.92" y2="15.57"/>
		<path d="M26.58,21.43c-0.1-0.02-0.12,0.08-0.21,0.06c-0.2-0.04-0.26-0.25-0.24-0.35l1.51-5.62c0.04-0.2,0.25-0.26,0.35-0.24
			c0.2,0.04,0.26,0.25,0.24,0.35l-1.51,5.62C26.71,21.25,26.69,21.35,26.58,21.43z"/>
	</g>
	<g>
		<line class="st5" x1="16.61" y1="58.05" x2="18.12" y2="52.43"/>
		<path d="M16.77,58.28c-0.1-0.02-0.12,0.08-0.21,0.06c-0.2-0.04-0.26-0.25-0.24-0.35l1.49-5.52c0.04-0.2,0.25-0.26,0.35-0.24
			c0.2,0.04,0.26,0.25,0.24,0.35l-1.49,5.52C16.89,58.2,16.79,58.18,16.77,58.28z"/>
	</g>
	<g>
		<line class="st5" x1="37.94" y1="40.92" x2="43.56" y2="42.43"/>
		<path d="M43.61,42.74c-0.1-0.02-0.12,0.08-0.21,0.06l-5.51-1.59c-0.2-0.04-0.26-0.25-0.24-0.35c0.04-0.2,0.25-0.26,0.35-0.24
			l5.62,1.51c0.2,0.04,0.26,0.25,0.24,0.35C43.74,42.56,43.72,42.66,43.61,42.74z"/>
	</g>
	<g>
		<line class="st5" x1="1.09" y1="31.12" x2="6.61" y2="32.61"/>
		<path d="M6.77,32.84c-0.1-0.02-0.12,0.08-0.21,0.06l-5.52-1.49c-0.2-0.04-0.26-0.25-0.24-0.35c0.04-0.2,0.25-0.26,0.35-0.24
			l5.52,1.49c0.2,0.04,0.26,0.25,0.24,0.35C6.89,32.76,6.87,32.85,6.77,32.84z"/>
	</g>
</g>
</svg>
