<svg xmlns="http://www.w3.org/2000/svg" viewBox="0 0 198.39 87"><defs><style>.cls-1{fill:#fff;}.cls-2{fill:#5557f7;}.cls-3{fill:#eabe2d;}</style></defs><title>LOGO_DILEMO0</title><g id="Capa_2" data-name="Capa 2"><g id="Capa_2-2" data-name="Capa 2"><path class="cls-1" d="M197.53,71.24a8.09,8.09,0,0,1-1-3.92V19.76a8.27,8.27,0,0,1,1-4l.77-1V.41H146.89a20.61,20.61,0,0,0-8.43,3.53,21.63,21.63,0,0,0-13-3.94H78.55V13.23l-.18,1.55L79.52,16a6.29,6.29,0,0,1,.82,3.31V30.27H66.07V18.86a4.56,4.56,0,0,1,.15-1.12H68.1V0H0V14.64l.79,1.16a8.07,8.07,0,0,1,1,3.89V67.24a8.56,8.56,0,0,1-1,4l-.77,1V87H15.69a19.59,19.59,0,0,0,15.62-7.77q.36-.46.7-.95H159.66V87H198.3V73.77l.09-1.36Z"/><path class="cls-2" d="M193.79,13.23V4.51H183.35v8.72h-8.73V4.51H164.18v8.72a12,12,0,0,1,1.88,6.53v54h-1.88v8.72h29.61V73.77H192v-54A12.41,12.41,0,0,1,193.79,13.23ZM174.7,73.77V26.21A4.32,4.32,0,0,1,179,21.88h0a4.32,4.32,0,0,1,4.32,4.32V73.77Z"/><path d="M193.79,82.8H164.18a.32.32,0,0,1-.32-.32V73.77a.32.32,0,0,1,.32-.32h1.56V19.76a11.84,11.84,0,0,0-1.82-6.34.32.32,0,0,1-.06-.18V4.51a.32.32,0,0,1,.32-.32h10.44a.32.32,0,0,1,.32.32v8.4H183V4.51a.32.32,0,0,1,.32-.32h10.44a.32.32,0,0,1,.32.32v8.72a.32.32,0,0,1-.06.18,12.22,12.22,0,0,0-1.74,6.35V73.45h1.48a.32.32,0,0,1,.32.32v8.72A.32.32,0,0,1,193.79,82.8Zm-29.3-.63h29V74.08H192a.32.32,0,0,1-.32-.32v-54a12.78,12.78,0,0,1,1.79-6.62V4.83h-9.81v8.4a.32.32,0,0,1-.32.32h-8.73a.32.32,0,0,1-.32-.32V4.83h-9.81v8.31a12.4,12.4,0,0,1,1.88,6.62v54a.32.32,0,0,1-.32.32h-1.56Zm29.3-68.94h0ZM183.35,74.08H174.7a.32.32,0,0,1-.32-.32V26.21a4.64,4.64,0,1,1,9.28,0V73.77A.32.32,0,0,1,183.35,74.08ZM175,73.45h8V26.21a4,4,0,0,0-8,0Z"/><path class="cls-2" d="M100.12,24.07v8.72h12.56V24.07H110.8V19.68a11.92,11.92,0,0,1,1.88-6.44V4.51H83.06v8.72a10.2,10.2,0,0,1,1.79,6.12V65H83.06v8.72h29.61V65H110.8V59.93a8,8,0,0,1,1.88-5.63h-.19l.19,0V45.53H100.36v8.72l.17,0h-.17a10.85,10.85,0,0,1,1.79,5.63V65H93.51V47.6h.08a12.38,12.38,0,0,1,6.53,1.88V37.24A12.77,12.77,0,0,1,93.59,39h-.08V21.88h8.65v2.19Z"/><path d="M112.68,74.08H83.06a.32.32,0,0,1-.32-.32V65a.32.32,0,0,1,.32-.32h1.48V19.35a10,10,0,0,0-1.72-5.92.32.32,0,0,1-.07-.2V4.51a.32.32,0,0,1,.32-.32h29.61a.32.32,0,0,1,.32.32v8.72a.32.32,0,0,1-.06.18,11.72,11.72,0,0,0-1.82,6.26v4.08h1.56a.32.32,0,0,1,.32.32v8.72a.32.32,0,0,1-.32.32H100.12a.32.32,0,0,1-.32-.32V24.07a.32.32,0,0,1,.32-.32h1.72V22.2h-8V38.72A12.56,12.56,0,0,0,99.94,37a.32.32,0,0,1,.49.26v8h12.25a.32.32,0,0,1,.32.32v8.74a.32.32,0,0,1-.1.25,7.94,7.94,0,0,0-1.78,5.4v4.8h1.56A.32.32,0,0,1,113,65v8.72A.32.32,0,0,1,112.68,74.08Zm-29.3-.63h29V65.36H110.8a.32.32,0,0,1-.32-.32V59.93a8.78,8.78,0,0,1,1.7-5.55v0a.32.32,0,0,1,.19-.33V45.85H100.68V54a.32.32,0,0,1,.14.41,11,11,0,0,1,1.65,5.5V65a.32.32,0,0,1-.32.32H93.51a.32.32,0,0,1-.32-.32V47.6a.32.32,0,0,1,.32-.32h.08a12.87,12.87,0,0,1,6.21,1.63V37.8a13.3,13.3,0,0,1-6.21,1.56h-.08a.32.32,0,0,1-.32-.32V21.88a.32.32,0,0,1,.32-.32h8.65a.32.32,0,0,1,.32.32v2.19a.32.32,0,0,1-.32.32h-1.72v8.09h11.93V24.39H110.8a.32.32,0,0,1-.32-.32V19.68a12.27,12.27,0,0,1,1.88-6.54V4.83h-29v8.3a10.67,10.67,0,0,1,1.79,6.23V65a.32.32,0,0,1-.32.32H83.38Zm10.44-8.72h8v-4.8a10.58,10.58,0,0,0-1.74-5.45.32.32,0,0,1-.06-.21V49.79l-.11,0a12.18,12.18,0,0,0-6.11-1.82Z"/><path class="cls-2" d="M4.51,13.23a12.29,12.29,0,0,1,1.79,6.44V73.77H4.51v8.72H15.69c10.12,0,16.56-9.55,16.56-19.74V19.68a11.92,11.92,0,0,1,1.88-6.44V4.51H4.51ZM23.6,62.5c0,5.38-3,11.18-8.65,11.18V21.88H23.6Z"/><path d="M15.69,82.8H4.51a.32.32,0,0,1-.32-.32V73.77a.32.32,0,0,1,.32-.32H6V19.68a12,12,0,0,0-1.74-6.27.32.32,0,0,1-.06-.18V4.51a.32.32,0,0,1,.32-.32H34.13a.32.32,0,0,1,.32.32v8.72a.32.32,0,0,1-.06.18,11.72,11.72,0,0,0-1.82,6.26V62.74A22.82,22.82,0,0,1,28,76.64,15.47,15.47,0,0,1,15.69,82.8ZM4.83,82.17H15.69a14.85,14.85,0,0,0,11.82-5.93,22.17,22.17,0,0,0,4.42-13.5V19.68a12.27,12.27,0,0,1,1.88-6.54V4.83h-29v8.31a12.64,12.64,0,0,1,1.79,6.54V73.77a.32.32,0,0,1-.32.32H4.83ZM15,74a.32.32,0,0,1-.32-.32V21.88a.32.32,0,0,1,.32-.32H23.6a.32.32,0,0,1,.32.32V62.5C23.92,68.07,20.78,74,15,74Zm.32-51.79V73.35c5.21-.21,8-5.69,8-10.85V22.2Z"/><path class="cls-2" d="M36.31,13.23h.15a10.85,10.85,0,0,1,1.79,5.63V65H36.46v8.72H48.78V65H46.9V18.86a8,8,0,0,1,1.88-5.63V4.51H36.31Z"/><path d="M48.78,74.08H36.46a.32.32,0,0,1-.32-.32V65a.32.32,0,0,1,.32-.32h1.48V18.86a10.54,10.54,0,0,0-1.65-5.31.32.32,0,0,1-.3-.32V4.51a.32.32,0,0,1,.32-.32H48.78a.32.32,0,0,1,.32.32v8.72a.32.32,0,0,1-.1.23,7.94,7.94,0,0,0-1.78,5.4V64.73h1.56a.32.32,0,0,1,.32.32v8.72A.32.32,0,0,1,48.78,74.08Zm-12-.63H48.46V65.36H46.9a.32.32,0,0,1-.32-.32V18.86a8.5,8.5,0,0,1,1.88-5.76V4.83H36.63V13a.32.32,0,0,1,.1.09,11.07,11.07,0,0,1,1.85,5.81V65a.32.32,0,0,1-.32.32H36.78Z"/><path class="cls-2" d="M151.4,13.23h.08c-5.63,0-10,2-13.05,5.55-2.94-3.51-7.34-5.55-13-5.55V4.51H115v8.72a10.85,10.85,0,0,1,1.79,5.63V65H115v8.72h12.32V65h-1.88V21.88c5.87,0,8.65,4.16,8.65,10V65h-1.84v8.72h12.32V65h-1.83l.08-33.13c0-5.87,2.69-10,8.57-10V65h-1.88v8.72h12.32V65H160V18.78c.08-3.83,1.79-5.55,1.79-5.55V4.51H151.4Z"/><path d="M161.84,74.08H149.52a.32.32,0,0,1-.32-.32V65a.32.32,0,0,1,.32-.32h1.56V22.2a7.41,7.41,0,0,0-5.92,2.69,11.23,11.23,0,0,0-2,7l-.08,32.81h1.51a.32.32,0,0,1,.32.32v8.72a.32.32,0,0,1-.32.32H132.27a.32.32,0,0,1-.32-.32V65a.32.32,0,0,1,.32-.32h1.52V31.92c0-6.05-2.92-9.57-8-9.71V64.73h1.56a.32.32,0,0,1,.32.32v8.72a.32.32,0,0,1-.32.32H115a.32.32,0,0,1-.32-.32V65a.32.32,0,0,1,.32-.32h1.48V18.86a10.58,10.58,0,0,0-1.74-5.45.32.32,0,0,1-.06-.18V4.51A.32.32,0,0,1,115,4.2h10.44a.32.32,0,0,1,.32.32v8.41c5.26.07,9.62,1.93,12.66,5.38a16.86,16.86,0,0,1,12.65-5.38V4.51a.32.32,0,0,1,.32-.32h10.44a.32.32,0,0,1,.32.32v8.72a.32.32,0,0,1-.09.22s-1.62,1.69-1.7,5.33V64.73h1.48a.32.32,0,0,1,.32.32v8.72A.32.32,0,0,1,161.84,74.08Zm-12-.63h11.69V65.36H160a.32.32,0,0,1-.32-.32V18.78a8.91,8.91,0,0,1,1.79-5.67V4.83h-9.81V13a.32.32,0,0,1-.24.53c-5.32,0-9.75,1.88-12.81,5.44a.32.32,0,0,1-.48,0c-3-3.56-7.38-5.43-12.73-5.43a.32.32,0,0,1-.32-.32V4.83h-9.81v8.31a11.06,11.06,0,0,1,1.79,5.73V65a.32.32,0,0,1-.32.32h-1.48v8.09H127V65.36h-1.56a.32.32,0,0,1-.32-.32V21.88a.32.32,0,0,1,.32-.32,8.22,8.22,0,0,1,6.77,2.93,11.72,11.72,0,0,1,2.19,7.42V65a.32.32,0,0,1-.32.32h-1.52v8.09h11.69V65.36h-1.51a.32.32,0,0,1-.32-.32l.08-33.13c0-6.58,3.24-10.35,8.88-10.35a.32.32,0,0,1,.32.32V65a.32.32,0,0,1-.32.32h-1.56Z"/><path class="cls-2" d="M80.73,43.5V34.78H68.41V43.5a10.85,10.85,0,0,1,1.79,5.63V65H61.56V18.86a10.85,10.85,0,0,1,1.79-5.63h.24V4.51H51.12v8.72s1.79,1.79,1.79,5.63V65H51.12v8.72H80.73V65H78.85V49.13A8,8,0,0,1,80.73,43.5Z"/><path d="M80.73,74.08H51.12a.32.32,0,0,1-.32-.32V65a.32.32,0,0,1,.32-.32h1.48V18.86a8.17,8.17,0,0,0-1.7-5.41.32.32,0,0,1-.09-.22V4.51a.32.32,0,0,1,.32-.32H63.59a.32.32,0,0,1,.32.32v8.72a.32.32,0,0,1-.32.32h-.07a10.57,10.57,0,0,0-1.65,5.31V64.73h8V49.13a10.58,10.58,0,0,0-1.74-5.45.32.32,0,0,1-.06-.18V34.78a.32.32,0,0,1,.32-.32H80.73a.32.32,0,0,1,.32.32V43.5a.32.32,0,0,1-.1.23h0a7.94,7.94,0,0,0-1.78,5.4v15.6h1.56A.32.32,0,0,1,81,65v8.72A.32.32,0,0,1,80.73,74.08Zm-29.3-.63h29V65.36H78.85a.32.32,0,0,1-.32-.32V49.13a8.5,8.5,0,0,1,1.88-5.76V35.1H68.73V43.4a11.06,11.06,0,0,1,1.79,5.73V65a.32.32,0,0,1-.32.32H61.56a.32.32,0,0,1-.32-.32V18.86a11.07,11.07,0,0,1,1.85-5.81.32.32,0,0,1,.18-.12V4.83H51.43v8.28a8.72,8.72,0,0,1,1.79,5.75V65a.32.32,0,0,1-.32.32H51.43Zm29.3-30h0Z"/><path d="M193.79,82.8H164.18a.32.32,0,0,1-.32-.32V73.77a.32.32,0,0,1,.32-.32h1.56V19.76a11.84,11.84,0,0,0-1.82-6.34.32.32,0,0,1-.06-.18V4.51a.32.32,0,0,1,.32-.32h10.44a.32.32,0,0,1,.32.32v8.4H183V4.51a.32.32,0,0,1,.32-.32h10.44a.32.32,0,0,1,.32.32v8.72a.32.32,0,0,1-.06.18,12.22,12.22,0,0,0-1.74,6.35V73.45h1.48a.32.32,0,0,1,.32.32v8.72A.32.32,0,0,1,193.79,82.8Zm-29.3-.63h29V74.08H192a.32.32,0,0,1-.32-.32v-54a12.78,12.78,0,0,1,1.79-6.62V4.83h-9.81v8.4a.32.32,0,0,1-.32.32h-8.73a.32.32,0,0,1-.32-.32V4.83h-9.81v8.31a12.4,12.4,0,0,1,1.88,6.62v54a.32.32,0,0,1-.32.32h-1.56Zm29.3-68.94h0Z"/><path d="M112.68,74.08H83.06a.32.32,0,0,1-.32-.32V65a.32.32,0,0,1,.32-.32h1.48V19.35a10,10,0,0,0-1.72-5.92.32.32,0,0,1-.07-.2V4.51a.32.32,0,0,1,.32-.32h29.61a.32.32,0,0,1,.32.32v8.72a.32.32,0,0,1-.06.18,11.72,11.72,0,0,0-1.82,6.26v4.08h1.56a.32.32,0,0,1,.32.32v8.72a.32.32,0,0,1-.32.32H100.12a.32.32,0,0,1-.32-.32V24.07a.32.32,0,0,1,.32-.32h1.72V22.2h-8V38.72A12.56,12.56,0,0,0,99.94,37a.32.32,0,0,1,.49.26v8h12.25a.32.32,0,0,1,.32.32v8.74a.32.32,0,0,1-.1.25,7.94,7.94,0,0,0-1.78,5.4v4.8h1.56A.32.32,0,0,1,113,65v8.72A.32.32,0,0,1,112.68,74.08Zm-29.3-.63h29V65.36H110.8a.32.32,0,0,1-.32-.32V59.93a8.78,8.78,0,0,1,1.7-5.55v0a.32.32,0,0,1,.19-.33V45.85H100.68V54a.32.32,0,0,1,.14.41,11,11,0,0,1,1.65,5.5V65a.32.32,0,0,1-.32.32H93.51a.32.32,0,0,1-.32-.32V47.6a.32.32,0,0,1,.32-.32h.08a12.87,12.87,0,0,1,6.21,1.63V37.8a13.3,13.3,0,0,1-6.21,1.56h-.08a.32.32,0,0,1-.32-.32V21.88a.32.32,0,0,1,.32-.32h8.65a.32.32,0,0,1,.32.32v2.19a.32.32,0,0,1-.32.32h-1.72v8.09h11.93V24.39H110.8a.32.32,0,0,1-.32-.32V19.68a12.27,12.27,0,0,1,1.88-6.54V4.83h-29v8.3a10.67,10.67,0,0,1,1.79,6.23V65a.32.32,0,0,1-.32.32H83.38Zm10.44-8.72h8v-4.8a10.58,10.58,0,0,0-1.74-5.45.32.32,0,0,1-.06-.21V49.79l-.11,0a12.18,12.18,0,0,0-6.11-1.82Z"/><path d="M15.69,82.78H4.51a.29.29,0,0,1-.29-.29V73.77a.29.29,0,0,1,.29-.29H6V19.68A12.07,12.07,0,0,0,4.27,13.4a.29.29,0,0,1-.05-.16V4.51a.29.29,0,0,1,.29-.29H34.13a.29.29,0,0,1,.29.29v8.72a.29.29,0,0,1-.05.17,11.75,11.75,0,0,0-1.82,6.28V62.74A22.79,22.79,0,0,1,28,76.62,15.45,15.45,0,0,1,15.69,82.78ZM4.8,82.2H15.69a14.87,14.87,0,0,0,11.85-5.94A22.2,22.2,0,0,0,32,62.74V19.68a12.23,12.23,0,0,1,1.88-6.54V4.8H4.8v8.34A12.61,12.61,0,0,1,6.6,19.68V73.77a.29.29,0,0,1-.29.29H4.8ZM15,74a.29.29,0,0,1-.29-.29V21.88a.29.29,0,0,1,.29-.29H23.6a.29.29,0,0,1,.29.29V62.5C23.89,68.06,20.76,74,15,74Zm.29-51.79V73.38c5.24-.2,8.07-5.7,8.07-10.88V22.17Z"/><path d="M48.78,74.06H36.46a.29.29,0,0,1-.29-.29V65a.29.29,0,0,1,.29-.29H38V18.86a10.57,10.57,0,0,0-1.66-5.34.29.29,0,0,1-.29-.29V4.51a.29.29,0,0,1,.29-.29H48.78a.29.29,0,0,1,.29.29v8.72a.29.29,0,0,1-.09.21,8,8,0,0,0-1.79,5.42V64.76h1.59a.29.29,0,0,1,.29.29v8.72A.29.29,0,0,1,48.78,74.06Zm-12-.58H48.49V65.34H46.9a.29.29,0,0,1-.29-.29V18.86a8.46,8.46,0,0,1,1.88-5.75V4.8H36.6V13a.29.29,0,0,1,.1.09,11,11,0,0,1,1.85,5.8V65a.29.29,0,0,1-.29.29h-1.5Z"/><path d="M161.84,74.08H149.52a.32.32,0,0,1-.32-.32V65a.32.32,0,0,1,.32-.32h1.56V22.2a7.41,7.41,0,0,0-5.92,2.69,11.23,11.23,0,0,0-2,7l-.08,32.81h1.51a.32.32,0,0,1,.32.32v8.72a.32.32,0,0,1-.32.32H132.27a.32.32,0,0,1-.32-.32V65a.32.32,0,0,1,.32-.32h1.52V31.92c0-6.05-2.92-9.57-8-9.71V64.73h1.56a.32.32,0,0,1,.32.32v8.72a.32.32,0,0,1-.32.32H115a.32.32,0,0,1-.32-.32V65a.32.32,0,0,1,.32-.32h1.48V18.86a10.58,10.58,0,0,0-1.74-5.45.32.32,0,0,1-.06-.18V4.51A.32.32,0,0,1,115,4.2h10.44a.32.32,0,0,1,.32.32v8.41c5.26.07,9.62,1.93,12.66,5.38a16.86,16.86,0,0,1,12.65-5.38V4.51a.32.32,0,0,1,.32-.32h10.44a.32.32,0,0,1,.32.32v8.72a.32.32,0,0,1-.09.22s-1.62,1.69-1.7,5.33V64.73h1.48a.32.32,0,0,1,.32.32v8.72A.32.32,0,0,1,161.84,74.08Zm-12-.63h11.69V65.36H160a.32.32,0,0,1-.32-.32V18.78a8.91,8.91,0,0,1,1.79-5.67V4.83h-9.81V13a.32.32,0,0,1-.24.53c-5.32,0-9.75,1.88-12.81,5.44a.32.32,0,0,1-.48,0c-3-3.56-7.38-5.43-12.73-5.43a.32.32,0,0,1-.32-.32V4.83h-9.81v8.31a11.06,11.06,0,0,1,1.79,5.73V65a.32.32,0,0,1-.32.32h-1.48v8.09H127V65.36h-1.56a.32.32,0,0,1-.32-.32V21.88a.32.32,0,0,1,.32-.32,8.22,8.22,0,0,1,6.77,2.93,11.72,11.72,0,0,1,2.19,7.42V65a.32.32,0,0,1-.32.32h-1.52v8.09h11.69V65.36h-1.51a.32.32,0,0,1-.32-.32l.08-33.13c0-6.58,3.24-10.35,8.88-10.35a.32.32,0,0,1,.32.32V65a.32.32,0,0,1-.32.32h-1.56Z"/><path d="M80.73,74.06H51.12a.29.29,0,0,1-.29-.29V65a.29.29,0,0,1,.29-.29h1.5V18.86a8.19,8.19,0,0,0-1.71-5.42.29.29,0,0,1-.08-.21V4.51a.29.29,0,0,1,.29-.29H63.59a.29.29,0,0,1,.29.29v8.72a.29.29,0,0,1-.29.29h-.08a10.6,10.6,0,0,0-1.66,5.34V64.76h8.07V49.13a10.61,10.61,0,0,0-1.74-5.46.29.29,0,0,1-.05-.17V34.78a.29.29,0,0,1,.29-.29H80.73a.29.29,0,0,1,.29.29V43.5a.29.29,0,0,1-.09.21,8,8,0,0,0-1.79,5.42V64.76h1.59A.29.29,0,0,1,81,65v8.72A.29.29,0,0,1,80.73,74.06Zm-29.32-.58h29V65.34H78.85a.29.29,0,0,1-.29-.29V49.13a8.46,8.46,0,0,1,1.88-5.75V35.07H68.7v8.34a11,11,0,0,1,1.79,5.72V65a.29.29,0,0,1-.29.29H61.56a.29.29,0,0,1-.29-.29V18.86a11,11,0,0,1,1.85-5.8.29.29,0,0,1,.18-.12V4.8H51.41v8.32a8.68,8.68,0,0,1,1.79,5.74V65a.29.29,0,0,1-.29.29h-1.5Zm29.32-30h0Z"/><path class="cls-3" d="M6.31,11V67.24a12.77,12.77,0,0,1-1.79,6.53H15.69c10.12,0,16.56-9.55,16.56-19.74V11a11.92,11.92,0,0,1,1.88-6.44H4.51A12.29,12.29,0,0,1,6.31,11ZM15,13.16H23.6V53.78C23.6,59.16,20.59,65,15,65Z"/><path d="M15.69,74.08H4.51a.32.32,0,0,1-.26-.49A12.57,12.57,0,0,0,6,67.24V11A12,12,0,0,0,4.25,4.69a.32.32,0,0,1,.26-.5H34.13a.32.32,0,0,1,.26.5A11.72,11.72,0,0,0,32.57,11V54A22.82,22.82,0,0,1,28,67.91,15.47,15.47,0,0,1,15.69,74.08ZM5.07,73.45H15.69a14.85,14.85,0,0,0,11.82-5.93A22.17,22.17,0,0,0,31.93,54V11a12.47,12.47,0,0,1,1.62-6.13H5.07A12.88,12.88,0,0,1,6.63,11V67.24A13.3,13.3,0,0,1,5.07,73.45ZM15,65.27a.32.32,0,0,1-.32-.32V13.16a.32.32,0,0,1,.32-.32H23.6a.32.32,0,0,1,.32.32V53.78C23.92,59.35,20.78,65.27,15,65.27Zm.32-51.79V64.63c5.21-.21,8-5.69,8-10.85V13.48Z"/><path class="cls-3" d="M48.78,4.51H36.46a10.85,10.85,0,0,1,1.79,5.63V58.52A12.41,12.41,0,0,1,36.46,65H48.78a12,12,0,0,1-1.88-6.53V10.14A8,8,0,0,1,48.78,4.51Z"/><path d="M48.78,65.36H36.46a.32.32,0,0,1-.26-.5,12.22,12.22,0,0,0,1.74-6.35V10.14A10.62,10.62,0,0,0,36.2,4.7a.32.32,0,0,1,.26-.5H48.78a.32.32,0,0,1,.22.55h0a7.94,7.94,0,0,0-1.78,5.4V58.52A11.79,11.79,0,0,0,49,64.86a.32.32,0,0,1-.26.5ZM37,64.73H48.21a12.64,12.64,0,0,1-1.62-6.21V10.14a9,9,0,0,1,1.52-5.31H37a10.93,10.93,0,0,1,1.54,5.31V58.52A13.06,13.06,0,0,1,37,64.73Z"/><path class="cls-3" d="M161.84,4.51H151.48c-5.63,0-10,2-13.05,5.55-2.94-3.51-7.34-5.55-13-5.55H115a10.85,10.85,0,0,1,1.79,5.63V58.52A12.41,12.41,0,0,1,115,65h12.32a12,12,0,0,1-1.88-6.53V13.16c5.87,0,8.65,4.16,8.65,10V58.52A12.41,12.41,0,0,1,132.31,65h12.24a12.41,12.41,0,0,1-1.79-6.53l.08-35.32c0-5.87,2.69-10,8.57-10V58.52A12.41,12.41,0,0,1,149.6,65h12.24A12.41,12.41,0,0,1,160,58.52V10.06C160.13,6.23,161.84,4.51,161.84,4.51Z"/><path d="M161.84,65.36H149.6a.32.32,0,0,1-.26-.5,12.22,12.22,0,0,0,1.74-6.35v-45a7.41,7.41,0,0,0-5.92,2.69,11.23,11.23,0,0,0-2,7l-.08,35.33a12.22,12.22,0,0,0,1.74,6.35.32.32,0,0,1-.26.5H132.31a.32.32,0,0,1-.26-.5,12.22,12.22,0,0,0,1.74-6.35V23.2c0-6.05-2.92-9.57-8-9.71v45a11.84,11.84,0,0,0,1.82,6.34.32.32,0,0,1-.26.5H115a.32.32,0,0,1-.26-.5,12.22,12.22,0,0,0,1.74-6.35V10.14a10.62,10.62,0,0,0-1.74-5.45.32.32,0,0,1,.26-.5h10.44c5.4,0,9.88,1.86,13,5.38,3.17-3.52,7.68-5.38,13.05-5.38h10.36a.32.32,0,0,1,.22.54h0s-1.63,1.69-1.7,5.33V58.52a12.22,12.22,0,0,0,1.74,6.35.32.32,0,0,1-.26.5Zm-11.68-.63h11.12a13.06,13.06,0,0,1-1.55-6.21V10.06a9.59,9.59,0,0,1,1.46-5.23h-9.71c-5.32,0-9.75,1.88-12.81,5.44a.32.32,0,0,1-.48,0c-3-3.55-7.38-5.43-12.73-5.43h-9.87a10.93,10.93,0,0,1,1.54,5.31V58.52a13.06,13.06,0,0,1-1.55,6.21h11.19a12.64,12.64,0,0,1-1.62-6.21V13.16a.32.32,0,0,1,.32-.32,8.22,8.22,0,0,1,6.77,2.93,11.72,11.72,0,0,1,2.19,7.42V58.52a13.06,13.06,0,0,1-1.55,6.21H144a13.06,13.06,0,0,1-1.55-6.21l.08-35.33c0-6.58,3.24-10.35,8.88-10.35a.32.32,0,0,1,.32.32V58.52A13.06,13.06,0,0,1,150.16,64.73Z"/><path class="cls-3" d="M192,11a12.41,12.41,0,0,1,1.79-6.53H164.18A12,12,0,0,1,166.05,11V67.32a11.92,11.92,0,0,1-1.88,6.44h29.61A12.29,12.29,0,0,1,192,67.32Zm-8.65,54.08H174.7V17.48A4.32,4.32,0,0,1,179,13.16h0a4.32,4.32,0,0,1,4.32,4.32Z"/><path d="M193.79,74.08H164.18a.32.32,0,0,1-.26-.5,11.72,11.72,0,0,0,1.82-6.26V11a11.79,11.79,0,0,0-1.82-6.34.32.32,0,0,1,.26-.5h29.61a.32.32,0,0,1,.26.5A12.22,12.22,0,0,0,192.31,11V67.32a12,12,0,0,0,1.74,6.27.32.32,0,0,1-.26.5Zm-29-.63h28.48a12.88,12.88,0,0,1-1.55-6.13V11a13.06,13.06,0,0,1,1.55-6.21H164.75A12.64,12.64,0,0,1,166.37,11V67.32A12.47,12.47,0,0,1,164.75,73.45Zm18.6-8H174.7a.32.32,0,0,1-.32-.32V17.48a4.64,4.64,0,1,1,9.28,0V65.12A.32.32,0,0,1,183.35,65.43ZM175,64.8h8V17.48a4,4,0,1,0-8,0Z"/><path class="cls-3" d="M80.73,34.78H68.41a10.85,10.85,0,0,1,1.79,5.63v16H61.56V10.14a10.85,10.85,0,0,1,1.79-5.63H51.12s1.79,1.79,1.79,5.63V58.68A11.17,11.17,0,0,1,51.12,65H80.73a12,12,0,0,1-1.88-6.53V56.4h0v-16A8,8,0,0,1,80.73,34.78Z"/><path d="M80.73,65.36H51.12a.32.32,0,0,1-.25-.51,11,11,0,0,0,1.73-6.17V10.14a7.92,7.92,0,0,0-1.7-5.41.32.32,0,0,1,.22-.54H63.35a.32.32,0,0,1,.26.5,10.62,10.62,0,0,0-1.74,5.45V56.08h8V40.41A10.62,10.62,0,0,0,68.15,35a.32.32,0,0,1,.26-.5H80.73a.32.32,0,0,1,.22.55,7.94,7.94,0,0,0-1.78,5.4V58.52A11.79,11.79,0,0,0,81,64.86a.32.32,0,0,1-.26.5Zm-29-.63H80.16a12.64,12.64,0,0,1-1.62-6.21V40.41a9,9,0,0,1,1.52-5.31H69a10.93,10.93,0,0,1,1.54,5.31v16a.32.32,0,0,1-.32.32H61.56a.32.32,0,0,1-.32-.32V10.14a10.93,10.93,0,0,1,1.54-5.31h-11a9.28,9.28,0,0,1,1.46,5.31V58.68A12,12,0,0,1,51.7,64.73Z"/><path class="cls-3" d="M110.8,56.38h0V51.2a8,8,0,0,1,1.88-5.63H100.36a10.85,10.85,0,0,1,1.79,5.63v5.18h0v0H93.51V38.88h.08a12.38,12.38,0,0,1,6.53,1.88V28.52a12.77,12.77,0,0,1-6.53,1.79h-.08V13.16h8.65v5.18A8,8,0,0,1,100.28,24H112.6a10.85,10.85,0,0,1-1.79-5.63V13.16h0V11a11.92,11.92,0,0,1,1.88-6.44H83.06a10.2,10.2,0,0,1,1.79,6.12V58.68A11.17,11.17,0,0,1,83.06,65h29.61a12,12,0,0,1-1.88-6.53Z"/><path d="M112.68,65.36H83.06a.32.32,0,0,1-.25-.51,11,11,0,0,0,1.73-6.17V10.63a10,10,0,0,0-1.72-5.92.32.32,0,0,1,.25-.52h29.61a.32.32,0,0,1,.26.5A11.72,11.72,0,0,0,111.12,11v7.38a10.62,10.62,0,0,0,1.74,5.45.32.32,0,0,1-.26.5H100.28a.32.32,0,0,1-.22-.55,7.94,7.94,0,0,0,1.78-5.4V13.48h-8V30a12.51,12.51,0,0,0,6.12-1.74.32.32,0,0,1,.49.26V40.76a.32.32,0,0,1-.5.26,12.18,12.18,0,0,0-6.11-1.82V56.08h8V51.2a10.62,10.62,0,0,0-1.74-5.45.32.32,0,0,1,.26-.5h12.32a.32.32,0,0,1,.22.55,7.94,7.94,0,0,0-1.78,5.4v7.32a11.79,11.79,0,0,0,1.82,6.34.32.32,0,0,1-.26.5Zm-29-.63h28.46a12.64,12.64,0,0,1-1.62-6.21V51.2A9,9,0,0,1,112,45.89H100.94a10.93,10.93,0,0,1,1.54,5.31v5.2a.32.32,0,0,1-.32.31H93.51a.32.32,0,0,1-.32-.32V38.88a.32.32,0,0,1,.32-.32h.08a12.87,12.87,0,0,1,6.21,1.63V29.08a13.3,13.3,0,0,1-6.21,1.56h-.08a.32.32,0,0,1-.32-.32V13.16a.32.32,0,0,1,.32-.32h8.65a.32.32,0,0,1,.32.32v5.18A9,9,0,0,1,101,23.65H112a10.93,10.93,0,0,1-1.54-5.31V11a12.47,12.47,0,0,1,1.62-6.13H83.66a11.12,11.12,0,0,1,1.51,5.8V58.68A12,12,0,0,1,83.65,64.73Z"/><path d="M15.69,74.06H4.51a.29.29,0,0,1-.24-.45A12.6,12.6,0,0,0,6,67.24V11A12.07,12.07,0,0,0,4.27,4.68a.29.29,0,0,1,.24-.46H34.13a.29.29,0,0,1,.24.46A11.75,11.75,0,0,0,32.54,11V54A22.79,22.79,0,0,1,28,67.9,15.45,15.45,0,0,1,15.69,74.06ZM5,73.47H15.69a14.87,14.87,0,0,0,11.85-5.94A22.2,22.2,0,0,0,32,54V11A12.43,12.43,0,0,1,33.6,4.8H5A12.84,12.84,0,0,1,6.6,11V67.24A13.27,13.27,0,0,1,5,73.47ZM15,65.25a.29.29,0,0,1-.29-.29V13.16a.29.29,0,0,1,.29-.29H23.6a.29.29,0,0,1,.29.29V53.78C23.89,59.34,20.76,65.25,15,65.25Zm.29-51.79V64.66c5.24-.2,8.07-5.7,8.07-10.88V13.45Z"/><path d="M48.78,65.34H36.46a.29.29,0,0,1-.24-.46A12.24,12.24,0,0,0,38,58.52V10.14a10.64,10.64,0,0,0-1.74-5.46.29.29,0,0,1,.24-.46H48.78a.29.29,0,0,1,.2.5,8,8,0,0,0-1.79,5.42V58.52A11.82,11.82,0,0,0,49,64.88a.29.29,0,0,1-.24.46ZM37,64.76H48.25a12.6,12.6,0,0,1-1.64-6.24V10.14A8.94,8.94,0,0,1,48.16,4.8H37a10.92,10.92,0,0,1,1.56,5.34V58.52A13,13,0,0,1,37,64.76Z"/><path d="M161.84,65.34H149.6a.29.29,0,0,1-.24-.46,12.24,12.24,0,0,0,1.74-6.36V13.46a7.44,7.44,0,0,0-6,2.7,11.25,11.25,0,0,0-2,7L143,58.52a12.24,12.24,0,0,0,1.74,6.36.29.29,0,0,1-.24.46H132.31a.29.29,0,0,1-.24-.46,12.24,12.24,0,0,0,1.74-6.36V23.2c0-6.08-2.93-9.61-8.07-9.74V58.52a11.87,11.87,0,0,0,1.82,6.36.29.29,0,0,1-.24.46H115a.29.29,0,0,1-.24-.46,12.24,12.24,0,0,0,1.74-6.36V10.14a10.64,10.64,0,0,0-1.74-5.46.29.29,0,0,1,.24-.46h10.44c5.41,0,9.88,1.86,13,5.39,3.17-3.53,7.67-5.39,13.05-5.39h10.36a.29.29,0,0,1,.21.5s-1.63,1.71-1.71,5.35V58.52a12.24,12.24,0,0,0,1.74,6.36.29.29,0,0,1-.24.46Zm-11.72-.58h11.2a13,13,0,0,1-1.57-6.24V10.06a9.51,9.51,0,0,1,1.48-5.26h-9.76c-5.33,0-9.77,1.88-12.83,5.45a.29.29,0,0,1-.22.1h0a.29.29,0,0,1-.22-.1c-3-3.56-7.39-5.44-12.75-5.44h-9.91a10.92,10.92,0,0,1,1.56,5.34V58.52a13,13,0,0,1-1.57,6.24H126.8a12.6,12.6,0,0,1-1.64-6.24V13.16a.29.29,0,0,1,.29-.29,8.2,8.2,0,0,1,6.75,2.92,11.69,11.69,0,0,1,2.19,7.4V58.52a13,13,0,0,1-1.57,6.24H144a13,13,0,0,1-1.57-6.24l.08-35.33c0-6.56,3.23-10.33,8.86-10.33a.29.29,0,0,1,.29.29V58.52A13,13,0,0,1,150.12,64.76Z"/><path d="M193.79,74.06H164.18a.29.29,0,0,1-.24-.46,11.74,11.74,0,0,0,1.82-6.28V11a11.82,11.82,0,0,0-1.82-6.36.29.29,0,0,1,.24-.46h29.61a.29.29,0,0,1,.24.46A12.24,12.24,0,0,0,192.29,11V67.32A12.07,12.07,0,0,0,194,73.6a.29.29,0,0,1-.24.46Zm-29.08-.58h28.57a12.84,12.84,0,0,1-1.57-6.15V11a13,13,0,0,1,1.57-6.24H164.7A12.6,12.6,0,0,1,166.34,11V67.32A12.43,12.43,0,0,1,164.71,73.47Zm18.64-8.07H174.7a.29.29,0,0,1-.29-.29V17.48a4.61,4.61,0,1,1,9.23,0V65.12A.29.29,0,0,1,183.35,65.41ZM175,64.83h8.07V17.48a4,4,0,1,0-8.07,0Z"/><path d="M80.73,65.34H51.12a.29.29,0,0,1-.23-.47,11,11,0,0,0,1.74-6.19V10.14a8,8,0,0,0-1.71-5.42.29.29,0,0,1,.21-.5H63.35a.29.29,0,0,1,.24.46,10.64,10.64,0,0,0-1.74,5.46v46h8.07V40.41a10.64,10.64,0,0,0-1.74-5.46.29.29,0,0,1,.24-.46H80.73a.29.29,0,0,1,.2.5,8,8,0,0,0-1.79,5.42V58.52A11.82,11.82,0,0,0,81,64.88a.29.29,0,0,1-.24.46Zm-29.08-.58H80.2a12.6,12.6,0,0,1-1.64-6.24V40.41a8.94,8.94,0,0,1,1.55-5.34H68.94a10.92,10.92,0,0,1,1.56,5.34v16a.29.29,0,0,1-.29.29H61.56a.29.29,0,0,1-.29-.29V10.14A10.92,10.92,0,0,1,62.82,4.8H51.72a9.21,9.21,0,0,1,1.48,5.34V58.68A12,12,0,0,1,51.65,64.76Z"/><path d="M112.68,65.34H83.06a.29.29,0,0,1-.23-.47,11,11,0,0,0,1.74-6.19V10.63A10,10,0,0,0,82.84,4.7a.29.29,0,0,1,.23-.47h29.61a.29.29,0,0,1,.24.46A11.75,11.75,0,0,0,111.09,11v7.38a10.64,10.64,0,0,0,1.74,5.46.29.29,0,0,1-.24.46H100.28a.29.29,0,0,1-.2-.5,8,8,0,0,0,1.79-5.42V13.45H93.8V30A12.55,12.55,0,0,0,100,28.28a.29.29,0,0,1,.45.24V40.76a.29.29,0,0,1-.46.24,12.2,12.2,0,0,0-6.15-1.82V56.11h8.07V51.2a10.64,10.64,0,0,0-1.74-5.46.29.29,0,0,1,.24-.46h12.32a.29.29,0,0,1,.2.5,8,8,0,0,0-1.79,5.42v7.32a11.82,11.82,0,0,0,1.82,6.36.29.29,0,0,1-.24.46ZM83.6,64.76h28.55a12.6,12.6,0,0,1-1.64-6.24V51.2a8.94,8.94,0,0,1,1.55-5.34H100.89a10.92,10.92,0,0,1,1.56,5.34v5.2a.29.29,0,0,1-.29.29H93.51a.29.29,0,0,1-.29-.29V38.88a.29.29,0,0,1,.29-.29h.08a12.84,12.84,0,0,1,6.24,1.65V29a13.27,13.27,0,0,1-6.24,1.58h-.08a.29.29,0,0,1-.29-.29V13.16a.29.29,0,0,1,.29-.29h8.65a.29.29,0,0,1,.29.29v5.18a8.94,8.94,0,0,1-1.55,5.34h11.17a10.92,10.92,0,0,1-1.56-5.34V11a12.43,12.43,0,0,1,1.64-6.15H83.62a11.06,11.06,0,0,1,1.53,5.83V58.68A12,12,0,0,1,83.6,64.76Z"/></g></g></svg>