<svg version="1.1" id="hexo" xmlns="http://www.w3.org/2000/svg" xmlns:xlink="http://www.w3.org/1999/xlink" x="0px" y="0px" viewBox="0 0 155 299" style="enable-background:new 0 0 155 299;" xml:space="preserve">
<style type="text/css">
	.st0{fill:#C03936;}
	.st1{fill:#FFFFFF;}
	.st2{fill:none;}
	.st3{fill:#89CFFC;}
	.st4{fill:#5BD0FD;}
	.st5{fill:#27A6FD;}
	.st6{fill:#BEFDFD;}
	.st7{fill:#88365F;}
	.st8{fill:#E2B440;}
	.st9{fill:#E69C9B;}
	.st10{fill:#CD5643;}
	.st11{fill:#FF6CFF;}
	.st12{fill:#FD9D9D;}
	.st13{fill:none;stroke:#000000;stroke-width:1.3;stroke-miterlimit:10;}
	.st14{display:none;}
	.st15{display:inline;}
	.st16{display:inline;fill:#FD9D9D;}
	.st17{display:inline;fill:#EB5640;}
</style>
<g >
	<path class="st15" d="M88.5,95.1c0.4,0,0.7-0.1,1.1-0.2C89.2,94.9,88.8,95,88.5,95.1L65,95c-0.4,0-0.7-0.1-1.1-0.2
		c0.3,0.1,0.7,0.2,1.1,0.2L88.5,95.1L88.5,95.1z"/>
	<path class="st15" d="M89.5,94.8c-0.3,0.1-0.7,0.2-1.1,0.2H65c-0.4,0-0.7-0.1-1.1-0.2c-1.7-0.5-3-2.1-3-3.9v1.5
		c0,2.3,1.8,4.1,4.1,4.1h23.4c2.3,0,4.1-1.8,4.1-4.1v-1.5C92.6,92.8,91.3,94.4,89.5,94.8z"/>
	<path class="st16" d="M62.4,89.2v1.5v0.2c0,1.5,1.2,2.7,2.7,2.7h23.4c1.5,0,2.7-1.2,2.7-2.7v-0.2v-1.5c0-1.5-1.2-2.7-2.7-2.7H65
		C63.6,86.5,62.4,87.7,62.4,89.2z M87,90.8H66.2c-0.4,0-0.7-0.3-0.7-0.7s0.3-0.7,0.7-0.7H87c0.4,0,0.7,0.3,0.7,0.7
		S87.4,90.8,87,90.8z"/>
	<path class="st15" d="M88.5,85.1H80v0.7c0,0.4-0.3,0.7-0.7,0.7h-5.1c-0.4,0-0.7-0.3-0.7-0.7v-0.7H65c-2.3,0-4.1,1.8-4.1,4.1v1.5
		v0.2c0,1.9,1.3,3.5,3,3.9c0.3,0.1,0.7,0.2,1.1,0.2h23.4c0.4,0,0.7-0.1,1.1-0.2c1.7-0.5,3-2.1,3-3.9v-0.2v-1.5
		C92.6,86.9,90.7,85.1,88.5,85.1z M88.5,86.5c1.5,0,2.7,1.2,2.7,2.7v1.5v0.2c0,1.5-1.2,2.7-2.7,2.7H65c-1.5,0-2.7-1.2-2.7-2.7v-0.2
		v-1.5c0-1.5,1.2-2.7,2.7-2.7H88.5z"/>
	<path class="st15" d="M87,89.3H66.2c-0.4,0-0.7,0.3-0.7,0.7s0.3,0.7,0.7,0.7H87c0.4,0,0.7-0.3,0.7-0.7S87.4,89.3,87,89.3z"/>
	<polygon class="st17" points="78.6,67.6 74.9,67.6 74.9,81.1 74.9,81.4 78.6,81.4 78.6,81.1 	"/>
	<path class="st15" d="M74.2,81.4h0.7v-0.3V67.6h3.7v13.5v0.3h0.7c0.4,0,0.7,0.3,0.7,0.7v-1.7V66.9c0-0.4-0.3-0.7-0.7-0.7h-5.1
		c-0.4,0-0.7,0.3-0.7,0.7v13.5v1.7C73.5,81.7,73.8,81.4,74.2,81.4z"/>
	<path class="st15" d="M74.2,86.5h5.1c0.4,0,0.7-0.3,0.7-0.7v-0.7v-1.7v-1.3c0-0.4-0.3-0.7-0.7-0.7h-0.7h-3.7h-0.7
		c-0.4,0-0.7,0.3-0.7,0.7v1.3v1.7v0.7C73.5,86.2,73.8,86.5,74.2,86.5z"/>
	<path class="st15" d="M87.9,74.3c2.2,0,4-1.8,4-4c0-0.4-0.3-0.7-0.7-0.7c-0.4,0-0.7,0.3-0.7,0.7c0,1.4-1.2,2.6-2.6,2.6
		s-2.6-1.2-2.6-2.6c0-0.4-0.3-0.7-0.7-0.7c-0.4,0-0.7,0.3-0.7,0.7C83.9,72.4,85.7,74.3,87.9,74.3z"/>
	<path class="st15" d="M65,74.3c2.2,0,4-1.8,4-4c0-0.4-0.3-0.7-0.7-0.7c-0.4,0-0.7,0.3-0.7,0.7c0,1.4-1.2,2.6-2.6,2.6
		s-2.6-1.2-2.6-2.6c0-0.4-0.3-0.7-0.7-0.7S61,69.9,61,70.3C60.9,72.4,62.8,74.3,65,74.3z"/>
	<path class="st15" d="M76.6,60.6c2.2,0,4-1.8,4-4c0-0.4-0.3-0.7-0.7-0.7c-0.4,0-0.7,0.3-0.7,0.7c0,1.4-1.2,2.6-2.6,2.6
		S74,58,74,56.6c0-0.4-0.3-0.7-0.7-0.7c-0.4,0-0.7,0.3-0.7,0.7C72.5,58.8,74.3,60.6,76.6,60.6z"/>
	<path class="st15" d="M78.7,99.8c0.4,0,0.7-0.3,0.7-0.7c0-0.4-0.3-0.7-0.7-0.7h-4.4c-0.4,0-0.7,0.3-0.7,0.7c0,0.4,0.3,0.7,0.7,0.7
		H78.7z"/>
</g>
</svg>