<svg version="1.1" id="Capa_1" xmlns="http://www.w3.org/2000/svg" xmlns:xlink="http://www.w3.org/1999/xlink" x="0" y="0" viewBox="0 0 979 1333.2" style="enable-background:new 0 0 979 1333.2" xml:space="preserve"><style>.st2{fill:#de62bf}.st3{fill:#5557f9}.st4{fill:none}.st5{fill:#8098fa}.st8{fill:#fff}.st9{fill:#63a5fa}.st12{fill:#9b2f6a}.st13{fill:#e2b440}.st14{fill:#27a6fd}.st16{fill:#e69c9b}.st17{fill:#cd5643}.st19{fill:#c0f3f7}.st22{fill:#6b67cb}.st25{fill:#eec142}.st26{fill:#f2e694}.st27{fill:#e0942d}.st29{fill:#f6a73d}</style><g id="Capa_2_1_"><g id="Capa_1-2"><g id="Capa_2-2"><g id="Capa_2-2-2"><defs><path id="SVGID_1_" d="M490.3 83.5h24.2C683.8 83.5 821 220.8 821 390.1v585.2c0 125.9-102.1 228-228 228H411.7c-125.9 0-228-102.1-228-228V390.1c0-169.4 137.3-306.6 306.6-306.6z"/></defs><clipPath id="SVGID_2_"><use xlink:href="#SVGID_1_" style="overflow:visible"/></clipPath><g style="clip-path:url(#SVGID_2_)"><linearGradient id="SVGID_3_" gradientUnits="userSpaceOnUse" x1="451.94" y1="1669.6" x2="451.94" y2="3100.79" gradientTransform="matrix(1 0 0 -1 0 2989.9)"><stop offset="0" style="stop-color:#e572ce"/><stop offset=".18" style="stop-color:#ec7a9d"/><stop offset=".36" style="stop-color:#f38172"/><stop offset=".54" style="stop-color:#f8864f"/><stop offset=".71" style="stop-color:#fc8a37"/><stop offset=".87" style="stop-color:#fe8c28"/><stop offset="1" style="stop-color:#ff8d23"/></linearGradient><path d="M-19.8-110.9h943.5v1431.2H-19.8V-110.9z" style="fill:url(#SVGID_3_)"/></g><path class="st2" d="M291.6 840.3v15.4h-14.5v15h-15v15h-15v15.2h-15v15h-19.5v197.4H307v-273h-15.4zm-95.8-187.7h55.4v133h-55.4v-133z"/><path d="M251.1 786.6h-55.4c-.6 0-1-.5-1-1v-133c0-.5.4-1 1-1h55.4c.6 0 1 .5 1 1v133c0 .6-.4 1-1 1zm-54.3-2h53.4v-131h-53.4v131z"/><path class="st3" d="M223.1 775.7c-1 0-2-.1-3-.3 6.8-1.4 11.8-7.5 11.8-14.4V652.6h6v108.3c-.1 8.1-6.7 14.8-14.8 14.8"/><path d="M220.2 774.6c-6.4-1.4-11-7-11-13.6V653.4h22v107.5c0 6.5-4.6 12.2-11 13.7"/><path d="M230.3 654.2v106.7c0 6.1-4.2 11.5-10.2 12.9-6-1.4-10.2-6.7-10.2-12.9V654.2h20.4m1.4-1.6h-23.4v108.3c0 7 4.9 13 11.8 14.4 6.8-1.4 11.8-7.5 11.8-14.4l-.2-108.3z"/><path d="M223.1 776.7c-1.1 0-2.1-.1-3.2-.3-.6 0-1-.5-1-1s.4-1 1-1c6.4-1.3 10.9-7 10.9-13.5V652.6c0-.5.4-1 1-1h6c.6 0 1 .5 1 1v108.3c0 8.7-7 15.7-15.7 15.8zm9.8-123v107.2c0 5.6-3 10.7-7.8 13.6 6.7-1 11.7-6.8 11.7-13.6V653.7h-3.9z"/><path d="M220.2 776.4h-.2c-7.3-1.5-12.5-8-12.6-15.5V652.6c0-.5.4-1 1-1H232c.6 0 1 .5 1 1v108.3c0 7.5-5.3 13.9-12.6 15.5h-.2zm-10.7-122.7v107.2c0 6.4 4.5 12 10.8 13.4 6.3-1.4 10.7-7 10.7-13.4V653.7h-21.5z"/><path class="st3" d="M207.2 652.6v-11.3h10.6v-10.9h10.9v-10.9h10.9v-11.1h10.9v-10.9h-10.9l-43.8.2v55h11.4z"/><path d="M207.2 653.7h-11.3c-.6 0-1-.5-1-1v-55c0-.5.4-1 1-1l54.7-.2c.6 0 1 .5 1 1v10.9c0 .5-.4 1-1 1h-9.9v10.1c0 .5-.4 1-1 1h-9.9v9.9c0 .5-.4 1-1 1h-9.9v9.9c0 .5-.4 1-1 1h-9.6v10.3c-.1.6-.5 1-1.1 1.1zm-10.3-2h9.3v-10.3c0-.5.4-1 1-1h9.6v-9.9c0-.5.4-1 1-1h9.9v-9.9c0-.5.4-1 1-1h9.9v-10.1c0-.5.4-1 1-1h10v-8.9l-52.6.2-.1 52.9z"/><path class="st2" d="M250.6 597.4h56.6v10.9h-56.6v-10.9z"/><path d="M307.2 609.4h-56.6c-.6 0-1-.5-1-1v-11c0-.5.4-1 1-1h56.6c.5 0 1 .5 1 1v10.9c0 .6-.4 1-1 1.1zm-55.6-2h54.6v-8.9h-54.6v8.9z"/><path class="st2" d="M239.6 608.3h56.6v10.9h-56.6v-10.9z"/><path d="M296.2 620.3h-56.6c-.6 0-1-.5-1-1v-11c0-.5.4-1 1-1h56.6c.5 0 1 .5 1 1v10.9c0 .6-.4 1.1-1 1.1zm-55.6-2h54.6v-8.9h-54.6v8.9z"/><path class="st2" d="M228.6 619.3h56.6v10.9h-56.6v-10.9z"/><path d="M285.2 631.2h-56.6c-.6 0-1-.5-1-1v-11c0-.5.4-1 1-1h56.6c.5 0 1 .5 1 1v10.9c0 .7-.4 1.1-1 1.1zm-55.6-2h54.6v-8.8h-54.6v8.8z"/><path class="st2" d="M217.8 630.2h56.6v10.9h-56.6v-10.9z"/><path d="M274.4 642.2h-56.6c-.6 0-1-.5-1-1v-11c0-.5.4-1 1-1h56.6c.5 0 1 .5 1 1v10.9c0 .6-.5 1-1 1.1zm-55.6-2h54.5v-8.9h-54.5v8.9z"/><path class="st2" d="M207.1 641.2h56.6v11.5h-56.6v-11.5z"/><path d="M263.7 653.7h-56.6c-.6 0-1-.5-1-1v-11.5c0-.5.4-1 1-1h56.6c.5 0 1 .5 1 1v11.5c0 .4-.4.9-1 1zm-55.5-2h54.5v-9.4h-54.5v9.4z"/><path class="st2" d="M295.9 553.1v11.3h-10.6v10.9h-10.9v10.9h-10.9v11.1h-10.9v10.9h10.9l43.7-.2v-55h-11.3z"/><path d="M252.5 609.4c-.6 0-1-.5-1-1v-11c0-.5.4-1 1-1h9.9v-10c0-.5.5-1 1-1h9.9v-9.9c0-.5.5-1 1-1h9.9v-10c0-.5.5-1 1-1h9.6v-10.4c0-.5.5-1 1-1h11.4c.5 0 1 .5 1 1v55c0 .5-.5 1-1 1l-54.7.3zm1-11v8.9l52.7-.2v-53H297v10.3c0 .5-.5 1-1 1h-9.5v9.9c0 .5-.5 1-1 1h-9.9v10c0 .5-.5 1-1 1h-9.9v10.1c0 .5-.5 1-1 1h-10.2z"/><path class="st3" d="M195.9 597.4h56.6v10.9h-56.6v-10.9z"/><path d="M252.5 609.4h-56.6c-.6 0-1-.5-1-1v-11c0-.5.4-1 1-1h56.6c.6 0 1 .5 1 1v10.9c0 .6-.4 1-1 1.1zm-55.6-2h54.5v-8.9H197l-.1 8.9z"/><path class="st3" d="M206.9 586.5h56.6v10.9h-56.6v-10.9z"/><path d="M263.5 598.4h-56.6c-.6 0-1-.5-1-1v-11c0-.5.4-1 1-1h56.6c.5 0 1 .5 1 1v10.9c.1.5-.3 1-.9 1.1h-.1zm-55.6-2h54.5v-8.9h-54.5v8.9z"/><path class="st3" d="M217.9 575.5h56.6v10.9h-56.6v-10.9z"/><path d="M274.5 587.5h-56.6c-.6 0-1-.5-1-1v-11c0-.5.4-1 1-1h56.6c.5 0 1 .5 1 1v10.8c.1.5-.3 1-.9 1.1h-.1zm-55.5-2h54.5v-8.9h-54.6l.1 8.9z"/><path class="st3" d="M228.7 564.6h56.6v10.9h-56.6v-10.9z"/><path d="M285.3 576.6h-56.6c-.6 0-1-.5-1-1v-11c0-.5.4-1 1-1h56.6c.5 0 1 .5 1 1v10.9c0 .6-.4 1-1 1.1zm-55.5-2h54.5v-8.9h-54.5v8.9z"/><path class="st3" d="M239.4 553.1H296v11.5h-56.6v-11.5z"/><path d="M296 565.6h-56.6c-.6 0-1-.5-1-1v-11.5c0-.5.4-1 1-1H296c.5 0 1 .5 1 1v11.5c0 .6-.5 1-1 1zm-55.6-2h54.5v-9.4h-54.5v9.4z"/><path class="st2" d="M295.8 498.4v-11.3h-10.6v-10.9h-10.9v-10.9h-10.9v-11.1h-10.9v-10.9h10.9l43.7.2v55h-11.3z"/><path d="M295.8 499.4c-.5 0-1-.5-1-1v-10.3h-9.6c-.5 0-1-.5-1-1v-9.9h-9.9c-.5 0-1-.5-1-1v-9.9h-9.9c-.5 0-1-.5-1-1v-10.2h-9.9c-.6 0-1-.5-1-1v-11c0-.5.4-1 1-1s1 .5 1 1v9.9h9.9c.5 0 1 .5 1 1v10.1h9.9c.5 0 1 .5 1 1v10h9.9c.5 0 1 .5 1 1v9.9h9.5c.5 0 1 .5 1 1v11.3c.1.6-.3 1.1-.9 1.1z"/><path d="M307.1 499.4c-.5 0-1-.5-1-1v-54l-53.6-.2c-.6 0-1-.5-1-1s.4-1 1-1l54.7.2c.5 0 1 .5 1 1v55c-.1.6-.6 1-1.1 1z"/><path class="st3" d="M195.8 443.2h56.6v10.9h-56.6v-10.9z"/><path d="M252.4 455.1h-56.6c-.6 0-1-.5-1-1v-11c0-.5.4-1 1-1h56.6c.6 0 1 .5 1 1v11c0 .6-.5 1-1 1zm-55.6-2h54.5v-9h-54.5v9z"/><path class="st3" d="M206.8 454.1h56.6V465h-56.6v-10.9z"/><path d="M263.4 466.1h-56.6c-.6 0-1-.5-1-1v-11c0-.5.4-1 1-1h56.6c.5 0 1 .5 1 1V465c0 .6-.4 1.1-1 1.1zm-55.6-2h54.5v-9h-54.5v9z"/><path class="st3" d="M217.8 465h56.6v11h-56.6v-11z"/><path d="M274.4 477h-56.5c-.6 0-1-.5-1-1v-11c0-.5.5-.9 1-.9h56.6c.5 0 1 .5 1 1v11c0 .6-.5 1-1.1.9zm-55.6-2h54.5v-8.9h-54.5v8.9z"/><path class="st3" d="M228.6 476h56.6v10.9h-56.6V476z"/><path d="M285.2 488h-56.6c-.6 0-1-.5-1-1v-11c0-.5.4-1 1-1h56.6c.5 0 1 .5 1 1v10.9c0 .6-.4 1-1 1.1zm-55.6-2h54.6v-8.9h-54.6v8.9z"/><path class="st3" d="M239.3 486.9h56.6v11.5h-56.6v-11.5z"/><path d="M295.8 499.4h-56.6c-.6 0-1-.5-1-1v-11.5c0-.5.4-1 1-1h56.6c.5 0 1 .5 1 1v11.5c0 .6-.4 1-1 1zm-55.5-2h54.6V488h-54.6v9.4z"/><path class="st3" d="M250.5 498.4h45.3v55h-45.3v-55z"/><path d="M295.8 554.5h-45.3c-.6 0-1-.5-1-1v-55.1c0-.5.4-1 1-1h45.3c.5 0 1 .5 1 1v55c0 .5-.5 1-1 1.1zm-44.3-2h43.2v-53h-43.2v53z"/><path class="st2" d="M295.8 498.4h11.1v55h-11.1v-55z"/><path d="M307 554.5h-11.1c-.5 0-1-.5-1-1v-55.1c0-.5.5-1 1-1s1 .5 1 1v54h9.1v-54c0-.5.5-1 1-1s1 .5 1 1v55c-.1.5-.5 1-1 1.1zm-33.9-11.8h.2c7.6 0 13.8-6.2 13.8-13.8v-29.8h-27.7V529c-.1 7.5 6.1 13.7 13.7 13.7"/><path d="M273.3 543.7h-.2c-8.2 0-14.8-6.6-14.8-14.8v-29.8c0-.5.5-1 1-1H287c.5 0 1 .5 1 1V529c0 8.1-6.6 14.7-14.7 14.7zm-13-43.6v28.8c0 7 5.7 12.8 12.8 12.8h.2c7 0 12.8-5.7 12.8-12.8v-28.8h-25.8zm-64.5-55.6c-.6 0-1-.5-1-1v-9.9h-9.9c-.5 0-1-.5-.9-1.1v-10.1h-10c-.6 0-1-.5-1-1v-9.9h-10c-.6 0-1-.5-1-1v-9.9h-9.6c-.6 0-1-.5-1-1v-11.4c0-.5.4-1 1-1s1 .5 1 1v10.4h9.6c.6 0 1 .5 1 1v9.9h9.9c.6 0 1 .5 1 1v9.9h9.9c.6 0 1 .5 1 1v10.1h9.9c.6 0 1 .5 1 1v10.9c0 .5-.4 1-1 1l.1.1z"/><path class="st2" d="M195.8 432.5h56.6v10.9h-56.6v-10.9z"/><path d="M252.4 444.5h-56.6c-.6 0-1-.5-1-1v-11c0-.5.4-1 1-1h56.6c.6 0 1 .5 1 1v10.9c0 .5-.4 1-1 1.1zm-55.6-2h54.5v-8.9h-54.5v8.9z"/><path class="st2" d="M184.8 421.6h56.6v10.9h-56.6v-10.9z"/><path d="M241.4 433.5h-56.6c-.6 0-1-.5-1-1v-11c0-.5.4-1 1-1h56.6c.6 0 1 .5 1 1v10.9c.1.6-.3 1.1-1 1.1zm-55.5-2h54.5v-8.9h-54.5v8.9z"/><path class="st2" d="M173.8 410.6h56.6v10.9h-56.6v-10.9z"/><path d="M230.4 422.6h-56.6c-.6 0-1-.5-1-1v-11c0-.5.4-1 1-1h56.6c.6 0 1 .5 1 1v10.9c0 .6-.4 1.1-1 1.1zm-55.5-2h54.5v-8.9h-54.5v8.9z"/><path class="st2" d="M163 399.7h56.6v10.9H163v-10.9z"/><path d="M219.6 411.7H163c-.6 0-1-.5-1-1v-11c0-.5.4-1 1-1h56.6c.6 0 1 .5 1 1v10.9c0 .6-.5 1-1 1.1zm-55.6-2h54.5v-8.9H164v8.9z"/><path class="st2" d="M152.4 388.2H209v11.5h-56.6v-11.5z"/><path d="M208.9 400.8h-56.6c-.6 0-1-.5-1-1v-11.5c0-.5.4-1 .9-1.1h56.7c.6 0 1 .5 1 1v11.5c0 .5-.4 1-.9 1.1h-.1zm-55.6-2h54.5v-9.4h-54.5v9.4zM307 1114.2c-.5 0-1-.4-1-1V841.3h-13.4v14.5c0 .5-.5 1-1 1h-13.4v14c0 .5-.5 1-1 1h-14v14c0 .5-.5 1-1 1h-14V901c0 .5-.4 1-1 1h-13.9v14c0 .5-.4 1-1 1s-1-.5-1-1v-15c0-.5.4-1 1-1h13.9v-14.2c0-.5.4-1 1-1h14v-14c0-.5.5-1 1-1h14v-13.9c0-.5.5-1 1-1h13.5v-14.4c0-.5.5-1 1-1h15.4c.5 0 1 .5 1 1v272.8c0 .5-.5.9-1.1.9z"/><path class="st3" d="M195.8 840.5h95.8V856h-95.8v-15.5zm0 15.5h81.3v15h-81.3v-15zm0 14.9h66.4v15h-66.4v-15z"/><path class="st3" d="M195.8 885.6h51.4v15.2h-51.4v-15.2zm0 15.2h36.5v15h-36.5v-15z"/><path d="M291.6 856.8h-95.8c-.6 0-1-.5-1-1v-15.5c0-.5.4-1 1-1h95.8c.5 0 1 .5 1 1v15.5c-.1.5-.5 1-1 1zm-94.8-2h93.8v-13.4h-93.8v13.4z"/><path d="M277.1 871.6h-81.3c-.6 0-1-.5-1-1v-14.8c0-.5.4-1 1-1h81.3c.5 0 1 .5 1 1v15c-.1.5-.5.8-1 .8zm-80.3-2H276v-12.9h-79.2v12.9z"/><path d="M262.1 886.7h-66.4c-.6 0-1-.5-1-1v-15c0-.5.4-1 1-1h66.4c.5 0 1 .5 1 1v15c0 .5-.4 1-1 1zm-65.3-2h64.3v-13h-64.3v13z"/><path d="M247.2 901.9h-51.4c-.6 0-1-.5-1-1v-15.2c0-.5.4-1 1-1h51.4c.6 0 1 .5 1 1v15.2c0 .5-.4 1-1 1zm-50.4-2h49.4v-13.2h-49.4v13.2z"/><path d="M232.2 916.9h-36.4c-.6 0-1-.5-1-1v-15c0-.5.4-1 1-1h36.4c.6 0 1 .5 1 1v15c.1.5-.3 1-.9 1.1l-.1-.1zm-35.4-2h34.4V902h-34.4v12.9z"/><path class="st3" d="M207.1 785.6v11.3h10.6v10.9h10.9v10.9h10.9v11.1h10.9v10.9h-10.9l-43.7-.2v-55h11.3z"/><path d="m250.4 841.8-54.7-.2c-.6 0-1-.5-1-1v-55c0-.5.4-1 1-1H207c.6 0 1 .5 1 1V796h9.6c.6 0 1 .5 1 1v9.9h9.9c.6 0 1 .5 1 1v9.9h9.9c.6 0 1 .5 1 1v10.1h9.9c.6 0 1 .5 1 1v10.9c.1.6-.4 1-.9 1zm-53.6-2.2 52.6.2v-8.9h-9.9c-.6 0-1-.5-1-1v-10.1h-9.9c-.6 0-1-.5-1-1v-9.9h-9.9c-.6 0-1-.5-1-1V798h-9.6c-.6 0-1-.5-1-1v-10.3h-9.3v52.9z"/><path class="st2" d="M250.4 829.9H307v10.9h-56.6v-10.9z"/><path d="M307 841.8h-56.6c-.6 0-1-.5-1-1v-10.9c0-.5.4-1 1-1H307c.5 0 1 .5 1 1v10.9c0 .6-.4 1-1 1zm-55.6-2H306v-8.9h-54.5l-.1 8.9z"/><path class="st2" d="M239.4 819H296v10.9h-56.6V819z"/><path d="M296 830.9h-56.6c-.6 0-1-.5-1-1v-11c0-.5.4-1 1-1H296c.5 0 1 .5 1 1v10.9c0 .6-.4 1.1-1 1.1zm-55.5-2h54.4V820h-54.3l-.1 8.9z"/><path class="st2" d="M228.4 808H285v11h-56.6v-11z"/><path d="M285 820h-56.6c-.6 0-1-.5-1-1v-11c0-.5.4-1 1-1H285c.5 0 1 .5 1 1v11c0 .5-.5 1-1 1zm-55.6-2H284v-8.9h-54.5l-.1 8.9z"/><path class="st2" d="M217.6 797.1h56.6V808h-56.6v-10.9z"/><path d="M274.2 809h-56.6c-.6 0-1-.5-1-1v-10.9c0-.5.4-1 1-1h56.6c.5 0 1 .5 1 1V808c0 .6-.4 1-1 1zm-55.6-2h54.6v-8.9h-54.6v8.9z"/><path class="st2" d="M207 785.6h56.6v11.5H207v-11.5z"/><path d="M263.6 798.1H207c-.6 0-1-.5-1-1v-11.5c0-.5.4-1 1-1h56.6c.5 0 1 .5 1 1v11.5c0 .6-.5 1-1 1zm-55.6-2h54.5v-9.4H208v9.4zm-6.6 11.9c-3.1 0-5.6 2.5-5.6 5.6v26.9h11.3v-26.9c0-3.1-2.5-5.6-5.6-5.6"/><path d="M207 841.6h-11.3c-.6 0-1-.5-1-1v-27c0-3.7 3-6.6 6.6-6.6s6.6 3 6.6 6.6v26.9c0 .6-.4 1-.9 1.1zm-10.2-2h9.2v-26c0-2.5-2-4.5-4.5-4.5s-4.5 2-4.5 4.5l-.2 26z"/><path class="st3" d="M212.7 1113.2v17.1h16.1v16.6h16.6v16.6H262v16.9h16.6v16.6H262l-66.4-.3v-83.5h17.1z"/><path d="M278.5 1198h-16.6l-66.4-.4c-.6 0-1-.4-1-1v-83.4c0-.6.4-1 1-1h17.1c.6 0 1 .4 1 1v16.1h15c.6 0 1 .4 1 1v15.6h15.6c.6 0 1 .4 1 1v15.6h15.6c.5 0 1 .4 1 1v15.8h15.6c.5 0 1 .4 1 1v16.6c.1.6-.3 1.1-.9 1.1zm-82-2.2 65.4.3h15.6v-14.6h-15.6c-.5 0-1-.4-1-1v-15.8h-15.6c-.6 0-1-.4-1-1V1148h-15.6c-.6 0-1-.4-1-1v-15.6h-15c-.6 0-1-.4-1-1v-16.1h-15.1l-.1 81.5z"/><path class="st2" d="M212.7 1113.2h113.8v17.1H212.7v-17.1zM228.7 1130.3h116.7v16.6H228.7v-16.6zm16.6 16.6h117v16.6h-117v-16.6zm16.6 16.6h117v16.9h-117v-16.9zm16.6 16.9h117v16.6h-117v-16.6z"/><path d="M326.5 1131.4H212.7c-.6 0-1-.4-1-1v-17.1c0-.6.4-1 1-1h113.8c.5 0 1 .4 1 1v17.1c0 .5-.5 1-1 1zm-112.8-2h111.7v-15.1H213.7v15.1z"/><path d="M345.5 1147.9H228.7c-.6 0-1-.4-1-1v-16.6c0-.6.4-1 1-1h116.7c.5 0 1 .4 1 1v16.6c.1.6-.4 1-.9 1zm-115.7-2h114.7v-14.6H229.8v14.6z"/><path d="M362.4 1164.6h-117c-.6 0-1-.4-1-1V1147c0-.6.4-1 1-1h117c.5 0 1 .4 1 1v16.6c0 .5-.5 1-1 1zm-116-2h115V1148h-115v14.6z"/><path d="M379 1181.4H262c-.5 0-1-.4-1-1v-16.9c0-.6.5-1 1-1h117c.5 0 1 .4 1 1v16.9c0 .6-.5 1-1 1zm-116-2h115v-14.8H263v14.8z"/><path d="M395.5 1198h-117c-.5 0-1-.4-1-1v-16.6c0-.6.5-1 1-1h117c.5 0 1 .4 1 1v16.6c0 .6-.4 1-1 1zm-116-2h115v-14.6h-115v14.6zm-66.8-64.6h-17.1c-.6 0-1-.4-1-1s.4-1 1-1h17.1c.6 0 1 .4 1 1s-.5 1-1 1zm16 16.5h-33.6c-.6 0-1-.4-1-1s.4-1 1-1h33.6c.6 0 1 .4 1 1s-.4 1-1 1zm16.6 16.7h-49.8c-.6 0-1-.4-1-1s.4-1 1-1h49.8c.6 0 1 .4 1 1s-.4 1-1 1zm16.6 16.8h-66.4c-.6 0-1-.4-1-1s.4-1 1-1h66.4c.5 0 1 .4 1 1s-.4 1-1 1z"/><path d="M212.7 1164.6c-.6 0-1-.4-1-1V1147c0-.6.4-1 1-1s1 .4 1 1v16.6c0 .5-.5 1-1 1zm16.2 16.8c-.6 0-1-.4-1-1v-16.9c0-.6.4-1 1-1s1 .4 1 1v16.9c0 .6-.5 1-1 1zm-17 16.4c-.6 0-1-.4-1-1v-16.4c0-.6.4-1 1-1s1 .4 1 1v16.4c0 .6-.4 1-1 1zm33.4 0c-.6 0-1-.4-1-1v-16.4c0-.6.4-1 1-1s1 .4 1 1v16.4c0 .6-.4 1-1 1z"/><path class="st3" d="M195.6 915.8h17.1v197.4h-17.1V915.8z"/><path d="M212.7 1114.2h-17.1c-.6 0-1-.4-1-1V915.8c0-.5.4-1 1-1h17.1c.6 0 1 .5 1 1v197.4c0 .6-.5 1-1 1zm-16.1-2h15.1V916.9h-15.1v195.3z"/><path class="st3" d="M261.2 941.3c-1.8 0-3.7.2-5.5.6 12.4 2.6 21.4 13.5 21.4 26.3v145H288v-145c0-14.8-12-26.8-26.8-26.9"/><path d="M235.1 1112.4V968.2c0-12.3 8.6-22.9 20.6-25.5 12 2.6 20.6 13.2 20.6 25.5v144.2h-41.2z"/><path d="M255.7 943.5c11.6 2.6 19.8 12.8 19.8 24.7v143.4h-39.6V968.2c0-11.9 8.2-22.1 19.8-24.7m0-1.6c-12.4 2.6-21.4 13.5-21.4 26.3v145H277v-145c.1-12.7-8.9-23.7-21.3-26.3"/><path d="M288 1114.2h-10.9c-.5 0-1-.4-1-1v-145c0-12.2-8.6-22.8-20.6-25.3-.6 0-1-.5-1-1s.4-1 1-1c15.1-3.1 29.8 6.6 32.9 21.7.4 1.8.6 3.6.6 5.5v145.1c0 .6-.4 1-1 1zm-9.9-2h8.9v-144c0-14.2-11.5-25.8-25.8-25.8h-.4c10.5 4.3 17.3 14.5 17.4 25.8l-.1 144z"/><path d="M277.1 1114.2h-42.8c-.6 0-1-.4-1-1v-145c.1-13.2 9.3-24.5 22.2-27.2h.4c12.9 2.7 22.1 14 22.2 27.2v145c0 .6-.4 1-1 1zm-41.7-2h40.8v-144c0-12.2-8.5-22.6-20.4-25.2-11.9 2.6-20.4 13.1-20.4 25.2v144z"/><path d="M261.2 941.3c-1.8 0-3.7.2-5.5.6 12.4 2.6 21.4 13.5 21.4 26.3H288c0-14.8-12-26.8-26.8-26.9"/><path d="M288 969.2h-10.9c-.5 0-1-.5-1-1 0-12.2-8.6-22.8-20.6-25.3-.6 0-1-.5-1-1s.4-1 1-1c15.1-3.1 29.8 6.6 32.9 21.7.4 1.8.6 3.7.6 5.5.1.5-.3 1-.9 1.1h-.1zm-9.9-2h8.9c-.6-14-12.2-25-26.2-24.8 10 4.2 16.8 13.8 17.3 24.8z"/><path class="st4" d="M281 633.7h-32.6"/><path class="st2" d="M728 840.3v15.4h14.5v15h15v15h15v15.2h15v15H807v197.4h-94.3v-273H728zm40.5-187.7h55.4v133h-55.4v-133z"/><path d="M823.8 786.6h-55.4c-.5 0-1-.5-1-1v-133c0-.5.5-1 1-1h55.4c.5 0 1 .5 1 1v133c0 .6-.4 1-1 1zm-54.3-2h53.3v-131h-53.4l.1 131z"/><path class="st3" d="M796.5 775.7c1 0 2-.1 3-.3-6.8-1.4-11.8-7.5-11.8-14.4V652.6h-6v108.3c.1 8.1 6.7 14.8 14.8 14.8"/><path d="M799.5 774.6c6.4-1.4 11-7 11-13.6V653.4h-22v107.5c.1 6.5 4.6 12.2 11 13.7"/><path d="M789.3 654.2h20.4v106.7c1.3 5.6-2.1 11.3-7.7 12.6-5.6 1.3-11.3-2.1-12.6-7.7-.4-1.6-.4-3.3 0-4.9V654.2m-1.6 106.7c-1.3 6.5 2.9 12.8 9.4 14.2s12.8-2.9 14.2-9.4c.3-1.6.3-3.2 0-4.8V652.6h-23.5v108.3z"/><path d="M796.5 776.7c-8.8 0-15.8-7.1-15.8-15.8V652.6c0-.5.5-1 1-1h6c.5 0 1 .5 1 1v108.3c0 6.5 4.6 12.1 11 13.4.5 0 1 .5 1 1s-.5 1-1 1c-1 .2-2.1.4-3.2.4zm-13.7-123v107.2c0 6.8 5 12.6 11.7 13.6-4.8-2.8-7.8-8-7.8-13.6V653.7h-3.9z"/><path d="M799.5 776.4h-.2c-7.3-1.5-12.5-8-12.6-15.5V652.6c0-.5.5-1 1-1h23.5c.5 0 1 .5 1 1v108.3c0 7.5-5.3 13.9-12.6 15.5h-.1zm-10.7-122.7v107.2c-1.3 5.9 2.4 11.8 8.3 13.2s11.8-2.4 13.2-8.3c.4-1.6.4-3.2 0-4.8V653.7h-21.5z"/><path class="st3" d="M812.4 652.6v-11.3h-10.6v-10.9h-10.9v-10.9H780v-11.1h-11v-10.9h10.9l43.7.2v55h-11.2z"/><path d="M823.7 653.7h-11.3c-.5 0-1-.5-1-1v-10.3h-9.5c-.5 0-1-.5-1-1v-9.9H791c-.5 0-1-.5-1-1v-9.9h-10c-.5 0-1-.5-1-1v-10.1h-10c-.5 0-1-.5-1-1v-11c0-.5.5-1 1-1l54.7.2c.5 0 1 .5 1 1v55c0 .5-.4.9-1 1zm-10.3-2h9.2v-53l-52.6-.2v8.9h9.9c.5 0 1 .5 1 1v10.1h9.9c.5 0 1 .5 1 1v10h9.9c.5 0 1 .5 1 1v9.9h9.5c.5 0 1 .5 1 1l.2 10.3z"/><path class="st2" d="M712.4 597.4H769v10.9h-56.6v-10.9z"/><path d="M769 609.4h-56.6c-.5 0-1-.5-1-1v-11c0-.5.5-1 1-1H769c.5 0 1 .5 1 1v10.9c0 .6-.5 1-1 1.1zm-55.6-2H768v-8.9h-54.6v8.9z"/><path class="st2" d="M723.4 608.3H780v10.9h-56.6v-10.9z"/><path d="M780 620.3h-56.6c-.5 0-1-.5-1-1v-11c0-.5.5-1 1-1H780c.5 0 1 .5 1 1v10.9c0 .6-.4 1.1-1 1.1zm-55.6-2H779v-8.9h-54.5v8.9z"/><path class="st2" d="M734.4 619.3H791v10.9h-56.6v-10.9z"/><path d="M791 631.2h-56.6c-.5 0-1-.5-1-1v-11c0-.5.5-1 1-1H791c.5 0 1 .5 1 1v10.9c0 .7-.4 1.1-1 1.1zm-55.6-2H790v-8.8h-54.5l-.1 8.8z"/><path class="st2" d="M745.2 630.2h56.6v10.9h-56.6v-10.9z"/><path d="M801.8 642.2h-56.6c-.5 0-1-.5-1-1v-11c0-.5.5-1 1-1h56.6c.5 0 1 .5 1 1v10.9c0 .6-.4 1-1 1.1zm-55.6-2.1h54.5v-8.9h-54.5v8.9z"/><path class="st2" d="M755.9 641.2h56.6v11.5h-56.6v-11.5z"/><path d="M812.5 653.7h-56.6c-.5 0-1-.5-1-1v-11.5c0-.5.5-1 1-1h56.6c.5 0 1 .5 1 1v11.5c0 .4-.5.9-1 1zm-55.6-2h54.5v-9.4h-54.5v9.4z"/><path class="st2" d="M723.7 553.1v11.3h10.6v10.9h10.9v10.9h10.9v11.1H767v10.9h-10.9l-43.7-.2v-55h11.3z"/><path d="m767.1 609.4-54.7-.2c-.5 0-1-.5-1-1v-55.1c0-.5.5-1 1-1h11.3c.5 0 1 .5 1 1v10.3h9.5c.5 0 1 .5 1 1v9.9h9.9c.5 0 1 .5 1 1v9.9h10c.5 0 1 .5 1 1v10.1h9.9c.5 0 1 .5 1 1v10.9c.1.6-.3 1.1-.9 1.2zm-53.7-2.3 52.6.2v-8.9h-9.9c-.5 0-1-.5-1-1v-10.1h-10c-.5 0-1-.5-1-1v-9.9h-9.9c-.5 0-1-.5-1-1v-9.9h-9.5c-.5 0-1-.5-1-1v-10.4h-9.2l-.1 53z"/><path class="st3" d="M767.1 597.4h56.6v10.9h-56.6v-10.9z"/><path d="M823.7 609.4h-56.6c-.5 0-1-.5-1-1v-11c0-.5.5-1 1-1h56.6c.5 0 1 .5 1 1v10.9c0 .6-.5 1-1 1.1zm-55.6-2h54.5v-8.9H768l.1 8.9z"/><path class="st3" d="M756.1 586.5h56.6v10.9h-56.6v-10.9z"/><path d="M812.7 598.4h-56.6c-.5 0-1-.5-1-1v-11c0-.5.5-1 1-1h56.6c.5 0 1 .5 1 1v10.9c.1.5-.3 1-.9 1.1h-.1zm-55.6-2h54.5v-8.9h-54.5v8.9z"/><path class="st3" d="M745.1 575.5h56.6v10.9h-56.6v-10.9z"/><path d="M801.7 587.5h-56.6c-.5 0-1-.5-1-1v-11c0-.5.5-1 1-1h56.6c.5 0 1 .5 1 1v10.8c.1.5-.3 1-.9 1.1h-.1zm-55.6-2h54.5v-8.9h-54.5v8.9z"/><path class="st3" d="M734.3 564.6h56.6v10.9h-56.6v-10.9z"/><path d="M790.9 576.6h-56.6c-.5 0-1-.5-1-1v-11c0-.5.5-1 1-1h56.6c.5 0 1 .5 1 1v10.9c0 .6-.5 1-1 1.1zm-55.6-2h54.5v-8.9h-54.5v8.9z"/><path class="st3" d="M723.7 553.1h56.6v11.5h-56.6v-11.5z"/><path d="M780.2 565.6h-56.6c-.5 0-1-.5-1-1v-11.5c0-.5.5-1 1-1h56.6c.5 0 1 .5 1 1v11.5c0 .6-.4 1-1 1zm-55.5-2h54.6v-9.4h-54.5l-.1 9.4z"/><path class="st2" d="M723.8 498.4v-11.3h10.6v-10.9h10.9v-10.9h10.9v-11.1h10.9v-10.9h-10.9l-43.7.2v55h11.3z"/><path d="M723.8 499.4c-.5 0-1-.5-1-1v-11.3c0-.5.5-1 1-1h9.5v-10c0-.5.5-1 1-1h9.9v-9.9c0-.5.4-1 .9-1.1h10.1V454c0-.5.5-1 1-1h9.9v-9.9c0-.5.5-1 1-1s1 .5 1 1V454c0 .5-.5 1-1 1h-9.9v10.1c0 .5-.5 1-1 1h-9.9v10c0 .5-.5 1-1 1h-9.9v9.9c0 .5-.5 1-1 1h-9.5v10.3c.1.5-.4 1-.9 1.1h-.2z"/><path d="M712.5 499.4c-.5 0-1-.5-1-1v-55c0-.5.5-1 1-1l54.7-.3c.5 0 1 .5 1 1s-.5 1-1 1l-53.7.2v54c.1.5-.3 1-.8 1.1h-.2z"/><path class="st3" d="M767.2 443.2h56.6v10.9h-56.6v-10.9z"/><path d="M823.8 455.1h-56.6c-.5 0-1-.5-1-1v-11c0-.5.5-1 1-1h56.6c.5 0 1 .5 1 1v11c0 .6-.4 1-1 1zm-55.6-2h54.5v-9h-54.6l.1 9z"/><path class="st3" d="M756.2 454.1h56.6V465h-56.6v-10.9z"/><path d="M812.8 466.1h-56.6c-.5 0-1-.5-1-1v-11c0-.5.5-1 1-1h56.6c.5 0 1 .5 1 1V465c0 .6-.4 1-1 1.1zm-55.6-2h54.5v-9h-54.6l.1 9z"/><path class="st3" d="M745.2 465h56.6v11h-56.6v-11z"/><path d="M801.8 477h-56.6c-.5 0-1-.5-1-1v-11c0-.5.5-1 1-1h56.6c.5 0 1 .5 1 1v10.9c0 .6-.4 1-1 1.1zm-55.6-2h54.5v-8.9h-54.6l.1 8.9z"/><path class="st3" d="M734.4 476H791v10.9h-56.6V476z"/><path d="M791 488h-56.6c-.5 0-1-.5-1-1v-11c0-.5.5-1 1-1H791c.5 0 1 .5 1 1v10.9c0 .6-.5 1-1 1.1zm-55.6-2H790v-8.9h-54.5l-.1 8.9z"/><path class="st3" d="M723.8 486.9h56.6v11.5h-56.6v-11.5z"/><path d="M780.3 499.4h-56.6c-.5 0-1-.5-1-1v-11.5c0-.5.5-1 1-1h56.6c.5 0 1 .5 1 1v11.5c0 .6-.4 1-1 1zm-55.5-2h54.6V488h-54.6v9.4z"/><path class="st3" d="M723.8 498.4h45.3v55h-45.3v-55z"/><path d="M769.1 554.5h-45.3c-.5 0-1-.5-1-1v-55.1c0-.5.5-1 1-1h45.3c.5 0 1 .5 1 1v55c0 .5-.4 1-1 1.1zm-44.3-2H768v-53h-43.2v53z"/><path class="st2" d="M712.7 498.4h11.1v55h-11.1v-55z"/><path d="M723.8 554.5h-11.1c-.5 0-1-.5-1-1v-55.1c0-.5.5-1 1-1s1 .5 1 1v54h9.1v-54c0-.5.5-1 1-1s1 .5 1 1v55c-.1.5-.5 1-1 1.1zm22.7-11.8h-.2c-7.6 0-13.8-6.2-13.8-13.8v-29.8h27.7V529c.1 7.5-6.1 13.7-13.7 13.7"/><path d="M746.5 543.7h-.2c-8.2 0-14.8-6.6-14.8-14.8v-29.8c0-.5.5-1 1-1h27.7c.5 0 1 .5 1 1V529c0 8.1-6.5 14.7-14.7 14.7zm-12.9-43.6v28.8c0 7 5.7 12.8 12.8 12.8h.2c7 0 12.8-5.7 12.8-12.8v-28.8h-25.8zm90.2-55.6c-.5 0-1-.5-1-1v-11c0-.5.5-1 1-1h9.9v-10.1c0-.5.5-1 1-1h9.9v-9.9c0-.5.5-1 1-1h9.9v-9.9c0-.5.5-1 1-1h9.5v-10.4c0-.5.5-1 1-1s1 .5 1 1v11.3c0 .5-.5 1-1 1h-9.5v9.9c0 .5-.5 1-1 1h-9.9v9.9c0 .5-.5 1-1 1h-9.9v10.1c0 .5-.5 1-1 1h-9.9v9.9c0 .5-.4 1-.9 1.1l-.1.1z"/><path class="st2" d="M767.2 432.5h56.6v10.9h-56.6v-10.9z"/><path d="M823.8 444.5h-56.6c-.5 0-1-.5-1-1v-11c0-.5.5-1 1-1h56.6c.5 0 1 .5 1 1v10.9c0 .5-.4 1-1 1.1zm-55.6-2h54.5v-8.9h-54.6l.1 8.9z"/><path class="st2" d="M778.2 421.6h56.6v10.9h-56.6v-10.9z"/><path d="M834.8 433.5h-56.6c-.5 0-1-.4-1.1-.9v-11c0-.5.5-1 1-1h56.6c.5 0 1 .5 1 1v10.9c.1.5-.3 1-.9 1zm-55.6-2h54.5v-8.9h-54.5v8.9z"/><path class="st2" d="M789.2 410.6h56.6v10.9h-56.6v-10.9z"/><path d="M845.8 422.6h-56.6c-.5 0-1-.5-1-1v-11c0-.5.5-1 1-1h56.6c.5 0 1 .5 1 1v10.9c0 .6-.4 1.1-1 1.1zm-55.6-2h54.5v-8.9h-54.6l.1 8.9z"/><path class="st2" d="M800 399.7h56.6v10.9H800v-10.9z"/><path d="M856.6 411.7H800c-.5 0-1-.5-1-1v-11c0-.5.5-1 1-1h56.6c.5 0 1 .5 1 1v10.9c0 .6-.4 1-1 1.1zm-55.6-2h54.5v-8.9H801v8.9z"/><path class="st2" d="M810.7 388.2h56.6v11.5h-56.6v-11.5z"/><path d="M867.2 400.8h-56.6c-.5 0-1-.5-1-1v-11.5c0-.5.5-1 1-1h56.6c.5 0 1 .5 1 1v11.5c0 .5-.4.9-1 1zm-55.5-2h54.6v-9.4h-54.5l-.1 9.4zm-99.1 715.4c-.5 0-1-.4-1-1V840.3c0-.5.5-1 1-1H728c.5 0 1 .5 1 1v14.4h13.5c.5 0 1 .5 1 1v14h14c.5 0 1 .5 1 1v14h14c.5 0 1 .5 1 1v14.2h13.9c.5 0 1 .5 1 1v15c0 .5-.5 1-1 1s-1-.5-1-1v-14h-13.9c-.5 0-1-.5-1-1v-14.2h-14c-.5 0-1-.5-1-1v-14h-14c-.5 0-1-.5-1-1v-14H728c-.5 0-1-.5-1-1v-14.4h-13.3v271.9c0 .6-.4 1-1.1 1z"/><path class="st3" d="M728 840.5h95.8V856H728v-15.5zm14.5 15.5h81.3v15h-81.3v-15zm15 14.9h66.4v15h-66.4v-15z"/><path class="st3" d="M772.4 885.6h51.4v15.2h-51.4v-15.2zm15 15.2h36.5v15h-36.5v-15z"/><path d="M823.8 856.8H728c-.5 0-1-.5-1-1v-15.5c0-.5.5-1 1-1h95.8c.5 0 1 .5 1 1v15.5c0 .5-.4 1-1 1zm-94.7-2h93.8v-13.4h-93.8v13.4z"/><path d="M823.8 871.6h-81.3c-.5 0-1-.5-1-1v-14.8c0-.5.5-1 1-1h81.3c.5 0 1 .5 1 1v15c0 .5-.5.8-1 .8zm-80.3-2h79.2v-12.9h-79.2v12.9z"/><path d="M823.8 886.7h-66.4c-.5 0-1-.5-1-1v-15c0-.5.5-1 1-1h66.4c.5 0 1 .5 1 1v15c.1.5-.4 1-1 1zm-65.3-2h64.3v-13h-64.3v13z"/><path d="M823.8 901.9h-51.4c-.5 0-1-.5-1-1v-15.2c0-.5.5-1 1-1h51.4c.5 0 1 .5 1 1v15.2c0 .5-.4 1-1 1zm-50.3-2h49.4v-13.2h-49.4v13.2z"/><path d="M823.8 916.9h-36.5c-.5 0-1-.5-1-1v-15c0-.5.5-1 1-1h36.5c.5 0 1 .5 1 1v15c.1.5-.3 1-.9 1.1l-.1-.1zm-35.4-2h34.4V902h-34.4v12.9z"/><path class="st3" d="M812.6 785.6v11.3H802v10.9h-11v10.9h-10.9v11.1h-10.9v10.9h10.9l43.7-.2v-55h-11.2z"/><path d="M769.2 841.8c-.5 0-1-.5-1-1v-10.9c0-.5.5-1 1-1h9.9v-10.1c0-.5.5-1 1-1h9.9v-9.9c0-.5.5-1 1-1h9.9V797c0-.5.5-1 1-1h9.5v-10.3c0-.5.5-1 1-1h11.3c.5 0 1 .5 1 1v55c0 .5-.5 1-1 1l-54.5.1zm1.1-11v8.9l52.6-.2v-53h-9.3v10.3c0 .5-.5 1-1 1h-9.5v9.9c0 .5-.5 1-1 1h-10v9.9c0 .5-.5 1-1 1h-9.9v10.1c0 .5-.5 1-1 1l-9.9.1z"/><path class="st2" d="M712.6 829.9h56.6v10.9h-56.6v-10.9z"/><path d="M769.2 841.8h-56.6c-.5 0-1-.5-1-1v-10.9c0-.5.5-1 1-1h56.6c.5 0 1 .5 1 1v10.9c0 .6-.4 1-1 1zm-55.5-2h54.4v-8.9h-54.4v8.9z"/><path class="st2" d="M723.6 819h56.6v10.9h-56.6V819z"/><path d="M780.2 830.9h-56.6c-.5 0-1-.5-1-1v-11c0-.5.5-1 1-1h56.6c.5 0 1 .5 1 1v10.9c0 .6-.4 1.1-1 1.1zm-55.5-2h54.5V820h-54.6l.1 8.9z"/><path class="st2" d="M734.6 808h56.6v11h-56.6v-11z"/><path d="M791.2 820h-56.6c-.5 0-1-.5-1-1v-11c0-.5.5-1 1-1h56.6c.5 0 1 .5 1 1v11c0 .5-.4 1-1 1zm-55.5-2h54.6v-8.9h-54.6v8.9z"/><path class="st2" d="M745.4 797.1H802V808h-56.6v-10.9z"/><path d="M802 809h-56.6c-.5 0-1-.5-1-1v-10.9c0-.5.5-1 1-1H802c.5 0 1 .5 1 1V808c0 .6-.4 1-1 1zm-55.5-2H801v-8.9h-54.6l.1 8.9z"/><path class="st2" d="M756 785.6h56.6v11.5H756v-11.5z"/><path d="M812.6 798.1H756c-.5 0-1-.5-1-1v-11.5c0-.5.5-1 1-1h56.6c.5 0 1 .5 1 1v11.5c0 .6-.4 1-1 1zm-55.5-2h54.5v-9.4h-54.5v9.4zm61.1 11.9c3.1 0 5.6 2.5 5.6 5.6v26.9h-11.3v-26.9c0-3.1 2.5-5.6 5.6-5.6"/><path d="M823.8 841.6h-11.3c-.5 0-1-.5-1-1v-27c0-3.7 3-6.6 6.6-6.6 3.6 0 6.6 3 6.6 6.6v26.9c.1.6-.3 1-.9 1.1zm-10.2-2h9.2v-26c0-2.5-2-4.5-4.5-4.5s-4.5 2-4.5 4.5l-.2 26z"/><path class="st3" d="M806.9 1113.2v17.1h-16v16.6h-16.6v16.6h-16.6v16.9h-16.6v16.6h16.6l66.4-.3v-83.5h-17.2z"/><path d="M757.7 1198h-16.6c-.5 0-1-.4-1-1v-16.6c0-.6.5-1 1-1h15.6v-15.8c0-.6.5-1 1-1h15.6V1147c0-.6.5-1 1-1h15.6v-15.6c0-.6.5-1 1-1h15v-16.1c0-.6.5-1 1-1H824c.5 0 1 .4 1 1v83.5c0 .6-.5 1-1 1l-66.3.2zm-15.6-2h15.6l65.4-.3v-81.5H808v16.1c0 .6-.5 1-1 1h-15v15.6c0 .6-.5 1-1 1h-15.7v15.6c0 .6-.5 1-1 1h-15.6v15.8c0 .6-.5 1-1 1h-15.6v14.7z"/><path class="st2" d="M693.2 1113.2H807v17.1H693.2v-17.1zM674.1 1130.3h116.8v16.6H674.1v-16.6zm-16.9 16.6h117v16.6h-117v-16.6zm-16.5 16.6h117v16.9h-117v-16.9zm-16.6 16.9h117v16.6h-117v-16.6z"/><path d="M806.9 1131.4H693.2c-.5 0-1-.4-1-1v-17.1c0-.6.5-1 1-1H807c.5 0 1 .4 1 1v17.1c-.1.5-.5 1-1.1 1zm-112.7-2h111.7v-15.1H694.2v15.1z"/><path d="M790.9 1147.9H674.1c-.5 0-1-.4-1-1v-16.6c0-.6.5-1 1-1h116.8c.5 0 1 .4 1 1v16.6c0 .6-.5 1-1 1zm-115.8-2h114.7v-14.6H675.2l-.1 14.6z"/><path d="M774.3 1164.6H657.2c-.5 0-1-.4-1-1V1147c0-.6.5-1 1-1h117c.5 0 1 .4 1 1v16.6c0 .5-.4 1-.9 1zm-116-2h114.9V1148h-115l.1 14.6z"/><path d="M757.7 1181.4h-117c-.5 0-1-.4-1-1v-16.9c0-.6.5-1 1-1h117c.5 0 1 .4 1 1v16.9c0 .6-.5 1-1 1zm-116-2h115v-14.8h-115v14.8z"/><path d="M741.1 1198h-117c-.5 0-1-.4-1-1v-16.6c0-.6.5-1 1-1h117c.5 0 1 .4 1 1v16.6c0 .6-.5 1-1 1zm-116-2h115v-14.6h-115v14.6zm199-64.6H807c-.5 0-1-.4-1-1s.5-1 1-1h17.1c.5 0 1 .4 1 1s-.5 1-1 1zm.4 16.5h-33.6c-.5 0-1-.4-1-1s.5-1 1-1h33.6c.5 0 1 .4 1 1s-.4 1-1 1zm-.4 16.7h-49.8c-.5 0-1-.4-1-1s.5-1 1-1H824c.5 0 1 .4 1 1s-.4 1-.9 1zm0 16.8h-66.4c-.5 0-1-.4-1-1s.5-1 1-1h66.4c.5 0 1 .4 1 1s-.5 1-1 1z"/><path d="M806.9 1164.6c-.5 0-1-.4-1-1V1147c0-.6.5-1 1-1s1 .4 1 1v16.6c0 .5-.4 1-1 1zm-16.2 16.8c-.5 0-1-.4-1-1v-16.9c0-.6.5-1 1-1s1 .4 1 1v16.9c0 .6-.5 1-1 1zm17 16.4c-.5 0-1-.4-1-1v-16.4c0-.6.5-1 1-1s1 .4 1 1v16.4c0 .6-.5 1-1 1zm-33.4 0c-.5 0-1-.4-1-1v-16.4c0-.6.5-1 1-1s1 .4 1 1v16.4c0 .6-.5 1-1 1z"/><path class="st3" d="M806.9 915.8H824v197.4h-17.1V915.8z"/><path d="M824.1 1114.2H807c-.5 0-1-.4-1-1V915.8c0-.5.5-1 1-1h17.1c.5 0 1 .5 1 1v197.4c0 .6-.5 1-1 1zm-16.2-2H823V916.9h-15.1v195.3z"/><path class="st3" d="M758.5 941.3c1.8 0 3.7.2 5.5.6-12.4 2.6-21.4 13.5-21.4 26.3v145h-10.9v-145c-.1-14.8 11.9-26.9 26.8-26.9"/><path d="M784.5 1112.4V968.2c0-12.3-8.6-22.9-20.6-25.5-12 2.6-20.6 13.2-20.6 25.5v144.2h41.2z"/><path d="M763.9 943.5c11.6 2.6 19.8 12.8 19.8 24.7v143.4H744V968.2c.1-11.9 8.3-22.1 19.9-24.7m0-1.6c-12.4 2.6-21.4 13.5-21.4 26.3v145h42.7v-145c.1-12.7-8.9-23.7-21.3-26.3"/><path d="M742.5 1114.2h-10.9c-.5 0-1-.4-1-1v-145c.1-15.4 12.6-27.8 28-27.8 1.8 0 3.7.2 5.5.6.5 0 1 .5 1 1s-.5 1-1 1c-12 2.5-20.5 13-20.6 25.3v144.9c.1.6-.4 1-1 1zm-9.9-2h8.9v-144c0-11.3 6.9-21.5 17.4-25.8h-.4c-14.2 0-25.8 11.6-25.8 25.8l-.1 144z"/><path d="M785.3 1114.2h-42.8c-.5 0-1-.4-1-1v-145c.1-13.2 9.3-24.5 22.2-27.2h.4c12.9 2.7 22.1 14 22.2 27.2v145c0 .6-.4 1-1 1zm-41.7-2h40.8v-144c0-12.2-8.5-22.6-20.4-25.2-11.9 2.6-20.3 13.1-20.4 25.2v144z"/><path d="M758.5 941.3c1.8 0 3.7.2 5.5.6-12.4 2.6-21.4 13.5-21.4 26.3h-10.9c-.1-14.8 11.9-26.9 26.8-26.9"/><path d="M742.5 969.2h-10.9c-.5 0-1-.5-1-1 .1-15.4 12.6-27.8 28-27.8 1.8 0 3.7.2 5.5.6.5 0 1 .5 1 1s-.5 1-1 1c-12 2.5-20.5 13-20.6 25.3 0 .5-.4.9-1 .9zm-9.8-2h8.8c.4-10.9 7.2-20.6 17.3-24.8h-.4c-13.8 0-25.1 10.9-25.7 24.8z"/><path class="st4" d="M738.6 633.7h32.5"/><path class="st5" d="M185.7 1197.3h647.6v50H185.7v-50z"/><path d="M833.3 1248.8H185.7c-.8 0-1.4-.6-1.4-1.4v-50c0-.8.6-1.4 1.4-1.4h647.6c.8 0 1.4.6 1.4 1.4v50.1c0 .7-.7 1.3-1.4 1.3zm-646.2-2.9h644.7v-47.2H187.1v47.2z"/><path d="M195.3 1247.4V397c.1-173.7 140.8-314.5 314.5-314.6h0c173.7.1 314.5 140.9 314.6 314.6v850.4h50.1V397C874.5 196 711 32.5 510 32.5S145.5 196.1 145.5 397v850.4h49.8z" style="fill:#769afd;stroke:#000;stroke-width:3.84px;stroke-linecap:round;stroke-linejoin:round"/><path d="M874.5 1248.8h-50c-.8 0-1.4-.6-1.4-1.4V397c1.4-172.9-137.6-314.3-310.5-315.8S198.2 218.8 196.7 391.7v855.8c0 .8-.6 1.4-1.4 1.4h-50.1c-.8 0-1.4-.6-1.4-1.4V397c0-201.8 164.2-366 366-366s366 164.2 366 366v850.4c-.1.8-.6 1.4-1.3 1.4zm-48.6-2.9H873v-849c0-200.2-163-363.1-363.1-363.1S146.7 196.8 146.7 397v849h47.1V397c0-174.5 141.5-316 316-316s316 141.5 316 316l.1 848.9z"/><path d="M195.3 398.5h-50.1c-.8 0-1.4-.6-1.4-1.4s.6-1.4 1.4-1.4h50.1c.8 0 1.4.6 1.4 1.4s-.6 1.4-1.4 1.4zm0 125h-50.1c-.8 0-1.4-.6-1.4-1.4s.6-1.4 1.4-1.4h50.1c.8 0 1.4.6 1.4 1.4s-.6 1.4-1.4 1.4zm0 175.1h-50.1c-.8 0-1.4-.6-1.4-1.4s.6-1.4 1.4-1.4h50.1c.8 0 1.4.6 1.4 1.4s-.6 1.4-1.4 1.4zm0 125.1h-50.1c-.8 0-1.4-.6-1.4-1.4s.6-1.4 1.4-1.4h50.1c.8 0 1.4.6 1.4 1.4s-.6 1.4-1.4 1.4zm0 124.9h-50.1c-.8 0-1.4-.6-1.4-1.4s.6-1.4 1.4-1.4h50.1c.8 0 1.4.6 1.4 1.4s-.6 1.4-1.4 1.4zm0 175.2h-50.1c-.8 0-1.4-.6-1.4-1.4 0-.8.6-1.4 1.4-1.4h50.1c.8 0 1.4.6 1.4 1.4 0 .8-.6 1.4-1.4 1.4zm314.5-1040c-.8 0-1.4-.6-1.4-1.4v-50c0-.8.6-1.4 1.4-1.4.8 0 1.4.6 1.4 1.4v50c0 .8-.6 1.4-1.4 1.4zM287.4 176c-.4 0-.7-.2-1-.4l-35.3-35.2c-.4-.7-.3-1.6.4-2 .5-.3 1.1-.3 1.6 0l35.2 35.2c.6.6.6 1.5 0 2-.2.3-.6.5-.9.4zm103.3-68.8c-.6 0-1.1-.3-1.3-.9l-18.8-46.2c-.3-.7 0-1.6.7-1.9.7-.3 1.6 0 1.9.7l18.8 46.3c.3.7 0 1.6-.7 1.9-.2.1-.4.1-.6.1zM218.3 280h-.5l-46.3-18.9c-.7-.3-1.1-1.1-.8-1.9s1.1-1.1 1.9-.8l46.3 18.8c.7.3 1.1 1.1.8 1.9-.2.6-.8.9-1.4.9zm656.2 118.5h-50c-.8 0-1.4-.6-1.4-1.4s.6-1.4 1.4-1.4h50c.8 0 1.4.6 1.4 1.4s-.7 1.4-1.4 1.4zm0 125h-50c-.8 0-1.4-.6-1.4-1.4s.6-1.4 1.4-1.4h50c.8 0 1.4.6 1.4 1.4s-.7 1.4-1.4 1.4zm0 175.1h-50c-.8 0-1.4-.6-1.4-1.4s.6-1.4 1.4-1.4h50c.8 0 1.4.6 1.4 1.4s-.7 1.4-1.4 1.4zm0 125.1h-50c-.8 0-1.4-.6-1.4-1.4s.6-1.4 1.4-1.4h50c.8 0 1.4.6 1.4 1.4s-.7 1.4-1.4 1.4zm0 124.9h-50c-.8 0-1.4-.6-1.4-1.4s.6-1.4 1.4-1.4h50c.8 0 1.4.6 1.4 1.4s-.7 1.4-1.4 1.4zm0 175.2h-50c-.8 0-1.4-.6-1.4-1.4 0-.8.6-1.4 1.4-1.4h50c.8 0 1.4.6 1.4 1.4 0 .8-.7 1.4-1.4 1.4z"/><path d="M509.8 83.8c-.8 0-1.4-.6-1.4-1.4v-50c0-.8.6-1.4 1.4-1.4s1.4.6 1.4 1.4v50c0 .8-.6 1.4-1.4 1.4zM732.2 176c-.8 0-1.4-.6-1.4-1.4 0-.4.2-.7.4-1l35.2-35.2c.5-.7 1.3-.8 2-.4s.8 1.3.4 2c-.1.2-.2.3-.4.4l-35.2 35.3c-.3.2-.6.3-1 .3zm-103.3-68.8c-.8 0-1.4-.6-1.5-1.4 0-.2 0-.4.1-.6l18.8-46.4c.3-.7 1.1-1.1 1.9-.8.7.3 1.1 1.1.8 1.9l-18.8 46.5c-.2.6-.7.9-1.3.8zM801.2 280c-.8 0-1.4-.6-1.4-1.4 0-.6.3-1.1.9-1.3l46.3-18.8c.7-.3 1.6 0 1.9.8s0 1.6-.8 1.9L801.8 280c-.2-.1-.4 0-.6 0zm-469.4 968.8c-.8 0-1.4-.6-1.4-1.4v-50c0-.8.6-1.4 1.4-1.4s1.4.6 1.4 1.4v50.1c0 .7-.6 1.3-1.4 1.3zm356 0c-.8 0-1.4-.6-1.4-1.4v-50c0-.8.6-1.4 1.4-1.4s1.4.6 1.4 1.4v50.1c0 .7-.7 1.3-1.4 1.3zm-178 0c-.8 0-1.4-.6-1.4-1.4v-50c0-.8.6-1.4 1.4-1.4s1.4.6 1.4 1.4v50.1c0 .7-.6 1.3-1.4 1.3z"/><path d="M623.3 657.9v-131l-113.4-65.5-113.4 65.5v131l113.4 65.5 113.4-65.5z" style="fill:#5bd0fd"/><path d="M510 724.7c-.2 0-.5-.1-.7-.2L395.9 659c-.4-.2-.7-.7-.7-1.2V526.9c0-.5.2-.9.7-1.2l113.4-65.5c.4-.2.9-.2 1.3 0L624 525.8c.4.2.7.7.7 1.2v131c0 .5-.2.9-.7 1.2l-113.5 65.4c-.1 0-.3.1-.5.1zm-112.2-67.6L510 721.9l112.1-64.7V527.7L510 463l-112.1 64.7v129.4z"/><path class="st8" d="M435.6 653.8h148.7l-74.6-128.9-74.1 128.9z"/><path d="M584.3 655.1H435.6c-.7 0-1.3-.5-1.4-1.3 0-.3.1-.5.2-.7l74.1-128.9c.2-.4.7-.7 1.1-.7s.9.2 1.1.7l74.7 128.9c.4.6.2 1.4-.4 1.8-.2.1-.4.2-.7.2zm-146.4-2.6H582l-72.5-124.9-71.6 124.9z"/><path class="st8" d="m623.6 527.2-39.3 126.6 39.3 3.9V527.2z"/><path d="M623.6 659h-.1l-39.3-3.9c-.7-.1-1.2-.7-1.2-1.4 0-.1 0-.2.1-.3l39.3-126.6c.2-.7.9-1.1 1.6-1 .6.2 1 .7 1 1.3v130.6c-.1.7-.7 1.3-1.4 1.3zm-37.6-6.3 36.2 3.6V535.9L586 652.7z"/><path d="M396.2 528.5c-.7 0-1.3-.6-1.3-1.3s.6-1.3 1.3-1.3l113.4-2.3 114 2.3c.7 0 1.3.6 1.3 1.3s-.6 1.3-1.3 1.3l-114-2.3-113.4 2.3z"/><path class="st8" d="M509.6 524.9v-63.4L623.3 527l-113.7-2.1z"/><path d="m623.3 528.3-113.7-2c-.7 0-1.3-.6-1.3-1.3v-63.4c0-.7.5-1.3 1.3-1.4.3 0 .5.1.7.2L624 525.9c.6.3.9 1.1.5 1.8-.1.4-.6.7-1.2.6zM511 523.6l107.2 1.9L511 463.8v59.8z"/><path class="st9" d="m435.6 653.8 74.4 69.6 74.3-69.6H435.6z"/><path d="M510 724.7c-.3 0-.7-.1-.9-.4l-74.3-69.6c-.5-.5-.5-1.3 0-1.8.2-.3.6-.4 1-.4h148.7c.7 0 1.3.6 1.3 1.3 0 .4-.2.7-.4 1L511 724.4c-.4.2-.7.3-1 .3zm-71-69.6 71 66.5 71-66.5H439z"/><path d="m435.6 653.8 74-128.9 74.6 128.9H435.6z" style="fill:#9efdfd"/><path d="M584.3 655.1H435.6c-.7 0-1.3-.5-1.4-1.3 0-.3.1-.5.2-.7l74.1-128.9c.2-.4.7-.7 1.1-.7s.9.2 1.1.7l74.7 128.9c.4.6.2 1.4-.4 1.8-.2.1-.4.2-.7.2zm-146.4-2.6H582l-72.5-124.9-71.6 124.9z"/><path class="st8" d="m396.2 527.2 39.4 126.6-39.4 3.9V527.2z"/><path d="M396.2 659c-.7 0-1.3-.6-1.3-1.3V527.2c0-.7.5-1.3 1.2-1.4.6 0 1.2.4 1.3 1l39.3 126.6c.2.7-.2 1.4-.9 1.6h-.3l-39.3 3.9v.1zm1.3-123.1v120.4l36.2-3.6-36.2-116.8zm101.9 179.9-98.7-57 34.4-3.6 64.8 60.6h-.5z"/><path d="m434.6 656.6 56.6 53.1-86.5-49.9 29.9-3.2zm1-2.8-39.1 4.1L499 717.1l4.5.2-67.9-63.5z"/><path d="M404.4 1095.5h208.3l-40.8-323.9c0-9.3-3.1-18.3-8.8-25.5H453.9c-5.5 7-6.8 15.8-8.8 25.6l-40.7 323.8z" style="fill:#d62b2b"/><path class="st12" d="M530.6 730.2h-44.1c-12.7 0-24.8 5.8-32.6 15.8h109.3c-7.8-10-19.9-15.8-32.6-15.8"/><path d="M612.7 1096.9H404.5c-.7 0-1.3-.6-1.3-1.3v-.2L444 771.5c2.9-25.5 20.1-42.6 42.7-42.6h44.1c23.5.1 42.5 19.2 42.6 42.7l40.8 323.7c.1.7-.4 1.4-1.1 1.5l-.4.1zm-206.9-2.7h205.4l-40.5-322.4v-.2c0-22.2-18-40.1-40.1-40.1h-44.1c-21.3 0-37.4 16.2-40.1 40.3l-40.6 322.4z"/><path d="m474 1095.5 35.2-346.2 35 346.2H474z"/><path d="M544.2 1096.9H474c-.7 0-1.3-.6-1.3-1.3v-.2l35.2-346.2c.1-.7.7-1.2 1.4-1.2s1.2.5 1.3 1.2l35 346.2c.1.7-.5 1.4-1.2 1.4l-.2.1zm-68.7-2.7h67.3l-33.6-331.8-33.7 331.8z"/><path class="st8" d="M503.6 1007.5c-4.1 0-7.4-4.7-7.4-10.5 0 5.8-3.3 10.5-7.4 10.5 4.1 0 7.4 4.7 7.4 10.5 0-5.8 3.3-10.5 7.4-10.5m18.8-53.5c-4.1 0-7.4-4.7-7.4-10.5 0 5.8-3.3 10.5-7.4 10.5 4.1 0 7.4 4.7 7.4 10.5 0-5.8 3.3-10.5 7.4-10.5m-16.6-59.2c1.1-1.1 1.1-2.8 0-3.9s-2.8-1.1-3.9 0-1.1 2.8 0 3.9 2.8 1.1 3.9 0c0 .1 0 .1 0 0 0 .1 0 0 0 0m27.2 167.4c1.1-1.1 1.1-2.8 0-3.9s-2.8-1.1-3.9 0-1.1 2.8 0 3.9c1 1 2.8 1.1 3.9 0m-21.3-261.8c1.1-1.1 1.1-2.8 0-3.9s-2.8-1.1-3.9 0-1.1 2.8 0 3.9c1 1.1 2.8 1.1 3.9 0m4.6 45.2c-2.9 0-5.2-3.3-5.2-7.5 0 4.1-2.3 7.5-5.2 7.5 2.9 0 5.2 3.3 5.2 7.5 0-4.2 2.2-7.5 5.2-7.5"/><path class="st4" d="M463.6 1095.5 500 757.6"/><path d="M463.6 1096.9h-.1c-.7-.1-1.2-.7-1.2-1.4l36.3-337.9c.1-.7.7-1.2 1.5-1.2s1.2.7 1.2 1.5l-36.3 338c-.2.5-.7 1-1.4 1z"/><path class="st4" d="m554.6 1095.5-36.3-337.9"/><path d="M554.6 1096.9c-.7 0-1.2-.5-1.3-1.2L517 757.8c-.1-.7.5-1.4 1.2-1.5s1.4.5 1.5 1.2l36.3 337.9c.1.7-.4 1.4-1.2 1.4l-.2.1z"/><path class="st13" d="M524.3 745.5c0 8.4-6.8 15.3-15.3 15.3s-15.3-6.8-15.3-15.3 6.8-15.3 15.3-15.3 15.3 6.8 15.3 15.3"/><path d="M509 762.1c-9.2 0-16.6-7.4-16.6-16.6s7.4-16.6 16.6-16.6 16.6 7.4 16.6 16.6c0 9.2-7.4 16.6-16.6 16.6zm0-30.6c-7.7 0-14 6.3-14 14s6.3 14 14 14 14-6.3 14-14-6.2-14-14-14z"/><path class="st14" d="m509.6 524.9-74 128.9-39.4-126.6 113.4-2.3z"/><path d="M435.6 655.1h-.1c-.5-.1-1-.4-1.1-.9L395 527.5c-.2-.7.1-1.4.8-1.7.1 0 .3-.1.4-.1l113.4-2.3c.7 0 1.3.5 1.4 1.2 0 .3 0 .5-.2.8l-74.1 128.9c-.2.5-.7.8-1.1.8zM398 528.3l37.9 122.1 71.4-124.3-109.3 2.2z"/><path d="M396.2 527.2c.2-.2 39.3 126.6 39.3 126.6l-39.3 3.9V527.2z" style="fill:#89cffc"/><path d="M396.2 659c-.7 0-1.3-.6-1.3-1.3V527.2c0-.7.6-1.3 1.3-1.3.1 0 .3 0 .4.1.8.2.8.2 2.7 6.3 1.1 3.5 2.6 8.4 4.5 14.4 3.3 10.5 7.8 25.2 13.6 43.5 9.8 31.7 19.5 63.4 19.5 63.4.2.7-.2 1.4-.9 1.6h-.3l-39.3 3.9-.2-.1zm1.3-123.5v120.7l36.2-3.6c-10.8-35.5-29.4-95.6-36.2-117.1zm101.9 180.3-9.1-5.3h39.4L520 716l-20.6-.2z"/><path d="m524.7 711.8-5 2.9-20-.2-4.5-2.7h29.5zm9.8-2.6h-49.3l13.7 8 21.4.2 14.2-8.2zm-29.3-99.6h9.5v5.6h-9.5v-5.6z"/><path d="M514.7 616.6h-9.5c-.7 0-1.3-.6-1.3-1.3v-5.6c0-.7.6-1.3 1.3-1.3h9.5c.7 0 1.3.6 1.3 1.3v5.6c0 .7-.6 1.3-1.3 1.3zm-8.2-2.7h6.8v-3h-6.8v3zm25.2 24.4h-43.6c-3.5 0-6.3-2.8-6.3-6.3v-3.2c0-3.5 2.8-6.3 6.3-6.3h43.6c3.5 0 6.3 2.8 6.3 6.3v3.2c0 3.5-2.8 6.3-6.3 6.3"/><path d="M531.7 639.6h-43.6c-4.2 0-7.6-3.4-7.6-7.6v-3.2c0-4.2 3.4-7.6 7.6-7.6h43.6c4.2 0 7.6 3.4 7.6 7.6v3.2c0 4.2-3.4 7.6-7.6 7.6zm-43.6-15.8c-2.8 0-5 2.2-5 5v3.2c0 2.8 2.2 5 5 5h43.6c2.8 0 5-2.2 5-5v-3.2c0-2.8-2.2-5-5-5h-43.6z"/><path class="st16" d="M531.7 635.5h-43.6c-3.5 0-6.3-2.8-6.3-6.3v-3.1c0-3.5 2.8-6.3 6.3-6.3h43.6c3.5 0 6.3 2.8 6.3 6.3v3.2c0 3.4-2.8 6.2-6.3 6.2"/><path d="M531.7 636.8h-43.6c-4.2 0-7.6-3.4-7.6-7.6V626c0-4.2 3.4-7.6 7.6-7.6h43.6c4.2 0 7.6 3.4 7.6 7.6v3.2c0 4.2-3.4 7.6-7.6 7.6zM488.1 621c-2.8 0-5 2.2-5 5v3.1c0 2.8 2.2 5 5 5h43.6c2.8 0 5-2.2 5-5V626c0-2.8-2.2-5-5-5h-43.6z"/><path class="st4" d="M490.2 627.6H529"/><path d="M528.9 629h-38.7c-.7 0-1.3-.6-1.3-1.3s.6-1.3 1.3-1.3H529c.7 0 1.3.6 1.3 1.3s-.6 1.3-1.4 1.3z"/><path class="st17" d="M505.2 584.5h9.5v35.2h-9.5v-35.2z"/><path d="M514.7 616.6h-9.5c-.7 0-1.3-.6-1.3-1.3v-30.8c0-.7.6-1.3 1.3-1.3h9.5c.7 0 1.3.6 1.3 1.3v30.7c0 .7-.5 1.3-1.3 1.4zm-8.2-2.7h6.8v-28.1h-6.8v28.1z"/><path d="M505.2 612.8h9.5v7h-9.5v-7z"/><path d="M514.7 621.1h-9.5c-.7 0-1.3-.6-1.3-1.3v-7c0-.7.6-1.3 1.3-1.3h9.5c.7 0 1.3.6 1.3 1.3v7c0 .7-.6 1.3-1.3 1.3zm-8.2-2.6h6.8v-4.3h-6.8v4.3zm24.2-20.2c-4.2 0-7.5-3.4-7.5-7.5 0-.7.6-1.3 1.3-1.3s1.3.6 1.3 1.3c0 2.7 2.2 4.9 4.9 4.9s4.9-2.2 4.9-4.9c0-.7.6-1.3 1.3-1.3s1.3.6 1.3 1.3c0 4.1-3.4 7.5-7.5 7.5zm-42.7 0c-4.2 0-7.5-3.4-7.5-7.5 0-.7.6-1.3 1.3-1.3.7 0 1.3.6 1.3 1.3 0 2.7 2.2 4.9 4.9 4.9s4.9-2.2 4.9-4.9c0-.7.6-1.3 1.3-1.3s1.3.6 1.3 1.3c.1 4.1-3.3 7.5-7.5 7.5zm21.6-25.5c-4.2 0-7.5-3.4-7.5-7.5 0-.7.6-1.3 1.3-1.3s1.3.6 1.3 1.3c0 2.7 2.2 4.9 4.9 4.9s4.9-2.2 4.9-4.9c0-.7.6-1.3 1.3-1.3s1.3.6 1.3 1.3c0 4.1-3.4 7.5-7.5 7.5z"/><path class="st4" d="M505.5 644.5h8.1"/><path d="M513.6 645.8h-8.1c-.7 0-1.3-.6-1.3-1.3s.6-1.3 1.3-1.3h8.1c.7 0 1.3.6 1.3 1.3s-.6 1.3-1.3 1.3z"/><path d="M396.2 589.4 384.3 619l11.9 6v-35.6z" style="fill:#88365f"/><path d="M396.2 626.3c-.2 0-.4 0-.6-.1l-11.9-6c-.6-.3-.9-1-.6-1.7l11.9-29.6c.2-.7 1-1 1.7-.8.5.2.9.7.9 1.3v35.5c0 .7-.6 1.3-1.3 1.3l-.1.1zm-10.2-8 8.9 4.5v-26.6l-8.9 22.1z"/><path d="M401 601.6c-2.5 0-3.7-4-3.7-8.1 0-.7.6-1.3 1.3-1.3s1.3.6 1.3 1.3c-.1 1.8.2 3.6 1 5.2.8-1.6 1.1-3.4 1-5.2 0-.7.6-1.3 1.3-1.3.7 0 1.3.6 1.3 1.3.2 4.1-.9 8.1-3.5 8.1zm-4.8-24.9c-.7.1-1.4-.4-1.5-1.2s.4-1.4 1.1-1.5h.2c.9-1.6 1.4-3.5 1.2-5.4 0-.7.6-1.3 1.3-1.3s1.3.6 1.3 1.3c.1 4.1-1 8.1-3.6 8.1z"/><path class="st16" d="M397.2 624.9h-1.7c-2.2 0-3.9 1.8-3.9 3.9s1.8 3.9 3.9 3.9c-2.2 0-3.9 1.8-3.9 3.9s1.8 3.9 3.9 3.9h1.7c3.4 0 6.1-2.8 6.1-6.1V631c0-3.4-2.7-6.1-6.1-6.1"/><path d="M397.2 642h-1.7c-2.9 0-5.3-2.3-5.3-5.2 0-1.5.6-3 1.8-4-2.2-1.9-2.4-5.2-.5-7.4 1-1.1 2.4-1.8 4-1.8h1.7c4.1 0 7.4 3.3 7.5 7.5v3.5c-.1 4.1-3.4 7.4-7.5 7.4zm-1.7-7.8c-1.4-.2-2.7.9-2.9 2.3-.2 1.4.9 2.7 2.3 2.9h2.2c2.7 0 4.8-2.2 4.8-4.8v-3.5c0-2.7-2.2-4.8-4.8-4.8h-1.7c-1.4.2-2.5 1.4-2.3 2.9.1 1.2 1.1 2.2 2.3 2.3.7 0 1.3.6 1.3 1.3s-.5 1.4-1.2 1.4z"/><path class="st17" d="M395.8 624.9h-1.2c-1.6 0-2.9 1.8-2.9 3.9s1.3 3.9 2.9 3.9c-1.6 0-2.9 1.8-2.9 3.9s1.3 4 2.9 4h1.3c2.5 0 4.5-2.8 4.5-6.1V631c-.1-3.3-2.1-6-4.6-6.1"/><path d="M395.8 642h-1.2c-2.6-.3-4.5-2.6-4.2-5.2 0-1.4.5-2.8 1.4-3.9-.9-1.1-1.4-2.5-1.4-3.9-.3-2.6 1.6-5 4.2-5.2h1.3c3.2 0 5.8 3.3 5.8 7.5v3.5c-.1 3.9-2.7 7.2-5.9 7.2zm-1.3-7.8c-.8 0-1.6 1.1-1.6 2.6s.8 2.6 1.6 2.6h1.3c1.7 0 3.2-2.3 3.2-4.8v-3.5c0-2.6-1.5-4.8-3.2-4.8h-1.3c-.8 0-1.6 1.1-1.6 2.6s.8 2.6 1.6 2.6c.7 0 1.3.6 1.3 1.3s-.6 1.4-1.3 1.4z"/><path class="st17" d="m623.4 589.4 11.9 29.6-11.9 6v-35.6z"/><path d="M623.4 626.3c-.7 0-1.3-.6-1.3-1.3v-35.6c0-.7.5-1.3 1.3-1.4.6 0 1.1.3 1.3.9l11.9 29.6c.3.6 0 1.4-.6 1.7l-11.9 6c-.3 0-.5.1-.7.1zm1.3-30.1v26.6l8.9-4.5-8.9-22.1z"/><path d="M618.6 601.6c-2.5 0-3.7-4-3.7-8.1 0-.7.6-1.3 1.3-1.3s1.3.6 1.3 1.3c-.1 1.8.2 3.6 1 5.2.8-1.6 1.1-3.4 1-5.2 0-.7.6-1.3 1.3-1.3s1.3.6 1.3 1.3c.1 4.1-1 8.1-3.5 8.1zm4.8-24.9c-2.5 0-3.7-4-3.7-8.1 0-.7.6-1.3 1.3-1.3s1.3.6 1.3 1.3c-.2 1.9.2 3.8 1.2 5.4.7 0 1.3.6 1.3 1.3s-.6 1.3-1.3 1.3c0 .1-.1.1-.1.1z"/><path class="st17" d="M622.4 624.9h1.7c2.2 0 3.9 1.8 3.9 3.9s-1.8 3.9-3.9 3.9c2.2 0 3.9 1.8 3.9 3.9s-1.8 3.9-3.9 3.9h-1.7c-3.4 0-6.1-2.8-6.1-6.1V631c-.1-3.4 2.7-6.1 6.1-6.1"/><path d="M624.1 642h-1.7c-4.1 0-7.4-3.3-7.5-7.5V631c0-4.1 3.3-7.4 7.5-7.5h1.7c2.9 0 5.3 2.3 5.3 5.2 0 1.5-.6 3-1.8 4 2.2 1.9 2.4 5.2.5 7.4-1.1 1.3-2.5 1.9-4 1.9zm-1.7-15.8c-2.7 0-4.8 2.2-4.8 4.8v3.5c0 2.7 2.2 4.8 4.8 4.8h1.7c1.4.2 2.7-.9 2.9-2.3.2-1.4-.9-2.7-2.3-2.9h-.5c-.7 0-1.3-.6-1.3-1.3s.6-1.3 1.3-1.3c1.4-.2 2.5-1.4 2.3-2.9-.1-1.2-1.1-2.2-2.3-2.3l-1.8-.1z"/><path class="st16" d="M623.9 624.9h1.3c1.6 0 2.9 1.8 2.9 3.9s-1.3 3.9-2.9 3.9c1.6 0 2.9 1.8 2.9 3.9s-1.3 3.9-2.9 3.9h-1.3c-2.5 0-4.5-2.8-4.5-6.1V631c-.1-3.4 1.9-6.1 4.5-6.1"/><path d="M625.1 642h-1.3c-3.2 0-5.8-3.3-5.8-7.5V631c0-4.1 2.6-7.5 5.8-7.5h1.3c2.6.3 4.5 2.6 4.2 5.2 0 1.4-.5 2.8-1.4 3.9.9 1.1 1.4 2.5 1.4 3.9.3 2.9-1.6 5.3-4.2 5.5zm-1.2-15.8c-1.7 0-3.2 2.3-3.2 4.8v3.5c0 2.6 1.5 4.8 3.2 4.8h1.3c.8 0 1.6-1.1 1.6-2.6s-.8-2.6-1.6-2.6c-.7 0-1.3-.6-1.3-1.3s.6-1.3 1.3-1.3c.8 0 1.6-1.1 1.6-2.6s-.8-2.6-1.6-2.6l-1.3-.1z"/><path d="M625.1 642h-1.3c-3.2 0-5.8-3.3-5.8-7.5V631c0-4.1 2.6-7.5 5.8-7.5h1.3c2.6.3 4.5 2.6 4.2 5.2 0 1.4-.5 2.8-1.4 3.9.9 1.1 1.4 2.5 1.4 3.9.3 2.9-1.6 5.3-4.2 5.5zm-1.2-15.8c-1.7 0-3.2 2.3-3.2 4.8v3.5c0 2.6 1.5 4.8 3.2 4.8h1.3c.8 0 1.6-1.1 1.6-2.6s-.8-2.6-1.6-2.6c-.7 0-1.3-.6-1.3-1.3s.6-1.3 1.3-1.3c.8 0 1.6-1.1 1.6-2.6s-.8-2.6-1.6-2.6l-1.3-.1z"/><path class="st12" d="M485.3 715.8h48.4v14.5h-48.4v-14.5z"/><path d="M533.7 731.6h-48.4c-.7 0-1.3-.6-1.3-1.3v-14.5c0-.7.6-1.3 1.3-1.3h48.4c.7 0 1.3.6 1.3 1.3v14.5c0 .7-.6 1.3-1.3 1.3zm-47.1-2.6h45.8v-11.9h-45.8V729z"/><path class="st9" d="M591.7 778.6c0 17.3 14 31.3 31.3 31.3s31.3-14 31.3-31.3-14-31.3-31.3-31.3-31.3 14-31.3 31.3"/><path d="M623 811.2c-18 0-32.6-14.6-32.6-32.6S605 746 623 746s32.6 14.6 32.6 32.6-14.6 32.6-32.6 32.6zm0-62.6c-16.6 0-30 13.4-30 30s13.4 30 30 30 30-13.4 30-30-13.5-30-30-30z"/><path d="M623 811.2c-18 0-32.6-14.6-32.6-32.6S605 746 623 746s32.6 14.6 32.6 32.6-14.6 32.6-32.6 32.6zm0-62.6c-16.6 0-30 13.4-30 30s13.4 30 30 30 30-13.4 30-30-13.5-30-30-30z"/><path class="st14" d="M598 724.9c3.9 0 7.1 3.2 7.1 7.1v-40c-.2-3.9 2.7-7.3 6.6-7.6s7.3 2.7 7.6 6.6v.9-4.5c.2-3.9 3.4-7 7.4-6.8 3.7.1 6.7 3.1 6.8 6.8v7.6c.2-3.9 3.4-7 7.4-6.8 3.7.1 6.7 3.1 6.8 6.8v14.6c.2-3.9 3.4-7 7.4-6.8 3.7.1 6.7 3.1 6.8 6.8v69.2c0 10.8-8.8 19.6-19.6 19.6h-31.8c-10.8 0-19.6-8.8-19.6-19.6V732c.1-3.9 3.2-7 7.1-7.1"/><path d="M642.3 799.8h-31.8c-11.5 0-20.9-9.4-20.9-21V732c0-4.6 3.8-8.4 8.4-8.4 2.2 0 4.2.8 5.8 2.3v-34c0-4.6 3.7-8.4 8.3-8.5 2.2 0 4.4.9 6 2.5.8-4.6 5.2-7.6 9.8-6.7 4 .7 6.9 4.2 6.9 8.2v1.4c3.4-3.2 8.7-3.1 11.9.3 1.5 1.6 2.3 3.6 2.3 5.8v8.5c3.4-3.2 8.7-3.1 11.9.3 1.5 1.6 2.3 3.7 2.3 5.9v69.3c0 11.5-9.3 20.9-20.9 20.9zm-44.2-73.5c-3.2 0-5.8 2.6-5.8 5.8v46.8c0 10.1 8.2 18.3 18.3 18.3h31.8c10.1 0 18.3-8.2 18.3-18.3v-69.3c.1-3.2-2.3-5.9-5.5-6s-5.9 2.3-6 5.5v.5c-.1.7-.7 1.2-1.5 1.1-.6-.1-1.1-.5-1.1-1.1v-14.5c.1-3.2-2.3-5.9-5.5-6s-5.9 2.3-6 5.5v.5c-.1.7-.7 1.2-1.5 1.1-.6-.1-1.1-.5-1.1-1.1v-7.5c-.1-3.2-2.8-5.7-6-5.6-3 .1-5.4 2.5-5.5 5.5v4.5c-.1.7-.7 1.2-1.5 1.1-.6-.1-1.1-.5-1.1-1.1.1-3.2-2.3-5.9-5.5-6s-5.9 2.3-6 5.5V732c-.1.7-.7 1.2-1.5 1.1-.6-.1-1.1-.5-1.1-1.1.1-3.2-2.5-5.8-5.7-5.9l-.5.2z"/><path class="st4" d="M647.7 709.5v27.1"/><path d="M647.7 737.9c-.7 0-1.3-.6-1.3-1.3v-27.2c.1-.7.7-1.2 1.5-1.1.6.1 1.1.5 1.1 1.1v27.2c0 .7-.6 1.3-1.3 1.3z"/><path class="st4" d="M633.5 695v41.4"/><path d="M633.5 737.7c-.7 0-1.3-.6-1.3-1.3v-41.3c.1-.7.7-1.2 1.5-1.1.6.1 1.1.5 1.1 1.1v41.4c0 .7-.6 1.2-1.3 1.2z"/><path class="st4" d="M619.3 692v44.4"/><path d="M619.3 737.7c-.7 0-1.3-.6-1.3-1.3V692c.1-.7.7-1.2 1.5-1.1.6.1 1.1.5 1.1 1.1v44.4c0 .7-.6 1.3-1.3 1.3z"/><path class="st4" d="M605.1 732v33.1"/><path d="M605 766.4c-.7 0-1.3-.6-1.3-1.3V732c.1-.7.7-1.2 1.5-1.1.6.1 1.1.5 1.1 1.1v33.2c0 .7-.6 1.2-1.3 1.2zm46.5-28.5h-40.1c-.7.1-1.4-.4-1.5-1.1-.1-.7.4-1.4 1.1-1.5h40.4c.7-.1 1.4.4 1.5 1.1.1.7-.4 1.4-1.1 1.5-.1.1-.2.1-.3 0z"/><path d="M642.3 799.8h-31.8c-11.5 0-20.9-9.4-20.9-21V732c0-4.6 3.8-8.4 8.4-8.4 2.2 0 4.2.8 5.8 2.3v-34c0-4.6 3.7-8.4 8.3-8.5 2.2 0 4.4.9 6 2.5.8-4.6 5.2-7.6 9.8-6.7 4 .7 6.9 4.2 6.9 8.2v1.4c3.4-3.2 8.7-3.1 11.9.3 1.5 1.6 2.3 3.6 2.3 5.8v8.5c3.4-3.2 8.7-3.1 11.9.3 1.5 1.6 2.3 3.7 2.3 5.9v69.3c0 11.5-9.3 20.9-20.9 20.9zm-44.2-73.5c-3.2 0-5.8 2.6-5.8 5.8v46.8c0 10.1 8.2 18.3 18.3 18.3h31.8c10.1 0 18.3-8.2 18.3-18.3v-69.3c.1-3.2-2.3-5.9-5.5-6s-5.9 2.3-6 5.5v.5c-.1.7-.7 1.2-1.5 1.1-.6-.1-1.1-.5-1.1-1.1v-14.5c.1-3.2-2.3-5.9-5.5-6s-5.9 2.3-6 5.5v.5c-.1.7-.7 1.2-1.5 1.1-.6-.1-1.1-.5-1.1-1.1v-7.5c-.1-3.2-2.8-5.7-6-5.6-3 .1-5.4 2.5-5.5 5.5v4.5c-.1.7-.7 1.2-1.5 1.1-.6-.1-1.1-.5-1.1-1.1.1-3.2-2.3-5.9-5.5-6s-5.9 2.3-6 5.5V732c-.1.7-.7 1.2-1.5 1.1-.6-.1-1.1-.5-1.1-1.1.1-3.2-2.5-5.8-5.7-5.9l-.5.2z"/><path class="st9" d="M605 765.2c11.8 0 21.4 9.5 21.4 21.3v7.1H605v-28.4z"/><path d="M626.5 787.9c-.7 0-1.3-.6-1.3-1.3 0-11.1-9-20-20.1-20.1-.7.1-1.4-.4-1.5-1.1-.1-.7.4-1.4 1.1-1.5h.3c12.5 0 22.6 10.1 22.6 22.6.2.8-.4 1.4-1.1 1.4z"/><path class="st9" d="M427.9 778.6c0 17.3-14 31.3-31.3 31.3s-31.3-14-31.3-31.3 14-31.3 31.3-31.3 31.3 14 31.3 31.3"/><path d="M396.6 811.2c-18 0-32.6-14.6-32.7-32.6s14.6-32.6 32.6-32.7c18 0 32.6 14.6 32.7 32.6 0 18.1-14.6 32.7-32.6 32.7zm0-62.6c-16.6 0-30 13.4-30 30s13.4 30 30 30 30-13.4 30-30-13.4-30-30-30z"/><path d="M396.6 811.2c-18 0-32.6-14.6-32.7-32.6s14.6-32.6 32.6-32.7c18 0 32.6 14.6 32.7 32.6 0 18.1-14.6 32.7-32.6 32.7zm0-62.6c-16.6 0-30 13.4-30 30s13.4 30 30 30 30-13.4 30-30-13.4-30-30-30z"/><path class="st14" d="M421.7 724.9c-3.9 0-7.1 3.2-7.1 7.1v-40c.2-3.9-2.7-7.3-6.6-7.6s-7.3 2.7-7.6 6.6v.9-4.5c.1-3.9-2.9-7.2-6.8-7.4-3.9-.2-7.2 2.9-7.4 6.8v8.1c.1-3.9-2.9-7.2-6.8-7.4-3.9-.2-7.2 2.9-7.4 6.8v15.1c.1-3.9-2.9-7.2-6.8-7.4-3.9-.2-7.2 2.9-7.4 6.8v69.7c0 10.8 8.8 19.6 19.6 19.6h31.8c10.8 0 19.6-8.8 19.6-19.6V732c0-3.9-3.2-7.1-7.1-7.1"/><path d="M409.1 799.8h-31.8c-11.5 0-20.9-9.3-20.9-20.9v-69.4c0-4.6 3.8-8.4 8.4-8.4 2.2 0 4.2.8 5.8 2.3V695c0-4.6 3.8-8.4 8.4-8.4 2.2 0 4.2.8 5.8 2.3v-1.4c0-4.6 3.7-8.4 8.4-8.4 4.1 0 7.6 2.9 8.3 6.9 3.3-3.3 8.6-3.3 11.9 0 1.6 1.6 2.5 3.7 2.5 6v34c3.4-3.2 8.7-3.1 11.9.3 1.5 1.5 2.3 3.6 2.3 5.7v46.7c-.1 11.7-9.4 21.1-21 21.1zm-44.3-96c-3.2 0-5.8 2.6-5.8 5.8v69.3c0 10.1 8.2 18.3 18.3 18.3h31.8c10.1 0 18.3-8.2 18.3-18.3V732c-.1-3.2-2.8-5.7-6-5.6-3 .1-5.4 2.5-5.5 5.5-.1.7-.7 1.2-1.5 1.1-.6-.1-1.1-.5-1.1-1.1v-40c-.1-3.2-2.8-5.7-6-5.6-3 .1-5.4 2.5-5.5 5.5-.1.7-.7 1.2-1.5 1.1-.6-.1-1.1-.5-1.1-1.1v-4.5c.1-3.2-2.4-5.9-5.5-6s-5.9 2.3-6 5.5v8.1c-.1.7-.7 1.2-1.5 1.1-.6-.1-1.1-.5-1.1-1.1.1-3.2-2.4-5.9-5.5-6s-5.9 2.3-6 5.5v15.1c-.1.7-.7 1.2-1.5 1.1-.6-.1-1.1-.5-1.1-1.1-.4-3.1-2.9-5.7-6.2-5.7z"/><path class="st4" d="M371.9 709.5v27.1"/><path d="M371.9 737.9c-.7 0-1.3-.6-1.3-1.3v-27.2c.1-.7.7-1.2 1.5-1.1.6.1 1.1.5 1.1 1.1v27.2c0 .7-.6 1.3-1.3 1.3z"/><path class="st4" d="M386.1 695v41.4"/><path d="M386.1 737.7c-.7 0-1.3-.6-1.3-1.3v-41.3c.1-.7.7-1.2 1.5-1.1.6.1 1.1.5 1.1 1.1v41.4c-.1.7-.6 1.2-1.3 1.2z"/><path class="st4" d="M400.3 692v44.4"/><path d="M400.3 737.7c-.7 0-1.3-.6-1.3-1.3V692c.1-.7.7-1.2 1.5-1.1.6.1 1.1.5 1.1 1.1v44.4c0 .7-.6 1.3-1.3 1.3z"/><path class="st4" d="M414.5 732v33.1"/><path d="M414.5 766.4c-.7 0-1.3-.6-1.3-1.3V732c.1-.7.7-1.2 1.5-1.1.6.1 1.1.5 1.1 1.1v33.2c-.1.7-.7 1.2-1.3 1.2zm-6.4-28.5h-40c-.7.1-1.4-.4-1.5-1.1-.1-.7.4-1.4 1.1-1.5H408c.7-.1 1.4.4 1.5 1.1.1.7-.4 1.4-1.1 1.5-.1.1-.2.1-.3 0z"/><path d="M409.1 799.8h-31.8c-11.5 0-20.9-9.3-20.9-20.9v-69.4c0-4.6 3.8-8.4 8.4-8.4 2.2 0 4.2.8 5.8 2.3V695c0-4.6 3.8-8.4 8.4-8.4 2.2 0 4.2.8 5.8 2.3v-1.4c0-4.6 3.7-8.4 8.4-8.4 4.1 0 7.6 2.9 8.3 6.9 3.3-3.3 8.6-3.3 11.9 0 1.6 1.6 2.5 3.7 2.5 6v34c3.4-3.2 8.7-3.1 11.9.3 1.5 1.5 2.3 3.6 2.3 5.7v46.7c-.1 11.7-9.4 21.1-21 21.1zm-44.3-96c-3.2 0-5.8 2.6-5.8 5.8v69.3c0 10.1 8.2 18.3 18.3 18.3h31.8c10.1 0 18.3-8.2 18.3-18.3V732c-.1-3.2-2.8-5.7-6-5.6-3 .1-5.4 2.5-5.5 5.5-.1.7-.7 1.2-1.5 1.1-.6-.1-1.1-.5-1.1-1.1v-40c-.1-3.2-2.8-5.7-6-5.6-3 .1-5.4 2.5-5.5 5.5-.1.7-.7 1.2-1.5 1.1-.6-.1-1.1-.5-1.1-1.1v-4.5c.1-3.2-2.4-5.9-5.5-6s-5.9 2.3-6 5.5v8.1c-.1.7-.7 1.2-1.5 1.1-.6-.1-1.1-.5-1.1-1.1.1-3.2-2.4-5.9-5.5-6s-5.9 2.3-6 5.5v15.1c-.1.7-.7 1.2-1.5 1.1-.6-.1-1.1-.5-1.1-1.1-.4-3.1-2.9-5.7-6.2-5.7z"/><path class="st9" d="M414.5 765.2c-11.8 0-21.4 9.5-21.4 21.3v7.1h21.4v-28.4z"/><path d="M393.1 787.9c-.7 0-1.3-.6-1.3-1.3 0-12.5 10.1-22.6 22.6-22.6.7-.1 1.4.4 1.5 1.1.1.7-.4 1.4-1.1 1.5h-.3c-11.1 0-20 9-20.1 20.1 0 .6-.6 1.2-1.3 1.2z"/><path class="st2" d="M237.2 1195.8h531l145.5 135.9H97.1l140.1-135.9z"/><path d="M890.9 1323.3h-771c-.8 0-1.5-.7-1.5-1.5 0-.4.2-.8.5-1.1l119.6-118.9c.3-.2.6-.4 1-.4H766c.4 0 .7.1 1 .4l124.9 118.9c.6.5.7 1.5.2 2.1-.3.3-.7.5-1.2.5zm-767.1-3h763.1l-121.4-115.9H240.1l-116.3 115.9z"/><path d="M913.7 1333.2H97.1c-.8 0-1.5-.7-1.5-1.5 0-.4.2-.8.5-1.1l140.1-135.8c.3-.2.6-.4 1-.4h531c.4 0 .7.1 1 .4l145.5 135.8c.6.5.7 1.5.2 2.1-.3.3-.7.5-1.2.5zm-812.7-3h808.7l-142-132.9H237.8L101 1330.2z"/><ellipse cx="509.6" cy="1252.8" rx="174.1" ry="30.6"/><path d="m177.7 1252-35.1 29.4H0l36.2-29.4h141.5z"/><path class="st19" d="M145 889.8c-1.7 4.3-4.6 8.1-8.4 10.9-2.8-9.2.8-19.2 8.7-24.6 1.2 4.4 1.1 9.2-.3 13.7zm-73.8 62.4c1.3-8.2.9-17.5-5.1-23.2 7.3-.3 13.6 5.1 14.2 12.4-.1 1.1.1 2.2.3 3.2 1.3 4.1 8.2 2.9 9.9-1.1s.1-8.5-1.3-12.5c-3.3-9.4-5.7-19.3-4.7-29.2s5.7-19.8 14.2-24.9c-2.3 4.7-3.7 9.9-4.2 15.1-.5 2.5 0 5 1.4 7.1 2.2 2.4 5.8 2.9 8.6 1.4 2.7-1.6 4.9-4.1 6.1-7 4.4-9.6 3.6-20.8-2.1-29.8 17.8 9.6 25.8 34.2 16.9 52.4-2.4 5-5.9 9.5-8.3 14.6-2 4.3-3.2 8.9-3.6 13.6-.5 2.6.3 5.3 2.1 7.3 3.3 2.7 8.5-.6 9.8-4.7s.5-8.5 1.2-12.8c1.1-6.3 5.5-11.5 11.5-13.8-5.3 7-4.2 16.9-1.4 25.2 2.7 8.3 6.8 16.5 6.7 25.3-.4 9-4.8 17.4-12 22.8-12.2 9.5-33.4 12-47 3.8-18-10.6-16.1-27.4-13.2-45.2z"/><path class="st8" d="M85 983.2c-1.8-6.1-2.4-12.5-1.9-18.9.3 1.9 1 3.8 2.3 5.3 1.2 1.6 3.2 2.3 5.2 1.8 1.5-.6 2.7-1.6 3.5-3 6.2-8.9 8-20.1 4.7-30.5 10.4 7.9 13.7 22.1 7.8 33.8-.9 1.3-1.5 2.8-2 4.3-.5 1.6 0 3.2 1.3 4.3 2 1.4 5-.3 6-2.5s1.2-4.9 2.3-7.1c1.3-2.8 3.8-4.8 6.8-5.4-1.4 2-1.6 4.5-.7 6.8.8 2.3 2.3 4.3 2.9 6.7 1.2 4.4.2 9-2.7 12.5-2.9 3.5-6.9 5.8-11.3 6.7-10.2 2.3-21-5.7-24.2-14.8z"/><path class="st13" d="M100.2 1027.7c1.5.1 3 .2 4.5.2 1.4 0 2.7 0 4.1-.2v37.4h10.4v-39.4c17.2-5.3 29.6-19.8 29.6-36.8H60.5c0 16.9 12.1 31.2 29 36.7v39.6h10.7v-37.5z"/><path d="m89.8 1026.5 10.3 1.4H89.8v-1.4zm29.4 1.4v-2.7l-10.3 2.7"/><path class="st13" d="M108.9 1091.6h24.2c.6 0 1-.5.9-1.1 0-.3-.2-.6-.5-.8l-14.2-4.5v-20h-10.4v26.4zm-32.9 0h24.2v-26.4H89.8v20l-14.2 4.5c-.5.2-.7.8-.5 1.3.2.4.5.6.9.6z"/><path d="M119.4 1066.7H109c-.8 0-1.5-.7-1.5-1.5v-35.9c-1.9.1-3.8.1-5.8 0v35.9c0 .8-.7 1.5-1.5 1.5H89.8c-.8 0-1.5-.7-1.5-1.5v-38.5c-17.5-6.1-29-21.1-29-37.8 0-.8.7-1.5 1.5-1.5H149c.8 0 1.5.7 1.5 1.5 0 16.9-11.8 32-29.6 37.9v38.4c0 .8-.6 1.5-1.5 1.5.1 0 0 0 0 0zm-9.1-3h7.4v-38c0-.6.4-1.2 1-1.4 16.5-5.1 27.8-18.6 28.5-34h-85c.7 15.1 11.8 28.5 28 33.8.6.2 1 .8.9 1.5v38.1h7.4v-36c0-.8.7-1.5 1.5-1.5h.1c1.5.1 3 .2 4.5.2 1.3 0 2.7 0 4-.2.4 0 .8.1 1.1.4.3.3.5.7.5 1.1l.1 36z"/><path d="M100 1029.4H89.8c-.8 0-1.5-.7-1.5-1.5v-2.3c0-.8.7-1.5 1.5-1.5h.3l10.3 2.3c.8.2 1.3 1 1.1 1.8-.2.7-.8 1.2-1.5 1.2zm19.2 0h-10.3c-.8 0-1.5-.7-1.4-1.5 0-.7.5-1.2 1.2-1.4l10.4-2.3c.8-.2 1.6.3 1.8 1.2v.4l-.2 2.3c-.1.7-.7 1.3-1.5 1.3zm13.9 63.7h-24.2c-.8 0-1.5-.7-1.5-1.5v-26.4c0-.8.7-1.5 1.5-1.5h10.4c.8 0 1.5.7 1.5 1.5v18.9l13.1 4.2h.2c1.2.6 1.7 2.1 1.1 3.3-.3.9-1.2 1.5-2.1 1.5zm-22.7-3h19.4l-10.9-3.4c-.6-.2-1-.8-1-1.4v-18.5h-7.5v23.3zm-10.2 3H76c-1.4 0-2.5-1.1-2.5-2.4 0-1 .5-1.8 1.4-2.3h.2l13.2-4.2v-18.9c0-.8.7-1.5 1.5-1.5h10.4c.8 0 1.5.7 1.5 1.5v26.4c0 .8-.7 1.4-1.5 1.4zm-20.9-3h19.4v-23.4h-7.6v18.5c0 .6-.4 1.2-1 1.4l-10.8 3.5z"/><path class="st3" d="M46.2 1091.4h98.7v144.8H46.2v-144.8z"/><path d="M144.8 1237.7H46.2c-.8 0-1.5-.7-1.5-1.5v-144.9c0-.8.7-1.5 1.5-1.5h98.7c.8 0 1.5.7 1.5 1.5v144.9c-.1.8-.8 1.5-1.6 1.5zm-97.1-3h95.6v-141.8H47.7v141.8z"/><path class="st5" d="M144.8 1091.4h22.9v144.8h-22.9v-144.8z"/><path d="M167.8 1237.7h-22.9c-.8.1-1.5-.5-1.6-1.4v-145.1c0-.8.7-1.5 1.5-1.5h23c.8 0 1.5.7 1.5 1.5v144.9c-.1.8-.7 1.5-1.5 1.6zm-21.5-3h19.9v-141.8h-19.9v141.8z"/><path class="st3" d="M36.2 1236.2H151v15.8H36.2v-15.8z"/><path d="M151 1253.5H36.2c-.8 0-1.5-.7-1.5-1.5v-15.9c0-.8.7-1.5 1.5-1.5H151c.8 0 1.5.7 1.5 1.5v15.8c0 .9-.7 1.6-1.5 1.6zm-113.2-3h111.7v-12.8H37.7l.1 12.8z"/><path class="st5" d="M151 1236.2h26.7v15.8H151v-15.8z"/><path d="M177.7 1253.5H151c-.8 0-1.5-.7-1.5-1.5v-15.9c0-.8.7-1.5 1.5-1.5h26.7c.8 0 1.5.6 1.5 1.5v15.9c0 .8-.6 1.5-1.5 1.5zm-25.2-3h23.7v-12.8h-23.7v12.8zm15.3-19.5H46.2c-.8 0-1.5-.7-1.5-1.5s.7-1.5 1.5-1.5h121.6c.8 0 1.5.7 1.5 1.5s-.7 1.5-1.5 1.5z"/><path class="st3" d="M70.2 1206.7c14 13.9 36.6 13.9 50.6 0 6.5-6 10.3-14.4 10.4-23.3l-18.1-1.6c-.2 9.7-8.2 17.4-17.9 17.2s-17.4-8.2-17.2-17.9c.1-4.6 2-8.9 5.2-12.1l12.3-12.7c5.8-6.1 9.1-14.2 9.1-22.6v-2.3H86.4v7.9L70.2 1156c-14 14.1-14 36.7 0 50.7z"/><path d="m95.1 1142.9 9.5-8.6c0 2.6-.5 5.1-1.3 7.6l-8.2 1z"/><path d="M95.1 1144.4c-.8 0-1.5-.7-1.5-1.5 0-.4.2-.8.5-1.1l9.5-8.6c.6-.6 1.6-.5 2.1.1.2.3.4.6.4 1 0 2.8-.5 5.5-1.4 8.1-.2.5-.7.9-1.2 1l-8.2 1h-.2zm7.7-6.4-3.2 2.9 2.6-.3c.3-.9.4-1.7.6-2.6z"/><path class="st3" d="m94.6 1155.3 13.3 13.5c3.4 3.4 5.3 8.1 5.1 13l18.1 1.6c.2-10.1-3.5-19.9-10.4-27.4l-12.3-12.7-.3-.4c-3.5-3.7-9.3-3.8-13-.3-3.6 3.4-3.9 9-.5 12.7z"/><path class="st3" d="M80.1 1196.8c8.5 8.5 22.3 8.5 30.8 0l.6-.7c3.3-3.6 5.2-8.3 5.4-13.2v-1.5c-.1-2.2-1.1-4.3-2.7-5.8l-5-5.2c1.5 2.3 2.7 4.8 3.6 7.3.2 1.3.2 2.7.2 4.1-.2 9.7-8.3 17.4-18 17.1s-17.4-8.3-17.1-18c.1-4.5 1.9-8.8 5.1-12l12.3-12.7-2.6-3.4-12.8 13.1c-8.3 8.6-8.3 22.4.2 30.9z"/><path d="M95.5 1218.6c-20.6 0-37.2-16.7-37.2-37.2 0-9.8 3.9-19.3 10.8-26.2l15.8-16.3v-7.4c0-.8.7-1.5 1.5-1.5h18.1c.8 0 1.5.7 1.5 1.5v2.3c0 8.8-3.4 17.3-9.6 23.6L84.1 1170c-6.3 6.3-6.3 16.4 0 22.7s16.4 6.3 22.7 0c2.9-2.9 4.6-6.8 4.7-10.9 0-.8.7-1.5 1.5-1.4.8 0 1.5.7 1.4 1.5-.3 10.5-9 18.8-19.5 18.5s-18.8-9-18.5-19.5c.1-4.9 2.1-9.5 5.6-13l12.3-12.7c5.6-5.8 8.7-13.5 8.7-21.5v-.7H87.9v6.4c0 .4-.2.7-.4 1l-16.2 16.8c-13 13.8-12.2 35.5 1.6 48.4 13.2 12.4 33.7 12.4 46.9 0 6.3-5.7 9.9-13.8 9.9-22.3 0-.8.7-1.5 1.5-1.5s1.5.7 1.5 1.5c-.1 9.3-4 18.1-10.9 24.3-7 7.1-16.5 11-26.3 11z"/><path class="st4" d="M78 1181.9H59.8"/><path d="M78 1183.4H59.8c-.8 0-1.5-.7-1.5-1.5s.7-1.5 1.5-1.5H78c.8 0 1.5.7 1.5 1.5s-.7 1.5-1.5 1.5z"/><path class="st4" d="m131.2 1183.5-18.2-1.6"/><path d="M131.2 1185h-.1l-18.1-1.6c-.8 0-1.5-.7-1.5-1.5s.7-1.5 1.5-1.5h.2l18.1 1.6c.8 0 1.5.7 1.4 1.6 0 .8-.7 1.4-1.5 1.4z"/><path class="st4" d="M95.5 1198.9v18.2"/><path d="M95.5 1218.6c-.8 0-1.5-.7-1.5-1.5V1199c0-.8.7-1.5 1.5-1.5s1.5.7 1.5 1.5v18.1c0 .8-.7 1.5-1.5 1.5zm-25.3-10.5c-.8 0-1.5-.6-1.5-1.5 0-.4.2-.8.4-1.1l12.9-12.9c.6-.6 1.5-.6 2.1 0s.6 1.5 0 2.1l-12.9 12.9c-.2.4-.6.5-1 .5zm50.6 0c-.4 0-.8-.2-1.1-.4l-12.8-12.9c-.6-.6-.6-1.5 0-2.1s1.5-.6 2.1 0l12.9 12.9c.6.6.6 1.5 0 2.1-.2.3-.6.4-1.1.4zm-37.7-37.6c-.4 0-.8-.2-1.1-.4l-12.9-12.9c-.4-.7-.3-1.6.4-2.1.5-.3 1.2-.3 1.7 0l12.9 12.9c.6.6.6 1.5 0 2.1-.3.3-.7.5-1 .4z"/><path class="st3" d="m94.6 1155.3 13.2 13.6 12.9-12.8-12.3-12.8-.3-.4c-3.5-3.7-9.3-3.8-13-.3-3.6 3.4-3.9 9-.5 12.7z"/><circle cx="105.2" cy="1145.9" r="1.2"/><circle cx="97.9" cy="1153.3" r="1.2"/><path d="M131.2 1185c-.8 0-1.5-.7-1.5-1.5.2-9.7-3.4-19.1-10-26.3l-12.3-12.7-.2-.2-.1-.1-.2-.2c-3-3-7.9-2.9-10.8.1-2.8 2.8-3 7.2-.5 10.2l13.3 13.6c3.7 3.7 5.7 8.8 5.6 14.1 0 .8-.7 1.5-1.5 1.4-.8 0-1.5-.7-1.5-1.5v-.1c.2-4.4-1.5-8.7-4.7-11.9l-.1-.1-13.2-13.6c-4-4.3-3.7-11.1.7-15.1s11.1-3.7 15.1.7l.3.3 12.4 12.8c7.2 7.7 11 17.9 10.8 28.4.1.8-.5 1.5-1.4 1.6l-.2.1z"/><path d="M108 1170.5c-.8 0-1.5-.6-1.5-1.5 0-.4.2-.8.4-1.1l12.7-12.7c.6-.6 1.5-.6 2.1 0s.6 1.5 0 2.1L109 1170c-.3.3-.6.5-1 .5zm-12.5-45c-11.7 0-21-10-21.4-10.4-.5-.6-.5-1.4 0-2 .4-.4 9.7-10.4 21.4-10.4s21 10 21.4 10.4c.5.6.5 1.4 0 2-.4.5-9.7 10.4-21.4 10.4zm-18.1-11.3c2.6 2.4 9.8 8.4 18.1 8.4s15.6-6 18.1-8.4c-2.6-2.4-9.8-8.4-18.1-8.4s-15.7 5.8-18.1 8.4z"/><circle cx="95.5" cy="1114.1" r="7.6"/><path d="m801.3 1244.8 35.1 29.4H979l-36.2-29.4H801.3z"/><path class="st19" d="M922.2 918.4c-.5 2.3-1.9 4.5-1.8 6.8.3 2.2 1.3 4.3 2.8 6-2-1.2-4.3-1.8-6.2-3.1-3.1-2.2-4.2-6.4-2.6-9.8.6-1.1 1.5-2.2 2-3.3.9-2.4.2-5.2-2-6.8.7.5 2.6.3 3.5.8 1 .6 2 1.5 2.7 2.5 1.5 1.9 2.1 4.5 1.6 6.9zm-66.4 79.5c-5-3.7-13.3-6.1-15.1-21.9-2.3-18.4 15.5-34.1 5.6-39.3 5.5-.7 11.1 4 10.7 9.1-.3 1.4-.4 2.8-.4 4.1.2 1.5 1.4 2.6 2.9 2.7 1.1-.2 2-1 2.5-2 2.3-4 .7-8.8-1.4-12.8s-4.6-8-4.7-12.5c0-5.4 3.8-10.2 6.2-15.2s2.8-11.9-2.3-14.8c5-.2 9.4 3.1 10.6 7.9.7 3.2.3 6.6-1 9.6-.4 1.6.5 3.3 2.1 3.7.9.3 1.9.1 2.7-.5 1.6-1.5 2.7-3.6 3-5.8 1.6-7.7-.6-12.1-.6-19.9s3.2-16.7 11.3-19.6c-4.5 6.2-2.8 14.6.2 21.5s7.3 10.2 7.6 17.7c.3 9.1-5.3 17.2-7.2 26-.4 1.5 0 3.2 1.1 4.4 2.8 2.9 7.6-.1 8.5-3.5s0-6.5.6-9.7c1.3-4.8 5.5-8.2 10.5-8.5-3.6 2.6-3.7 7.6-2.3 11.5s4.1 7.5 5 11.6c1.8 8.3-4.1 16.3-9.8 23-1.3 1.4-2.4 3-3.1 4.8-.7 1.8-.1 3.9 1.4 5.1 2.3 1.2 5.2.8 6.9-1.1 1.5-1.8 2.5-4.1 2.9-6.4 4.8 5.7 4.1 14.1 0 20.2s-11 10.3-18.1 13.3c-6 2.8-12.4 4.4-19 4.5-6.4 0-12.8-2.5-17.3-7.2"/><path class="st8" d="M857.8 964.9c-1.6 2.6.6 6.2 3.7 7 3.2.6 6.5-.5 8.8-2.8 2.3-2.3 3.6-5.6 3.3-8.9-.4-4.9-4.2-9.3-3.8-14.3.2-3.4 2.3-6.4 4-9.4s3.2-6.5 2-9.7c4.2 5.2 5.7 12.1 3.9 18.5-.5 1.2-.7 2.6-.6 3.9.9 2.5 3.4 4 6 3.5 2.6-.4 4.8-1.9 6.2-4.1 1.4 2.7 1.5 6 .2 8.8-1.6 3.5-5.9 6-6.5 9.8-.9 5.7 1.2 13.5 14.3 12 1 .8-1.7 9.6-10.7 14-4.5 2.3-14.8 1.9-20 1.7-6.4-.2-14-3.1-15.8-9.1-2.4-7.2-.5-15.3 5-20.9z"/><path class="st13" d="M878.8 1020.5c-1.5.1-3 .2-4.5.2-1.4 0-2.7 0-4.1-.2v37.4h-10.4v-39.4c-17.2-5.3-29.6-19.8-29.6-36.8h88.3c0 16.9-12.1 31.2-29 36.7v39.6H879l-.2-37.5z"/><path d="m889.3 1019.4-10.3 1.4h10.3v-1.4zm-29.5 1.4v-2.7l10.2 2.7"/><path class="st13" d="M870.1 1084.4h-24.2c-.6 0-1-.5-.9-1.1 0-.3.2-.6.5-.8l14.2-4.5v-20h10.4v26.4zm32.9 0h-24.2V1058h10.4v20l14.2 4.5c.5.3.7.9.4 1.3-.2.4-.5.6-.8.6z"/><path d="M889.2 1059.6h-10.4c-.8 0-1.5-.7-1.5-1.5v-36c-1.9.1-3.8.1-5.8 0v35.9c0 .8-.7 1.5-1.5 1.5h-10.4c-.8 0-1.5-.7-1.5-1.5v-38.3c-17.7-5.9-29.6-21-29.6-37.9 0-.8.7-1.5 1.5-1.5h88.3c.8 0 1.5.7 1.5 1.5 0 16.7-11.6 31.7-29 37.8v38.5c0 .8-.6 1.5-1.4 1.6l-.2-.1zm-9-3h7.5v-38.1c0-.6.4-1.2 1-1.4 16.2-5.2 27.3-18.7 28-33.8h-85c.7 15.3 12 28.8 28.5 34 .6.2 1 .8 1 1.4v38h7.5v-36c0-.4.2-.8.5-1.1.3-.3.7-.5 1.2-.5 1.4.1 2.7.2 4 .2 1.5 0 3 0 4.5-.2.8-.1 1.5.5 1.6 1.3v.1l-.3 36.1z"/><path d="M889.2 1022.3H879c-.8 0-1.5-.7-1.5-1.5 0-.7.5-1.3 1.2-1.5l10.3-2.3c.8-.2 1.6.3 1.8 1.1V1020.7c0 .9-.7 1.6-1.6 1.6zm-19.1 0h-10.3c-.8 0-1.4-.6-1.5-1.4l-.2-2.3c-.1-.8.5-1.5 1.4-1.6h.4l10.4 2.3c.8.2 1.3 1 1.1 1.8-.1.7-.6 1.1-1.3 1.2zm0 63.7h-24.2c-1.4 0-2.5-1.1-2.5-2.4 0-1 .5-1.8 1.4-2.3h.2l13.2-4.2v-18.9c0-.8.7-1.5 1.5-1.5h10.4c.8 0 1.5.7 1.5 1.5v26.3c0 .8-.6 1.4-1.5 1.5zm-20.9-3h19.4v-23.4h-7.4v18.6c0 .6-.4 1.2-1 1.4l-11 3.4zm53.8 3h-24.2c-.8 0-1.5-.7-1.5-1.5V1058c0-.8.7-1.5 1.5-1.5h10.4c.8 0 1.5.7 1.5 1.5v18.9l13.2 4.2h.2c1.2.6 1.7 2.1 1.1 3.3-.4 1-1.3 1.5-2.2 1.6zm-22.6-3h19.4l-10.9-3.5c-.6-.2-1-.8-1-1.4v-18.5h-7.5v23.4z"/><path class="st3" d="M834.2 1084.2h98.7V1229h-98.7v-144.8z"/><path d="M932.9 1230.5h-98.7c-.8 0-1.5-.7-1.5-1.5v-144.9c0-.8.7-1.5 1.5-1.5h98.7c.8 0 1.5.7 1.5 1.5V1229c0 .8-.7 1.5-1.5 1.5zm-97.2-3h95.7v-141.8h-95.7v141.8z"/><path class="st5" d="M811.3 1084.2h22.9V1229h-22.9v-144.8z"/><path d="M834.2 1230.5h-22.9c-.8 0-1.5-.7-1.5-1.5v-144.9c0-.8.7-1.5 1.5-1.5h22.9c.8 0 1.5.7 1.5 1.5V1229c0 .8-.6 1.5-1.5 1.5zm-21.4-3h19.9v-141.8h-20l.1 141.8z"/><path class="st3" d="M828 1229.1h114.8v15.8H828v-15.8z"/><path d="M942.8 1246.3H828c-.8 0-1.5-.7-1.5-1.5V1229c0-.8.7-1.5 1.5-1.5h114.8c.8 0 1.5.7 1.5 1.5v15.8c0 .9-.7 1.5-1.5 1.5zm-113.2-3h111.8v-12.8H829.5l.1 12.8z"/><path class="st5" d="M801.3 1229.1H828v15.8h-26.7v-15.8z"/><path d="M828 1246.3h-26.7c-.8 0-1.5-.7-1.5-1.5V1229c0-.8.7-1.5 1.5-1.5H828c.8 0 1.5.7 1.5 1.5v15.8c0 .9-.7 1.5-1.5 1.5zm-25.2-3h23.7v-12.8h-23.7v12.8zm130.1-19.4H811.3c-.8 0-1.5-.7-1.5-1.5s.7-1.5 1.5-1.5h121.6c.8 0 1.5.7 1.5 1.5s-.7 1.5-1.5 1.5z"/><path class="st3" d="M908.8 1107.5c-14-13.9-36.6-13.9-50.6 0-6.6 6-10.3 14.4-10.4 23.3l18.1 1.6c.2-9.7 8.2-17.4 17.9-17.2s17.4 8.2 17.2 17.9c-.1 4.5-2 8.9-5.2 12.1l-12.3 12.8c-5.8 6.1-9.1 14.2-9.1 22.6v2.3h18.1v-7.9l16.2-16.8c14.1-14 14.1-36.7.1-50.7z"/><path d="m883.9 1171.2-9.5 8.6c0-2.6.5-5.1 1.3-7.6l8.2-1z"/><path d="M874.5 1181.4c-.8 0-1.5-.7-1.5-1.5 0-2.8.5-5.5 1.4-8.1.2-.5.7-.9 1.2-1l8.2-1c.8-.1 1.6.5 1.7 1.3.1.5-.1 1-.5 1.3l-9.5 8.6c-.3.2-.7.4-1 .4zm2.2-7.7c-.2.8-.4 1.7-.6 2.6l3.2-2.9-2.6.3z"/><path class="st3" d="m884.5 1158.9-13.3-13.5c-3.4-3.4-5.3-8.1-5.1-13l-18.1-1.6c-.2 10.1 3.5 19.9 10.4 27.4l12.5 12.8.3.4c3.5 3.7 9.3 3.8 13 .3 3.6-3.4 3.8-9 .6-12.7l-.3-.1z"/><path class="st3" d="M899 1117.4c-8.5-8.5-22.3-8.5-30.8 0l-.6.7c-3.3 3.6-5.2 8.3-5.4 13.2v1.5c.1 2.2 1.1 4.3 2.7 5.8l5.2 5.3c-1.5-2.3-2.7-4.8-3.6-7.3-.2-1.4-.2-2.7-.2-4.1.2-9.7 8.2-17.4 17.9-17.2s17.4 8.2 17.2 17.9c-.1 4.5-2 8.9-5.2 12.1l-12.5 12.7 2.6 3.4 12.8-13.2c8.3-8.5 8.3-22.3-.1-30.8z"/><path d="M892.6 1184.2h-18.1c-.8 0-1.5-.7-1.5-1.5v-2.3c0-8.8 3.4-17.3 9.5-23.6l12.4-12.8c6.3-6.2 6.3-16.4 0-22.7-6.2-6.3-16.4-6.3-22.7-.1-2.9 2.9-4.6 6.9-4.7 11 0 .8-.7 1.4-1.5 1.4s-1.5-.7-1.5-1.5c.3-10.5 9.1-18.7 19.6-18.4s18.7 9.1 18.4 19.6c-.2 4.8-2.1 9.3-5.5 12.7l-12.3 12.7c-5.6 5.8-8.7 13.5-8.7 21.5v.7h15.2v-6.4c0-.4.2-.7.4-1L908 1157c13-13.8 12.2-35.5-1.6-48.4-13.2-12.4-33.7-12.4-46.9 0-6.3 5.7-9.9 13.8-10 22.2 0 .8-.7 1.5-1.5 1.5s-1.5-.7-1.5-1.5c.1-9.3 4-18.1 10.9-24.3 6.9-6.9 16.3-10.8 26.1-10.8 20.6 0 37.2 16.7 37.2 37.3 0 9.8-3.9 19.3-10.8 26.2l-15.8 16.3v7.4c0 .7-.7 1.4-1.5 1.3z"/><path class="st4" d="M901 1132.3h18.2"/><path d="M919.2 1133.8h-18.1c-.8 0-1.5-.7-1.5-1.5s.7-1.5 1.5-1.5h18.1c.8 0 1.5.7 1.5 1.5s-.7 1.5-1.5 1.5z"/><path class="st4" d="m847.8 1130.7 18.2 1.6"/><path d="M866 1133.8h-.1l-18.1-1.6c-.8-.1-1.4-.8-1.4-1.6s.8-1.4 1.6-1.4l18.1 1.6c.8 0 1.5.7 1.4 1.6 0 .8-.7 1.4-1.5 1.4z"/><path class="st4" d="M883.5 1115.3v-18.2"/><path d="M883.5 1116.8c-.8 0-1.5-.7-1.5-1.5v-18.2c0-.8.7-1.5 1.5-1.5s1.5.7 1.5 1.5v18.1c.1.8-.6 1.5-1.5 1.6zm12.4 5.1c-.8 0-1.5-.6-1.5-1.5 0-.4.2-.8.5-1.1l12.9-12.9c.6-.6 1.5-.6 2.1 0s.6 1.5 0 2.1l-12.8 12.9c-.3.4-.7.5-1.2.5zm-24.8 0c-.4 0-.8-.2-1.1-.4l-12.9-12.9c-.6-.6-.6-1.5 0-2.1s1.5-.6 2.1 0l12.9 12.9c.6.6.6 1.5 0 2.1-.2.3-.6.4-1 .4zm37.7 37.8c-.4 0-.8-.2-1.1-.4l-12.9-12.9c-.6-.6-.6-1.5 0-2.1s1.5-.6 2.1 0l12.9 12.8c.6.6.6 1.5 0 2.1-.2.3-.6.5-1 .5z"/><path class="st3" d="m884.5 1158.9-13.2-13.6-12.9 12.8 12.5 12.8.3.4c3.5 3.7 9.3 3.8 13 .3 3.6-3.4 3.8-9 .6-12.7h-.3z"/><circle cx="873.8" cy="1168.3" r="1.2"/><circle cx="881.1" cy="1160.9" r="1.2"/><path d="M877.5 1175.4c-2.8 0-5.5-1.1-7.5-3.1l-.3-.3-12.4-12.9c-7.2-7.7-11-17.9-10.8-28.4 0-.8.7-1.5 1.5-1.5s1.5.7 1.5 1.5c-.2 9.7 3.4 19.1 10 26.3l12.3 12.7.2.2.1.1.2.2c2.9 3.1 7.8 3.2 10.8.3 3-2.8 3.2-7.6.5-10.7l-13.3-13.6c-3.7-3.7-5.7-8.8-5.6-14.1 0-.8.7-1.5 1.5-1.4.8 0 1.5.7 1.5 1.5-.2 4.4 1.5 8.7 4.7 11.9l13.4 13.6c3.8 4.5 3.2 11.2-1.3 15-1.9 1.6-4.3 2.5-6.8 2.5l-.2.2z"/><path d="M858.4 1159.5c-.8 0-1.5-.6-1.5-1.5 0-.4.2-.8.5-1.1l12.7-12.7c.6-.6 1.5-.6 2.1 0s.6 1.5 0 2.1l-12.7 12.8c-.4.3-.8.4-1.1.4zm25.1 52c-11.7 0-21-10-21.4-10.4-.5-.6-.5-1.4 0-2 .4-.4 9.7-10.4 21.4-10.4s21 10 21.4 10.4c.5.6.5 1.4 0 2-.4.4-9.7 10.4-21.4 10.4zm-18.1-11.4c2.6 2.4 9.8 8.4 18.1 8.4s15.6-6 18.1-8.4c-2.6-2.4-9.8-8.4-18.1-8.4s-15.6 5.9-18.1 8.4z"/><circle cx="883.5" cy="1200.1" r="7.6"/><path d="M372.6 387.8h270.6c.5 0 1 .4 1 1v1.5c0 .5-.4 1-1 1H372.6c-.5 0-1-.4-1-1v-1.5c.1-.6.5-1 1-1z"/><path d="M491 389.8h33.9c.5 0 1 .4 1 1v1.5c0 .5-.4 1-1 1H491c-.5 0-1-.4-1-1v-1.5c.1-.6.5-1 1-1z"/><path d="M372.6 244.6h270.6v144.1H372.6V244.6z" style="fill:#59355f"/><path d="M643.3 389.8H372.6c-.5 0-1-.5-1-1V244.5c0-.6.5-1 1-1h270.6c.5 0 1 .4 1 1v144.2c0 .5-.3 1-.9 1.1zm-269.7-2h268.7V245.6H373.6v142.2z"/><path d="M636.9 288.6h7.1v44.6h-7.1v-44.6z" style="fill:#d96e25"/><path d="M644 334.2h-7.1c-.5 0-1-.5-1-1v-44.6c0-.5.5-1 1-1h7.1c.5 0 1 .5 1 1v44.6c0 .6-.5 1-1 1zm-6.2-1.9h5.2v-42.7h-5.2v42.7z"/><path d="M644 342.3h-.9c-.5 0-1-.5-1-1v-6.2h-5.3c-.5 0-1-.5-1-1v-.9c0-.5.5-1 1-1h7.1c.5 0 1 .5 1 1v8.1c0 .5-.4 1-.9 1z"/><path class="st22" d="m391.6 244.6-19 19v-19h19z"/><path d="M372.6 264.6c-.5 0-1-.5-1-1v-19.1c0-.6.5-1 1-1h19c.5 0 1 .5.9 1.1 0 .2-.1.4-.2.6l-19 19c-.1.2-.4.4-.7.4zm1-19v15.7l15.7-15.7h-15.7z"/><path d="M376.6 255.9c0-.6-.5-1.1-1.1-1.1-.6 0-1.1.5-1.1 1.1s.5 1.2 1.1 1.2c.6-.1 1.1-.6 1.1-1.2zm9-8.5c0-.6-.5-1.1-1.1-1.1-.6 0-1.1.5-1.1 1.1s.5 1.1 1.1 1.1c.6 0 1.1-.5 1.1-1.1z"/><path class="st22" d="m624.3 244.6 19 19v-19h-19z"/><path d="M643.3 264.6c-.3 0-.5-.1-.7-.3l-19-19c-.4-.4-.3-1.1.1-1.4.2-.1.4-.2.6-.2h19c.5 0 1 .4 1 1v19c0 .5-.5 1-1 .9zm-16.7-19 15.7 15.7v-15.7h-15.7z"/><path d="M640.5 257.1c.6 0 1.2-.5 1.2-1.1 0-.6-.5-1.1-1.2-1.1s-1.2.5-1.2 1.1c0 .6.5 1.1 1.2 1.1zm-9.1-8.5c.6 0 1.2-.5 1.2-1.1s-.5-1.1-1.2-1.1-1.2.5-1.2 1.1.6 1.1 1.2 1.1z"/><path class="st22" d="m391.6 388.8-19-19v19h19z"/><path d="M391.6 389.8h-19c-.5 0-1-.5-1-1v-19c0-.5.5-1 1.1-.9.2 0 .4.1.6.2l19 19c.4.4.3 1-.1 1.4l-.6.3zm-18.1-2h15.7l-15.7-15.7v15.7z"/><path d="M375.5 376.4c-.6 0-1.1.5-1.1 1.1 0 .6.5 1.1 1.1 1.1.6 0 1.1-.5 1.1-1.2 0-.5-.5-1-1.1-1zm9 8.5c-.6 0-1.1.5-1.1 1.1 0 .6.5 1.1 1.1 1.1.6 0 1.1-.5 1.1-1.2 0-.5-.5-1-1.1-1z"/><path class="st22" d="m624.3 388.8 19-19v19h-19z"/><path d="M643.3 389.8h-19c-.5 0-1-.5-.9-1.1 0-.2.1-.4.2-.6l19-19c.4-.4 1-.3 1.4.1.1.2.2.4.2.6v19c0 .5-.4 1-.9 1zm-16.7-2h15.7v-15.7l-15.7 15.7z"/><path d="M639.3 377.5c0 .6.5 1.1 1.2 1.1s1.2-.5 1.2-1.1c0-.6-.5-1.1-1.2-1.1s-1.2.5-1.2 1.1zm-9 8.5c0 .6.5 1.1 1.2 1.1s1.2-.5 1.2-1.1c0-.6-.5-1.1-1.2-1.1s-1.2.5-1.2 1.1z"/><path d="M491 384.7h33.9v6H491v-6z" style="fill:#8097f9"/><path d="M524.9 391.7h-34c-.5 0-1-.5-1-1v-6c0-.5.5-1 1-1h34c.5 0 1 .5 1 1v6c0 .6-.5 1-1 1zm-32.9-1.9h31.9v-4.1H492v4.1z"/><path d="m491.2 405.9-6.4-3.1-6.4 3.1v-19.3h12.7v19.3z" style="fill:#8b355f"/><path d="M491.2 406.9h-.4l-5.9-2.9-5.9 2.9c-.5.2-1.1 0-1.3-.5-.1-.1-.1-.2-.1-.4v-19.3c0-.5.5-1 1-1h12.8c.5 0 1 .5 1 1V406c0 .5-.5 1-1 1l-.2-.1zm-6.3-5.1h.4l5 2.5v-16.8h-10.8v16.8l5-2.5h.4z"/><path d="M478.5 379.3h12.8v7.3h-12.8v-7.3z"/><path d="M491.2 387.6h-12.7c-.5 0-1-.5-1-1v-7.3c0-.5.5-1 1-1h12.7c.5 0 1 .5 1 1v7.3c0 .5-.4 1-1 1zm-11.8-2h10.8v-5.2h-10.8v5.2z"/><path class="st25" d="M377.2 380.5H508L442.6 325l-65.4 55.5z"/><path d="M508 381.5H377.2c-.5 0-1-.5-.9-1.1 0-.2.1-.5.3-.6l65.5-55.5c.4-.3.9-.3 1.2 0l65.4 55.5c.4.4.4 1 0 1.4-.2.2-.4.3-.6.3h-.1zm-128.2-2h125.5l-62.8-53.3-62.7 53.3z"/><path class="st25" d="M508 380.5h130.8L573.3 325 508 380.5z"/><path d="M638.7 381.5H508c-.5 0-1-.5-.9-1.1 0-.2.1-.5.3-.6l65.4-55.5c.4-.3.9-.3 1.2 0l65.4 55.5c.4.4.4 1 0 1.4-.2.2-.5.3-.7.3zm-128.1-2h125.5l-62.7-53.3-62.8 53.3z"/><path class="st26" d="M442.6 230.8c-36.1 0-65.4 5.3-65.4 11.9v137.8h.2c2.6-6.1 30.8-11 65.2-11s62.6 4.8 65.2 11h.2V242.7c0-6.6-29.3-11.9-65.4-11.9z"/><path class="st25" d="M504.9 239.1v138.6l3.2 2.9-.2-137.9-3-3.6z"/><path class="st26" d="M573.3 230.8c-36.1 0-65.4 5.3-65.4 11.9v137.8h.2c2.6-6.1 30.8-11 65.2-11s62.6 4.8 65.2 11h.2V242.7c0-6.6-29.3-11.9-65.4-11.9z"/><path class="st25" d="M511.5 239.1v138.6l-3.2 2.9.2-137.9 3-3.6z"/><path d="M508 381.5h-.2c-.4 0-.8-.2-.9-.6-2.1-5-27.2-10.4-64.3-10.4s-62.2 5.4-64.3 10.4c-.2.4-.5.6-.9.6h-.2c-.5 0-1-.5-1-1V242.7c0-3.8 6.8-7 19.9-9.4 15.3-2.5 30.9-3.6 46.4-3.5 15.5-.2 31.1 1 46.4 3.5 13.2 2.4 19.9 5.6 19.9 9.4v137.9c0 .4-.4.8-.8.9zm-65.4-12.9c15-.1 29.9.9 44.8 3.2 7.3 1.2 15.9 3.3 19.7 6.3V242.7c0-.7-.9-4.3-18.4-7.4-15.2-2.5-30.6-3.6-46-3.5-15.4-.2-30.8 1-46 3.5-17.5 3.2-18.4 6.8-18.4 7.4v135.4c3.8-3.1 12.4-5.1 19.7-6.3 14.8-2.3 29.7-3.4 44.6-3.2z"/><path class="st27" d="M458.4 247.9c-4.9-.2-10.2-.4-15.9-.4s-10.9.1-15.9.4v46.5c5.1-.2 10.4-.3 15.9-.3s10.7.1 15.9.3v-46.5zm-41.9.7c-14.4 1.2-24.2 3.2-28.8 4.9v45.7c2.6-.6 5.4-1.2 8.6-1.7 6.7-1.1 13.4-1.9 20.2-2.3v-46.6zm52.2 0V295c7.4.6 14.2 1.4 20.2 2.3 3.2.5 6 1.1 8.6 1.7v-45.6c-4.6-1.6-14.4-3.6-28.8-4.8zm-10.3 58c-4.9-.2-10.2-.4-15.9-.4s-10.9.1-15.9.4v46.6c5.1-.2 10.4-.3 15.9-.3s10.7.1 15.9.3v-46.6zm-41.9.7c-14.4 1.2-24.2 3.2-28.8 4.9v45.6c2.6-.6 5.4-1.2 8.6-1.7 6.7-1.1 13.4-1.9 20.2-2.3v-46.5zm52.2 0v46.5c7.4.6 14.2 1.4 20.2 2.3 3.2.5 6 1.1 8.6 1.7v-45.6c-4.6-1.7-14.4-3.7-28.8-4.9z"/><path d="M458.4 295.4c-10.3-.5-21.2-.5-31.5 0-.3 0-.5-.1-.7-.3-.2-.2-.3-.4-.3-.7v-46.5c0-.5.4-1 .9-1 5.1-.2 10.5-.4 15.9-.4s10.7.1 15.9.4c.5 0 .9.5.9 1v46.5c-.1.5-.5 1-1.1 1zm-15.9-2.3c5 0 10 0 14.9.3v-44.6c-4.8-.2-9.8-.3-14.9-.3s-10 0-14.9.3v44.6c5-.2 9.9-.3 14.9-.3zm-54.8 7c-.5 0-1-.5-1-1v-45.7c0-.4.3-.8.6-.9 9.5-2.7 19.2-4.4 29-4.9.5 0 .9.4 1 .9V295c0 .5-.4 1-.9 1-7.4.6-14.2 1.4-20.1 2.3-3.2.5-6 1.1-8.5 1.7l-.1.1zm1-46v43.8c2.3-.5 4.7-1 7.5-1.5 5.7-1 12.2-1.7 19.4-2.3v-44.6c-9.1.7-18.1 2.2-26.9 4.6zm108.8 46h-.3c-2.6-.6-5.3-1.2-8.5-1.7-6.7-1.1-13.4-1.9-20.1-2.3-.5 0-.9-.5-.9-1v-46.6c0-.6.5-1 1-1h.1c9.8.6 19.5 2.2 29 4.9.4.1.6.5.6.9V299c0 .5-.5 1-1 1h.1zm-27.8-6c7.1.6 13.6 1.3 19.4 2.3 2.7.5 5.2 1 7.5 1.5v-43.7c-8.8-2.4-17.8-3.9-26.9-4.5v44.4zm-11.3 60c-10.3-.5-21.3-.5-31.5 0-.3 0-.5-.1-.7-.3-.2-.2-.3-.4-.3-.7v-46.5c0-.5.4-1 .9-1 5.1-.2 10.5-.4 15.9-.4s10.7.1 15.9.4c.5 0 .9.5.9 1v46.6c0 .5-.5 1-1 1l-.1-.1zm-15.9-2.3c5 0 10 0 14.9.3v-44.6c-4.8-.2-9.8-.3-14.9-.3s-10 0-14.9.3v44.6c5-.2 9.9-.3 14.9-.3zm-54.8 7c-.5 0-1-.5-1-1v-45.7c0-.4.3-.8.6-.9 9.5-2.7 19.2-4.4 29-4.9.3 0 .5.1.8.2.2.2.3.4.3.7v46.5c0 .5-.4 1-.9 1-7.4.6-14.2 1.4-20.1 2.3-3.2.5-6 1.1-8.5 1.7l-.2.1zm1-46v43.8c2.3-.5 4.7-1 7.5-1.5 5.7-1 12.2-1.7 19.4-2.3v-44.6c-9.1.7-18.1 2.2-26.9 4.6zm108.8 46h-.3c-2.6-.6-5.3-1.2-8.5-1.7-6.7-1.1-13.4-1.9-20.1-2.3-.5 0-.9-.5-.9-1v-46.5c0-.5.5-1 1-1h.1c9.8.6 19.5 2.2 29 4.9.4.1.6.5.6.9v45.6c0 .5-.5 1-1 1l.1.1zm-27.9-6c7.1.6 13.6 1.3 19.4 2.3 2.7.5 5.2 1 7.5 1.5v-43.7c-8.8-2.4-17.8-4-26.9-4.5v44.4z"/><path class="st27" d="M518.4 247.1c7-2.5 26.1-5.9 54.9-5.9s48 3.4 54.9 5.9v117c-2.6-.6-5.4-1.2-8.6-1.7-30.7-4.4-61.9-4.4-92.6 0-3.2.5-6 1.1-8.6 1.7v-117z"/><path d="M628.2 365.1h-.2c-2.5-.6-5.4-1.2-8.5-1.7-30.6-4.4-61.7-4.4-92.3 0-3.2.5-6 1.1-8.5 1.7-.5.1-1.1-.2-1.2-.8V247.1c0-.4.3-.8.6-.9 6.2-2.3 24.7-6 55.2-6s49.1 3.7 55.2 6c.4.1.6.5.6.9v117c0 .6-.4 1-.9 1zM519.4 247.8v115.1c2.3-.5 4.7-1 7.5-1.5 30.8-4.5 62-4.5 92.8 0 2.7.5 5.2 1 7.5 1.5v-115c-6.6-2.3-24.7-5.6-53.9-5.6s-47.3 3.4-53.9 5.5zm-142 132.7h261.3v3.4H377.4v-3.4z"/><path d="M638.7 384.9H377.4c-.5 0-1-.5-1-1v-3.4c0-.5.5-1 1-1h261.3c.5 0 1 .5 1 1v3.4c0 .6-.4 1-1 1zm-260.3-2h259.4v-1.4H378.4v1.4zm23.7-85.4c-.3 0-.6-.2-.8-.5l-14.4-22.6c-.2-.3-.2-.7 0-1l14.4-23.3c.2-.3.5-.4.8-.4.3 0 .6.1.8.4l14.4 20.4c.2.3.2.7 0 1L402.9 297c-.3.2-.6.4-.8.5zm-13.3-23.7 13.2 20.8 13.3-23.6-13.2-18.8-13.3 21.6zm94.3 23.7c-.3 0-.6-.2-.8-.5l-14.4-25.5c-.2-.3-.2-.7 0-1l14.4-20.4c.2-.3.5-.4.8-.4.3 0 .6.2.8.4l14.4 23.3c.2.3.2.7 0 1L483.9 297c-.2.3-.5.5-.8.5zM469.9 271l13.3 23.6 13.2-20.8-13.4-21.5-13.1 18.7zm-27.3 24c-.3 0-.6-.2-.8-.4l-15.9-23.1c-.2-.3-.2-.8 0-1.1l15.9-23.4c.3-.4 1-.5 1.4-.2l.2.2 15.8 23.4c.2.3.2.8 0 1.1l-15.9 23.1c-.1.3-.4.4-.7.4zm-14.7-24 14.6 21.4 14.6-21.4-14.6-21.7-14.6 21.7zm-25.8 85.2c-.3 0-.6-.2-.8-.5l-14.4-22.6c-.2-.3-.2-.7 0-1l14.4-23.4c.2-.3.5-.4.8-.5.3 0 .6.1.8.4l14.4 20.4c.2.3.2.7 0 1l-14.4 25.5c-.3.4-.6.6-.8.7zm-13.3-23.7 13.2 20.8 13.3-23.6-13.2-18.7-13.3 21.5zm94.3 23.7c-.3 0-.6-.2-.8-.5l-14.4-25.6c-.2-.3-.2-.7 0-1l14.4-20.4c.3-.4 1-.5 1.4-.2l.2.2 14.4 23.3c.2.3.2.7 0 1l-14.4 22.6c-.2.4-.5.6-.8.6zm-13.2-26.5 13.3 23.6 13.2-20.8L483 311l-13.1 18.7zm-27.3 24c-.3 0-.6-.2-.8-.4l-15.9-23.1c-.2-.3-.2-.8 0-1.1l15.9-23.4c.3-.4 1-.5 1.4-.2l.2.2 15.8 23.4c.2.3.2.8 0 1.1l-15.9 23.1c-.1.3-.4.4-.7.4zm-14.7-24 14.6 21.4 14.6-21.4-14.6-21.7-14.6 21.7z"/><path d="M638.7 381.5h-.2c-.4 0-.8-.2-.9-.6-2.1-5-27.2-10.4-64.3-10.4s-62.2 5.4-64.3 10.4c-.2.4-.5.6-.9.6h-.1c-.5 0-1-.5-1-1V242.7c0-3.8 6.8-7 19.9-9.4 30.8-4.7 62.1-4.7 92.8 0 13.2 2.4 19.9 5.6 19.9 9.4v137.9c.1.5-.4.9-.9.9zm-65.3-149.8c-15.4-.2-30.8 1-46 3.5-17.5 3.2-18.4 6.8-18.4 7.4v135.5c3.8-3.1 12.4-5.1 19.7-6.3 29.7-4.3 59.8-4.3 89.4 0 7.3 1.2 15.8 3.3 19.7 6.3V242.7c0-.7-.9-4.3-18.4-7.4-15.2-2.6-30.6-3.7-46-3.6z"/><ellipse cx="574" cy="347.8" rx="15.3" ry="1.9"/><path d="M574 350.6c-3.7 0-7.3-.2-11-.6-3.9-.5-5.3-1.1-5.3-2.3s1.4-1.8 5.3-2.3c7.3-.7 14.7-.7 21.9 0 3.9.5 5.3 1.1 5.3 2.3s-1.4 1.8-5.3 2.3c-3.6.5-7.2.7-10.9.6zm-13.1-2.8c8.7 1.2 17.5 1.2 26.2 0-8.7-1.2-17.5-1.2-26.2 0z"/><path class="st26" d="M588 283.1v-15.6l-13.5-7.8-13.5 7.8v15.6l13.5 7.8 13.5-7.8z"/><path class="st25" d="m588.1 267.5-4.7 15.1 4.7.5v-15.6z"/><path class="st8" d="M574.5 267.3v-7.6l13.5 7.8-13.5-.2z"/><path class="st25" d="m565.7 282.6 8.8 8.3 8.8-8.3h-17.6"/><path class="st27" d="m561 283.1 4.6-.5 8.1 7.6h-.5l-12.2-7.1z"/><path class="st8" d="m561 267.5 4.7 15.1-4.7.5v-15.6z"/><path class="st26" d="m565.7 282.6 8.8-15.3 8.9 15.3h-17.7z"/><path d="M574.5 291.9c-.2 0-.3 0-.5-.1l-13.6-7.8c-.3-.2-.5-.5-.5-.8v-15.6c0-.3.2-.7.5-.8L574 259c.3-.2.7-.2 1 0l13.6 7.8c.3.2.5.5.5.8V283c0 .3-.2.7-.5.8l-13.6 7.8c-.1.2-.3.2-.5.3zm-12.5-9.4 12.5 7.2 12.5-7.2v-14.4l-12.5-7.2-12.5 7.2v14.4z"/><path d="m588.1 284-4.7-.5c-.5-.1-.9-.6-.9-1.1v-.1l4.7-15.1c.2-.5.8-.7 1.3-.5.3.1.5.4.6.8V283c0 .6-.4 1-1 1zm-3.4-2.2 2.4.2v-8l-2.4 7.8z"/><path d="m588 268.5-13.6-.2c-.5 0-1-.5-1-1v-7.5c0-.5.5-1 1-1 .1 0 .3 0 .4.1l13.6 7.8c.5.3.6.9.2 1.4-.1.2-.3.3-.6.4zm-12.5-2.3 8.8.2-8.8-5.1v4.9zm-1 25.7c-.2 0-.5-.1-.7-.3l-8.8-8.3c-.4-.4-.4-1 0-1.4.2-.2.4-.2.6-.3h17.7c.5 0 1 .5.9 1.1 0 .2-.1.4-.3.6l-8.8 8.3c-.1.2-.3.3-.6.3zm-6.3-8.3 6.4 6 6.4-6h-12.8z"/><path d="M573.8 291.1h-.5c-.2 0-.3-.1-.4-.1l-12.2-7c-.5-.3-.6-.9-.3-1.4.2-.2.4-.4.6-.4l4.6-.5c.3 0 .6.1.8.2l8.1 7.6c.4.4.4 1 0 1.4-.3.1-.5.2-.7.2zm-9.7-7.4 3.6 2.1-2.3-2.3-1.3.2z"/><path d="M561 284c-.5 0-1-.5-1-1v-15.5c0-.6.5-1 1-1h.2c.5.2.5.2 1.4 3l1.6 5.2 2.3 7.5c.1.5-.2 1-.7 1.2h-.2l-4.6.6zm1-10v8.1l2.4-.2-2.4-7.9z"/><path d="M583.4 283.6h-17.7c-.5 0-1-.5-1-1 0-.1 0-.3.1-.4l8.8-15.4c.2-.3.5-.5.8-.5s.7.2.8.5l8.9 15.3c.2.5 0 1.1-.4 1.3 0 .1-.2.2-.3.2zm-16-2h14.3l-7.2-12.4-7.1 12.4z"/><path d="M561 268.5c-.5-.1-.9-.6-.8-1.2.1-.4.4-.7.8-.8l13.6-.3c.5.1.9.7.8 1.2-.1.4-.4.7-.8.8l-13.6.3zm13.5 22.4 8.8-8.3 4.7.5-13.5 7.8z"/><path d="M574.5 291.9c-.5 0-1-.5-.9-1.1 0-.2.1-.4.3-.6l8.8-8.3c.2-.2.5-.3.8-.2l4.7.5c.5.1.9.6.8 1.2 0 .3-.2.5-.4.6l-13.6 7.8c-.2 0-.3.1-.5.1zm9.2-8.3-2.3 2.3 3.6-2.1-1.3-.2z"/><path class="st25" d="M570 289h9.6v3.2H570V289z"/><path d="M579.6 293.1H570c-.5 0-1-.5-1-1v-3.2c0-.5.5-1 1-1h9.6c.5 0 1 .5 1 1v3.2c0 .5-.3 1-.9 1.1l-.1-.1zm-8.6-1.9h7.7v-1.3H571v1.3z"/><path class="st27" d="M590.4 337.8h-31.5l7.8-42.2c.2-2 1.9-3.4 3.9-3.4h8.2c2 0 3.6 1.5 3.9 3.4l7.7 42.2z"/><path d="M590.4 338.7h-31.5c-.6 0-1-.4-1-1v-.2l7.8-42.1c.3-2.4 2.4-4.3 4.8-4.3h8.2c2.5 0 4.5 1.8 4.8 4.3l7.8 42.1c.1.5-.3 1-.8 1.1l-.1.1zm-30.3-1.9h29.1l-7.6-41c-.2-1.5-1.4-2.6-2.9-2.6h-8.2c-1.5 0-2.7 1.1-2.9 2.6l-7.5 41z"/><path d="m568.4 337.8 6.3-37.4 6.2 37.4h-12.5z"/><path d="M580.9 338.7h-12.5c-.5 0-1-.4-1-1v-.1l6.3-37.3c.1-.5.5-.8 1-.8s.9.3 1 .8l6.2 37.3c.1.5-.3 1-.8 1.1h-.2zm-11.3-1.9h10.2l-5-30.5-5.2 30.5z"/><circle cx="572.3" cy="276.4" r=".5"/><path d="M572.3 277.3c-.5-.1-1-.5-.9-1.1.1-.5.5-1 1.1-.9.5.1 1 .5.9 1.1 0 .5-.4.9-.9.9h-.2z"/><circle cx="576.7" cy="276.4" r=".5"/><path d="M576.7 277.3c-.5 0-1-.5-1-1s.5-1 1-1 1 .5 1 1-.5 1-1 1zm-2-20.4c-.5 0-1-.5-1-1v-6c.1-.5.7-.9 1.2-.8.4.1.7.4.8.8v6c-.1.5-.5 1-1 1zm17.8 9.4c-.5-.1-.9-.6-.9-1.1 0-.3.2-.5.4-.7l6.4-3.5c.4-.4 1-.5 1.4-.1.4.4.5 1 .1 1.4-.1.1-.2.2-.4.3l-.2.1-6.4 3.5c-.1.1-.2.1-.4.1zm-8-6.2c-.5 0-1-.5-.9-1.1 0-.1 0-.3.1-.4l2.3-3.8c.4-.4 1-.5 1.4-.1.3.2.4.6.3 1l-.1.1-2.3 3.8c-.2.3-.5.5-.8.5zm-26.8 6.2c-.2 0-.3 0-.5-.1l-6.5-3.5c-.5-.1-.9-.6-.8-1.1.1-.5.6-.9 1.1-.8.2 0 .3.1.4.2l.2.1 6.4 3.5c.5.3.6.9.2 1.4-.1.1-.3.2-.5.3zm8-6.2c-.3 0-.7-.2-.8-.5l-2.3-3.8c-.4-.4-.5-1-.1-1.4s1-.5 1.4-.1c.1.1.2.2.3.4l.1.1 2.3 3.8c.3.5.1 1.1-.4 1.4-.2.1-.4.1-.5.1zm32.8 29.5c-.2 0-.3 0-.5-.1l-6.4-3.5c-.4-.4-.4-1-.1-1.4.2-.3.6-.4 1-.3l6.4 3.5c.5.3.6.9.2 1.4 0 .2-.3.3-.6.4zm-12.1 6.5c-.3 0-.7-.2-.8-.5l-2.3-3.8c-.4-.4-.5-1-.1-1.4s1-.5 1.4-.1c.1.1.2.2.3.4l.1.1 2.3 3.8c.3.5.1 1.1-.4 1.4-.2.1-.3.1-.5.1zm-35.7-6.5c-.5-.1-.9-.6-.9-1.1 0-.3.2-.5.4-.7l6.4-3.5c.5-.2 1.1 0 1.3.6.1.4.1.8-.2 1l-.2.1-6.4 3.5s-.2.1-.4.1zm12.2 6.5c-.5 0-1-.5-.9-1.1 0-.1 0-.3.1-.4l2.3-3.8c.4-.4 1-.5 1.4-.1.3.2.4.6.3 1l-.1.1-2.3 3.8c-.1.3-.4.5-.8.5zm13.5-15.9h-3.8c-.5-.1-.9-.6-.8-1.2.1-.4.4-.7.8-.8h3.8c.5.1.9.7.8 1.2-.1.4-.4.7-.8.8zm24.6-3.8h-6.5c-.5-.1-.9-.6-.8-1.2.1-.4.4-.7.8-.8h6.5c.5.1.9.7.8 1.2-.2.4-.5.7-.8.8zm-46.4 0h-6.5c-.5-.1-.9-.6-.8-1.2.1-.4.4-.7.8-.8h6.5c.5.1.9.7.8 1.2-.1.4-.4.7-.8.8z"/><circle class="st25" cx="574.8" cy="293.8" r="1.9"/><path d="M574.8 296.6c-1.6 0-2.8-1.3-2.8-2.9s1.3-2.9 2.8-2.9 2.8 1.3 2.8 2.9c.1 1.6-1.2 2.9-2.8 2.9zm0-3.8c-.5 0-.9.4-.9.9s.4.9.9.9.9-.4.9-.9-.3-.9-.9-.9zm-44.9-32.1c-.5.1-1.1-.2-1.2-.8-.1-.5.2-1.1.8-1.2h.4c6.2 0 11.2-5 11.3-11.2.1-.5.7-.9 1.2-.8.4.1.7.4.8.8 0 7.3-5.9 13.2-13.2 13.2h-.1z"/><path d="M550.2 253.9c-3 0-6-.8-8.6-2.3-.4-.4-.4-1-.1-1.4.3-.3.7-.4 1-.3 7.2 4.2 16.4 1.8 20.6-5.3.4-.4 1-.4 1.4-.1.3.3.4.7.3 1.1-3 5.2-8.6 8.3-14.6 8.3zm-27.5 15.6c-.5-.1-.9-.6-.9-1.1 0-.3.2-.6.5-.7 5.5-2.8 7.7-9.5 5-15.1-.1-.5.3-1.1.8-1.2.3-.1.7.1.9.3 3.3 6.5.7 14.4-5.8 17.6-.1.1-.3.2-.5.2zm4.5 32.3c-.5 0-1-.5-.9-1 0-.2.1-.4.2-.5 5.5-6.8 4.5-16.7-2.2-22.2-.3-.4-.2-1.1.2-1.4.3-.2.7-.2 1-.1 7.5 6.2 8.6 17.3 2.4 24.9-.2.1-.4.2-.7.3zm1.5 39.5c-.5 0-1-.5-.9-1 0-.2.1-.4.2-.5 4.1-4.9 3.4-12.2-1.6-16.3-.5-.2-.7-.8-.5-1.3.2-.5.8-.7 1.3-.5.2.1.3.2.4.3 5.7 4.8 6.5 13.2 1.9 19-.2.1-.5.3-.8.3zm3 12.9c-.5 0-1-.5-.9-1.1 0-.2.1-.4.2-.6 3-3 7-4.6 11.2-4.6 4.2 0 8.2 1.6 11.1 4.5.3.4.3 1.1-.2 1.4-.3.2-.7.3-1 .1l-.1-.1c-5.4-5.4-14.2-5.4-19.6 0-.2.2-.5.3-.7.4z"/><path d="M534.4 358.9c-.5 0-.9-.3-1-.8-.6-3.1-3.7-5.1-6.8-4.5-.5 0-1-.5-1-1 0-.4.2-.7.6-.9 4.2-.8 8.2 1.9 9.1 6.1.1.5-.3 1-.8 1.1h-.1zm-6.5-79.9c-.6 0-1.2 0-1.9-.2-.5-.2-.7-.8-.5-1.3.2-.3.5-.5.8-.6 4.5.8 8.8-2.2 9.7-6.7.8-4.5-2.2-8.9-6.7-9.7-.5-.2-.7-.8-.5-1.3.2-.3.5-.5.8-.6 5.6.7 9.6 5.9 8.8 11.5-.7 5.3-5.3 9.2-10.7 8.9h.2zm-4.1 45.2c-.5-.1-.8-.7-.7-1.2.1-.3.3-.6.7-.7 5.7-.2 10.1-5 9.9-10.7-.2-5.6-4.9-10-10.5-9.9h-.6c-.5 0-.9-.4-1-.9 0-.5.4-1 .9-1 6.7-.4 12.5 4.7 12.9 11.5.4 6.7-4.7 12.5-11.5 12.9h-.1z"/><path d="M531.7 353.9c-.5 0-1-.5-.9-1.1 0-.2.1-.5.3-.6 2.6-2.1 3-5.9.9-8.5-2.1-2.6-5.9-3-8.5-.9-.5.2-1.1 0-1.3-.5-.1-.3-.1-.7.1-1 3.4-2.8 8.5-2.3 11.3 1.1 2.8 3.4 2.3 8.5-1.2 11.3-.2.1-.4.2-.7.2zm85.5-93.2c-7.3 0-13.2-5.9-13.2-13.1.1-.5.7-.9 1.2-.8.4.1.7.4.8.8.1 6.2 5.1 11.2 11.3 11.2.5.1.9.7.8 1.2-.1.4-.4.7-.8.8l-.1-.1z"/><path d="M596.9 253.9c-6 0-11.6-3.2-14.7-8.4-.2-.5.1-1.1.6-1.3.4-.1.8 0 1 .3 4.2 7.2 13.5 9.5 20.7 5.3.5-.2 1.1.1 1.3.6.1.4 0 .8-.3 1.1-2.6 1.5-5.5 2.3-8.6 2.4zm27.5 15.6h-.4c-6.5-3.3-9.1-11.2-5.8-17.7.4-.4 1-.4 1.4-.1.2.2.4.6.3.9-2.7 5.5-.5 12.2 5 15.1.5.3.6.9.3 1.4-.2.2-.5.4-.8.4zm-4.5 32.3c-.3 0-.6-.1-.8-.4-6.2-7.6-5.1-18.7 2.4-24.9.3-.5.9-.6 1.4-.2.5.3.6.9.2 1.4-.1.2-.3.3-.4.3-6.8 5.5-7.8 15.5-2.3 22.2.3.5.2 1.1-.2 1.4-.2.1-.3.2-.5.2h.2zm-1.5 39.5c-.3 0-.6-.1-.8-.4a13.5 13.5 0 0 1 1.9-19c.3-.5.9-.6 1.4-.2.5.3.6.9.2 1.4-.1.2-.3.3-.4.3-4.9 4-5.7 11.3-1.6 16.3.3.5.2 1.1-.2 1.4-.2.1-.4.2-.5.2zm-3 12.9c-.3 0-.5-.1-.7-.3-5.4-5.4-14.2-5.4-19.6 0-.5.3-1.1.1-1.4-.3-.2-.3-.2-.7 0-1 3-2.9 7-4.6 11.1-4.5 4.2 0 8.2 1.7 11.2 4.6.4.4.3 1-.1 1.4-.1.1-.3.1-.5.1z"/><path d="M612.7 358.9h-.2c-.5-.1-.8-.6-.8-1.1.8-4.2 4.9-6.9 9.1-6.1.5.2.8.8.6 1.3-.1.4-.5.6-.8.6h-.2c-3.1-.6-6.2 1.4-6.8 4.5-.1.5-.5.8-.9.8zm6.5-79.9c-5.7.1-10.3-4.5-10.4-10.1-.1-5.1 3.6-9.4 8.6-10.2.5 0 1 .5.9 1.1 0 .4-.2.7-.6.8-4.5.8-7.5 5.2-6.7 9.7.8 4.5 5.2 7.5 9.7 6.7.5-.2 1.1 0 1.3.5.2.5 0 1.1-.5 1.3-.2.1-.3.1-.5.1-.5 0-1.2.1-1.8.1zm4.1 45.2c-6.7-.4-11.9-6.2-11.5-12.9.4-6.7 6.2-11.9 12.9-11.5.5.2.8.8.6 1.3-.1.3-.4.6-.7.6-5.7-.1-10.4 4.4-10.5 10-.1 5.4 3.9 9.9 9.3 10.5.5.1.8.7.7 1.2-.1.3-.3.6-.7.7l-.1.1z"/><path d="M615.4 353.9c-.2 0-.4-.1-.6-.2-3.5-2.8-4-7.8-1.3-11.3 2.8-3.5 7.8-4 11.3-1.3l.1.1c.3.5.2 1.1-.2 1.4-.3.2-.7.2-1 .1-2.6-2.1-6.4-1.7-8.5.9-2.1 2.6-1.7 6.4.9 8.5.4.4.4 1 0 1.4-.2.3-.5.4-.7.4zM539 342.8c-2.2 0-4-1.8-4-4s1.8-4 4-4 4 1.8 4 4-1.8 4-4 4zm0-6c-1.1 0-2 .9-2 2s.9 2 2 2 2-.9 2-2-.9-2-2-2z"/><circle cx="605.4" cy="261.9" r="1.6"/><path d="M609.9 286.3c-1.7 0-3-1.3-3-3s1.3-3 3-3 3 1.3 3 3-1.4 3-3 3zm0-4c-.5 0-1 .5-1 1s.5 1 1 1 1-.5 1-1-.5-1-1-1zm-69.6-17.2c-1.8 0-3.2-1.4-3.2-3.2s1.4-3.2 3.2-3.2 3.2 1.4 3.2 3.2-1.4 3.2-3.2 3.2zm0-4.5c0-.7.6-1.2 1.2-1.1.7 0 1.2.6 1.2 1.2 0 .7-.6 1.2-1.2 1.1-.7 0-1.2-.5-1.2-1.2zm65.1 82.6c-3 0-5.4-2.4-5.4-5.4s2.4-5.4 5.4-5.4 5.4 2.4 5.4 5.4-2.4 5.4-5.4 5.4zm0-8.9c-1.9 0-3.4 1.6-3.4 3.5 0 1.8 1.5 3.3 3.4 3.4 1.9 0 3.4-1.6 3.4-3.5-.1-1.8-1.6-3.3-3.4-3.4z"/><path class="st19" d="M146.9 345.2c-5.3-3.9-13.9-6.4-15.9-23-2.3-19.3 16.2-35.8 5.9-41.2 5.8-.8 11.6 4.2 11.3 9.5-.3 1.4-.5 2.9-.5 4.4.2 1.6 1.5 2.8 3.1 2.8 1.1-.2 2.1-1 2.6-2.1 2.3-4.2.7-9.2-1.4-13.4s-4.9-8.4-4.9-13.1c0-5.7 4-10.7 6.5-15.9s2.9-12.5-2.4-15.6c5.2-.2 9.9 3.3 11.3 8.4.7 3.4.4 6.9-1 10.1-.5 1.7.5 3.4 2.2 3.9 1 .3 2 .1 2.8-.6 1.7-1.6 2.8-3.8 3.2-6.1 1.7-8.1-.6-12.8-.6-21s3.4-17.6 11.8-20.5c-4.8 6.5-3 15.3.2 22.6s7.7 10.7 7.9 18.6c.3 9.4-5.6 18.1-7.6 27.3-.4 1.6 0 3.3 1.1 4.5 3 3.1 8-.1 8.9-3.7.9-3.6-.1-6.8.6-10.2 1.4-5 5.8-8.6 11-8.9-3.8 2.7-3.9 8-2.3 12.1s4.3 7.9 5.2 12.2c1.9 8.8-4.3 17.1-10.4 24.1-1.4 1.4-2.5 3.1-3.3 5-.7 1.9-.1 4.1 1.5 5.4 2.4 1.3 5.4.9 7.3-1.1 1.6-2 2.7-4.3 3.1-6.8 5 6 4.3 14.8 0 21.2s-11.5 10.8-19 14c-6.3 2.9-13.1 4.5-20 4.7-6.7.1-13.3-2.6-18.2-7.6"/><path class="st8" d="M149 310.6c-1.7 2.7.6 6.5 3.9 7.3 3.4.6 6.9-.5 9.2-3 2.4-2.5 3.7-5.8 3.5-9.3-.4-5.2-4.4-9.8-4.1-15 .2-3.5 2.4-6.8 4.2-9.9s3.3-6.8 2.1-10.2c4.4 5.5 5.9 12.7 4.1 19.5-.5 1.3-.7 2.7-.6 4.1.9 2.6 3.6 4.2 6.4 3.7 2.7-.5 5.1-2 6.5-4.3 1.5 2.9 1.6 6.3.2 9.2-1.7 3.7-6.2 6.3-6.8 10.3-.9 6 1.2 14.1 15.1 12.7 1 .8-1.8 10.1-11.3 14.6-4.8 2.3-15.5 2-21 1.8-6.7-.2-14.7-3.3-16.6-9.5-2.6-7.6-.6-16.2 5.2-22z"/><path class="st19" d="M216.6 261.8c-.5 2.5-2 4.7-1.9 7.2.3 2.4 1.3 4.6 2.9 6.3-2.1-1.2-4.5-1.9-6.5-3.3-3.3-2.3-4.4-6.7-2.7-10.3.6-1.2 1.5-2.3 2-3.5 1-2.6.1-5.4-2.1-7.1.7.5 2.7.3 3.7.9 1.1.7 2.1 1.6 2.8 2.6 1.6 2 2.3 4.6 1.8 7.2z"/><circle class="st5" cx="167.4" cy="392.9" r="40"/><path d="M167.4 434.4c-22.9 0-41.5-18.5-41.5-41.4s18.5-41.5 41.4-41.5 41.5 18.5 41.5 41.4c.1 22.8-18.5 41.4-41.4 41.5zm0-80.1c-21.3 0-38.6 17.3-38.6 38.6s17.3 38.6 38.6 38.6 38.6-17.3 38.6-38.6-17.3-38.6-38.6-38.6z"/><circle class="st3" cx="167.4" cy="392.9" r="25"/><path d="M167.4 419.3c-14.6 0-26.4-11.8-26.4-26.4 0-14.6 11.8-26.4 26.4-26.4s26.4 11.8 26.4 26.4c0 14.6-11.8 26.4-26.4 26.4zm0-50c-13 0-23.5 10.5-23.5 23.5s10.5 23.5 23.5 23.5 23.5-10.5 23.5-23.5c.1-12.9-10.5-23.5-23.5-23.5z"/><path class="st13" d="M162.8 373.7h9.4v33.4h-9.4v-33.4z"/><path d="M172.1 408.5h-9.4c-.8 0-1.4-.6-1.4-1.4v-33.5c0-.8.6-1.4 1.4-1.4h9.4c.8 0 1.4.6 1.4 1.4V407c.1.8-.5 1.5-1.3 1.5h-.1zm-7.9-2.8h6.5v-30.5h-6.5v30.5z"/><path class="st13" d="M162.6 374.2c1.6.1 3.2.2 4.9.2 1.4 0 2.9 0 4.3-.2v32.9c6 0 10.9-4.9 11-10.9v-24.1c18.1-5.6 31.1-20.8 31.1-38.8H121c0 17.8 12.7 32.9 30.6 38.5v24.4c0 6.1 4.9 11 11 11v-33z"/><path d="m151.6 373 10.8 1.5h-10.8V373zm31 1.4v-2.9l-10.8 2.9"/><path d="M171.8 408.5c-.8 0-1.4-.6-1.4-1.4v-31.3c-2.1.1-4.2.1-6.3 0v31.4c0 .8-.6 1.4-1.4 1.4-6.9 0-12.4-5.6-12.4-12.4V373c-18.3-6.2-30.6-22-30.6-39.6 0-.8.6-1.4 1.4-1.4h92.8c.8 0 1.4.6 1.4 1.4 0 17.8-12.4 33.6-31.1 39.8v23c0 6.8-5.6 12.4-12.4 12.3zm0-35.7c.8 0 1.4.6 1.4 1.4v31.3c4.6-.7 8.1-4.6 8.1-9.3v-24.1c0-.6.4-1.2 1-1.4 17.5-5.4 29.4-19.7 30-36h-89.8c.7 16 12.4 30.3 29.4 35.8.6.2 1 .7 1 1.4v24.3c0 4.7 3.4 8.7 8.1 9.4v-31.4c0-.8.6-1.4 1.4-1.4h.1c1.6.1 3.2.2 4.7.2 1.4 0 2.8 0 4.2-.2h.4z"/><path d="M162.4 375.9h-10.8c-.8 0-1.4-.6-1.4-1.4V372c0-.8.6-1.4 1.4-1.4h.3l10.8 2.5c.8.2 1.3.9 1.1 1.7-.1.6-.7 1.1-1.4 1.1zm20.2 0h-10.8c-.8 0-1.4-.6-1.4-1.4 0-.7.5-1.3 1.1-1.4l11-2.3c.8-.2 1.5.3 1.7 1.1v.4l-.2 2.3c0 .7-.7 1.3-1.4 1.3z"/><path d="M163.1 361.8c1.4 0 2.9.2 4.3.2s2.9 0 4.3-.2c16.4-1 30.7-7.6 39.9-17.5-6 17.5-23.5 30.1-44.2 30.1s-38.3-12.7-44.2-30.1c9.2 9.8 23.5 16.4 39.9 17.5z"/><path d="M167.4 375.9c-20.9 0-39.3-12.5-45.6-31.1-.3-.7.1-1.6.9-1.8.5-.2 1.2 0 1.5.4 9.2 9.9 23.4 16.1 39 17 2.8.2 5.6.2 8.4 0 15.6-1 29.8-7.1 39-17 .5-.6 1.4-.6 2-.1.4.4.6 1 .4 1.5-6.4 18.6-24.6 31.1-45.6 31.1zM127.2 350c13 22.2 41.6 29.6 63.8 16.6 6.8-4 12.5-9.7 16.6-16.6-10.3 8-22.8 12.6-35.8 13.2-1.6.1-3 .2-4.4.2-1.5 0-2.9 0-4.4-.2-13-.6-25.5-5.2-35.8-13.2z"/><path d="M167.4 359.3c-12.3 0-22-10.4-22.4-10.9-.5-.5-.5-1.4 0-2 .4-.5 10.1-10.9 22.4-10.9s22 10.4 22.4 10.9c.5.5.5 1.4 0 2-.4.5-10.1 10.9-22.4 10.9zm-19.3-11.8c2.6 2.5 10.4 9.1 19.3 9.1s16.7-6.5 19.3-9.1c-2.6-2.5-10.4-9.1-19.3-9.1s-16.6 6.6-19.3 9.1z"/><path d="M167.4 356.9c-5.2 0-9.4-4.2-9.4-9.4s4.2-9.4 9.4-9.4 9.4 4.2 9.4 9.4-4.2 9.4-9.4 9.4zm0-16c-3.6 0-6.5 2.9-6.5 6.5s2.9 6.5 6.5 6.5 6.5-2.9 6.5-6.5c0-3.5-2.9-6.4-6.5-6.5z"/><path class="st19" d="M826.7 345.2c-5.3-3.9-14-6.4-15.8-23-2.3-19.3 16.2-35.8 5.9-41.2 5.8-.8 11.6 4.2 11.3 9.5-.3 1.4-.4 2.9-.4 4.4.2 1.6 1.5 2.8 3.1 2.8 1.2-.2 2.1-1 2.6-2.1 2.3-4.2.7-9.2-1.5-13.4s-4.9-8.4-4.9-13.1c0-5.7 4-10.7 6.5-15.9s2.9-12.5-2.4-15.6c5.2-.2 9.9 3.3 11.3 8.4.7 3.4.4 6.9-1 10.1-.5 1.7.5 3.4 2.2 3.9 1 .3 2 .1 2.8-.6 1.7-1.6 2.8-3.8 3.2-6.1 1.7-8.1-.6-12.8-.6-21s3.4-17.6 11.8-20.5c-4.8 6.5-3 15.3.2 22.6s7.7 10.7 8 18.6c.3 9.4-5.5 18.1-7.6 27.3-.4 1.6 0 3.3 1.1 4.5 3 3.1 8-.1 8.9-3.7s-.1-6.8.6-10.2c1.4-5 5.8-8.6 11-8.9-3.8 2.7-3.9 8-2.3 12.1s4.3 7.9 5.2 12.2c1.9 8.8-4.3 17.1-10.3 24.1-1.4 1.4-2.5 3.1-3.3 5-.7 1.9-.1 4.1 1.5 5.4 2.4 1.3 5.4.8 7.3-1.2 1.6-2 2.7-4.3 3.1-6.8 5 6 4.3 14.8 0 21.2s-11.5 10.8-19 14c-6.3 2.9-13.1 4.5-20 4.7-6.9.2-13.6-2.5-18.4-7.5"/><path class="st8" d="M828.8 310.6c-1.7 2.7.6 6.5 3.9 7.3 3.4.6 6.9-.5 9.2-3 2.5-2.4 3.7-5.8 3.5-9.3-.4-5.2-4.4-9.8-4-15 .2-3.5 2.4-6.8 4.2-9.9s3.3-6.8 2.1-10.2c4.4 5.5 5.9 12.7 4.1 19.5-.5 1.3-.7 2.7-.6 4.1.9 2.6 3.6 4.2 6.4 3.7 2.7-.5 5.1-2 6.5-4.3 1.5 2.9 1.6 6.3.2 9.2-1.7 3.7-6.2 6.3-6.8 10.3-.9 6 1.2 14.1 15.1 12.7 1 .8-1.8 10.1-11.3 14.6-4.8 2.3-15.5 2-21 1.8-6.7-.2-14.7-3.3-16.6-9.5-2.6-7.6-.6-16.2 5.1-22z"/><path class="st19" d="M896.4 261.8c-.5 2.5-2 4.7-1.9 7.2.3 2.4 1.3 4.6 2.9 6.3-2.1-1.2-4.5-1.9-6.5-3.3-3.3-2.3-4.4-6.7-2.7-10.3.6-1.2 1.5-2.3 2-3.5 1-2.5.2-5.4-2-7.1.7.5 2.7.3 3.7.9 1.1.7 2.1 1.6 2.8 2.6 1.6 2 2.2 4.6 1.7 7.2z"/><circle class="st5" cx="847.3" cy="392.9" r="40"/><path d="M847.3 434.4c-22.9 0-41.5-18.6-41.5-41.5s18.6-41.5 41.5-41.5 41.5 18.6 41.5 41.5-18.6 41.5-41.5 41.5zm0-80.1c-21.3-.1-38.7 17.2-38.8 38.5s17.2 38.7 38.5 38.8 38.7-17.1 38.8-38.5v-.1c-.1-21.4-17.2-38.6-38.5-38.7z"/><circle class="st3" cx="847.3" cy="392.9" r="25"/><path d="M847.3 419.3c-14.6 0-26.4-11.8-26.4-26.4 0-14.6 11.8-26.4 26.4-26.4 14.6 0 26.4 11.8 26.4 26.4 0 14.6-11.8 26.4-26.4 26.4zm0-50c-13 0-23.5 10.5-23.5 23.5s10.5 23.5 23.5 23.5 23.5-10.5 23.5-23.5c0-12.9-10.5-23.5-23.5-23.5z"/><path class="st13" d="M842.6 373.7h9.3v33.4h-9.3v-33.4z"/><path d="M851.9 408.5h-9.3c-.8 0-1.4-.6-1.4-1.4v-33.5c0-.8.6-1.4 1.4-1.4h9.3c.8 0 1.4.6 1.4 1.4V407c.1.8-.5 1.5-1.3 1.5h-.1zm-7.9-2.8h6.5v-30.5H844v30.5z"/><path class="st13" d="M842.4 374.2c1.6.1 3.2.2 4.9.2 1.4 0 2.9 0 4.3-.2v32.9c6.1 0 11-4.9 11-11v-24c18.1-5.6 31.1-20.8 31.1-38.8h-92.8c0 17.8 12.7 32.9 30.6 38.5v24.4c0 6.1 4.9 11 11 11v-33z"/><path d="m831.4 373 10.8 1.5h-10.8V373zm31 1.4v-2.9l-10.8 2.9"/><path d="M851.6 408.5c-.8 0-1.4-.6-1.4-1.4v-31.3c-2.1.1-4.2.1-6.3 0v31.4c0 .8-.6 1.4-1.4 1.4-6.9 0-12.4-5.6-12.4-12.4V373c-18.3-6.3-30.6-22.1-30.6-39.6 0-.8.6-1.4 1.4-1.4h92.8c.8 0 1.4.6 1.4 1.4 0 17.8-12.5 33.6-31.1 39.8v23c0 6.8-5.6 12.3-12.4 12.3zm0-35.7c.8 0 1.4.6 1.4 1.4v31.3c4.7-.7 8.1-4.7 8.1-9.4v-24c0-.6.4-1.2 1-1.4 17.5-5.4 29.4-19.7 30-36h-89.8c.7 16 12.4 30.3 29.4 35.8.6.2 1 .7 1 1.4v24.3c0 4.7 3.4 8.7 8.1 9.4v-31.4c0-.8.6-1.4 1.4-1.4h.1c1.6.1 3.2.2 4.7.2 1.4 0 2.8 0 4.2-.2h.4z"/><path d="M842.2 375.9h-10.8c-.8 0-1.4-.6-1.4-1.4V372c0-.8.6-1.4 1.4-1.4h.3l10.8 2.5c.8.2 1.3.9 1.1 1.7-.1.6-.7 1.1-1.4 1.1zm20.2 0h-10.8c-.8 0-1.4-.6-1.4-1.4 0-.7.5-1.3 1.1-1.4l11-2.3c.8-.2 1.5.3 1.7 1.1v.4l-.2 2.3c0 .7-.7 1.3-1.4 1.3z"/><path d="M843 361.8c1.4 0 2.8.2 4.3.2 1.4 0 2.9 0 4.3-.2 16.4-1 30.7-7.6 39.9-17.5-6 17.5-23.5 30.1-44.2 30.1S809 361.8 803 344.3c9.2 9.8 23.6 16.5 40 17.5z"/><path d="M847.3 375.9c-20.9 0-39.3-12.5-45.6-31.1-.3-.7.1-1.6.9-1.8.5-.2 1.2 0 1.5.4 9.2 9.9 23.4 16.1 39 17 2.8.2 5.6.2 8.4 0 15.6-1 29.8-7.1 39-17 .5-.6 1.4-.6 2-.1.4.4.6 1 .4 1.5-6.4 18.6-24.7 31.1-45.6 31.1zM807.1 350c13 22.2 41.6 29.6 63.8 16.6 6.8-4 12.5-9.7 16.6-16.6-10.3 8-22.8 12.6-35.8 13.2-1.6.1-3 .2-4.4.2-1.5 0-2.9 0-4.4-.2-13-.6-25.5-5.2-35.8-13.2z"/><path d="M847.3 359.3c-12.3 0-22-10.4-22.4-10.9-.5-.5-.5-1.4 0-2 .4-.5 10.1-10.9 22.4-10.9s22 10.4 22.4 10.9c.5.5.5 1.4 0 2-.4.5-10.2 10.9-22.4 10.9zM828 347.5c2.7 2.5 10.4 9.1 19.3 9.1s16.7-6.5 19.3-9.1c-2.7-2.5-10.4-9.1-19.3-9.1s-16.7 6.6-19.3 9.1z"/><path d="M847.3 356.9c-5.2 0-9.4-4.2-9.4-9.4s4.2-9.4 9.4-9.4 9.4 4.2 9.4 9.4-4.2 9.4-9.4 9.4zm0-16c-3.6 0-6.5 2.9-6.5 6.5s2.9 6.5 6.5 6.5 6.5-2.9 6.5-6.5-2.9-6.5-6.5-6.5z"/><path d="M508.4 119.7c36.9 0 73.5 6.4 108.1 18.9l38.3-111.8C560.1-6.9 456.7-6.9 362 26.8l38.2 111.8c34.8-12.5 71.4-18.9 108.2-18.9z" style="fill:#9fb3ff"/><path d="M616.5 140h-.5c-34.5-12.5-70.9-18.9-107.6-18.8-36.7-.1-73.1 6.3-107.6 18.8-.8.3-1.6-.1-1.9-.9l-38.4-112c-.2-.8.1-1.6.9-1.8 95-33.8 198.8-33.8 293.8 0 .7.3 1.1 1.1.9 1.8L617.8 139c-.2.6-.7 1-1.3 1zM363.9 27.7l37.3 109c69.4-24.7 145.1-24.7 214.5 0l37.3-109c-93.6-32.9-195.6-32.9-289.1 0z"/><path class="st5" d="M379.2 35.3c84-26.9 174.4-26.9 258.4 0l-29.4 86.1a332.49 332.49 0 0 0-199.4 0l-29.6-86.1z"/><path d="M608.1 122.9h-.4c-64.6-20.3-133.9-20.3-198.5 0-.8.2-1.5-.2-1.8-.9L378 35.9c-.2-.8.2-1.6.9-1.8 84.3-27 174.9-27 259.3 0 .8.2 1.2 1.1.9 1.8L609.6 122c-.3.6-.9.9-1.5.9zm-227-86.6 28.6 83.4c64.3-19.9 133.2-19.9 197.6 0l28.5-83.4C552.9 10 464 10 381.1 36.3z"/><path class="st29" d="m488.1 66.4 25.2-35.2v21.5h15.4L503.5 88l.2-21.6h-15.6z"/><path d="M503.5 89.4c-.8 0-1.5-.7-1.5-1.4l.2-20.1H488c-.8 0-1.4-.7-1.4-1.5 0-.3.1-.6.2-.8l25.3-35.3c.5-.7 1.4-.8 2-.3.4.3.6.7.6 1.2v20.1h14c.8 0 1.4.7 1.4 1.5 0 .3-.1.5-.2.8l-25.3 35.3c-.2.3-.6.5-1.1.5zM490.9 65h12.9c.8 0 1.5.7 1.5 1.4l-.2 17L526 54.2h-12.6c-.8 0-1.5-.7-1.5-1.5v-17l-21 29.3z"/><path class="st29" d="m550.9 74.7 25.2-35.3V61h15.4l-25.2 35.2.2-21.5h-15.6z"/><path d="M566.3 97.7c-.8 0-1.5-.7-1.5-1.4l.2-20.1h-14.2c-.8 0-1.4-.7-1.4-1.5 0-.3.1-.6.2-.8L575 38.5c.5-.7 1.4-.8 2-.3.4.3.6.7.6 1.2v20.1h13.9c.8 0 1.4.7 1.4 1.5 0 .3-.1.5-.2.8l-25.1 35.4c-.4.3-.8.5-1.3.5zm-12.6-24.5h12.8c.8 0 1.5.7 1.5 1.4l-.2 17 20.9-29.2h-12.6c-.8 0-1.5-.7-1.5-1.5v-17c.1 0-20.9 29.3-20.9 29.3z"/><path class="st29" d="m425.3 74.7 25.2-35.3V61h15.4l-25.2 35.2.2-21.5h-15.6z"/><path d="M440.7 97.7c-.8 0-1.5-.7-1.5-1.4l.2-20.1h-14.2c-.8 0-1.4-.7-1.4-1.5 0-.3.1-.6.2-.8l25.2-35.3c.5-.7 1.4-.8 2-.3.4.3.6.7.6 1.2v20.1h14c.8 0 1.4.7 1.4 1.5 0 .3-.1.5-.2.8l-25.2 35.4c-.2.2-.6.4-1.1.4zm-12.6-24.5H441c.8 0 1.5.7 1.5 1.4l-.2 17 20.9-29.2h-12.6c-.8 0-1.5-.7-1.5-1.5v-17l-21 29.3z"/></g></g></g></g></svg>