<?xml version="1.0" encoding="utf-8"?>
<!-- Generator: Adobe Illustrator 24.0.2, SVG Export Plug-In . SVG Version: 6.00 Build 0)  -->
<svg version="1.1" id="Capa_1" xmlns="http://www.w3.org/2000/svg" xmlns:xlink="http://www.w3.org/1999/xlink" x="0px" y="0px"
	 viewBox="0 0 996 312" style="enable-background:new 0 0 996 312;" xml:space="preserve">
<style type="text/css">
	.st0{fill:#FFA429;}
	.st1{fill:none;stroke:#000000;stroke-width:4;stroke-linecap:round;stroke-linejoin:round;stroke-miterlimit:10;}
	.st2{fill:#27A6FD;}
	.st3{fill:#FFFFFF;}
	.st4{fill:#DF64F8;}
	.st5{fill:#7ED9F7;}
	.st6{fill:#FFFFFF;stroke:#000000;stroke-width:4;stroke-linecap:round;stroke-linejoin:round;stroke-miterlimit:10;}
	.st7{fill:#5356FD;}
	.st8{stroke:#000000;stroke-width:4;stroke-linecap:round;stroke-linejoin:round;stroke-miterlimit:10;}
	.st9{fill:#A8F3F7;}
	.st10{stroke:#000000;stroke-linecap:round;stroke-linejoin:round;stroke-miterlimit:10;}
	.st11{fill:#EB5640;}
	.st12{stroke:#000000;stroke-miterlimit:10;}
</style>
<title>FALSO_VERDADERO0</title>
<g id="Capa_2_1_">
</g>
<g>
	<g>
		<path class="st0" d="M906.7,236.5H89.2C41.1,236.5,2,197.4,2,149.2v0C2,101.1,41.1,62,89.2,62h817.5c48.2,0,87.2,39.1,87.2,87.3v0
			C994,197.4,954.9,236.5,906.7,236.5z"/>
		<path class="st1" d="M12,149.3v-0.1C12,106.6,46.6,72,89.2,72h817.6c42.6,0,77.2,34.6,77.2,77.2v0.1c0,42.6-34.6,77.2-77.2,77.2
			H89.2C46.6,226.5,12,191.9,12,149.3z"/>
		<path class="st1" d="M907,236.5H89c-48,0-87-39-87-87V149c0-48,39-87,87-87h818c48,0,87,39,87,87v0.5
			C994,197.5,955,236.5,907,236.5z"/>
		<path class="st2" d="M498,226.5h408.8c42.6,0,77.2-34.6,77.2-77.2v-0.1c0-42.6-34.6-77.2-77.2-77.2H498V226.5z"/>
		<g>
			<path class="st3" d="M796.8,154.9c0,1.7-0.3,3.4-1,5.1s-1.6,3.3-2.9,4.7c-1.3,1.4-3,2.6-5,3.5c-2,0.9-4.4,1.3-7.1,1.3
				c-3.6,0-6.7-0.8-9.3-2.4s-4.5-3.9-5.9-6.7c-1.4-2.9-2-6.2-2-9.9s0.7-7.1,2-9.9c1.4-2.9,3.3-5.1,5.9-6.7c2.6-1.6,5.7-2.4,9.3-2.4
				c3,0,5.6,0.5,7.7,1.5c2.1,1,3.8,2.4,5.1,4c1.3,1.6,2.2,3.4,2.7,5.3c0.3,1.3,0.5,2.5,0.5,3.7h-10.1c0-0.5,0-1-0.1-1.4
				c-0.1-1.1-0.5-2-1-2.8c-0.5-0.8-1.2-1.4-2-1.9c-0.8-0.4-1.8-0.7-2.8-0.7c-1.3,0-2.5,0.4-3.5,1.2s-1.9,2-2.5,3.6
				c-0.6,1.6-0.9,3.8-0.9,6.5c0,2.7,0.3,4.8,0.9,6.5c0.6,1.7,1.5,2.9,2.5,3.7s2.2,1.2,3.5,1.2c0.9,0,1.8-0.2,2.5-0.5
				c0.7-0.3,1.3-0.8,1.8-1.4c0.5-0.6,0.9-1.3,1.2-2.2c0.3-0.8,0.4-1.7,0.4-2.7H796.8z"/>
			<path class="st3" d="M801.2,168.8v-36.9h10v36.9H801.2z"/>
			<path class="st3" d="M822.1,139.4l4.5-4.5v14.4l-2.3-2.7h13.3v7.5h-13.3l2.3-2.7v14.5l-4.5-4.5h18.3v7.5h-23.9v-36.9h23.9v7.5
				H822.1z"/>
			<path class="st3" d="M845.9,168.8v-36.9h16.4c4.2,0,7.3,0.9,9.3,2.8c2,1.9,3,4.4,3,7.8c0,1.9-0.4,3.5-1.1,4.8
				c-0.7,1.3-1.6,2.3-2.7,3c-1.1,0.7-2.1,1.1-3.2,1.2c1.1,0.1,2.1,0.3,3,0.8c0.9,0.4,1.7,1.2,2.3,2.2c0.6,1,0.9,2.3,0.9,4
				c0,1.1,0,2.1,0,3.1s0,2,0,3c0,0.9,0.1,1.7,0.2,2.5s0.4,1.4,0.7,1.7h-10.1c-0.3-0.4-0.5-1-0.6-1.8s-0.2-1.6-0.2-2.5
				c0-0.9,0-1.7,0-2.5c0-0.7,0-1.6,0-2.5c0-1.3-0.3-2.4-0.9-3.2c-0.6-0.8-1.6-1.2-3.1-1.2h-6.7l2.6-3.1v16.6H845.9z M855.8,151.3
				l-2.6-3.5h6.8c0.8,0,1.6-0.2,2.2-0.5c0.6-0.4,1.1-0.9,1.5-1.5c0.4-0.7,0.5-1.4,0.5-2.3c0-1.1-0.4-2-1.2-2.8
				c-0.8-0.8-1.8-1.2-3.2-1.2h-7l2.9-3V151.3z"/>
			<path class="st3" d="M904.5,139.4h-13.2l4.6-4.5v33.9h-10.1v-33.9l4.5,4.5h-13.2v-7.5h27.3V139.4z"/>
			<path class="st3" d="M923.6,169.4c-2.4,0-4.6-0.4-6.8-1.2c-2.1-0.8-4-2-5.7-3.6c-1.7-1.6-3-3.6-3.9-6c-1-2.4-1.4-5.1-1.4-8.3
				c0-3.1,0.5-5.9,1.4-8.3c0.9-2.4,2.2-4.4,3.9-5.9c1.6-1.6,3.5-2.8,5.7-3.6c2.1-0.8,4.4-1.2,6.8-1.2c2.4,0,4.7,0.4,6.8,1.2
				c2.2,0.8,4,2,5.7,3.6c1.6,1.6,2.9,3.6,3.9,5.9c0.9,2.4,1.4,5.1,1.4,8.3c0,3.1-0.5,5.9-1.4,8.3c-1,2.4-2.3,4.4-3.9,6
				c-1.7,1.6-3.6,2.8-5.7,3.6S926,169.4,923.6,169.4z M923.6,161.6c1.2,0,2.4-0.3,3.6-1c1.2-0.7,2.1-1.8,2.8-3.5
				c0.7-1.6,1.1-3.9,1.1-6.8c0-2.9-0.4-5.2-1.1-6.8s-1.7-2.8-2.8-3.4c-1.2-0.7-2.3-1-3.6-1c-1.2,0-2.4,0.3-3.6,1
				c-1.2,0.7-2.1,1.8-2.9,3.4s-1.1,3.9-1.1,6.8c0,2.9,0.4,5.2,1.1,6.8c0.8,1.6,1.7,2.8,2.9,3.5C921.2,161.3,922.4,161.6,923.6,161.6
				z"/>
		</g>
		<g>
			<path class="st4" d="M498,72H89.2C46.6,72,12,106.6,12,149.2v0.1c0,42.6,34.6,77.2,77.2,77.2H498V72z"/>
		</g>
		<g>
			<path class="st3" d="M74.1,139.4l4.5-4.5v14.6l-3.1-2.4h15.2v7.5H75.5l3.1-2.6v16.7h-10v-36.9H93v7.5H74.1z"/>
			<path class="st3" d="M93,168.8l8.6-36.9h16l8.5,36.9h-10.3l-6.2-30.9h0l-6.3,30.9H93z M100.5,161v-7.6h18.2v7.6H100.5z"/>
			<path class="st3" d="M129.8,168.8v-36.9h10.1v33.9l-4.6-5h17.7v8H129.8z"/>
			<path class="st3" d="M170.8,169.4c-2.7,0-5.2-0.4-7.4-1.3s-3.9-2.2-5.1-3.9c-1.3-1.7-1.9-3.9-1.9-6.4c0-0.2,0-0.4,0-0.6
				s0-0.4,0-0.7h10.1c0,0.2,0,0.4,0,0.6c0,0.2,0,0.4,0,0.5c0,1.2,0.4,2.1,1.1,2.9s1.8,1.2,3.3,1.2c1.4,0,2.6-0.2,3.4-0.6
				c0.8-0.4,1.2-1.1,1.2-2.1c0-0.7-0.4-1.4-1.2-2c-0.8-0.6-1.8-1.2-3.1-1.8c-1.3-0.5-2.8-1.1-4.4-1.6c-1.7-0.6-3.4-1.3-4.9-2.2
				c-1.6-0.9-2.8-2.1-3.8-3.6c-1-1.5-1.5-3.3-1.5-5.6c0-2.3,0.6-4.2,1.9-5.9s3-2.9,5.1-3.7c2.1-0.9,4.5-1.3,7.1-1.3
				c2.7,0,5.1,0.4,7.3,1.3c2.1,0.9,3.8,2.1,5.1,3.8s1.9,3.7,1.9,6.1c0,0.2,0,0.4,0,0.6c0,0.2,0,0.4,0,0.6H175c0-0.1,0-0.2,0-0.4
				c0-0.2,0-0.3,0-0.4c0-1.1-0.3-2-0.9-2.8c-0.6-0.8-1.7-1.1-3.1-1.1c-1.5,0-2.6,0.3-3.4,0.8c-0.8,0.5-1.2,1.3-1.2,2.3
				c0,0.7,0.3,1.3,1,1.9s1.6,1,2.8,1.5c1.2,0.5,2.5,1,4,1.5c2.2,0.8,4.2,1.6,5.9,2.6c1.7,0.9,3,2.1,3.9,3.5c0.9,1.4,1.4,3.2,1.4,5.5
				c0,2.3-0.6,4.3-1.9,5.9c-1.3,1.6-3,2.8-5.2,3.7C176.1,169,173.6,169.4,170.8,169.4z"/>
			<path class="st3" d="M206.7,169.4c-2.4,0-4.6-0.4-6.8-1.2c-2.1-0.8-4-2-5.7-3.6c-1.7-1.6-3-3.6-3.9-6c-0.9-2.4-1.4-5.1-1.4-8.3
				c0-3.1,0.5-5.9,1.4-8.3c0.9-2.4,2.2-4.4,3.9-5.9c1.6-1.6,3.5-2.8,5.7-3.6c2.1-0.8,4.4-1.2,6.8-1.2s4.7,0.4,6.9,1.2
				c2.1,0.8,4,2,5.7,3.6c1.6,1.6,2.9,3.6,3.9,5.9c0.9,2.4,1.4,5.1,1.4,8.3c0,3.1-0.5,5.9-1.4,8.3c-0.9,2.4-2.3,4.4-3.9,6
				c-1.7,1.6-3.6,2.8-5.7,3.6S209,169.4,206.7,169.4z M206.7,161.6c1.2,0,2.4-0.3,3.6-1c1.2-0.7,2.1-1.8,2.8-3.5s1.1-3.9,1.1-6.8
				c0-2.9-0.4-5.2-1.1-6.8s-1.7-2.8-2.9-3.4c-1.1-0.7-2.3-1-3.6-1c-1.2,0-2.4,0.3-3.6,1c-1.2,0.7-2.1,1.8-2.9,3.4s-1.1,3.9-1.1,6.8
				c0,2.9,0.4,5.2,1.1,6.8c0.8,1.6,1.7,2.8,2.9,3.5C204.2,161.3,205.4,161.6,206.7,161.6z"/>
		</g>
		<g>
			
				<ellipse transform="matrix(0.7071 -0.7071 0.7071 0.7071 40.3219 395.8421)" class="st0" cx="498" cy="149.2" rx="147.2" ry="147.2"/>
			
				<ellipse transform="matrix(0.7071 -0.7071 0.7071 0.7071 40.3219 395.8421)" class="st1" cx="498" cy="149.2" rx="147.2" ry="147.2"/>
		</g>
		<g>
			
				<ellipse transform="matrix(0.7071 -0.7071 0.7071 0.7071 40.3219 395.8421)" class="st0" cx="498" cy="149.2" rx="131.5" ry="131.5"/>
			
				<ellipse transform="matrix(0.7071 -0.7071 0.7071 0.7071 40.3219 395.8421)" class="st1" cx="498" cy="149.2" rx="131.5" ry="131.5"/>
		</g>
		<g>
			<g>
				<g>
					<g>
						<g>
							<g>
								<path class="st5" d="M370.9,120L370.9,120c-6.5,0-11.8,5.3-11.8,11.8V65.1c0-6.5-5.3-11.8-11.8-11.8
									c-6.5,0-11.8,5.3-11.8,11.8v-7.5c0-6.5-5.3-11.8-11.8-11.8c-6.5,0-11.8,5.3-11.8,11.8v12.4c0-6.5-5.3-11.8-11.8-11.8
									c-6.5,0-11.8,5.3-11.8,11.8v24.3c0-6.5-5.3-11.8-11.8-11.8c-6.5,0-11.8,5.3-11.8,11.8v64.5v9.1V210
									c0,18,14.6,32.6,32.6,32.6h53c18,0,32.6-14.6,32.6-32.6v-42.1v-9.1v-27C382.7,125.3,377.4,120,370.9,120z"/>
								<line class="st6" x1="288.1" y1="94.3" x2="288.1" y2="139.5"/>
								<line class="st6" x1="311.7" y1="70.1" x2="311.7" y2="139.1"/>
								<line class="st6" x1="335.4" y1="65.1" x2="335.4" y2="139.1"/>
								<line class="st6" x1="359.1" y1="131.9" x2="359.1" y2="187"/>
								<line class="st1" x1="281.8" y1="139.5" x2="348.6" y2="139.5"/>
							</g>
						</g>
					</g>
					<path class="st1" d="M370.9,120L370.9,120c-6.5,0-11.8,5.3-11.8,11.8V65.1c0-6.5-5.3-11.8-11.8-11.8c-6.5,0-11.8,5.3-11.8,11.8
						v-7.5c0-6.5-5.3-11.8-11.8-11.8c-6.5,0-11.8,5.3-11.8,11.8v12.4c0-6.5-5.3-11.8-11.8-11.8c-6.5,0-11.8,5.3-11.8,11.8v24.3
						c0-6.5-5.3-11.8-11.8-11.8c-6.5,0-11.8,5.3-11.8,11.8v64.5v9.1V210c0,18,14.6,32.6,32.6,32.6h53c18,0,32.6-14.6,32.6-32.6
						v-42.1v-9.1v-27C382.7,125.3,377.4,120,370.9,120z"/>
					<path class="st7" d="M286.1,167.3l4.9-4.9c1.3-1.3,3.5-1.3,4.8,0l15.9,15.9l15.9-15.9c1.3-1.3,3.5-1.3,4.8,0l4.9,4.9
						c1.3,1.3,1.3,3.5,0,4.8L321.5,188l15.9,15.9c1.3,1.3,1.3,3.5,0,4.8l-4.9,4.9c-1.3,1.3-3.5,1.3-4.8,0l-15.9-15.9l-15.9,15.9
						c-1.3,1.3-3.5,1.3-4.8,0l-4.9-4.9c-1.3-1.3-1.3-3.5,0-4.8L302,188l-15.9-15.9C284.8,170.8,284.8,168.7,286.1,167.3z"/>
				</g>
				<path class="st5" d="M359.1,187c-19.7,0-35.6,15.9-35.6,35.6"/>
				<path class="st1" d="M359.1,187c-19.7,0-35.6,15.9-35.6,35.6"/>
			</g>
			<g>
				<polygon class="st8" points="359.1,131.9 354.3,187 359.1,187 				"/>
			</g>
		</g>
		<g>
			<path class="st0" d="M547.6,287.6c0,0-22.2,22.5-49.6,22.5s-49.6-22.5-49.6-22.5s22.2-22.5,49.6-22.5S547.6,287.6,547.6,287.6z"
				/>
			<path class="st1" d="M547.6,287.6c0,0-22.2,22.5-49.6,22.5s-49.6-22.5-49.6-22.5s22.2-22.5,49.6-22.5S547.6,287.6,547.6,287.6z"
				/>
			<circle class="st1" cx="498" cy="287.6" r="20.4"/>
		</g>
		<g>
			<g>
				<g>
					<polygon class="st5" points="598.6,203.9 598.6,87.8 498,29.7 397.4,87.8 397.4,203.9 498,262 					"/>
					<polygon class="st2" points="598.8,87.9 563.9,200.3 598.8,203.7 					"/>
					<polygon class="st9" points="497.7,85.9 497.7,29.7 598.6,87.8 					"/>
					<polyline class="st2" points="432,200.3 498,262 563.9,200.3 432,200.3 					"/>
					<polygon class="st5" points="397.4,203.9 432,200.3 492.3,256.6 488.3,256.4 					"/>
				</g>
				<path class="st9" d="M397.2,87.9c0.2-0.2,34.9,112.3,34.9,112.3l-34.9,3.5V87.9z"/>
				<polygon class="st9" points="432,200.3 497.7,85.9 563.9,200.3 				"/>
				<g>
					<polygon class="st1" points="598.6,203.9 598.6,87.8 498,29.7 397.4,87.8 397.4,203.9 498,262 					"/>
					<polygon class="st1" points="598.8,87.9 563.9,200.3 598.8,203.7 					"/>
					<polygon class="st1" points="497.7,85.9 497.7,29.7 598.6,87.8 					"/>
					<polyline class="st1" points="432,200.3 498,262 563.9,200.3 432,200.3 					"/>
					<polygon class="st1" points="397.4,203.9 432,200.3 492.3,256.6 488.3,256.4 					"/>
				</g>
				<path class="st1" d="M397.2,87.9c0.2-0.2,34.9,112.3,34.9,112.3l-34.9,3.5V87.9z"/>
				<polygon class="st1" points="432,200.3 497.7,85.9 563.9,200.3 				"/>
				<line class="st1" x1="397.2" y1="87.9" x2="497.7" y2="85.9"/>
				<polygon class="st8" points="498,262 563.9,200.3 598.8,203.7 				"/>
			</g>
			<g>
				<g>
					<g>
						<rect x="493.8" y="163.3" class="st10" width="9" height="5.3"/>
						<rect x="493.8" y="139.5" class="st11" width="9" height="33.3"/>
						<rect x="493.8" y="139.5" class="st1" width="9" height="29"/>
						<rect x="493.8" y="166.3" class="st8" width="9" height="6.6"/>
					</g>
				</g>
				<path class="st1" d="M509.9,148.9c0-3.5,2.9-6.4,6.4-6.4c3.5,0,6.4,2.9,6.4,6.4"/>
				<path class="st1" d="M491.6,124.4c0-3.5,2.9-6.4,6.4-6.4c3.5,0,6.4,2.9,6.4,6.4"/>
				<path class="st1" d="M473.4,148.9c0-3.5,2.9-6.4,6.4-6.4c3.5,0,6.4,2.9,6.4,6.4"/>
				<g>
					<path class="st11" d="M506.7,192.1h-16.8c-5.3,0-9.6-4.3-9.6-9.6v0c0-5.3,4.3-9.6,9.6-9.6h16.8c5.3,0,9.6,4.3,9.6,9.6v0
						C516.3,187.7,512,192.1,506.7,192.1z"/>
					<path class="st1" d="M506.7,192.1h-16.8c-5.3,0-9.6-4.3-9.6-9.6v0c0-5.3,4.3-9.6,9.6-9.6h16.8c5.3,0,9.6,4.3,9.6,9.6v0
						C516.3,187.7,512,192.1,506.7,192.1z"/>
					<path class="st12" d="M505.2,178.7h-13.7c-2.3,0-4.1,1.7-4.1,3.8s1.9,3.8,4.1,3.8h13.7c2.3,0,4.1-1.7,4.1-3.8
						S507.5,178.7,505.2,178.7z"/>
				</g>
				<path class="st1" d="M520.3,172.9c-5.3,5.3-5.3,13.8,0,19.1"/>
				<path class="st1" d="M476.3,192c5.3-5.3,5.3-13.8,0-19.1"/>
			</g>
		</g>
		<g>
			<g>
				<g>
					<g>
						<path class="st1" d="M625.1,121.6L625.1,121.6c6.5,0,11.8,5.3,11.8,11.8V65.1c0-6.5,5.3-11.8,11.8-11.8s11.8,5.3,11.8,11.8
							v-7.5c0-6.5,5.3-11.8,11.8-11.8c6.5,0,11.8,5.3,11.8,11.8v12.4c0-6.5,5.3-11.8,11.8-11.8s11.8,5.3,11.8,11.8v24.3
							c0-6.5,5.3-11.8,11.8-11.8c6.5,0,11.8,5.3,11.8,11.8v66.1v9.1v42.1c0,18-14.6,32.6-32.6,32.6h-53c-18,0-32.6-14.6-32.6-32.6
							v-42.1v-9.1v-27C613.2,126.9,618.5,121.6,625.1,121.6z"/>
						<g>
							<g>
								<g>
									<g>
										<path class="st5" d="M625.1,121.6L625.1,121.6c6.5,0,11.8,5.3,11.8,11.8V65.1c0-6.5,5.3-11.8,11.8-11.8
											s11.8,5.3,11.8,11.8v-7.5c0-6.5,5.3-11.8,11.8-11.8c6.5,0,11.8,5.3,11.8,11.8v12.4c0-6.5,5.3-11.8,11.8-11.8
											s11.8,5.3,11.8,11.8v24.3c0-6.5,5.3-11.8,11.8-11.8c6.5,0,11.8,5.3,11.8,11.8v66.1v9.1v42.1c0,18-14.6,32.6-32.6,32.6h-53
											c-18,0-32.6-14.6-32.6-32.6v-42.1v-9.1v-27C613.2,126.9,618.5,121.6,625.1,121.6z"/>
										<line class="st6" x1="707.9" y1="94.3" x2="707.9" y2="141.1"/>
										<line class="st6" x1="684.2" y1="70.1" x2="684.2" y2="140.7"/>
										<line class="st6" x1="660.6" y1="65.1" x2="660.6" y2="140.7"/>
										<line class="st6" x1="636.9" y1="133.5" x2="636.9" y2="188.6"/>
										<line class="st1" x1="714.2" y1="141.1" x2="647.4" y2="141.1"/>
									</g>
								</g>
							</g>
							<path class="st1" d="M625.1,121.6L625.1,121.6c6.5,0,11.8,5.3,11.8,11.8V65.1c0-6.5,5.3-11.8,11.8-11.8s11.8,5.3,11.8,11.8
								v-7.5c0-6.5,5.3-11.8,11.8-11.8c6.5,0,11.8,5.3,11.8,11.8v12.4c0-6.5,5.3-11.8,11.8-11.8s11.8,5.3,11.8,11.8v24.3
								c0-6.5,5.3-11.8,11.8-11.8c6.5,0,11.8,5.3,11.8,11.8v66.1v9.1v42.1c0,18-14.6,32.6-32.6,32.6h-53c-18,0-32.6-14.6-32.6-32.6
								v-42.1v-9.1v-27C613.2,126.9,618.5,121.6,625.1,121.6z"/>
							<path class="st7" d="M679.9,152.9c-17.2,0-31.2,14-31.2,31.2c0,17.2,14,31.2,31.2,31.2c17.2,0,31.2-14,31.2-31.2
								C711.2,166.9,697.1,152.9,679.9,152.9z M699.3,184.1c0,10.7-8.7,19.4-19.4,19.4c-10.7,0-19.4-8.7-19.4-19.4
								c0-10.7,8.7-19.4,19.4-19.4C690.6,164.7,699.3,173.4,699.3,184.1z"/>
						</g>
					</g>
					<path class="st5" d="M636.8,188.6c19.7,0,35.6,15.9,35.6,35.6"/>
					<path class="st1" d="M636.8,188.6c19.7,0,35.6,15.9,35.6,35.6"/>
				</g>
				<polygon class="st8" points="636.8,133.5 641.7,188.6 636.8,188.6 				"/>
			</g>
		</g>
	</g>
</g>
</svg>
