<svg version="1.1" id="hexo" xmlns="http://www.w3.org/2000/svg" xmlns:xlink="http://www.w3.org/1999/xlink" x="0px" y="0px" viewBox="0 0 155 299" style="enable-background:new 0 0 155 299;" xml:space="preserve">
<style type="text/css">
	.st0{fill:#C03936;}
	.st1{fill:#FFFFFF;}
	.st2{fill:none;}
	.st3{fill:#89CFFC;}
	.st4{fill:#5BD0FD;}
	.st5{fill:#27A6FD;}
	.st6{fill:#BEFDFD;}
	.st7{fill:#88365F;}
	.st8{fill:#E2B440;}
	.st9{fill:#E69C9B;}
	.st10{fill:#CD5643;}
	.st11{fill:#FF6CFF;}
	.st12{fill:#FD9D9D;}
	.st13{fill:none;stroke:#000000;stroke-width:1.3;stroke-miterlimit:10;}
	.st14{display:none;}
	.st15{display:inline;}
	.st16{display:inline;fill:#FD9D9D;}
	.st17{display:inline;fill:#EB5640;}
</style>
	<g id="hands-face-b">
		<g id="face-b">
			<rect x="75" y="80.9" width="3.2" height="2"/>
			<path d="M76.8,83.3c1,0,1.9,0.2,2.8,0.5c0-0.1,0.1-0.2,0.1-0.3v-2.1v-1.2c0-0.4-0.3-0.6-0.6-0.6h-0.7h-3.2h-0.6
				c-0.4,0-0.6,0.3-0.6,0.6v1.2v2.1c0,0.1,0,0.2,0.1,0.3C74.8,83.5,75.8,83.3,76.8,83.3z M75,82.9v-2h3.3v2H75z"/>
			<path class="st12" d="M76.8,97.8c3.7,0,6.6-3,6.6-6.6s-3-6.6-6.6-6.6c-3.7,0-6.6,3-6.6,6.6S73,97.8,76.8,97.8z M76.8,86.1
				c2.8,0,5.1,2.3,5.1,5.1s-2.3,5.1-5.1,5.1c-2.8,0-5.1-2.3-5.1-5.1S73.9,86.1,76.8,86.1z"/>
			<path d="M76.8,99.1c4.4,0,7.9-3.5,7.9-7.9c0-3.4-2.1-6.2-5.1-7.4c-0.9-0.3-1.8-0.5-2.8-0.5s-1.9,0.2-2.8,0.5
				c-3,1.1-5.1,4-5.1,7.4C68.8,95.6,72.3,99.1,76.8,99.1z M76.8,84.6c3.7,0,6.6,3,6.6,6.6s-3,6.6-6.6,6.6c-3.7,0-6.6-3-6.6-6.6
				S73,84.6,76.8,84.6z"/>
			<path d="M76.8,96.3c2.8,0,5.1-2.3,5.1-5.1s-2.3-5.1-5.1-5.1c-2.8,0-5.1,2.3-5.1,5.1S73.9,96.3,76.8,96.3z"/>
			<path class="st1" d="M63.5,72.3c0,1.5,1.2,2.6,2.6,2.6s2.6-1.2,2.6-2.6s-1.2-2.6-2.6-2.6S63.5,70.8,63.5,72.3z"/>
			<path d="M66.2,76.2c2.2,0,3.9-1.8,3.9-3.9c0-2.2-1.8-3.9-3.9-3.9s-3.9,1.8-3.9,3.9C62.3,74.4,64,76.2,66.2,76.2z M68.8,72.3
				c0,1.5-1.2,2.6-2.6,2.6s-2.6-1.2-2.6-2.6s1.2-2.6,2.6-2.6S68.8,70.8,68.8,72.3z"/>
			<path class="st1" d="M74.8,62.7c1,1,2.7,1,3.7,0s1-2.7,0-3.7c-0.5-0.5-1.2-0.8-1.9-0.8c-0.7,0-1.3,0.3-1.9,0.8
				C73.8,60,73.8,61.7,74.8,62.7z"/>
			<path d="M76.7,64.8c1,0,2-0.4,2.8-1.1c1.5-1.5,1.5-4,0-5.5s-4-1.5-5.5,0s-1.5,4,0,5.5C74.7,64.4,75.7,64.8,76.7,64.8z M76.7,58.2
				c0.7,0,1.3,0.3,1.9,0.8c1,1,1,2.7,0,3.7s-2.7,1-3.7,0s-1-2.7,0-3.7C75.3,58.5,75.9,58.2,76.7,58.2z"/>
			<path class="st1" d="M83.2,72.3c0,1.5,1.2,2.6,2.6,2.6s2.6-1.2,2.6-2.6s-1.2-2.6-2.6-2.6S83.2,70.8,83.2,72.3z"/>
			<path d="M85.8,76.2c2.2,0,3.9-1.8,3.9-3.9c0-2.2-1.8-3.9-3.9-3.9c-2.2,0-3.9,1.8-3.9,3.9C81.8,74.4,83.7,76.2,85.8,76.2z
				 M88.4,72.3c0,1.5-1.2,2.6-2.6,2.6s-2.6-1.2-2.6-2.6s1.2-2.6,2.6-2.6S88.4,70.8,88.4,72.3z"/>
			<g>
				<path class="st10" d="M79,82.5c0,0.1-0.1,0.2-0.2,0.2h-4c-0.1,0-0.2-0.1-0.2-0.2V67c0-0.1,0.1-0.2,0.2-0.2h4
					c0.1,0,0.2,0.1,0.2,0.2V82.5z"/>
				<path class="st13" d="M79,82.5c0,0.1-0.1,0.2-0.2,0.2h-4c-0.1,0-0.2-0.1-0.2-0.2V67c0-0.1,0.1-0.2,0.2-0.2h4
					c0.1,0,0.2,0.1,0.2,0.2V82.5z"/>
			</g>
		</g>
	</g>
	<g>
		<g>
			<g>
				<g>
					<g>
						<path class="st5" d="M114.5,159.2c0,8.5,6.9,15.4,15.4,15.4c8.5,0,15.4-6.9,15.4-15.4c0-8.5-6.9-15.4-15.4-15.4
							C121.4,143.8,114.5,150.7,114.5,159.2"/>
					</g>
					<g>
						<path d="M130,175.3c-8.9,0-16.1-7.2-16.1-16.1c0-8.9,7.2-16.1,16.1-16.1c8.9,0,16.1,7.2,16.1,16.1
							C146.1,168.1,138.8,175.3,130,175.3z M130,144.4c-8.2,0-14.8,6.6-14.8,14.8c0,8.2,6.6,14.8,14.8,14.8c8.2,0,14.8-6.6,14.8-14.8
							C144.8,151.1,138.1,144.4,130,144.4z"/>
					</g>
					<g>
						<path d="M130,175.3c-8.9,0-16.1-7.2-16.1-16.1c0-8.9,7.2-16.1,16.1-16.1c8.9,0,16.1,7.2,16.1,16.1
							C146.1,168.1,138.8,175.3,130,175.3z M130,144.4c-8.2,0-14.8,6.6-14.8,14.8c0,8.2,6.6,14.8,14.8,14.8c8.2,0,14.8-6.6,14.8-14.8
							C144.8,151.1,138.1,144.4,130,144.4z"/>
					</g>
					<g>
						<path class="st5" d="M117.7,132.8L117.7,132.8c1.9,0,3.5,1.6,3.5,3.5v-19.7c0-1.9,1.6-3.5,3.5-3.5c1.9,0,3.5,1.6,3.5,3.5v-2.2
							c0-1.9,1.6-3.5,3.5-3.5c1.9,0,3.5,1.6,3.5,3.5v3.7c0-1.9,1.6-3.5,3.5-3.5s3.5,1.6,3.5,3.5v7.2c0-1.9,1.6-3.5,3.5-3.5
							c1.9,0,3.5,1.6,3.5,3.5v19.1v2.7v12.4c0,5.3-4.3,9.7-9.7,9.7h-15.7c-5.3,0-9.7-4.3-9.7-9.7V147v-2.7v-8
							C114.2,134.4,115.7,132.8,117.7,132.8"/>
					</g>
					<g>
						<path d="M139.5,169.7h-15.7c-5.7,0-10.3-4.6-10.3-10.3v-23.1c0-2.3,1.9-4.1,4.1-4.1c1.1,0,2.1,0.4,2.9,1.1v-16.7
							c0-2.3,1.9-4.1,4.1-4.1c1.1,0,2.2,0.5,2.9,1.2c0.3-1.9,2-3.4,4.1-3.4c2.3,0,4.1,1.9,4.1,4.1v0.7c0.7-0.7,1.7-1.1,2.9-1.1
							c2.3,0,4.1,1.9,4.1,4.1v4.2c0.7-0.7,1.7-1.1,2.9-1.1c2.3,0,4.1,1.9,4.1,4.1v34.2C149.8,165.1,145.2,169.7,139.5,169.7z
							M117.7,133.4c-1.6,0-2.9,1.3-2.9,2.9v23.1c0,5,4,9,9,9h15.7c5,0,9-4,9-9v-34.2c0-1.6-1.3-2.9-2.9-2.9c-1.6,0-2.9,1.3-2.9,2.9
							c0,0.4-0.3,0.6-0.6,0.6s-0.6-0.3-0.6-0.6V118c0-1.6-1.3-2.9-2.9-2.9c-1.6,0-2.9,1.3-2.9,2.9c0,0.4-0.3,0.6-0.6,0.6
							s-0.6-0.3-0.6-0.6v-3.7c0-1.6-1.3-2.9-2.9-2.9c-1.6,0-2.9,1.3-2.9,2.9v2.2c0,0.4-0.3,0.6-0.6,0.6s-0.6-0.3-0.6-0.6
							c0-1.6-1.3-2.9-2.9-2.9c-1.6,0-2.9,1.3-2.9,2.9v19.7c0,0.4-0.3,0.6-0.6,0.6s-0.6-0.3-0.6-0.6
							C120.5,134.7,119.3,133.4,117.7,133.4z"/>
					</g>
					<g>
						<line class="st1" x1="142.2" y1="125.2" x2="142.2" y2="138.5"/>
					</g>
					<g>
						<path d="M142.2,139.2c-0.4,0-0.6-0.3-0.6-0.6v-13.4c0-0.4,0.3-0.6,0.6-0.6s0.6,0.3,0.6,0.6v13.4
							C142.8,138.9,142.5,139.2,142.2,139.2z"/>
					</g>
					<g>
						<line class="st1" x1="135.2" y1="118" x2="135.2" y2="138.4"/>
					</g>
					<g>
						<path d="M135.2,139.1c-0.4,0-0.6-0.3-0.6-0.6V118c0-0.4,0.3-0.6,0.6-0.6s0.6,0.3,0.6,0.6v20.4
							C135.8,138.8,135.5,139.1,135.2,139.1z"/>
					</g>
					<g>
						<line class="st1" x1="128.2" y1="116.6" x2="128.2" y2="138.4"/>
					</g>
					<g>
						<path d="M128.2,139.1c-0.4,0-0.6-0.3-0.6-0.6v-21.9c0-0.4,0.3-0.6,0.6-0.6c0.4,0,0.6,0.3,0.6,0.6v21.9
							C128.8,138.8,128.5,139.1,128.2,139.1z"/>
					</g>
					<g>
						<line class="st1" x1="121.2" y1="136.3" x2="121.2" y2="152.6"/>
					</g>
					<g>
						<path d="M121.2,153.2c-0.4,0-0.6-0.3-0.6-0.6v-16.3c0-0.4,0.3-0.6,0.6-0.6s0.6,0.3,0.6,0.6v16.3
							C121.8,153,121.5,153.2,121.2,153.2z"/>
					</g>
					<g>
						<path d="M144,139.2h-19.8c-0.4,0-0.6-0.3-0.6-0.6s0.3-0.6,0.6-0.6H144c0.4,0,0.6,0.3,0.6,0.6S144.4,139.2,144,139.2z"/>
					</g>
					<g>
						<path d="M139.5,169.7h-15.7c-5.7,0-10.3-4.6-10.3-10.3v-23.1c0-2.3,1.9-4.1,4.1-4.1c1.1,0,2.1,0.4,2.9,1.1v-16.7
							c0-2.3,1.9-4.1,4.1-4.1c1.1,0,2.2,0.5,2.9,1.2c0.3-1.9,2-3.4,4.1-3.4c2.3,0,4.1,1.9,4.1,4.1v0.7c0.7-0.7,1.7-1.1,2.9-1.1
							c2.3,0,4.1,1.9,4.1,4.1v4.2c0.7-0.7,1.7-1.1,2.9-1.1c2.3,0,4.1,1.9,4.1,4.1v34.2C149.8,165.1,145.2,169.7,139.5,169.7z
							M117.7,133.4c-1.6,0-2.9,1.3-2.9,2.9v23.1c0,5,4,9,9,9h15.7c5,0,9-4,9-9v-34.2c0-1.6-1.3-2.9-2.9-2.9c-1.6,0-2.9,1.3-2.9,2.9
							c0,0.4-0.3,0.6-0.6,0.6s-0.6-0.3-0.6-0.6V118c0-1.6-1.3-2.9-2.9-2.9c-1.6,0-2.9,1.3-2.9,2.9c0,0.4-0.3,0.6-0.6,0.6
							s-0.6-0.3-0.6-0.6v-3.7c0-1.6-1.3-2.9-2.9-2.9c-1.6,0-2.9,1.3-2.9,2.9v2.2c0,0.4-0.3,0.6-0.6,0.6s-0.6-0.3-0.6-0.6
							c0-1.6-1.3-2.9-2.9-2.9c-1.6,0-2.9,1.3-2.9,2.9v19.7c0,0.4-0.3,0.6-0.6,0.6s-0.6-0.3-0.6-0.6
							C120.5,134.7,119.3,133.4,117.7,133.4z"/>
					</g>
				</g>
				<g>
					<path class="st1" d="M134.6,141.7c-5.5,0-10,4.5-10,10c0,5.5,4.5,10,10,10c5.5,0,10-4.5,10-10
						C144.6,146.2,140.1,141.7,134.6,141.7z M140.8,151.7c0,3.4-2.8,6.2-6.2,6.2c-3.4,0-6.2-2.8-6.2-6.2c0-3.4,2.8-6.2,6.2-6.2
						C138,145.4,140.8,148.2,140.8,151.7z"/>
				</g>
				<g>
					<g>
						<path class="st11" d="M39,159.2c0,8.5-6.9,15.4-15.4,15.4c-8.5,0-15.4-6.9-15.4-15.4c0-8.5,6.9-15.4,15.4-15.4
							C32.1,143.8,39,150.7,39,159.2"/>
					</g>
					<g>
						<path d="M23.6,175.3c-8.9,0-16.1-7.2-16.1-16.1c0-8.9,7.2-16.1,16.1-16.1c8.9,0,16.1,7.2,16.1,16.1
							C39.7,168.1,32.4,175.3,23.6,175.3z M23.6,144.4c-8.2,0-14.8,6.6-14.8,14.8c0,8.2,6.6,14.8,14.8,14.8c8.2,0,14.8-6.6,14.8-14.8
							C38.4,151.1,31.7,144.4,23.6,144.4z"/>
					</g>
					<g>
						<path d="M23.6,175.3c-8.9,0-16.1-7.2-16.1-16.1c0-8.9,7.2-16.1,16.1-16.1c8.9,0,16.1,7.2,16.1,16.1
							C39.7,168.1,32.4,175.3,23.6,175.3z M23.6,144.4c-8.2,0-14.8,6.6-14.8,14.8c0,8.2,6.6,14.8,14.8,14.8c8.2,0,14.8-6.6,14.8-14.8
							C38.4,151.1,31.7,144.4,23.6,144.4z"/>
					</g>
					<g>
						<path class="st11" d="M35.9,132.8L35.9,132.8c-1.9,0-3.5,1.6-3.5,3.5v-19.7c0-1.9-1.6-3.5-3.5-3.5c-1.9,0-3.5,1.6-3.5,3.5v-2.2
							c0-1.9-1.6-3.5-3.5-3.5c-1.9,0-3.5,1.6-3.5,3.5v3.7c0-1.9-1.6-3.5-3.5-3.5s-3.5,1.6-3.5,3.5v7.2c0-1.9-1.6-3.5-3.5-3.5
							c-1.9,0-3.5,1.6-3.5,3.5v19.1v2.7v12.4c0,5.3,4.3,9.7,9.7,9.7h15.7c5.3,0,9.7-4.3,9.7-9.7V147v-2.7v-8
							C39.4,134.4,37.8,132.8,35.9,132.8"/>
					</g>
					<g>
						<path d="M29.7,169.7H14c-5.7,0-10.3-4.6-10.3-10.3v-34.2c0-2.3,1.9-4.1,4.1-4.1c1.1,0,2.1,0.4,2.9,1.1V118
							c0-2.3,1.9-4.1,4.1-4.1c1.1,0,2.1,0.4,2.9,1.1v-0.7c0-2.3,1.9-4.1,4.1-4.1c2,0,3.7,1.5,4.1,3.4c0.7-0.7,1.8-1.2,2.9-1.2
							c2.3,0,4.1,1.9,4.1,4.1v16.7c0.7-0.7,1.7-1.1,2.9-1.1c2.3,0,4.1,1.9,4.1,4.1v23.1C40,165.1,35.4,169.7,29.7,169.7z M7.9,122.3
							c-1.6,0-2.9,1.3-2.9,2.9v34.2c0,5,4,9,9,9h15.7c5,0,9-4,9-9v-23.1c0-1.6-1.3-2.9-2.9-2.9c-1.6,0-2.9,1.3-2.9,2.9
							c0,0.4-0.3,0.6-0.6,0.6c-0.4,0-0.6-0.3-0.6-0.6v-19.7c0-1.6-1.3-2.9-2.9-2.9c-1.6,0-2.9,1.3-2.9,2.9c0,0.4-0.3,0.6-0.6,0.6
							c-0.4,0-0.6-0.3-0.6-0.6v-2.2c0-1.6-1.3-2.9-2.9-2.9c-1.6,0-2.9,1.3-2.9,2.9v3.7c0,0.4-0.3,0.6-0.6,0.6s-0.6-0.3-0.6-0.6
							c0-1.6-1.3-2.9-2.9-2.9c-1.6,0-2.9,1.3-2.9,2.9v7.2c0,0.4-0.3,0.6-0.6,0.6c-0.4,0-0.6-0.3-0.6-0.6
							C10.7,123.6,9.4,122.3,7.9,122.3z"/>
					</g>
					<g>
						<line class="st1" x1="11.4" y1="125.2" x2="11.4" y2="138.5"/>
					</g>
					<g>
						<path d="M11.4,139.2c-0.4,0-0.6-0.3-0.6-0.6v-13.4c0-0.4,0.3-0.6,0.6-0.6c0.4,0,0.6,0.3,0.6,0.6v13.4
							C12,138.9,11.7,139.2,11.4,139.2z"/>
					</g>
					<g>
						<line class="st1" x1="18.4" y1="118" x2="18.4" y2="138.4"/>
					</g>
					<g>
						<path d="M18.4,139.1c-0.4,0-0.6-0.3-0.6-0.6V118c0-0.4,0.3-0.6,0.6-0.6s0.6,0.3,0.6,0.6v20.4C19,138.8,18.7,139.1,18.4,139.1z"
							/>
					</g>
					<g>
						<line class="st1" x1="25.4" y1="116.6" x2="25.4" y2="138.4"/>
					</g>
					<g>
						<path d="M25.4,139.1c-0.4,0-0.6-0.3-0.6-0.6v-21.9c0-0.4,0.3-0.6,0.6-0.6c0.4,0,0.6,0.3,0.6,0.6v21.9
							C26,138.8,25.7,139.1,25.4,139.1z"/>
					</g>
					<g>
						<line class="st1" x1="32.4" y1="136.3" x2="32.4" y2="152.6"/>
					</g>
					<g>
						<path d="M29.3,139.2H9.5c-0.4,0-0.6-0.3-0.6-0.6s0.3-0.6,0.6-0.6h19.8c0.4,0,0.6,0.3,0.6,0.6S29.6,139.2,29.3,139.2z"/>
					</g>
					<g>
						<path d="M29.7,169.7H14c-5.7,0-10.3-4.6-10.3-10.3v-34.2c0-2.3,1.9-4.1,4.1-4.1c1.1,0,2.1,0.4,2.9,1.1V118
							c0-2.3,1.9-4.1,4.1-4.1c1.1,0,2.1,0.4,2.9,1.1v-0.7c0-2.3,1.9-4.1,4.1-4.1c2,0,3.7,1.5,4.1,3.4c0.7-0.7,1.8-1.2,2.9-1.2
							c2.3,0,4.1,1.9,4.1,4.1v16.7c0.7-0.7,1.7-1.1,2.9-1.1c2.3,0,4.1,1.9,4.1,4.1v23.1C40,165.1,35.4,169.7,29.7,169.7z M7.9,122.3
							c-1.6,0-2.9,1.3-2.9,2.9v34.2c0,5,4,9,9,9h15.7c5,0,9-4,9-9v-23.1c0-1.6-1.3-2.9-2.9-2.9c-1.6,0-2.9,1.3-2.9,2.9
							c0,0.4-0.3,0.6-0.6,0.6c-0.4,0-0.6-0.3-0.6-0.6v-19.7c0-1.6-1.3-2.9-2.9-2.9c-1.6,0-2.9,1.3-2.9,2.9c0,0.4-0.3,0.6-0.6,0.6
							c-0.4,0-0.6-0.3-0.6-0.6v-2.2c0-1.6-1.3-2.9-2.9-2.9c-1.6,0-2.9,1.3-2.9,2.9v3.7c0,0.4-0.3,0.6-0.6,0.6s-0.6-0.3-0.6-0.6
							c0-1.6-1.3-2.9-2.9-2.9c-1.6,0-2.9,1.3-2.9,2.9v7.2c0,0.4-0.3,0.6-0.6,0.6c-0.4,0-0.6-0.3-0.6-0.6
							C10.7,123.6,9.4,122.3,7.9,122.3z"/>
					</g>
				</g>
			</g>
		</g>
		<g>
			<path class="st1" d="M11.2,145.3l1.6-1.6c0.4-0.4,1.1-0.4,1.5,0l5.1,5.1l5.1-5.1c0.4-0.4,1.1-0.4,1.5,0l1.6,1.6
				c0.4,0.4,0.4,1.1,0,1.5l-5.1,5.1l5.1,5.1c0.4,0.4,0.4,1.1,0,1.5l-1.6,1.6c-0.4,0.4-1.1,0.4-1.5,0l-5.1-5.1l-5.1,5.1
				c-0.4,0.4-1.1,0.4-1.5,0l-1.6-1.6c-0.4-0.4-0.4-1.1,0-1.5l5.1-5.1l-5.1-5.1C10.7,146.5,10.7,145.8,11.2,145.3z"/>
		</g>
		<g>
			<path d="M32.4,153.2c-0.4,0-0.6-0.3-0.6-0.6v-16.3c0-0.4,0.3-0.6,0.6-0.6s0.6,0.3,0.6,0.6v16.3C33,153,32.7,153.2,32.4,153.2z"/>
		</g>
		<g>
			<path class="st11" d="M32.4,152.6c-5.8,0-10.5,4.7-10.5,10.5v3.5h10.5V152.6z"/>
		</g>
		<g>
			<path d="M21.8,163.8c-0.4,0-0.6-0.3-0.6-0.6c0-6.2,5-11.2,11.2-11.2c0.4,0,0.6,0.3,0.6,0.6s-0.3,0.6-0.6,0.6
				c-5.5,0-9.9,4.4-9.9,9.9C22.5,163.5,22.2,163.8,21.8,163.8z"/>
		</g>
		<g>
			<path class="st5" d="M121.2,152.6c5.8,0,10.5,4.7,10.5,10.5v3.5h-10.5V152.6z"/>
		</g>
		<g>
			<path d="M131.7,163.8c-0.4,0-0.6-0.3-0.6-0.6c0-5.5-4.4-9.9-9.9-9.9c-0.4,0-0.6-0.3-0.6-0.6s0.3-0.6,0.6-0.6
				c6.2,0,11.2,5,11.2,11.2C132.4,163.5,132.1,163.8,131.7,163.8z"/>
		</g>
	</g>
</svg>