<?xml version="1.0" encoding="utf-8"?>
<!-- Generator: Adobe Illustrator 24.0.2, SVG Export Plug-In . SVG Version: 6.00 Build 0)  -->
<svg version="1.1" id="Capa_1" xmlns="http://www.w3.org/2000/svg" xmlns:xlink="http://www.w3.org/1999/xlink" x="0px" y="0px"
	 viewBox="0 0 885.4 1491.4" style="enable-background:new 0 0 885.4 1491.4;" xml:space="preserve">
<style type="text/css">
	.st0{fill:#F7E790;stroke:#000000;stroke-width:4;stroke-linecap:round;stroke-linejoin:round;stroke-miterlimit:10;}
	.st1{fill:none;stroke:#000000;stroke-width:4.3963;stroke-linecap:round;stroke-linejoin:round;stroke-miterlimit:10;}
	.st2{fill:#FFFFFF;stroke:#000000;stroke-width:4;stroke-linecap:round;stroke-linejoin:round;stroke-miterlimit:10;}
	.st3{fill:none;stroke:#000000;stroke-width:4;stroke-linecap:round;stroke-linejoin:round;stroke-miterlimit:10;}
	.st4{fill:#C5D5FF;stroke:#000000;stroke-width:4;stroke-linecap:round;stroke-linejoin:round;stroke-miterlimit:10;}
	.st5{fill:none;stroke:#000000;stroke-width:3.9949;stroke-linecap:round;stroke-linejoin:round;stroke-miterlimit:10;}
	.st6{fill:none;stroke:#000000;stroke-width:3.9948;stroke-linecap:round;stroke-linejoin:round;stroke-miterlimit:9.9996;}
	.st7{stroke:#000000;stroke-width:3.9949;stroke-linecap:round;stroke-linejoin:round;stroke-miterlimit:10;}
	.st8{fill:#FF9C86;}
</style>
<g>
	<g>
		<path class="st0" d="M853.7,1489.4h-822c-16.4,0-29.7-13.3-29.7-29.7v-222c0-16.4,13.3-29.7,29.7-29.7H844
			c21.7,0,39.3,17.6,39.3,39.3v212.4C883.4,1476.1,870.1,1489.4,853.7,1489.4z"/>
		<path class="st0" d="M853.7,1480.2h-822c-16.4,0-29.7-13.3-29.7-29.7v-222c0-16.4,13.3-29.7,29.7-29.7H844
			c21.7,0,39.3,17.6,39.3,39.3v212.4C883.4,1466.9,870.1,1480.2,853.7,1480.2z"/>
		<path class="st0" d="M853.7,1471h-822c-16.4,0-29.7-13.3-29.7-29.7v-222c0-16.4,13.3-29.7,29.7-29.7H844
			c21.7,0,39.3,17.6,39.3,39.3v212.4C883.4,1457.7,870.1,1471,853.7,1471z"/>
		<path class="st0" d="M853.7,1461.8h-822c-16.4,0-29.7-13.3-29.7-29.7v-222c0-16.4,13.3-29.7,29.7-29.7H844
			c21.7,0,39.3,17.6,39.3,39.3v212.4C883.4,1448.5,870.1,1461.8,853.7,1461.8z"/>
		<path class="st0" d="M853.7,1452.5h-822c-16.4,0-29.7-13.3-29.7-29.7v-222c0-16.4,13.3-29.7,29.7-29.7H844
			c21.7,0,39.3,17.6,39.3,39.3v212.4C883.4,1439.2,870.1,1452.5,853.7,1452.5z"/>
	</g>
	<path class="st1" d="M95.6,102.2"/>
	<path class="st2" d="M853.7,1443.4h-822c-16.4,0-29.7-13.3-29.7-29.7V31.7C2,15.3,15.3,2,31.7,2h821.9c16.4,0,29.7,13.3,29.7,29.7
		v1382C883.4,1430.1,870.1,1443.4,853.7,1443.4z"/>
	<g>
		<rect x="41.4" y="41.7" class="st3" width="802.6" height="1360.2"/>
	</g>
	<g>
		<polygon class="st4" points="262.6,41.7 41.4,41.7 41.4,263 		"/>
		<polygon class="st4" points="622.8,41.7 844,41.7 844,263 		"/>
		<polygon class="st4" points="622.8,1402.2 844,1402.2 844,1181 		"/>
		<polygon class="st4" points="262.6,1402.2 41.4,1402.2 41.4,1181 		"/>
		<g>
			<ellipse class="st5" cx="780.5" cy="105.2" rx="46.9" ry="17"/>
			
				<ellipse transform="matrix(0.8467 -0.532 0.532 0.8467 63.6453 431.3507)" class="st6" cx="780.47" cy="105.21" rx="17" ry="46.9"/>
			
				<ellipse transform="matrix(0.532 -0.8467 0.8467 0.532 276.14 710.1169)" class="st6" cx="780.49" cy="105.24" rx="46.9" ry="17"/>
			<circle class="st7" cx="780.5" cy="105.2" r="6.5"/>
		</g>
		<g>
			<ellipse class="st5" cx="104.9" cy="105.2" rx="46.9" ry="17"/>
			
				<ellipse transform="matrix(0.532 -0.8467 0.8467 0.532 -39.9706 138.0089)" class="st6" cx="104.87" cy="105.16" rx="46.9" ry="17"/>
			
				<ellipse transform="matrix(0.8467 -0.532 0.532 0.8467 -39.8784 71.92)" class="st6" cx="104.88" cy="105.17" rx="17" ry="46.9"/>
			<circle class="st7" cx="104.9" cy="105.2" r="6.5"/>
		</g>
		<g>
			<ellipse class="st5" cx="780.5" cy="1338.7" rx="46.9" ry="17"/>
			
				<ellipse transform="matrix(0.532 -0.8467 0.8467 0.532 -768.3341 1287.312)" class="st6" cx="780.42" cy="1338.74" rx="46.9" ry="17"/>
			
				<ellipse transform="matrix(0.8467 -0.532 0.532 0.8467 -592.583 620.3861)" class="st6" cx="780.44" cy="1338.67" rx="17" ry="46.9"/>
			<circle class="st7" cx="780.5" cy="1338.7" r="6.5"/>
		</g>
		<g>
			<ellipse class="st5" cx="104.9" cy="1338.7" rx="46.9" ry="17"/>
			
				<ellipse transform="matrix(0.8467 -0.532 0.532 0.8467 -696.1067 260.9554)" class="st6" cx="104.86" cy="1338.63" rx="17" ry="46.9"/>
			
				<ellipse transform="matrix(0.532 -0.8467 0.8467 0.532 -1084.4448 715.2041)" class="st6" cx="104.8" cy="1338.66" rx="46.9" ry="17"/>
			<circle class="st7" cx="104.9" cy="1338.7" r="6.5"/>
		</g>
	</g>
	<g>
		<path class="st1" d="M773.7,89.2"/>
	</g>
	<g>
		<path class="st1" d="M773.7,1297.1"/>
	</g>
	<g>
		<path class="st1" d="M110.8,1297.1"/>
	</g>
	<g>
		<path class="st8" d="M368.8,128.1h-8.5V86.8h13.5l13.9,38.2l-1.5,0.4V86.8h8.5v41.4h-13.6L367.3,90l1.6-0.4v38.5H368.8z"/>
		<path class="st8" d="M406.1,93.5c-1.3,0-2.5-0.4-3.5-1.1s-1.5-1.7-1.5-3s0.5-2.3,1.5-3s2.2-1.1,3.5-1.1c1.4,0,2.5,0.4,3.5,1.1
			s1.5,1.7,1.5,3s-0.5,2.3-1.5,3S407.5,93.5,406.1,93.5z M401.8,128.1V98.3h8.6v29.8H401.8z"/>
		<path class="st8" d="M444.7,98.3l-9,29.8H424l-9.2-29.8h9l6.8,27.1h-1.3l6.6-27.1H444.7z"/>
		<path class="st8" d="M451.6,115.8v-5.7h19.7l-0.8,1.5c0-0.1,0-0.3,0-0.4s0-0.3,0-0.4c0-1.1-0.3-2.1-0.8-3.1s-1.3-1.8-2.3-2.4
			c-1.1-0.6-2.4-0.9-4.1-0.9c-1.6,0-3.1,0.4-4.2,1.1c-1.2,0.7-2.1,1.7-2.7,3s-0.9,2.9-0.9,4.7c0,1.9,0.3,3.5,0.9,4.9
			s1.5,2.4,2.7,3.1s2.7,1.1,4.5,1.1c1.2,0,2.2-0.1,3-0.3c0.8-0.2,1.5-0.5,2.1-0.8s0.9-0.7,1.2-1.1c0.3-0.4,0.4-0.8,0.5-1.2h8.6
			c-0.1,1.3-0.5,2.5-1.3,3.7c-0.7,1.2-1.8,2.3-3.1,3.3c-1.3,1-2.9,1.7-4.8,2.3s-4.1,0.8-6.5,0.8c-3.3,0-6.2-0.7-8.6-2
			s-4.3-3.1-5.7-5.5c-1.3-2.3-2-5-2-8.1s0.7-5.8,2.1-8.1c1.4-2.3,3.3-4.1,5.7-5.4c2.5-1.3,5.3-1.9,8.5-1.9c3.3,0,6.2,0.7,8.6,2
			s4.3,3.2,5.6,5.5s2,5.1,2,8.3c0,0.5,0,0.9,0,1.3s0,0.7-0.1,1h-27.8V115.8z"/>
		<path class="st8" d="M494.3,84.3v43.8h-8.6V84.3H494.3z"/>
		<path class="st8" d="M516.4,128.1V86.8h8.6v41.4h-8.6V128.1z"/>
	</g>
</g>
<g id="_x31__1_">
	<path d="M99.85,393.75v-61.21h9.01v58.47l-4.07-4.9h27.76v7.64H99.85z"/>
	<path d="M157.16,394.62c-3.32,0-6.23-0.53-8.74-1.58c-2.5-1.05-4.45-2.56-5.83-4.52c-1.38-1.96-2.08-4.33-2.08-7.1
		c0-2.96,0.78-5.41,2.34-7.35c1.56-1.94,3.72-3.44,6.47-4.5c2.75-1.06,5.89-1.76,9.4-2.1c5.23-0.53,8.92-1.04,11.06-1.54
		c2.14-0.5,3.22-1.31,3.22-2.45c0-0.03,0-0.06,0-0.08c0-2.24-0.95-3.94-2.86-5.1c-1.91-1.16-4.63-1.74-8.18-1.74
		c-3.73,0-6.62,0.66-8.65,1.97c-2.03,1.31-3.05,3.4-3.05,6.25h-8.84c0-3.38,0.88-6.24,2.64-8.59c1.76-2.35,4.18-4.14,7.28-5.37
		c3.1-1.23,6.65-1.85,10.67-1.85c3.68,0,7.03,0.56,10.06,1.68c3.03,1.12,5.44,2.79,7.24,5c1.8,2.21,2.7,4.97,2.7,8.26
		c0,0.58,0,1.16,0,1.72c0,0.57,0,1.14,0,1.72v17.6c0,1.02,0.04,2.01,0.12,2.97c0.08,0.95,0.23,1.8,0.46,2.55
		c0.25,0.86,0.55,1.56,0.89,2.12c0.35,0.55,0.63,0.94,0.85,1.16h-8.96c-0.17-0.17-0.41-0.52-0.73-1.06
		c-0.32-0.54-0.6-1.17-0.85-1.89c-0.25-0.69-0.44-1.49-0.56-2.39c-0.12-0.9-0.19-1.87-0.19-2.93l1.66,1.16
		c-0.83,1.61-2.08,3-3.76,4.19c-1.67,1.19-3.68,2.12-6.02,2.78C162.61,394.29,160.01,394.62,157.16,394.62z M159.03,387.15
		c2.57,0,4.92-0.41,7.03-1.22c2.12-0.82,3.81-2.06,5.08-3.74c1.27-1.67,1.91-3.78,1.91-6.33v-7.3l2.12,2.78
		c-1.77,0.69-3.94,1.25-6.49,1.68c-2.56,0.43-5.19,0.78-7.91,1.06c-3.73,0.33-6.54,0.98-8.42,1.93c-1.88,0.96-2.82,2.54-2.82,4.75
		c0,2.13,0.78,3.73,2.34,4.79C153.43,386.62,155.82,387.15,159.03,387.15z"/>
	<path d="M235.18,394.62c-4.43,0-8.39-0.93-11.89-2.8c-3.5-1.87-6.25-4.53-8.26-7.99c-2.01-3.46-3.01-7.53-3.01-12.2
		s1-8.71,3.01-12.1c2.01-3.39,4.76-6,8.26-7.82c3.5-1.83,7.46-2.74,11.89-2.74c3.35,0,6.32,0.5,8.92,1.51c2.6,1.01,4.8,2.34,6.6,4
		c1.8,1.66,3.17,3.49,4.11,5.48c0.94,1.99,1.41,3.98,1.41,5.98c0,0.03,0,0.07,0,0.12c0,0.06,0,0.11,0,0.17h-8.92
		c0-0.14-0.01-0.3-0.04-0.48c-0.03-0.18-0.06-0.35-0.08-0.52c-0.22-1.63-0.86-3.08-1.91-4.36c-1.05-1.27-2.44-2.28-4.15-3.03
		c-1.72-0.75-3.72-1.12-6.02-1.12c-2.52,0-4.83,0.55-6.95,1.64c-2.12,1.09-3.81,2.75-5.08,4.96c-1.27,2.21-1.91,4.98-1.91,8.3
		s0.63,6.11,1.89,8.36c1.26,2.25,2.95,3.96,5.06,5.13c2.12,1.16,4.45,1.74,6.99,1.74c2.74,0,4.98-0.42,6.72-1.27
		c1.74-0.84,3.06-1.98,3.94-3.4c0.88-1.42,1.4-2.97,1.54-4.63h8.92c0,1.99-0.46,4-1.37,6.04s-2.26,3.88-4.03,5.54
		c-1.77,1.66-3.96,2.99-6.58,3.98C241.64,394.12,238.61,394.62,235.18,394.62z"/>
	<path d="M287.47,394.58c-4.54,0-8.54-0.98-12.01-2.95c-3.47-1.96-6.18-4.67-8.13-8.11c-1.95-3.44-2.93-7.38-2.93-11.81
		c0-4.45,0.98-8.39,2.93-11.81c1.95-3.42,4.66-6.09,8.13-8.01c3.47-1.92,7.48-2.88,12.01-2.88c4.54,0,8.54,0.96,12.01,2.88
		c3.47,1.92,6.18,4.59,8.13,8.01c1.95,3.42,2.93,7.35,2.93,11.81c0,4.43-0.98,8.36-2.93,11.81c-1.95,3.44-4.66,6.15-8.13,8.11
		C296.01,393.59,292.01,394.58,287.47,394.58z M287.47,386.86c2.77,0,5.2-0.62,7.3-1.87c2.1-1.25,3.75-3.01,4.94-5.29
		c1.19-2.28,1.78-4.94,1.78-7.99c0-3.07-0.6-5.73-1.78-7.97c-1.19-2.24-2.84-3.97-4.94-5.19s-4.54-1.83-7.3-1.83
		c-2.74,0-5.17,0.61-7.28,1.83c-2.12,1.22-3.77,2.95-4.96,5.19c-1.19,2.24-1.78,4.9-1.78,7.97c0,3.04,0.59,5.71,1.78,7.99
		c1.19,2.28,2.84,4.05,4.96,5.29C282.3,386.23,284.73,386.86,287.47,386.86z"/>
	<path d="M320.55,393.75v-44.07h9.01v44.07H320.55z M347.81,393.75v-18.67c0-1.69,0-3.15,0-4.38s0-2.28,0-3.13
		c0-1.08-0.08-2.23-0.23-3.44c-0.15-1.22-0.48-2.36-1-3.42c-0.51-1.06-1.31-1.93-2.39-2.59c-1.08-0.66-2.56-1-4.44-1
		c-1.88,0-3.47,0.37-4.77,1.12c-1.3,0.75-2.35,1.74-3.15,2.97c-0.8,1.23-1.38,2.6-1.74,4.11c-0.36,1.51-0.54,3.02-0.54,4.54
		l-3.82-2.08c0-3.46,0.68-6.61,2.05-9.44s3.31-5.1,5.81-6.81c2.5-1.7,5.46-2.55,8.86-2.55c3.46,0,6.23,0.71,8.32,2.14
		c2.09,1.42,3.6,3.36,4.54,5.81c0.94,2.45,1.41,5.22,1.41,8.32c0,1.13,0,2.62,0,4.44c0,1.83,0,3.94,0,6.35v17.72H347.81z
		 M374.95,393.75v-18.63c0-1.83,0-3.35,0-4.59s0-2.26,0-3.09c0-1.13-0.07-2.3-0.21-3.51c-0.14-1.2-0.47-2.32-1-3.34
		c-0.53-1.02-1.34-1.86-2.43-2.51c-1.09-0.65-2.61-0.98-4.54-0.98c-1.91,0-3.51,0.37-4.79,1.1c-1.29,0.73-2.32,1.7-3.09,2.91
		c-0.77,1.2-1.33,2.53-1.66,3.96s-0.5,2.86-0.5,4.27l-3.82-1.99c0-3.32,0.67-6.38,2.01-9.17c1.34-2.79,3.25-5.03,5.73-6.7
		c2.48-1.67,5.42-2.51,8.82-2.51c3.32,0,6.04,0.66,8.18,1.99c2.13,1.33,3.71,3.17,4.73,5.52c1.02,2.35,1.54,5.08,1.54,8.18
		c0,1.19,0,2.68,0,4.48c0,1.8,0,3.89,0,6.27v18.34H374.95z"/>
	<path d="M399.94,340.54c-1.55,0-2.88-0.42-4-1.27c-1.12-0.84-1.68-2.01-1.68-3.51c0-1.47,0.56-2.62,1.68-3.46s2.46-1.27,4-1.27
		c1.52,0,2.84,0.42,3.96,1.27c1.12,0.84,1.68,2,1.68,3.46c0,1.49-0.56,2.66-1.68,3.51C402.78,340.12,401.46,340.54,399.94,340.54z
		 M395.45,393.75v-44.07h8.88v44.07H395.45z"/>
	<path d="M434.54,394.62c-3.62,0-6.96-0.88-10-2.64c-3.04-1.76-5.48-4.35-7.3-7.78c-1.83-3.43-2.74-7.62-2.74-12.57
		c0-4.84,0.93-8.95,2.78-12.33c1.85-3.38,4.3-5.94,7.35-7.7s6.35-2.64,9.92-2.64c3.43,0,6.62,0.83,9.57,2.49
		c2.95,1.66,5.32,3.96,7.12,6.91c1.8,2.95,2.7,6.34,2.7,10.19c0,0.11,0,0.21,0,0.31s0,0.19,0,0.27l-5.23,0.17c0-0.08,0-0.17,0-0.27
		s0-0.19,0-0.27c0-2.3-0.58-4.34-1.74-6.12c-1.16-1.78-2.69-3.2-4.59-4.23s-3.91-1.56-6.04-1.56c-3.57,0-6.56,1.2-8.96,3.59
		c-2.41,2.39-3.61,6.12-3.61,11.18c0,5.04,1.21,8.76,3.63,11.18c2.42,2.42,5.4,3.63,8.94,3.63c2.21,0,4.26-0.53,6.14-1.6
		c1.88-1.06,3.39-2.52,4.52-4.38s1.7-3.97,1.7-6.35l5.23,0.21c0,3.82-0.87,7.26-2.59,10.33c-1.73,3.07-4.05,5.5-6.97,7.28
		C441.44,393.73,438.17,394.62,434.54,394.62z M448.7,393.75v-64.86h9.05v64.86H448.7z"/>
	<path d="M484.55,394.62c-3.32,0-6.23-0.53-8.74-1.58c-2.5-1.05-4.45-2.56-5.83-4.52c-1.38-1.96-2.08-4.33-2.08-7.1
		c0-2.96,0.78-5.41,2.34-7.35c1.56-1.94,3.72-3.44,6.47-4.5c2.75-1.06,5.89-1.76,9.4-2.1c5.23-0.53,8.92-1.04,11.06-1.54
		c2.14-0.5,3.22-1.31,3.22-2.45c0-0.03,0-0.06,0-0.08c0-2.24-0.95-3.94-2.86-5.1s-4.63-1.74-8.18-1.74c-3.73,0-6.62,0.66-8.65,1.97
		c-2.03,1.31-3.05,3.4-3.05,6.25h-8.84c0-3.38,0.88-6.24,2.63-8.59c1.76-2.35,4.18-4.14,7.28-5.37c3.1-1.23,6.65-1.85,10.67-1.85
		c3.68,0,7.03,0.56,10.06,1.68c3.03,1.12,5.44,2.79,7.24,5c1.8,2.21,2.7,4.97,2.7,8.26c0,0.58,0,1.16,0,1.72c0,0.57,0,1.14,0,1.72
		v17.6c0,1.02,0.04,2.01,0.13,2.97c0.08,0.95,0.23,1.8,0.46,2.55c0.25,0.86,0.55,1.56,0.89,2.12c0.35,0.55,0.63,0.94,0.85,1.16
		h-8.96c-0.17-0.17-0.41-0.52-0.73-1.06c-0.32-0.54-0.6-1.17-0.85-1.89c-0.25-0.69-0.44-1.49-0.56-2.39
		c-0.12-0.9-0.19-1.87-0.19-2.93l1.66,1.16c-0.83,1.61-2.08,3-3.76,4.19c-1.67,1.19-3.68,2.12-6.02,2.78S487.4,394.62,484.55,394.62
		z M486.42,387.15c2.57,0,4.92-0.41,7.03-1.22c2.12-0.82,3.81-2.06,5.08-3.74c1.27-1.67,1.91-3.78,1.91-6.33v-7.3l2.12,2.78
		c-1.77,0.69-3.94,1.25-6.49,1.68c-2.56,0.43-5.2,0.78-7.91,1.06c-3.74,0.33-6.54,0.98-8.42,1.93c-1.88,0.96-2.82,2.54-2.82,4.75
		c0,2.13,0.78,3.73,2.34,4.79C480.82,386.62,483.21,387.15,486.42,387.15z"/>
	<path d="M105.58,503.75v-36.6h-9.5v-7.47h9.5v-4.81c0-2.27,0.28-4.3,0.85-6.1c0.57-1.8,1.36-3.35,2.39-4.67
		c1.02-1.31,2.23-2.4,3.63-3.26c1.4-0.86,2.93-1.5,4.61-1.93c1.67-0.43,3.42-0.64,5.25-0.64c1.49,0,2.66,0.09,3.51,0.27
		c0.84,0.18,1.4,0.34,1.68,0.48v7.51c-0.33-0.11-0.9-0.23-1.7-0.37c-0.8-0.14-1.66-0.21-2.57-0.21c-1.77,0-3.22,0.26-4.36,0.79
		c-1.13,0.53-2.02,1.25-2.66,2.18c-0.64,0.93-1.07,1.99-1.31,3.2c-0.24,1.2-0.35,2.48-0.35,3.84v3.73h12.53v7.47h-12.53v36.6H105.58
		z"/>
	<path d="M147.91,504.62c-3.32,0-6.23-0.53-8.74-1.58c-2.5-1.05-4.45-2.56-5.83-4.52c-1.38-1.96-2.08-4.33-2.08-7.1
		c0-2.96,0.78-5.41,2.34-7.35c1.56-1.94,3.72-3.44,6.47-4.5c2.75-1.06,5.89-1.76,9.4-2.1c5.23-0.53,8.92-1.04,11.06-1.54
		c2.14-0.5,3.22-1.31,3.22-2.45c0-0.03,0-0.06,0-0.08c0-2.24-0.95-3.94-2.86-5.1c-1.91-1.16-4.63-1.74-8.18-1.74
		c-3.73,0-6.62,0.66-8.65,1.97c-2.03,1.31-3.05,3.4-3.05,6.25h-8.84c0-3.38,0.88-6.24,2.64-8.59c1.76-2.35,4.18-4.14,7.28-5.37
		c3.1-1.23,6.65-1.85,10.67-1.85c3.68,0,7.03,0.56,10.06,1.68c3.03,1.12,5.44,2.79,7.24,5c1.8,2.21,2.7,4.97,2.7,8.26
		c0,0.58,0,1.16,0,1.72c0,0.57,0,1.14,0,1.72v17.6c0,1.02,0.04,2.01,0.12,2.97c0.08,0.95,0.23,1.8,0.46,2.55
		c0.25,0.86,0.55,1.56,0.89,2.12c0.35,0.55,0.63,0.94,0.85,1.16h-8.96c-0.17-0.17-0.41-0.52-0.73-1.06
		c-0.32-0.54-0.6-1.17-0.85-1.89c-0.25-0.69-0.44-1.49-0.56-2.39c-0.12-0.9-0.19-1.87-0.19-2.93l1.66,1.16
		c-0.83,1.61-2.08,3-3.76,4.19c-1.67,1.19-3.68,2.12-6.02,2.78C153.35,504.29,150.76,504.62,147.91,504.62z M149.78,497.15
		c2.57,0,4.92-0.41,7.03-1.22c2.12-0.82,3.81-2.06,5.08-3.74c1.27-1.67,1.91-3.78,1.91-6.33v-7.3l2.12,2.78
		c-1.77,0.69-3.94,1.25-6.49,1.68c-2.56,0.43-5.19,0.78-7.91,1.06c-3.73,0.33-6.54,0.98-8.42,1.93c-1.88,0.96-2.82,2.54-2.82,4.75
		c0,2.13,0.78,3.73,2.34,4.79C144.18,496.62,146.57,497.15,149.78,497.15z"/>
	<path d="M218,459.67l-14.28,44.07h-11.95l-14.65-44.07h9.3l12.04,40.3h-1.41l11.66-40.3H218z"/>
	<path d="M244.94,504.58c-4.54,0-8.54-0.98-12.01-2.95c-3.47-1.96-6.18-4.67-8.13-8.11c-1.95-3.44-2.93-7.38-2.93-11.81
		c0-4.45,0.98-8.39,2.93-11.81c1.95-3.42,4.66-6.09,8.13-8.01c3.47-1.92,7.48-2.88,12.01-2.88c4.54,0,8.54,0.96,12.01,2.88
		c3.47,1.92,6.18,4.59,8.13,8.01c1.95,3.42,2.93,7.35,2.93,11.81c0,4.43-0.98,8.36-2.93,11.81c-1.95,3.44-4.66,6.15-8.13,8.11
		C253.48,503.59,249.47,504.58,244.94,504.58z M244.94,496.86c2.77,0,5.2-0.62,7.3-1.87c2.1-1.25,3.75-3.01,4.94-5.29
		c1.19-2.28,1.78-4.94,1.78-7.99c0-3.07-0.6-5.73-1.78-7.97c-1.19-2.24-2.84-3.97-4.94-5.19s-4.54-1.83-7.3-1.83
		c-2.74,0-5.17,0.61-7.28,1.83c-2.12,1.22-3.77,2.95-4.96,5.19c-1.19,2.24-1.78,4.9-1.78,7.97c0,3.04,0.59,5.71,1.78,7.99
		c1.19,2.28,2.84,4.05,4.96,5.29C239.77,496.23,242.2,496.86,244.94,496.86z"/>
	<path d="M278.01,503.75v-44.07h9.01v14.07l-2.41-1.08c0.19-1.8,0.65-3.51,1.37-5.15c0.72-1.63,1.68-3.09,2.88-4.38
		c1.2-1.29,2.69-2.3,4.46-3.05c1.77-0.75,3.82-1.12,6.14-1.12c1.77,0,3.2,0.14,4.29,0.42c1.09,0.28,1.76,0.5,2.01,0.66l-1.91,8.47
		c-0.28-0.19-0.84-0.44-1.68-0.75c-0.84-0.3-2.01-0.46-3.51-0.46c-2.27,0-4.15,0.4-5.64,1.2c-1.49,0.8-2.68,1.87-3.57,3.2
		c-0.89,1.33-1.52,2.77-1.89,4.34c-0.37,1.56-0.56,3.13-0.56,4.71v22.99H278.01z"/>
	<path d="M317.6,450.54c-1.55,0-2.88-0.42-4-1.27c-1.12-0.84-1.68-2.01-1.68-3.51c0-1.47,0.56-2.62,1.68-3.46s2.46-1.27,4-1.27
		c1.52,0,2.84,0.42,3.96,1.27c1.12,0.84,1.68,2,1.68,3.46c0,1.49-0.56,2.66-1.68,3.51C320.44,450.12,319.12,450.54,317.6,450.54z
		 M313.12,503.75v-44.07H322v44.07H313.12z"/>
	<path d="M352.79,504.49c-1.47,0-2.93-0.15-4.38-0.46c-1.45-0.3-2.78-0.86-3.98-1.68c-1.2-0.82-2.17-1.99-2.88-3.51
		c-0.72-1.52-1.08-3.51-1.08-5.98c0-0.58,0-1.19,0-1.83c0-0.64,0-1.29,0-1.95v-21.95h-10.58v-7.47h5.56c1.19,0,2.12-0.05,2.8-0.14
		c0.68-0.1,1.18-0.33,1.49-0.71c0.32-0.37,0.52-0.97,0.6-1.8s0.12-1.96,0.12-3.4v-8.51h9.01v14.57h13.49v7.47h-13.49v19.55
		c0,0.55,0,1.11,0,1.66c0,0.55,0,1.07,0,1.54c0,2.21,0.27,3.96,0.81,5.23c0.54,1.27,1.78,1.91,3.71,1.91c0.83,0,1.62-0.07,2.37-0.21
		c0.75-0.14,1.31-0.29,1.7-0.46v7.35c-0.5,0.19-1.2,0.37-2.12,0.54C355.03,504.41,353.98,504.49,352.79,504.49z"/>
	<path d="M385.49,504.62c-3.32,0-6.23-0.53-8.74-1.58c-2.5-1.05-4.45-2.56-5.83-4.52c-1.38-1.96-2.08-4.33-2.08-7.1
		c0-2.96,0.78-5.41,2.34-7.35c1.56-1.94,3.72-3.44,6.47-4.5c2.75-1.06,5.89-1.76,9.4-2.1c5.23-0.53,8.92-1.04,11.06-1.54
		c2.14-0.5,3.22-1.31,3.22-2.45c0-0.03,0-0.06,0-0.08c0-2.24-0.95-3.94-2.86-5.1c-1.91-1.16-4.63-1.74-8.18-1.74
		c-3.73,0-6.62,0.66-8.65,1.97c-2.03,1.31-3.05,3.4-3.05,6.25h-8.84c0-3.38,0.88-6.24,2.64-8.59c1.76-2.35,4.18-4.14,7.28-5.37
		c3.1-1.23,6.65-1.85,10.67-1.85c3.68,0,7.03,0.56,10.06,1.68c3.03,1.12,5.44,2.79,7.24,5c1.8,2.21,2.7,4.97,2.7,8.26
		c0,0.58,0,1.16,0,1.72c0,0.57,0,1.14,0,1.72v17.6c0,1.02,0.04,2.01,0.12,2.97c0.08,0.95,0.23,1.8,0.46,2.55
		c0.25,0.86,0.55,1.56,0.89,2.12c0.35,0.55,0.63,0.94,0.85,1.16h-8.96c-0.17-0.17-0.41-0.52-0.73-1.06
		c-0.32-0.54-0.6-1.17-0.85-1.89c-0.25-0.69-0.44-1.49-0.56-2.39c-0.12-0.9-0.19-1.87-0.19-2.93l1.66,1.16
		c-0.83,1.61-2.08,3-3.76,4.19c-1.67,1.19-3.68,2.12-6.02,2.78C390.94,504.29,388.34,504.62,385.49,504.62z M387.36,497.15
		c2.57,0,4.92-0.41,7.03-1.22c2.12-0.82,3.81-2.06,5.08-3.74c1.27-1.67,1.91-3.78,1.91-6.33v-7.3l2.12,2.78
		c-1.77,0.69-3.94,1.25-6.49,1.68c-2.56,0.43-5.19,0.78-7.91,1.06c-3.73,0.33-6.54,0.98-8.42,1.93c-1.88,0.96-2.82,2.54-2.82,4.75
		c0,2.13,0.78,3.73,2.34,4.79C381.77,496.62,384.15,497.15,387.36,497.15z"/>
	<path d="M460.4,504.62c-3.63,0-6.96-0.88-10-2.64c-3.04-1.76-5.48-4.35-7.3-7.78c-1.83-3.43-2.74-7.62-2.74-12.57
		c0-4.84,0.93-8.95,2.78-12.33c1.85-3.38,4.3-5.94,7.35-7.7c3.04-1.76,6.35-2.64,9.92-2.64c3.43,0,6.62,0.83,9.57,2.49
		c2.95,1.66,5.32,3.96,7.12,6.91c1.8,2.95,2.7,6.34,2.7,10.19c0,0.11,0,0.21,0,0.31s0,0.19,0,0.27l-5.23,0.17c0-0.08,0-0.17,0-0.27
		s0-0.19,0-0.27c0-2.3-0.58-4.34-1.74-6.12c-1.16-1.78-2.69-3.2-4.59-4.23s-3.91-1.56-6.04-1.56c-3.57,0-6.56,1.2-8.96,3.59
		c-2.41,2.39-3.61,6.12-3.61,11.18c0,5.04,1.21,8.76,3.63,11.18c2.42,2.42,5.4,3.63,8.94,3.63c2.21,0,4.26-0.53,6.14-1.6
		c1.88-1.06,3.39-2.52,4.52-4.38s1.7-3.97,1.7-6.35l5.23,0.21c0,3.82-0.87,7.26-2.59,10.33c-1.73,3.07-4.05,5.5-6.97,7.28
		C467.3,503.73,464.03,504.62,460.4,504.62z M474.55,503.75v-64.86h9.05v64.86H474.55z"/>
	<path d="M498.33,484.86v-7.01h32.45l-1.24,2.08c0-0.17,0-0.34,0-0.52c0-0.18,0-0.34,0-0.48c0-2.24-0.48-4.31-1.45-6.21
		c-0.97-1.89-2.41-3.42-4.34-4.56c-1.92-1.15-4.32-1.72-7.2-1.72c-2.88,0-5.4,0.62-7.57,1.85c-2.17,1.23-3.86,2.97-5.06,5.23
		c-1.2,2.25-1.8,4.96-1.8,8.11c0,3.21,0.58,5.97,1.74,8.28c1.16,2.31,2.83,4.09,5.02,5.33c2.18,1.24,4.8,1.87,7.84,1.87
		c2.13,0,3.98-0.21,5.54-0.64c1.56-0.43,2.85-1,3.86-1.72c1.01-0.72,1.78-1.5,2.3-2.34s0.83-1.68,0.91-2.51h8.96
		c-0.17,1.8-0.75,3.58-1.76,5.33c-1.01,1.76-2.43,3.35-4.27,4.77c-1.84,1.43-4.08,2.56-6.72,3.4c-2.64,0.84-5.68,1.27-9.11,1.27
		c-4.59,0-8.62-0.97-12.08-2.91c-3.46-1.94-6.16-4.63-8.09-8.07c-1.94-3.44-2.91-7.39-2.91-11.85c0-4.54,0.98-8.52,2.95-11.95
		s4.69-6.11,8.18-8.03s7.48-2.88,11.99-2.88c4.59,0,8.57,0.97,11.93,2.91s5.96,4.61,7.78,8.01c1.83,3.4,2.74,7.32,2.74,11.74
		c0,0.53-0.01,1.13-0.04,1.83s-0.07,1.16-0.12,1.41H498.33z"/>
	<path d="M104.83,560l4.07-4.73v26.89l-2.16-2.86h23.2v7.47h-23.2l2.16-2.86v27.1l-4.07-4.73h29.71v7.47H99.85v-61.21h34.69V560
		H104.83z"/>
	<path d="M155.54,548.88v64.86h-8.88v-64.86H155.54z"/>
	<path d="M170.77,594.86v-7.01h32.45l-1.25,2.08c0-0.17,0-0.34,0-0.52c0-0.18,0-0.34,0-0.48c0-2.24-0.48-4.31-1.45-6.21
		c-0.97-1.89-2.41-3.42-4.34-4.56c-1.92-1.15-4.32-1.72-7.2-1.72c-2.88,0-5.4,0.62-7.57,1.85c-2.17,1.23-3.86,2.97-5.06,5.23
		c-1.2,2.25-1.81,4.96-1.81,8.11c0,3.21,0.58,5.97,1.74,8.28c1.16,2.31,2.84,4.09,5.02,5.33c2.19,1.24,4.8,1.87,7.84,1.87
		c2.13,0,3.98-0.21,5.54-0.64c1.56-0.43,2.85-1,3.86-1.72c1.01-0.72,1.78-1.5,2.3-2.34c0.53-0.84,0.83-1.68,0.91-2.51h8.96
		c-0.17,1.8-0.75,3.58-1.76,5.33c-1.01,1.76-2.43,3.35-4.27,4.77c-1.84,1.43-4.08,2.56-6.72,3.4c-2.64,0.84-5.68,1.27-9.11,1.27
		c-4.59,0-8.62-0.97-12.08-2.91c-3.46-1.94-6.16-4.63-8.09-8.07c-1.94-3.44-2.91-7.39-2.91-11.85c0-4.54,0.98-8.52,2.95-11.95
		c1.96-3.43,4.69-6.11,8.18-8.03s7.48-2.88,11.99-2.88c4.59,0,8.57,0.97,11.93,2.91s5.96,4.61,7.78,8.01
		c1.83,3.4,2.74,7.32,2.74,11.74c0,0.53-0.01,1.13-0.04,1.83c-0.03,0.69-0.07,1.16-0.12,1.41H170.77z"/>
	<path d="M256.8,569.67l-14.28,44.07h-11.95l-14.65-44.07h9.3l12.04,40.3h-1.41l11.66-40.3H256.8z"/>
	<path d="M265.64,594.86v-7.01h32.45l-1.25,2.08c0-0.17,0-0.34,0-0.52c0-0.18,0-0.34,0-0.48c0-2.24-0.48-4.31-1.45-6.21
		c-0.97-1.89-2.41-3.42-4.34-4.56c-1.92-1.15-4.32-1.72-7.2-1.72c-2.88,0-5.4,0.62-7.57,1.85c-2.17,1.23-3.86,2.97-5.06,5.23
		c-1.2,2.25-1.81,4.96-1.81,8.11c0,3.21,0.58,5.97,1.74,8.28c1.16,2.31,2.84,4.09,5.02,5.33c2.19,1.24,4.8,1.87,7.84,1.87
		c2.13,0,3.98-0.21,5.54-0.64c1.56-0.43,2.85-1,3.86-1.72c1.01-0.72,1.78-1.5,2.3-2.34c0.53-0.84,0.83-1.68,0.91-2.51h8.96
		c-0.17,1.8-0.75,3.58-1.76,5.33c-1.01,1.76-2.43,3.35-4.27,4.77c-1.84,1.43-4.08,2.56-6.72,3.4c-2.64,0.84-5.68,1.27-9.11,1.27
		c-4.59,0-8.62-0.97-12.08-2.91c-3.46-1.94-6.16-4.63-8.09-8.07c-1.94-3.44-2.91-7.39-2.91-11.85c0-4.54,0.98-8.52,2.95-11.95
		c1.96-3.43,4.69-6.11,8.18-8.03s7.48-2.88,11.99-2.88c4.59,0,8.57,0.97,11.93,2.91s5.96,4.61,7.78,8.01
		c1.83,3.4,2.74,7.32,2.74,11.74c0,0.53-0.01,1.13-0.04,1.83c-0.03,0.69-0.07,1.16-0.12,1.41H265.64z"/>
	<path d="M316.23,613.75v-44.07h9.01v44.07H316.23z M347.6,613.75v-20.33c0-1.19,0-2.2,0-3.03s0-1.6,0-2.32c0-2.16-0.33-4.06-1-5.71
		c-0.66-1.65-1.76-2.93-3.28-3.86c-1.52-0.93-3.56-1.39-6.1-1.39c-2.24,0-4.27,0.55-6.08,1.66c-1.81,1.11-3.25,2.61-4.32,4.5
		c-1.07,1.9-1.6,4.05-1.6,6.45l-3.86-1.91c0-3.57,0.84-6.77,2.53-9.61c1.69-2.83,3.95-5.08,6.79-6.74c2.84-1.66,5.94-2.49,9.32-2.49
		c3.49,0,6.47,0.67,8.94,2.01c2.48,1.34,4.37,3.25,5.69,5.73c1.31,2.48,1.97,5.43,1.97,8.86c0,1.27,0,2.68,0,4.23
		c0,1.55,0,3.04,0,4.48v19.46H347.6z"/>
	<path d="M392.01,594.86v-7.01h32.45l-1.25,2.08c0-0.17,0-0.34,0-0.52c0-0.18,0-0.34,0-0.48c0-2.24-0.48-4.31-1.45-6.21
		c-0.97-1.89-2.41-3.42-4.34-4.56c-1.92-1.15-4.32-1.72-7.2-1.72c-2.88,0-5.4,0.62-7.57,1.85c-2.17,1.23-3.86,2.97-5.06,5.23
		c-1.2,2.25-1.81,4.96-1.81,8.11c0,3.21,0.58,5.97,1.74,8.28c1.16,2.31,2.84,4.09,5.02,5.33c2.19,1.24,4.8,1.87,7.84,1.87
		c2.13,0,3.98-0.21,5.54-0.64c1.56-0.43,2.85-1,3.86-1.72c1.01-0.72,1.78-1.5,2.3-2.34c0.53-0.84,0.83-1.68,0.91-2.51h8.96
		c-0.17,1.8-0.75,3.58-1.76,5.33c-1.01,1.76-2.43,3.35-4.27,4.77c-1.84,1.43-4.08,2.56-6.72,3.4c-2.64,0.84-5.68,1.27-9.11,1.27
		c-4.59,0-8.62-0.97-12.08-2.91c-3.46-1.94-6.16-4.63-8.09-8.07c-1.94-3.44-2.91-7.39-2.91-11.85c0-4.54,0.98-8.52,2.95-11.95
		c1.96-3.43,4.69-6.11,8.18-8.03s7.48-2.88,11.99-2.88c4.59,0,8.57,0.97,11.93,2.91s5.96,4.61,7.78,8.01
		c1.83,3.4,2.74,7.32,2.74,11.74c0,0.53-0.01,1.13-0.04,1.83c-0.03,0.69-0.07,1.16-0.12,1.41H392.01z"/>
	<path d="M442.6,613.75v-44.07h9v44.07H442.6z M473.97,613.75v-20.33c0-1.19,0-2.2,0-3.03s0-1.6,0-2.32c0-2.16-0.33-4.06-1-5.71
		c-0.66-1.65-1.76-2.93-3.28-3.86s-3.55-1.39-6.1-1.39c-2.24,0-4.27,0.55-6.08,1.66c-1.81,1.11-3.25,2.61-4.32,4.5
		c-1.06,1.9-1.6,4.05-1.6,6.45l-3.86-1.91c0-3.57,0.84-6.77,2.53-9.61c1.69-2.83,3.95-5.08,6.78-6.74s5.94-2.49,9.32-2.49
		c3.48,0,6.47,0.67,8.94,2.01c2.47,1.34,4.37,3.25,5.68,5.73c1.31,2.48,1.97,5.43,1.97,8.86c0,1.27,0,2.68,0,4.23
		c0,1.55,0,3.04,0,4.48v19.46H473.97z"/>
	<path d="M105.04,662.53l-0.95,18.3h-5.1l-0.91-18.3H105.04z M118.44,662.53l-0.95,18.3h-5.1l-0.91-18.3H118.44z"/>
	<path d="M150.73,724.62c-4.32,0-8.03-0.68-11.14-2.03c-3.11-1.35-5.52-3.41-7.22-6.16c-1.7-2.75-2.55-6.16-2.55-10.23
		c0-0.52,0-0.98,0-1.37c0-0.39,0-0.83,0-1.33h9.01c0,0.47,0,0.88,0,1.22s0,0.78,0,1.31c0,3.76,1.01,6.52,3.03,8.28
		c2.02,1.76,4.97,2.64,8.84,2.64c3.96,0,6.97-0.67,9.05-2.01c2.08-1.34,3.11-3.51,3.11-6.5c0-2.13-0.64-3.92-1.93-5.37
		c-1.29-1.45-3.06-2.7-5.31-3.76c-2.26-1.05-4.85-2.03-7.78-2.95c-3.29-1.02-6.27-2.33-8.92-3.92c-2.66-1.59-4.77-3.58-6.33-5.98
		c-1.56-2.39-2.34-5.32-2.34-8.78c0-3.4,0.86-6.29,2.57-8.67c1.71-2.38,4.09-4.18,7.14-5.42c3.04-1.23,6.53-1.85,10.46-1.85
		c4.18,0,7.82,0.64,10.94,1.93c3.11,1.29,5.53,3.22,7.26,5.81c1.73,2.59,2.59,5.84,2.59,9.77c0,0.55,0,1.03,0,1.43s0,0.89,0,1.47
		h-9.05c0-0.47,0-0.9,0-1.29s0-0.8,0-1.25c0-3.6-0.98-6.2-2.93-7.8s-4.83-2.41-8.65-2.41c-3.71,0-6.56,0.65-8.57,1.95
		c-2.01,1.3-3.01,3.4-3.01,6.31c0,2.16,0.64,3.96,1.93,5.39c1.29,1.44,3.06,2.67,5.31,3.69c2.25,1.02,4.82,2.02,7.7,2.99
		c3.65,1.22,6.8,2.59,9.44,4.11c2.64,1.52,4.68,3.42,6.12,5.69c1.44,2.27,2.16,5.13,2.16,8.59c0,3.49-0.86,6.46-2.57,8.92
		c-1.72,2.46-4.14,4.34-7.26,5.62C158.69,723.97,154.99,724.62,150.73,724.62z"/>
	<path d="M200.32,724.49c-1.47,0-2.93-0.15-4.38-0.46c-1.45-0.3-2.78-0.86-3.98-1.68c-1.2-0.82-2.17-1.99-2.88-3.51
		c-0.72-1.52-1.08-3.51-1.08-5.98c0-0.58,0-1.19,0-1.83c0-0.64,0-1.29,0-1.95v-21.95h-10.58v-7.47h5.56c1.19,0,2.12-0.05,2.8-0.14
		c0.68-0.1,1.18-0.33,1.49-0.71c0.32-0.37,0.52-0.97,0.6-1.8s0.12-1.96,0.12-3.4v-8.51H197v14.57h13.49v7.47H197v19.55
		c0,0.55,0,1.11,0,1.66c0,0.55,0,1.07,0,1.54c0,2.21,0.27,3.96,0.81,5.23c0.54,1.27,1.78,1.91,3.71,1.91c0.83,0,1.62-0.07,2.37-0.21
		c0.75-0.14,1.31-0.29,1.7-0.46v7.35c-0.5,0.19-1.2,0.37-2.12,0.54C202.56,724.41,201.51,724.49,200.32,724.49z"/>
	<path d="M219.08,723.75v-44.07h9.01v14.07l-2.41-1.08c0.19-1.8,0.65-3.51,1.37-5.15c0.72-1.63,1.68-3.09,2.88-4.38
		c1.2-1.29,2.69-2.3,4.46-3.05c1.77-0.75,3.82-1.12,6.14-1.12c1.77,0,3.2,0.14,4.29,0.42c1.09,0.28,1.76,0.5,2.01,0.66l-1.91,8.47
		c-0.28-0.19-0.84-0.44-1.68-0.75c-0.84-0.3-2.01-0.46-3.51-0.46c-2.27,0-4.15,0.4-5.64,1.2c-1.49,0.8-2.68,1.87-3.57,3.2
		c-0.89,1.33-1.52,2.77-1.89,4.34c-0.37,1.56-0.56,3.13-0.56,4.71v22.99H219.08z"/>
	<path d="M268.51,724.62c-3.32,0-6.23-0.53-8.74-1.58c-2.5-1.05-4.45-2.56-5.83-4.52c-1.38-1.96-2.08-4.33-2.08-7.1
		c0-2.96,0.78-5.41,2.34-7.35c1.56-1.94,3.72-3.44,6.47-4.5c2.75-1.06,5.89-1.76,9.4-2.1c5.23-0.53,8.92-1.04,11.06-1.54
		c2.14-0.5,3.22-1.31,3.22-2.45c0-0.03,0-0.06,0-0.08c0-2.24-0.95-3.94-2.86-5.1c-1.91-1.16-4.63-1.74-8.18-1.74
		c-3.73,0-6.62,0.66-8.65,1.97c-2.03,1.31-3.05,3.4-3.05,6.25h-8.84c0-3.38,0.88-6.24,2.64-8.59c1.76-2.35,4.18-4.14,7.28-5.37
		c3.1-1.23,6.65-1.85,10.67-1.85c3.68,0,7.03,0.56,10.06,1.68c3.03,1.12,5.44,2.79,7.24,5c1.8,2.21,2.7,4.97,2.7,8.26
		c0,0.58,0,1.16,0,1.72c0,0.57,0,1.14,0,1.72v17.6c0,1.02,0.04,2.01,0.12,2.97c0.08,0.95,0.23,1.8,0.46,2.55
		c0.25,0.86,0.55,1.56,0.89,2.12c0.35,0.55,0.63,0.94,0.85,1.16h-8.96c-0.17-0.17-0.41-0.52-0.73-1.06
		c-0.32-0.54-0.6-1.17-0.85-1.89c-0.25-0.69-0.44-1.49-0.56-2.39c-0.12-0.9-0.19-1.87-0.19-2.93l1.66,1.16
		c-0.83,1.61-2.08,3-3.76,4.19c-1.67,1.19-3.68,2.12-6.02,2.78C273.95,724.29,271.36,724.62,268.51,724.62z M270.38,717.15
		c2.57,0,4.92-0.41,7.03-1.22c2.12-0.82,3.81-2.06,5.08-3.74c1.27-1.67,1.91-3.78,1.91-6.33v-7.3l2.12,2.78
		c-1.77,0.69-3.94,1.25-6.49,1.68c-2.56,0.43-5.19,0.78-7.91,1.06c-3.73,0.33-6.54,0.98-8.42,1.93c-1.88,0.96-2.82,2.54-2.82,4.75
		c0,2.13,0.78,3.73,2.34,4.79C264.78,716.62,267.17,717.15,270.38,717.15z"/>
	<path d="M304.32,723.75v-44.07h9.01v44.07H304.32z M335.7,723.75v-20.33c0-1.19,0-2.2,0-3.03s0-1.6,0-2.32c0-2.16-0.33-4.06-1-5.71
		c-0.66-1.65-1.76-2.93-3.28-3.86c-1.52-0.93-3.56-1.39-6.1-1.39c-2.24,0-4.27,0.55-6.08,1.66c-1.81,1.11-3.25,2.61-4.32,4.5
		c-1.07,1.9-1.6,4.05-1.6,6.45l-3.86-1.91c0-3.57,0.84-6.77,2.53-9.61c1.69-2.83,3.95-5.08,6.79-6.74c2.84-1.66,5.94-2.49,9.32-2.49
		c3.49,0,6.47,0.67,8.94,2.01c2.48,1.34,4.37,3.25,5.69,5.73c1.31,2.48,1.97,5.43,1.97,8.86c0,1.27,0,2.68,0,4.23
		c0,1.55,0,3.04,0,4.48v19.46H335.7z"/>
	<path d="M385,720.22c2.49,0.22,4.68,0.68,6.56,1.39c1.88,0.71,3.35,1.74,4.42,3.11c1.06,1.37,1.6,3.17,1.6,5.42
		c0,2.52-0.85,4.71-2.55,6.58c-1.7,1.87-4.24,3.32-7.62,4.36c-3.38,1.04-7.57,1.56-12.57,1.56c-7.17,0-12.63-1.04-16.39-3.11
		c-3.76-2.08-5.64-4.9-5.64-8.47c0-1.08,0.12-2.03,0.37-2.86s0.55-1.52,0.91-2.07l8.38,1.24c-0.19,0.28-0.39,0.69-0.58,1.22
		c-0.19,0.54-0.29,1.2-0.29,1.97c0,1.96,1.2,3.36,3.61,4.19c2.41,0.83,5.74,1.25,10,1.25c3.13,0,5.72-0.21,7.78-0.64
		c2.06-0.43,3.6-1.04,4.63-1.85c1.02-0.8,1.54-1.74,1.54-2.82c0-1.63-0.71-2.66-2.12-3.07s-3.11-0.71-5.1-0.87l-16.72-1.37
		c-2.9-0.25-5.28-1.12-7.12-2.62c-1.84-1.49-2.76-3.38-2.76-5.64c0-1.41,0.36-2.72,1.08-3.94c0.72-1.22,1.56-2.24,2.51-3.07
		s1.78-1.34,2.47-1.54l5.89,2.82c-0.64,0.08-1.4,0.51-2.3,1.27c-0.9,0.76-1.35,1.65-1.35,2.68c0,0.94,0.39,1.72,1.18,2.32
		c0.79,0.61,2.33,1.01,4.63,1.2L385,720.22z M390.52,679.67h8.18l-3.36,17.22c-0.61,3.21-1.72,6.11-3.34,8.69
		c-1.62,2.59-3.8,4.63-6.56,6.12c-2.75,1.49-6.18,2.24-10.27,2.24c-4.26,0-7.93-0.73-11-2.2c-3.07-1.47-5.43-3.51-7.08-6.12
		c-1.65-2.62-2.47-5.6-2.47-8.94c0-3.4,0.85-6.45,2.55-9.13s4.05-4.79,7.06-6.31c3-1.52,6.44-2.28,10.31-2.28
		c3.26,0,6.16,0.55,8.69,1.66c2.53,1.11,4.54,2.52,6.04,4.23c1.49,1.72,2.31,3.5,2.45,5.35l-2.57,0.29L390.52,679.67z
		 M375.12,706.61c2.41,0,4.48-0.39,6.23-1.18c1.74-0.79,3.08-1.94,4.03-3.44c0.94-1.51,1.41-3.33,1.41-5.46
		c0-2.1-0.47-3.91-1.41-5.42c-0.94-1.51-2.28-2.67-4.03-3.49c-1.74-0.82-3.8-1.22-6.18-1.22c-2.3,0-4.32,0.42-6.08,1.27
		c-1.76,0.84-3.13,2.03-4.13,3.55c-1,1.52-1.49,3.33-1.49,5.44c0,2.1,0.47,3.89,1.41,5.38c0.94,1.48,2.28,2.61,4.03,3.4
		C370.64,706.21,372.71,706.61,375.12,706.61z"/>
	<path d="M408.49,704.86v-7.01h32.45l-1.24,2.08c0-0.17,0-0.34,0-0.52c0-0.18,0-0.34,0-0.48c0-2.24-0.48-4.31-1.45-6.21
		c-0.97-1.89-2.41-3.42-4.34-4.56c-1.92-1.15-4.32-1.72-7.2-1.72s-5.4,0.62-7.57,1.85c-2.17,1.23-3.86,2.97-5.06,5.23
		s-1.8,4.96-1.8,8.11c0,3.21,0.58,5.97,1.74,8.28c1.16,2.31,2.84,4.09,5.02,5.33c2.19,1.24,4.8,1.87,7.84,1.87
		c2.13,0,3.98-0.21,5.54-0.64c1.56-0.43,2.85-1,3.86-1.72c1.01-0.72,1.78-1.5,2.3-2.34s0.83-1.68,0.91-2.51h8.96
		c-0.17,1.8-0.75,3.58-1.76,5.33c-1.01,1.76-2.44,3.35-4.28,4.77c-1.84,1.43-4.08,2.56-6.72,3.4s-5.68,1.27-9.11,1.27
		c-4.59,0-8.62-0.97-12.08-2.91c-3.46-1.94-6.16-4.63-8.09-8.07c-1.94-3.44-2.91-7.39-2.91-11.85c0-4.54,0.98-8.52,2.95-11.95
		c1.96-3.43,4.69-6.11,8.18-8.03s7.48-2.88,11.99-2.88c4.59,0,8.57,0.97,11.93,2.91s5.96,4.61,7.78,8.01
		c1.83,3.4,2.74,7.32,2.74,11.74c0,0.53-0.02,1.13-0.04,1.83s-0.07,1.16-0.12,1.41H408.49z"/>
	<path d="M459.07,723.75v-44.07h9.01v14.07l-2.41-1.08c0.19-1.8,0.65-3.51,1.37-5.15c0.72-1.63,1.68-3.09,2.88-4.38
		c1.2-1.29,2.69-2.3,4.46-3.05c1.77-0.75,3.82-1.12,6.14-1.12c1.77,0,3.2,0.14,4.29,0.42c1.09,0.28,1.76,0.5,2.01,0.66l-1.91,8.47
		c-0.28-0.19-0.84-0.44-1.68-0.75c-0.84-0.3-2.01-0.46-3.51-0.46c-2.27,0-4.15,0.4-5.64,1.2c-1.49,0.8-2.68,1.87-3.57,3.2
		s-1.51,2.77-1.89,4.34c-0.37,1.56-0.56,3.13-0.56,4.71v22.99H459.07z"/>
	<path d="M547.94,669.8h-18.55l2.82-4.73v58.47h-9.01v-58.47l3.11,4.73h-18.8v-7.47h40.42V669.8z"/>
	<path d="M556.9,723.55v-64.86h9.01v64.86H556.9z M588.32,723.55V707.4c0-0.72,0-1.59,0-2.61s0-2.07,0-3.13c0-1.06,0-1.96,0-2.68
		c0-3.96-0.81-6.96-2.43-9c-1.62-2.05-4.27-3.07-7.95-3.07c-2.46,0-4.59,0.48-6.39,1.45c-1.8,0.97-3.19,2.3-4.17,3.98
		c-0.98,1.69-1.47,3.61-1.47,5.77l-4.23-1.74c0-3.35,0.81-6.34,2.43-8.98c1.62-2.64,3.85-4.74,6.68-6.29
		c2.84-1.55,6.08-2.32,9.73-2.32c5.31,0,9.44,1.58,12.39,4.75c2.95,3.17,4.42,7.57,4.42,13.22c0,1.44,0,3.13,0,5.08
		c0,1.95,0,4.07,0,6.37v15.36H588.32z"/>
	<path d="M613.3,670.34c-1.55,0-2.88-0.42-4-1.27c-1.12-0.84-1.68-2.01-1.68-3.51c0-1.47,0.56-2.62,1.68-3.46s2.46-1.27,4-1.27
		c1.52,0,2.84,0.42,3.96,1.27c1.12,0.84,1.68,2,1.68,3.46c0,1.49-0.56,2.66-1.68,3.51C616.14,669.92,614.82,670.34,613.3,670.34z
		 M608.82,723.55v-44.07h8.88v44.07H608.82z"/>
	<path d="M629.65,723.55v-44.07h9.01v44.07H629.65z M661.02,723.55v-20.33c0-1.19,0-2.2,0-3.03s0-1.6,0-2.32
		c0-2.16-0.33-4.06-1-5.71c-0.66-1.65-1.76-2.93-3.28-3.86c-1.52-0.93-3.56-1.39-6.1-1.39c-2.24,0-4.27,0.55-6.08,1.66
		s-3.25,2.61-4.32,4.5c-1.07,1.9-1.6,4.05-1.6,6.45l-3.86-1.91c0-3.57,0.84-6.77,2.53-9.61c1.69-2.83,3.95-5.08,6.79-6.74
		c2.84-1.66,5.94-2.49,9.32-2.49c3.49,0,6.47,0.67,8.94,2.01c2.48,1.34,4.37,3.25,5.69,5.73c1.31,2.48,1.97,5.43,1.97,8.86
		c0,1.27,0,2.68,0,4.23c0,1.55,0,3.04,0,4.48v19.46H661.02z"/>
	<path d="M710.32,720.02c2.49,0.22,4.68,0.68,6.56,1.39c1.88,0.71,3.35,1.74,4.42,3.11c1.06,1.37,1.6,3.17,1.6,5.42
		c0,2.52-0.85,4.71-2.55,6.58s-4.24,3.32-7.62,4.36c-3.38,1.04-7.57,1.56-12.57,1.56c-7.17,0-12.63-1.04-16.39-3.11
		c-3.76-2.07-5.64-4.9-5.64-8.47c0-1.08,0.12-2.03,0.37-2.86s0.55-1.52,0.91-2.08l8.38,1.25c-0.19,0.28-0.39,0.68-0.58,1.22
		c-0.19,0.54-0.29,1.2-0.29,1.97c0,1.96,1.2,3.36,3.61,4.19c2.41,0.83,5.74,1.25,10,1.25c3.13,0,5.72-0.21,7.78-0.64
		c2.06-0.43,3.6-1.04,4.63-1.85c1.02-0.8,1.54-1.74,1.54-2.82c0-1.63-0.71-2.66-2.12-3.07s-3.11-0.71-5.1-0.87l-16.72-1.37
		c-2.9-0.25-5.28-1.12-7.12-2.61c-1.84-1.49-2.76-3.38-2.76-5.64c0-1.41,0.36-2.72,1.08-3.94c0.72-1.22,1.56-2.24,2.51-3.07
		s1.78-1.34,2.47-1.54l5.89,2.82c-0.64,0.08-1.4,0.5-2.3,1.27c-0.9,0.76-1.35,1.65-1.35,2.68c0,0.94,0.39,1.72,1.18,2.32
		c0.79,0.61,2.33,1.01,4.63,1.2L710.32,720.02z M715.84,679.47h8.18l-3.36,17.22c-0.61,3.21-1.72,6.11-3.34,8.69
		c-1.62,2.59-3.8,4.63-6.56,6.12c-2.75,1.49-6.18,2.24-10.27,2.24c-4.26,0-7.93-0.73-11-2.2c-3.07-1.47-5.43-3.51-7.08-6.12
		c-1.65-2.61-2.47-5.59-2.47-8.94c0-3.4,0.85-6.45,2.55-9.13c1.7-2.68,4.05-4.79,7.06-6.31c3-1.52,6.44-2.28,10.31-2.28
		c3.26,0,6.16,0.55,8.69,1.66c2.53,1.11,4.54,2.52,6.04,4.23c1.49,1.72,2.31,3.5,2.45,5.35l-2.57,0.29L715.84,679.47z
		 M700.45,706.41c2.41,0,4.48-0.39,6.23-1.18s3.08-1.94,4.03-3.44c0.94-1.51,1.41-3.33,1.41-5.46c0-2.1-0.47-3.91-1.41-5.42
		c-0.94-1.51-2.28-2.67-4.03-3.49c-1.74-0.82-3.8-1.22-6.18-1.22c-2.3,0-4.32,0.42-6.08,1.27c-1.76,0.84-3.13,2.03-4.13,3.55
		c-1,1.52-1.49,3.33-1.49,5.44s0.47,3.89,1.41,5.37c0.94,1.48,2.28,2.62,4.03,3.4C695.97,706.01,698.04,706.41,700.45,706.41z"/>
	<path d="M747.97,724.42c-2.63,0-5.1-0.29-7.43-0.87s-4.36-1.43-6.12-2.55c-1.76-1.12-3.13-2.51-4.11-4.17
		c-0.98-1.66-1.47-3.58-1.47-5.77c0-0.19,0-0.39,0-0.6c0-0.21,0-0.38,0-0.52h8.96c0,0.14,0,0.26,0,0.37s0,0.26,0,0.46
		c0,2.02,0.93,3.55,2.8,4.59c1.87,1.04,4.41,1.56,7.62,1.56c1.88,0,3.6-0.19,5.17-0.58c1.56-0.39,2.81-0.98,3.73-1.79
		c0.93-0.8,1.39-1.83,1.39-3.07c0-2.02-0.99-3.46-2.97-4.32c-1.98-0.86-4.97-1.62-8.98-2.28c-2.19-0.39-4.3-0.89-6.33-1.49
		c-2.03-0.61-3.86-1.42-5.48-2.43c-1.62-1.01-2.91-2.27-3.86-3.78s-1.43-3.33-1.43-5.46c0-2.77,0.83-5.12,2.49-7.06
		c1.66-1.94,3.9-3.4,6.72-4.4c2.82-1,5.93-1.49,9.34-1.49c3.29,0,6.34,0.53,9.15,1.6c2.81,1.07,5.07,2.6,6.79,4.61
		s2.57,4.46,2.57,7.37c0,0.11,0,0.24,0,0.37c0,0.14,0,0.26,0,0.37h-8.92c0-0.11,0-0.21,0-0.29s0-0.18,0-0.29
		c0-1.44-0.46-2.61-1.37-3.53s-2.1-1.6-3.55-2.05c-1.45-0.46-3-0.68-4.63-0.68c-1.49,0-3,0.16-4.5,0.48
		c-1.51,0.32-2.76,0.86-3.76,1.62c-1,0.76-1.49,1.79-1.49,3.09c0,1.33,0.48,2.39,1.45,3.17c0.97,0.79,2.34,1.44,4.11,1.95
		c1.77,0.51,3.83,0.98,6.18,1.39c2.16,0.39,4.26,0.88,6.31,1.47c2.05,0.59,3.89,1.38,5.54,2.34s2.96,2.21,3.94,3.73
		c0.98,1.52,1.47,3.39,1.47,5.6c0,2.3-0.53,4.27-1.58,5.93c-1.05,1.66-2.48,3.04-4.3,4.13c-1.81,1.09-3.87,1.91-6.18,2.45
		C752.94,724.15,750.51,724.42,747.97,724.42z"/>
	<path d="M781.17,662.33l-0.95,18.3h-5.1l-0.91-18.3H781.17z M794.57,662.33l-0.95,18.3h-5.1l-0.91-18.3H794.57z"/>
	<path d="M127.06,834.62c-2.63,0-5.11-0.29-7.43-0.87s-4.36-1.43-6.12-2.55c-1.76-1.12-3.13-2.51-4.11-4.17
		c-0.98-1.66-1.47-3.58-1.47-5.77c0-0.19,0-0.39,0-0.6c0-0.21,0-0.38,0-0.52h8.96c0,0.14,0,0.26,0,0.37s0,0.26,0,0.46
		c0,2.02,0.93,3.55,2.8,4.59s4.41,1.56,7.62,1.56c1.88,0,3.6-0.19,5.17-0.58c1.56-0.39,2.81-0.98,3.74-1.79
		c0.93-0.8,1.39-1.83,1.39-3.07c0-2.02-0.99-3.46-2.97-4.32c-1.98-0.86-4.97-1.62-8.98-2.28c-2.19-0.39-4.29-0.89-6.33-1.49
		s-3.86-1.42-5.48-2.43s-2.9-2.27-3.86-3.78c-0.95-1.51-1.43-3.33-1.43-5.46c0-2.77,0.83-5.12,2.49-7.06c1.66-1.94,3.9-3.4,6.72-4.4
		s5.94-1.49,9.34-1.49c3.29,0,6.34,0.53,9.15,1.6c2.81,1.07,5.07,2.6,6.79,4.61s2.57,4.46,2.57,7.37c0,0.11,0,0.24,0,0.37
		c0,0.14,0,0.26,0,0.37h-8.92c0-0.11,0-0.21,0-0.29s0-0.18,0-0.29c0-1.44-0.46-2.61-1.37-3.53s-2.1-1.6-3.55-2.05
		c-1.45-0.46-2.99-0.68-4.63-0.68c-1.49,0-2.99,0.16-4.5,0.48c-1.51,0.32-2.76,0.86-3.76,1.62c-1,0.76-1.49,1.79-1.49,3.09
		c0,1.33,0.48,2.39,1.45,3.17c0.97,0.79,2.34,1.44,4.11,1.95c1.77,0.51,3.83,0.98,6.18,1.39c2.16,0.39,4.26,0.88,6.31,1.47
		c2.05,0.59,3.89,1.38,5.54,2.34s2.96,2.21,3.94,3.73c0.98,1.52,1.47,3.39,1.47,5.6c0,2.3-0.53,4.27-1.58,5.93
		c-1.05,1.66-2.48,3.04-4.29,4.13c-1.81,1.09-3.88,1.91-6.18,2.45C132.03,834.35,129.6,834.62,127.06,834.62z"/>
	<path d="M177.64,834.58c-4.54,0-8.54-0.98-12.01-2.95s-6.18-4.67-8.13-8.11s-2.93-7.38-2.93-11.81c0-4.45,0.98-8.39,2.93-11.81
		s4.66-6.09,8.13-8.01s7.48-2.88,12.01-2.88c4.54,0,8.54,0.96,12.01,2.88c3.47,1.92,6.18,4.59,8.13,8.01
		c1.95,3.42,2.93,7.35,2.93,11.81c0,4.43-0.98,8.36-2.93,11.81c-1.95,3.44-4.66,6.15-8.13,8.11
		C186.19,833.59,182.18,834.58,177.64,834.58z M177.64,826.86c2.77,0,5.2-0.62,7.3-1.87s3.75-3.01,4.94-5.29s1.79-4.95,1.79-7.99
		c0-3.07-0.6-5.73-1.79-7.97c-1.19-2.24-2.84-3.97-4.94-5.19c-2.1-1.22-4.54-1.83-7.3-1.83c-2.74,0-5.17,0.61-7.28,1.83
		c-2.12,1.22-3.77,2.95-4.96,5.19c-1.19,2.24-1.79,4.9-1.79,7.97c0,3.04,0.59,5.71,1.79,7.99c1.19,2.28,2.84,4.05,4.96,5.29
		S174.9,826.86,177.64,826.86z"/>
	<path d="M210.72,833.75v-44.07h9.01v44.07H210.72z M242.09,833.75v-20.33c0-1.19,0-2.2,0-3.03s0-1.6,0-2.32
		c0-2.16-0.33-4.06-1-5.71c-0.66-1.65-1.76-2.93-3.28-3.86s-3.55-1.39-6.1-1.39c-2.24,0-4.27,0.55-6.08,1.66
		c-1.81,1.11-3.25,2.61-4.32,4.5c-1.07,1.9-1.6,4.05-1.6,6.45l-3.86-1.91c0-3.57,0.84-6.77,2.53-9.61c1.69-2.83,3.95-5.08,6.79-6.74
		c2.84-1.66,5.94-2.49,9.32-2.49c3.49,0,6.47,0.67,8.94,2.01c2.48,1.34,4.37,3.25,5.68,5.73c1.31,2.48,1.97,5.43,1.97,8.86
		c0,1.27,0,2.68,0,4.23c0,1.55,0,3.04,0,4.48v19.46H242.09z"/>
	<path d="M292.72,768.88v64.86h-8.88v-64.86H292.72z"/>
	<path d="M326.05,834.58c-4.54,0-8.54-0.98-12.01-2.95s-6.18-4.67-8.13-8.11s-2.93-7.38-2.93-11.81c0-4.45,0.98-8.39,2.93-11.81
		s4.66-6.09,8.13-8.01s7.48-2.88,12.01-2.88c4.54,0,8.54,0.96,12.01,2.88c3.47,1.92,6.18,4.59,8.13,8.01
		c1.95,3.42,2.93,7.35,2.93,11.81c0,4.43-0.98,8.36-2.93,11.81c-1.95,3.44-4.66,6.15-8.13,8.11
		C334.59,833.59,330.58,834.58,326.05,834.58z M326.05,826.86c2.77,0,5.2-0.62,7.3-1.87s3.75-3.01,4.94-5.29s1.79-4.95,1.79-7.99
		c0-3.07-0.6-5.73-1.79-7.97c-1.19-2.24-2.84-3.97-4.94-5.19c-2.1-1.22-4.54-1.83-7.3-1.83c-2.74,0-5.17,0.61-7.28,1.83
		c-2.12,1.22-3.77,2.95-4.96,5.19c-1.19,2.24-1.79,4.9-1.79,7.97c0,3.04,0.59,5.71,1.79,7.99c1.19,2.28,2.84,4.05,4.96,5.29
		S323.31,826.86,326.05,826.86z"/>
	<path d="M376.47,834.62c-2.63,0-5.1-0.29-7.43-0.87s-4.36-1.43-6.12-2.55c-1.76-1.12-3.13-2.51-4.11-4.17
		c-0.98-1.66-1.47-3.58-1.47-5.77c0-0.19,0-0.39,0-0.6c0-0.21,0-0.38,0-0.52h8.96c0,0.14,0,0.26,0,0.37s0,0.26,0,0.46
		c0,2.02,0.93,3.55,2.8,4.59c1.87,1.04,4.41,1.56,7.62,1.56c1.88,0,3.6-0.19,5.17-0.58c1.56-0.39,2.81-0.98,3.74-1.79
		c0.93-0.8,1.39-1.83,1.39-3.07c0-2.02-0.99-3.46-2.97-4.32c-1.98-0.86-4.97-1.62-8.98-2.28c-2.19-0.39-4.29-0.89-6.33-1.49
		c-2.03-0.61-3.86-1.42-5.48-2.43c-1.62-1.01-2.91-2.27-3.86-3.78c-0.96-1.51-1.43-3.33-1.43-5.46c0-2.77,0.83-5.12,2.49-7.06
		c1.66-1.94,3.9-3.4,6.72-4.4c2.82-1,5.93-1.49,9.34-1.49c3.29,0,6.34,0.53,9.15,1.6c2.81,1.07,5.07,2.6,6.79,4.61
		c1.71,2.01,2.57,4.46,2.57,7.37c0,0.11,0,0.24,0,0.37c0,0.14,0,0.26,0,0.37h-8.92c0-0.11,0-0.21,0-0.29s0-0.18,0-0.29
		c0-1.44-0.46-2.61-1.37-3.53c-0.91-0.91-2.1-1.6-3.55-2.05c-1.45-0.46-3-0.68-4.63-0.68c-1.49,0-3,0.16-4.5,0.48
		c-1.51,0.32-2.76,0.86-3.76,1.62c-1,0.76-1.49,1.79-1.49,3.09c0,1.33,0.48,2.39,1.45,3.17c0.97,0.79,2.34,1.44,4.11,1.95
		c1.77,0.51,3.83,0.98,6.18,1.39c2.16,0.39,4.26,0.88,6.31,1.47c2.05,0.59,3.89,1.38,5.54,2.34c1.65,0.97,2.96,2.21,3.94,3.73
		c0.98,1.52,1.47,3.39,1.47,5.6c0,2.3-0.53,4.27-1.58,5.93c-1.05,1.66-2.48,3.04-4.29,4.13c-1.81,1.09-3.87,1.91-6.18,2.45
		C381.44,834.35,379.01,834.62,376.47,834.62z"/>
	<path d="M453.63,834.18c-1.47,0-2.93-0.15-4.38-0.46c-1.45-0.3-2.78-0.86-3.98-1.68c-1.2-0.82-2.17-1.98-2.88-3.51
		c-0.72-1.52-1.08-3.51-1.08-5.98c0-0.58,0-1.19,0-1.83c0-0.64,0-1.29,0-1.95v-21.95h-10.58v-7.47h5.56c1.19,0,2.12-0.05,2.8-0.14
		c0.68-0.1,1.18-0.33,1.49-0.71c0.32-0.37,0.52-0.98,0.6-1.8c0.08-0.83,0.12-1.96,0.12-3.4v-8.51h9.01v14.57h13.49v7.47h-13.49
		v19.55c0,0.55,0,1.11,0,1.66c0,0.55,0,1.07,0,1.54c0,2.21,0.27,3.96,0.81,5.23s1.78,1.91,3.71,1.91c0.83,0,1.62-0.07,2.37-0.21
		c0.75-0.14,1.31-0.29,1.7-0.46v7.35c-0.5,0.19-1.2,0.37-2.12,0.54C455.87,834.1,454.82,834.18,453.63,834.18z"/>
	<path d="M486.33,834.31c-3.32,0-6.23-0.53-8.74-1.58c-2.5-1.05-4.45-2.56-5.83-4.52c-1.38-1.96-2.08-4.33-2.08-7.1
		c0-2.96,0.78-5.41,2.34-7.35c1.56-1.94,3.72-3.44,6.47-4.5c2.75-1.06,5.89-1.76,9.4-2.1c5.23-0.53,8.92-1.04,11.06-1.54
		c2.14-0.5,3.22-1.31,3.22-2.45c0-0.03,0-0.05,0-0.08c0-2.24-0.95-3.94-2.86-5.1c-1.91-1.16-4.63-1.74-8.18-1.74
		c-3.73,0-6.62,0.66-8.65,1.97c-2.03,1.31-3.05,3.4-3.05,6.25h-8.84c0-3.38,0.88-6.24,2.64-8.59c1.76-2.35,4.18-4.14,7.28-5.37
		c3.1-1.23,6.65-1.85,10.67-1.85c3.68,0,7.03,0.56,10.06,1.68c3.03,1.12,5.44,2.79,7.24,5c1.8,2.21,2.7,4.97,2.7,8.26
		c0,0.58,0,1.16,0,1.72c0,0.57,0,1.14,0,1.72v17.6c0,1.02,0.04,2.01,0.12,2.97c0.08,0.96,0.23,1.81,0.46,2.55
		c0.25,0.86,0.55,1.56,0.89,2.12c0.35,0.55,0.63,0.94,0.85,1.16h-8.96c-0.17-0.17-0.41-0.52-0.73-1.06
		c-0.32-0.54-0.6-1.17-0.85-1.89c-0.25-0.69-0.44-1.49-0.56-2.39c-0.12-0.9-0.19-1.87-0.19-2.93l1.66,1.16
		c-0.83,1.61-2.08,3-3.76,4.19c-1.67,1.19-3.68,2.12-6.02,2.78C491.77,833.97,489.18,834.31,486.33,834.31z M488.2,826.84
		c2.57,0,4.92-0.41,7.03-1.22c2.12-0.82,3.81-2.06,5.08-3.74c1.27-1.67,1.91-3.78,1.91-6.33v-7.3l2.12,2.78
		c-1.77,0.69-3.94,1.25-6.49,1.68c-2.56,0.43-5.19,0.78-7.91,1.06c-3.73,0.33-6.54,0.98-8.42,1.93c-1.88,0.95-2.82,2.54-2.82,4.75
		c0,2.13,0.78,3.73,2.34,4.79C482.6,826.3,484.99,826.84,488.2,826.84z"/>
	<path d="M543.52,834.31c-4.43,0-8.39-0.93-11.89-2.8c-3.5-1.87-6.25-4.53-8.26-7.99c-2.01-3.46-3.01-7.52-3.01-12.2
		s1-8.71,3.01-12.1c2.01-3.39,4.76-6,8.26-7.82c3.5-1.83,7.46-2.74,11.89-2.74c3.35,0,6.32,0.5,8.92,1.51c2.6,1.01,4.8,2.34,6.6,4
		c1.8,1.66,3.17,3.49,4.11,5.48c0.94,1.99,1.41,3.98,1.41,5.98c0,0.03,0,0.07,0,0.12c0,0.06,0,0.11,0,0.17h-8.92
		c0-0.14-0.01-0.3-0.04-0.48c-0.03-0.18-0.06-0.35-0.08-0.52c-0.22-1.63-0.86-3.08-1.91-4.36c-1.05-1.27-2.44-2.28-4.15-3.03
		c-1.72-0.75-3.72-1.12-6.02-1.12c-2.52,0-4.83,0.55-6.95,1.64c-2.12,1.09-3.81,2.75-5.08,4.96c-1.27,2.21-1.91,4.98-1.91,8.3
		c0,3.32,0.63,6.11,1.89,8.36c1.26,2.25,2.95,3.96,5.06,5.13c2.12,1.16,4.45,1.74,6.99,1.74c2.74,0,4.98-0.42,6.72-1.27
		c1.74-0.84,3.06-1.98,3.94-3.4c0.88-1.42,1.4-2.97,1.54-4.63h8.92c0,1.99-0.46,4-1.37,6.04c-0.91,2.03-2.26,3.88-4.03,5.54
		c-1.77,1.66-3.96,2.99-6.58,3.98C549.97,833.81,546.95,834.31,543.52,834.31z"/>
	<path d="M595.81,834.27c-4.54,0-8.54-0.98-12.01-2.95c-3.47-1.96-6.18-4.67-8.13-8.11c-1.95-3.44-2.93-7.38-2.93-11.81
		c0-4.45,0.98-8.39,2.93-11.81c1.95-3.42,4.66-6.09,8.13-8.01c3.47-1.92,7.48-2.88,12.01-2.88c4.54,0,8.54,0.96,12.01,2.88
		c3.47,1.92,6.18,4.59,8.13,8.01c1.95,3.42,2.93,7.35,2.93,11.81c0,4.43-0.98,8.36-2.93,11.81c-1.95,3.44-4.66,6.15-8.13,8.11
		C604.35,833.28,600.34,834.27,595.81,834.27z M595.81,826.55c2.77,0,5.2-0.62,7.3-1.87s3.75-3.01,4.94-5.29s1.78-4.95,1.78-7.99
		c0-3.07-0.6-5.73-1.78-7.97c-1.19-2.24-2.84-3.97-4.94-5.19c-2.1-1.22-4.54-1.83-7.3-1.83c-2.74,0-5.17,0.61-7.28,1.83
		c-2.12,1.22-3.77,2.95-4.96,5.19c-1.19,2.24-1.78,4.9-1.78,7.97c0,3.04,0.59,5.71,1.78,7.99c1.19,2.28,2.84,4.05,4.96,5.29
		C590.64,825.92,593.07,826.55,595.81,826.55z"/>
	<path d="M646.23,834.31c-2.63,0-5.1-0.29-7.43-0.87s-4.36-1.43-6.12-2.55c-1.76-1.12-3.13-2.51-4.11-4.17
		c-0.98-1.66-1.47-3.58-1.47-5.77c0-0.19,0-0.39,0-0.6c0-0.21,0-0.38,0-0.52h8.96c0,0.14,0,0.26,0,0.37s0,0.26,0,0.46
		c0,2.02,0.93,3.55,2.8,4.59c1.87,1.04,4.41,1.56,7.62,1.56c1.88,0,3.6-0.19,5.17-0.58c1.56-0.39,2.81-0.98,3.73-1.79
		c0.93-0.8,1.39-1.83,1.39-3.07c0-2.02-0.99-3.46-2.97-4.32c-1.98-0.86-4.97-1.62-8.98-2.28c-2.19-0.39-4.3-0.89-6.33-1.49
		c-2.03-0.61-3.86-1.42-5.48-2.43c-1.62-1.01-2.91-2.27-3.86-3.78s-1.43-3.33-1.43-5.46c0-2.77,0.83-5.12,2.49-7.06
		c1.66-1.94,3.9-3.4,6.72-4.4c2.82-1,5.93-1.49,9.34-1.49c3.29,0,6.34,0.53,9.15,1.6c2.81,1.07,5.07,2.6,6.79,4.61
		s2.57,4.46,2.57,7.37c0,0.11,0,0.24,0,0.37c0,0.14,0,0.26,0,0.37h-8.92c0-0.11,0-0.21,0-0.29s0-0.18,0-0.29
		c0-1.44-0.46-2.61-1.37-3.53s-2.1-1.6-3.55-2.05c-1.45-0.46-3-0.68-4.63-0.68c-1.49,0-3,0.16-4.5,0.48
		c-1.51,0.32-2.76,0.86-3.76,1.62c-1,0.76-1.49,1.79-1.49,3.09c0,1.33,0.48,2.39,1.45,3.17c0.97,0.79,2.34,1.44,4.11,1.95
		c1.77,0.51,3.83,0.98,6.18,1.39c2.16,0.39,4.26,0.88,6.31,1.47c2.05,0.59,3.89,1.38,5.54,2.34s2.96,2.21,3.94,3.73
		c0.98,1.52,1.47,3.39,1.47,5.6c0,2.3-0.53,4.27-1.58,5.93c-1.05,1.66-2.48,3.04-4.3,4.13c-1.81,1.09-3.87,1.91-6.18,2.45
		C651.2,834.04,648.77,834.31,646.23,834.31z"/>
	<path d="M680.8,834.56c-1.55,0-2.86-0.53-3.92-1.58c-1.07-1.05-1.6-2.35-1.6-3.9c0-1.52,0.53-2.82,1.6-3.88
		c1.06-1.07,2.37-1.6,3.92-1.6c1.49,0,2.78,0.53,3.86,1.6c1.08,1.06,1.62,2.36,1.62,3.88c0,1.55-0.53,2.85-1.6,3.9
		C683.61,834.03,682.32,834.56,680.8,834.56z"/>
</g>
</svg>
