<svg width="28" height="43" viewBox="0 0 28 43" fill="none" xmlns="http://www.w3.org/2000/svg">
<path d="M15.8999 23.825H12.7V25.825H15.8999V23.825Z" fill="black"/>
<path d="M14.5 26.225C15.5 26.225 16.3999 26.425 17.2999 26.725C17.2999 26.625 17.3999 26.525 17.3999 26.425V24.325V23.125C17.3999 22.725 17.0999 22.525 16.7999 22.525H16.1H12.8999H12.2999C11.8999 22.525 11.7 22.825 11.7 23.125V24.325V26.425C11.7 26.525 11.6999 26.625 11.7999 26.725C12.4999 26.425 13.5 26.225 14.5 26.225ZM12.7 25.825V23.825H16V25.825H12.7Z" fill="black"/>
<path d="M14.4999 40.725C18.1999 40.725 21.0999 37.725 21.0999 34.125C21.0999 30.525 18.0999 27.525 14.4999 27.525C10.7999 27.525 7.8999 30.525 7.8999 34.125C7.8999 37.725 10.6999 40.725 14.4999 40.725ZM14.4999 29.025C17.2999 29.025 19.5999 31.325 19.5999 34.125C19.5999 36.925 17.2999 39.225 14.4999 39.225C11.6999 39.225 9.3999 36.925 9.3999 34.125C9.3999 31.325 11.5999 29.025 14.4999 29.025Z" fill="#FD9D9D"/>
<path d="M14.5 42.025C18.9 42.025 22.4 38.525 22.4 34.125C22.4 30.725 20.3 27.925 17.3 26.725C16.4 26.425 15.5 26.225 14.5 26.225C13.5 26.225 12.6 26.425 11.7 26.725C8.69999 27.825 6.59999 30.725 6.59999 34.125C6.49999 38.525 9.99999 42.025 14.5 42.025ZM14.5 27.525C18.2 27.525 21.1 30.525 21.1 34.125C21.1 37.725 18.1 40.725 14.5 40.725C10.8 40.725 7.89999 37.725 7.89999 34.125C7.89999 30.525 10.7 27.525 14.5 27.525Z" fill="black"/>
<path d="M14.4999 39.225C17.2999 39.225 19.5999 36.925 19.5999 34.125C19.5999 31.325 17.2999 29.025 14.4999 29.025C11.6999 29.025 9.3999 31.325 9.3999 34.125C9.3999 36.925 11.5999 39.225 14.4999 39.225Z" fill="black"/>
<path d="M1.19995 15.225C1.19995 16.725 2.39995 17.825 3.79995 17.825C5.19995 17.825 6.39995 16.625 6.39995 15.225C6.39995 13.825 5.19995 12.625 3.79995 12.625C2.39995 12.625 1.19995 13.725 1.19995 15.225Z" fill="white"/>
<path d="M3.9 19.125C6.1 19.125 7.8 17.325 7.8 15.225C7.8 13.025 6 11.325 3.9 11.325C1.8 11.325 0 13.125 0 15.225C0 17.325 1.7 19.125 3.9 19.125ZM6.5 15.225C6.5 16.725 5.3 17.825 3.9 17.825C2.5 17.825 1.3 16.625 1.3 15.225C1.3 13.825 2.5 12.625 3.9 12.625C5.3 12.625 6.5 13.725 6.5 15.225Z" fill="black"/>
<path d="M12.5001 5.625C13.5001 6.625 15.2001 6.625 16.2001 5.625C17.2001 4.625 17.2001 2.925 16.2001 1.925C15.7001 1.425 15.0001 1.125 14.3001 1.125C13.6001 1.125 13.0001 1.425 12.4001 1.925C11.5001 2.925 11.5001 4.625 12.5001 5.625Z" fill="white"/>
<path d="M14.3999 7.725C15.3999 7.725 16.4 7.325 17.2 6.625C18.7 5.125 18.7 2.625 17.2 1.125C15.7 -0.375 13.2 -0.375 11.7 1.125C10.2 2.625 10.2 5.125 11.7 6.625C12.4 7.325 13.3999 7.725 14.3999 7.725ZM14.3999 1.125C15.0999 1.125 15.6999 1.425 16.2999 1.925C17.2999 2.925 17.2999 4.625 16.2999 5.625C15.2999 6.625 13.6 6.625 12.6 5.625C11.6 4.625 11.6 2.925 12.6 1.925C13 1.425 13.5999 1.125 14.3999 1.125Z" fill="black"/>
<path d="M20.8999 15.225C20.8999 16.725 22.0999 17.825 23.4999 17.825C24.8999 17.825 26.0999 16.625 26.0999 15.225C26.0999 13.825 24.8999 12.625 23.4999 12.625C22.0999 12.625 20.8999 13.725 20.8999 15.225Z" fill="white"/>
<path d="M23.5 19.125C25.7 19.125 27.4 17.325 27.4 15.225C27.4 13.025 25.6 11.325 23.5 11.325C21.3 11.325 19.6 13.125 19.6 15.225C19.5 17.325 21.4 19.125 23.5 19.125ZM26.1 15.225C26.1 16.725 24.9 17.825 23.5 17.825C22.1 17.825 20.9 16.625 20.9 15.225C20.9 13.825 22.1 12.625 23.5 12.625C24.9 12.625 26.1 13.725 26.1 15.225Z" fill="black"/>
<path d="M16.7001 25.425C16.7001 25.525 16.6001 25.625 16.5001 25.625H12.5001C12.4001 25.625 12.3 25.525 12.3 25.425V9.92497C12.3 9.82497 12.4001 9.72498 12.5001 9.72498H16.5001C16.6001 9.72498 16.7001 9.82497 16.7001 9.92497V25.425Z" fill="#CD5643"/>
<path d="M16.7001 25.425C16.7001 25.525 16.6001 25.625 16.5001 25.625H12.5001C12.4001 25.625 12.3 25.525 12.3 25.425V9.92497C12.3 9.82497 12.4001 9.72498 12.5001 9.72498H16.5001C16.6001 9.72498 16.7001 9.82497 16.7001 9.92497V25.425Z" stroke="black" stroke-width="1.3" stroke-miterlimit="10"/>
</svg>
