<svg width="80" height="87" viewBox="0 0 80 87" fill="none" xmlns="http://www.w3.org/2000/svg">
<path fill-rule="evenodd" clip-rule="evenodd" d="M17.8085 73.1474L8.27574 42.2421C7.90389 40.9856 8.33549 39.7128 9.4476 38.9567L35.7828 20.3569C36.7936 19.6123 38.3053 19.6101 39.3213 20.3868L65.2593 39.7765C66.2722 40.5436 66.7569 41.8899 66.3253 43.1627L55.9319 73.7326C55.5003 75.0055 54.3882 75.7616 53.0761 75.7312L20.7165 75.2702C19.3092 75.2703 18.1834 74.4134 17.8085 73.1474Z" fill="#D96E25"/>
<path d="M52.9291 76.1564L20.5695 75.6954C19.0578 75.6976 17.8192 74.7509 17.326 73.3128L7.79327 42.4074C7.39837 40.9483 7.89873 39.4644 9.09112 38.5984L35.5341 19.9746C36.7265 19.1087 38.3575 19.1837 39.5751 20.0322L65.5131 39.4219C66.7403 40.2673 67.1467 41.8278 66.7446 43.2907L56.14 73.7918C55.7345 75.2768 54.4408 76.1543 52.9291 76.1564ZM18.2013 73.0948C18.5436 74.1612 19.4552 74.9398 20.664 74.8774L53.0236 75.3384C54.1426 75.3888 55.1533 74.6442 55.5067 73.5855L65.9001 43.0156C66.263 41.9539 65.9026 40.7988 64.9995 40.112L39.0614 20.7222C38.1583 20.0354 36.9506 20.003 36.0381 20.7265L9.59508 39.3504C8.6741 39.9821 8.31973 41.1357 8.67159 42.199L18.2013 73.0948Z" fill="black"/>
<path fill-rule="evenodd" clip-rule="evenodd" d="M15.7615 66.9673L5.16277 32.6757C4.77939 31.3179 5.27975 29.834 6.38034 28.9765L35.6676 8.25279C36.86 7.38688 38.3927 7.48299 39.6073 8.3219L68.355 29.8554C69.4808 30.7123 69.9886 32.2613 69.4652 33.5426L57.9209 67.4962C57.4978 68.8608 56.2071 69.7478 54.6954 69.7499L18.8099 69.2655C17.4849 69.2603 16.2462 68.3136 15.7615 66.9673Z" fill="#F9D100"/>
<path d="M54.7561 70.2661L18.8706 69.7817C17.2576 69.7953 15.7993 68.6881 15.3834 67.1307L4.78463 32.8391C4.26736 31.2932 4.84905 29.6046 6.24105 28.7062L35.5283 7.98242C36.822 7.10499 38.6346 7.05873 39.8702 7.99591L68.6065 29.4281C69.9434 30.3538 70.3824 32.1138 69.882 33.5978L58.3378 67.5514C57.8509 69.2411 56.3661 70.2429 54.7561 70.2661ZM16.1428 66.8134C16.5061 67.9781 17.6319 68.8349 18.8396 68.8674L54.7252 69.3518C55.9455 69.3907 57.1463 68.6166 57.4796 67.3648L69.0239 33.4112C69.467 32.2397 68.9823 30.8934 67.9694 30.1263L39.2331 8.69406C38.2202 7.92696 36.8068 7.90808 35.796 8.65267L6.70833 29.3438C5.69754 30.0884 5.26288 31.3518 5.62627 32.5164L16.1428 66.8134Z" fill="black"/>
<path fill-rule="evenodd" clip-rule="evenodd" d="M37.5841 16.4808L13.4426 33.4731L22.2055 61.6533L51.7349 62.0987L61.2706 34.1567L37.5841 16.4808Z" fill="#DF932D"/>
<path d="M51.6862 62.5028L22.1598 62.0669C21.9572 62.09 21.8359 61.9084 21.723 61.8186L12.9601 33.6384C12.937 33.4357 13.0058 33.2246 13.1071 33.2131L37.2487 16.2207C37.4303 16.0994 37.6299 16.0669 37.7542 16.258L61.5305 33.8211C61.6433 33.9109 61.7646 34.0925 61.6959 34.3036L52.1572 62.2361C52.0674 62.3489 51.8888 62.4797 51.6862 62.5028ZM22.4654 61.3177L51.3879 61.7373L60.6993 34.34L37.5595 16.9927L13.889 33.7183L22.4654 61.3177Z" fill="black"/>
<path fill-rule="evenodd" clip-rule="evenodd" d="M37.4715 16.3911L44.5616 31.4759L61.0596 34.0881L48.9963 45.6172L51.5324 62.1219L36.9255 54.1133L22.0061 61.686L25.1419 45.314L13.3445 33.4943L29.7984 31.2579L37.4715 16.3911Z" fill="#F9D100"/>
<path d="M51.585 62.5146C51.4837 62.5261 51.4837 62.5261 51.3739 62.4458L36.8883 54.6189L22.2488 62.0492C22.0671 62.1705 21.9478 62.0933 21.835 62.0035C21.7221 61.9137 21.6008 61.7321 21.6811 61.6223L24.7386 45.4644L13.0721 33.8233C12.9592 33.7335 12.9297 33.5434 13.0195 33.4305C13.1093 33.3177 13.1896 33.2079 13.3892 33.1753L29.7563 31.0614L37.2593 16.4172C37.3491 16.3043 37.4294 16.1945 37.629 16.162C37.8316 16.1389 37.9414 16.2192 37.9645 16.4219L45.022 31.307L61.3269 33.9393C61.5296 33.9162 61.6509 34.0978 61.6624 34.1992C61.6855 34.4018 61.7065 34.5001 61.5154 34.6245L49.5303 45.9393L52.1478 62.2394C52.1709 62.442 52.0906 62.5518 52.0008 62.6647C51.6863 62.503 51.6863 62.503 51.585 62.5146ZM14.1921 33.7788L25.4018 44.9784C25.5147 45.0682 25.5442 45.2583 25.5557 45.3596L22.6126 60.8926L36.6798 53.7406C36.7811 53.729 36.9807 53.6965 37.0936 53.7863L51.0441 61.3859L48.613 45.6666C48.6015 45.5653 48.6703 45.3542 48.7716 45.3427L60.2054 34.4043L44.5254 31.8866C44.4241 31.8981 44.3143 31.8178 44.1899 31.6267L37.4191 17.4056L30.2417 31.4937C30.1519 31.6066 30.0716 31.7164 29.9703 31.7279L14.1921 33.7788Z" fill="black"/>
<path fill-rule="evenodd" clip-rule="evenodd" d="M48.2557 41.6746C48.2557 41.6746 43.1647 47.3105 37.0969 47.2208C31.0291 47.1312 26.0144 41.3577 26.0144 41.3577C26.0144 41.3577 31.1054 35.7219 37.1732 35.8115C43.241 35.9011 48.2557 41.6746 48.2557 41.6746Z" fill="#DF932D"/>
<path d="M37.0492 47.5302C30.7818 47.4732 25.8769 41.78 25.6542 41.6099C25.5329 41.4283 25.5004 41.2287 25.6915 41.1043C25.8616 40.8816 30.9641 35.3471 37.2315 35.4042C43.4989 35.4612 48.4038 41.1545 48.6264 41.3245C48.7478 41.5062 48.7803 41.7058 48.5892 41.8301C48.4306 42.1541 43.3186 47.6917 37.0492 47.5302ZM26.6308 41.3804C27.6994 42.5497 31.9953 46.7056 37.1552 46.8135C42.3152 46.9215 46.7031 42.7927 47.7742 41.7452C46.7057 40.5758 42.4098 36.42 37.2498 36.312C32.1786 36.1861 27.6778 40.2251 26.6308 41.3804Z" fill="black"/>
<path d="M42.1867 40.7752C41.8086 37.9839 39.2393 36.0276 36.448 36.4057C33.6567 36.7838 31.7004 39.3531 32.0785 42.1444C32.4566 44.9357 35.0259 46.892 37.8172 46.5139C40.6085 46.1358 42.5648 43.5665 42.1867 40.7752Z" fill="#F9D100"/>
<path d="M37.0769 47.0276C35.5653 47.0298 34.1711 46.4166 33.2123 45.3275C31.0962 43.0871 31.1196 39.5612 33.357 37.4356C35.5944 35.31 39.1233 35.3429 41.2489 37.5803C42.306 38.6483 42.8022 40.0959 42.7928 41.5063C42.795 43.018 42.1818 44.4121 41.0927 45.3709C39.9349 46.5408 38.5886 47.0255 37.0769 47.0276ZM37.2126 36.8175C35.9923 36.7786 34.7474 37.2518 33.8674 38.175C31.9882 39.944 31.9926 42.9674 33.7616 44.8466C34.5865 45.7476 35.7695 46.2921 37.0881 46.3099C38.3084 46.3487 39.5533 45.8756 40.4333 44.9524C41.3343 44.1276 41.8787 42.9445 41.8965 41.626C41.9354 40.4057 41.4622 39.1607 40.5391 38.2808C39.5949 37.3026 38.4088 36.7486 37.2126 36.8175Z" fill="black"/>
<path d="M61.2249 34.5704C61.0222 34.5934 60.9009 34.4118 60.7881 34.322C60.765 34.1194 60.8338 33.9082 61.0154 33.7869L69.3483 31.2484C69.5509 31.2254 69.762 31.2941 69.8834 31.4757C69.9064 31.6784 69.8376 31.8895 69.656 32.0108L61.3231 34.5493C61.3262 34.5589 61.2249 34.5704 61.2249 34.5704Z" fill="black"/>
<path d="M37.5385 16.8944C37.3358 16.9175 37.1132 16.7474 37.0722 16.456L37.21 7.75755C37.1869 7.5549 37.357 7.33225 37.6484 7.29122C37.8511 7.26817 38.0737 7.43826 38.1148 7.72966L37.9769 16.4281C38.021 16.729 37.8299 16.8534 37.5385 16.8944Z" fill="black"/>
<path d="M13.4983 33.8753L13.397 33.8868L5.13954 31.0658C4.92841 30.997 4.78299 30.7076 4.86127 30.4934C4.93003 30.2823 5.21943 30.1369 5.43361 30.2152L13.6911 33.0362C13.9022 33.105 14.0476 33.3944 13.9693 33.6086C13.7993 33.8312 13.5966 33.8542 13.4983 33.8753Z" fill="black"/>
<path d="M16.9467 69.0234C16.8454 69.0349 16.7356 68.9546 16.7356 68.9546C16.5129 68.7845 16.4803 68.5849 16.6599 68.3592L21.8701 61.3933C22.0402 61.1707 22.2398 61.1381 22.4655 61.3177C22.6881 61.4878 22.7207 61.6874 22.5411 61.9131L17.3309 68.879C17.2507 68.9888 17.0595 69.1132 16.9467 69.0234Z" fill="black"/>
<path d="M56.6832 69.595C56.5818 69.6065 56.472 69.5262 56.3592 69.4364L51.3623 62.3443C51.241 62.1627 51.2982 61.8503 51.4768 61.7194C51.6553 61.5886 51.9708 61.6553 52.1017 61.8339L57.0986 68.926C57.2199 69.1076 57.1626 69.42 56.9841 69.5509C56.8858 69.5719 56.7845 69.5834 56.6832 69.595Z" fill="black"/>
</svg>
