<svg width="206" height="237" viewBox="0 0 206 237" fill="none" xmlns="http://www.w3.org/2000/svg">
<path d="M203.4 176.2V60.1L102.8 2L2.19995 60.1V176.2L102.8 234.3L203.4 176.2Z" fill="#7ED9F7"/>
<path d="M203.6 60.2L168.7 172.6L203.6 176V60.2Z" fill="#27A6FD"/>
<path d="M102.5 58.2V2L203.4 60.1L102.5 58.2Z" fill="#A8F3F7"/>
<path d="M36.7999 172.6L102.8 234.3L168.7 172.6H36.7999Z" fill="#27A6FD"/>
<path d="M2.19995 176.2L36.8 172.6L97.0999 228.9L93.0999 228.7L2.19995 176.2Z" fill="#7ED9F7"/>
<path d="M2 60.2C2.2 60 36.9 172.5 36.9 172.5L2 176V60.2Z" fill="#A8F3F7"/>
<path d="M36.8 172.6L102.5 58.2L168.7 172.6H36.8Z" fill="#A8F3F7"/>
<path d="M203.4 176.2V60.1L102.8 2L2.19995 60.1V176.2L102.8 234.3L203.4 176.2Z" stroke="black" stroke-width="4" stroke-miterlimit="10" stroke-linecap="round" stroke-linejoin="round"/>
<path d="M203.6 60.2L168.7 172.6L203.6 176V60.2Z" stroke="black" stroke-width="4" stroke-miterlimit="10" stroke-linecap="round" stroke-linejoin="round"/>
<path d="M102.5 58.2V2L203.4 60.1L102.5 58.2Z" stroke="black" stroke-width="4" stroke-miterlimit="10" stroke-linecap="round" stroke-linejoin="round"/>
<path d="M36.7999 172.6L102.8 234.3L168.7 172.6H36.7999Z" stroke="black" stroke-width="4" stroke-miterlimit="10" stroke-linecap="round" stroke-linejoin="round"/>
<path d="M2.19995 176.2L36.8 172.6L97.0999 228.9L93.0999 228.7L2.19995 176.2Z" stroke="black" stroke-width="4" stroke-miterlimit="10" stroke-linecap="round" stroke-linejoin="round"/>
<path d="M2 60.2C2.2 60 36.9 172.5 36.9 172.5L2 176V60.2Z" stroke="black" stroke-width="4" stroke-miterlimit="10" stroke-linecap="round" stroke-linejoin="round"/>
<path d="M36.8 172.6L102.5 58.2L168.7 172.6H36.8Z" stroke="black" stroke-width="4" stroke-miterlimit="10" stroke-linecap="round" stroke-linejoin="round"/>
<path d="M2 60.2L102.5 58.2" stroke="black" stroke-width="4" stroke-miterlimit="10" stroke-linecap="round" stroke-linejoin="round"/>
<path d="M102.8 234.3L168.7 172.6L203.6 176L102.8 234.3Z" fill="black" stroke="black" stroke-width="4" stroke-miterlimit="10" stroke-linecap="round" stroke-linejoin="round"/>
<path d="M107.4 130.3H98.4V135.6H107.4V130.3Z" fill="black" stroke="black" stroke-miterlimit="10" stroke-linecap="round" stroke-linejoin="round"/>
<path d="M107.4 106.5H98.4V139.8H107.4V106.5Z" fill="#EB5640"/>
<path d="M107.4 106.5H98.4V135.5H107.4V106.5Z" stroke="black" stroke-width="4" stroke-miterlimit="10" stroke-linecap="round" stroke-linejoin="round"/>
<path d="M107.4 133.3H98.4V139.9H107.4V133.3Z" fill="black" stroke="black" stroke-width="4" stroke-miterlimit="10" stroke-linecap="round" stroke-linejoin="round"/>
<path d="M114.5 115.9C114.5 112.4 117.4 109.5 120.9 109.5C124.4 109.5 127.3 112.4 127.3 115.9" stroke="black" stroke-width="4" stroke-miterlimit="10" stroke-linecap="round" stroke-linejoin="round"/>
<path d="M96.2 91.4C96.2 87.9 99.0999 85 102.6 85C106.1 85 109 87.9 109 91.4" stroke="black" stroke-width="4" stroke-miterlimit="10" stroke-linecap="round" stroke-linejoin="round"/>
<path d="M78 115.9C78 112.4 80.9 109.5 84.4 109.5C87.9 109.5 90.8 112.4 90.8 115.9" stroke="black" stroke-width="4" stroke-miterlimit="10" stroke-linecap="round" stroke-linejoin="round"/>
<path d="M111.3 159.1H94.5C89.2 159.1 84.9 154.8 84.9 149.5C84.9 144.2 89.2 139.9 94.5 139.9H111.3C116.6 139.9 120.9 144.2 120.9 149.5C120.9 154.7 116.6 159.1 111.3 159.1Z" fill="#EB5640"/>
<path d="M111.3 159.1H94.5C89.2 159.1 84.9 154.8 84.9 149.5C84.9 144.2 89.2 139.9 94.5 139.9H111.3C116.6 139.9 120.9 144.2 120.9 149.5C120.9 154.7 116.6 159.1 111.3 159.1Z" stroke="black" stroke-width="4" stroke-miterlimit="10" stroke-linecap="round" stroke-linejoin="round"/>
<path d="M109.8 145.7H96.1C93.8 145.7 92 147.4 92 149.5C92 151.6 93.9 153.3 96.1 153.3H109.8C112.1 153.3 113.9 151.6 113.9 149.5C113.9 147.4 112.1 145.7 109.8 145.7Z" fill="black" stroke="black" stroke-miterlimit="10"/>
<path d="M124.9 139.9C119.6 145.2 119.6 153.7 124.9 159" stroke="black" stroke-width="4" stroke-miterlimit="10" stroke-linecap="round" stroke-linejoin="round"/>
<path d="M80.9 159C86.2 153.7 86.2 145.2 80.9 139.9" stroke="black" stroke-width="4" stroke-miterlimit="10" stroke-linecap="round" stroke-linejoin="round"/>
</svg>
